<svg width="554" height="597" viewBox="0 0 554 597" fill="none" xmlns="http://www.w3.org/2000/svg">
<path d="M34.0712 484.81C32.6212 475.65 32.6112 466.45 31.8812 457.29C31.0812 447.18 30.7312 437.04 29.5912 426.95C28.4612 416.87 27.7113 406.75 26.6913 396.66C26.1513 391.28 25.3513 385.92 24.7513 380.54C23.9613 373.55 23.0511 366.57 22.5511 359.56C21.8011 349.17 21.4111 338.76 20.7811 328.37C20.5311 324.19 20.0513 320.02 19.6713 315.84C19.5713 314.76 19.391 313.69 19.371 312.61C19.241 303.68 19.1011 294.76 19.0511 285.83C19.0211 279.58 20.2209 273.46 21.2909 267.32C21.8209 264.25 22.2711 261.18 22.7611 258.1C22.9211 257.08 22.5609 256.27 21.8109 255.54C18.6309 252.46 15.4812 249.37 12.3212 246.28C12.2212 246.18 12.1409 246.05 12.0209 246C9.55087 245.12 8.54095 242.96 7.35095 241.02C5.78095 238.46 4.22124 235.88 2.90124 233.19C1.44124 230.22 0.971337 226.97 1.00134 223.7C1.03134 221 1.18106 218.29 1.47106 215.6C1.85106 212.06 3.19099 208.77 4.89099 205.64C8.03099 199.86 11.7109 194.42 16.3509 189.62C21.5409 184.26 26.9613 179.13 32.7313 174.35C33.4813 173.73 34.2513 173.14 34.9813 172.5C35.6313 171.94 36.051 171.28 35.931 170.37C35.561 167.64 36.1911 165 36.7411 162.34C40.1711 145.7 46.7713 130.27 55.9413 115.81C60.8613 108.06 66.0613 100.5 71.7313 93.2397C78.1813 84.9697 85.4013 77.3998 93.7513 70.8498C99.8713 66.0598 105.841 61.0799 112.671 57.1799C113.031 56.9699 113.391 56.7299 113.671 56.4399C114.071 56.0099 114.181 55.4699 113.841 54.9499C113.391 54.2699 112.901 53.5999 112.391 52.9599C110.331 50.3699 109.551 47.3999 109.651 44.1999C109.831 38.1499 111.461 32.4599 114.531 27.1699C114.731 26.8199 115.051 26.5397 115.331 26.2397C115.761 25.7897 116.851 25.7998 117.231 26.3098C117.721 26.9598 118.131 27.6698 118.561 28.3598C119.201 29.3998 119.761 30.4997 120.491 31.4797C121.171 32.3897 122.541 32.6197 123.541 32.0097C124.481 31.4297 125.431 30.7997 126.191 30.0297C130.751 25.4097 135.401 20.8799 138.541 15.1599C139.581 13.2599 140.901 11.4697 142.251 9.7397C144.051 7.4197 146.401 5.71984 149.221 4.62984C156.401 1.85984 163.851 0.689777 171.591 1.06978C175.361 1.25978 178.801 2.36973 181.951 4.26973C188.771 8.37973 193.011 14.1899 194.201 21.8999C194.651 24.8399 194.941 27.7997 195.331 30.7497C195.381 31.1397 195.581 31.5097 195.751 31.9997C196.551 32.1397 197.401 32.2099 198.191 32.4199C201.281 33.2599 202.731 35.4898 202.401 38.5798C202.231 40.2098 201.611 41.7297 200.511 43.0297C199.481 44.2297 198.301 45.0097 196.551 45.0097C195.171 45.0097 194.851 45.3998 194.531 46.5698C193.911 48.7898 193.431 51.0499 192.631 53.2099C188.801 63.5099 181.361 70.5797 170.841 74.5397C165.941 76.3797 160.721 76.9498 155.431 76.1098C153.321 75.7798 151.341 75.0998 149.461 74.1198C146.721 72.6898 144.161 71.0199 141.701 69.1899C139.871 67.8299 138.511 66.1498 137.601 64.1198C136.431 61.4998 135.361 58.8697 135.011 56.0097C134.901 55.0697 134.681 54.1497 134.481 53.2197C134.361 52.6797 133.711 52.2799 133.221 52.4499C132.431 52.7299 131.631 53.0098 130.861 53.3498C127.271 54.9398 123.691 56.5299 120.121 58.1599C115.771 60.1499 111.691 62.5699 107.901 65.4099C104.671 67.8199 101.501 70.2997 98.3011 72.7497C89.3311 79.6497 81.531 87.6199 74.681 96.4599C68.871 103.96 63.4212 111.68 58.3812 119.68C49.6112 133.6 43.5812 148.52 40.3412 164.47C40.2112 165.13 40.0811 165.8 40.0511 166.47C40.0311 166.85 40.1112 167.33 40.3612 167.59C40.8112 168.06 41.3912 167.79 41.8612 167.51C42.5812 167.08 43.2713 166.62 43.9813 166.16C51.3913 161.38 59.3313 157.6 67.6913 154.58C72.5713 152.82 77.3809 150.86 82.2709 149.1C87.6809 147.15 93.1409 145.31 98.5809 143.44C99.5109 143.12 100.461 142.86 101.391 142.53C102.121 142.26 102.511 141.67 102.451 140.94C102.281 138.92 102.081 136.9 101.811 134.89C101.481 132.48 101.041 130.08 100.711 127.67C100.641 127.16 100.801 126.62 100.891 126.1C100.911 126 101.061 125.85 101.161 125.85C101.421 125.83 101.791 125.79 101.921 125.92C102.291 126.3 102.691 126.73 102.841 127.22C103.411 129.03 103.881 130.87 104.381 132.69C104.991 134.91 105.561 137.14 106.211 139.36C106.551 140.52 107.301 140.98 108.401 140.74C111.011 140.17 113.651 139.66 116.211 138.91C120.541 137.64 124.911 136.62 129.361 135.87C135.191 134.88 140.991 133.67 146.821 132.65C150.151 132.07 153.511 131.64 156.861 131.25C162.601 130.59 168.381 130.22 174.101 129.34C175.631 129.11 177.181 128.98 178.731 128.94C184.091 128.81 189.461 128.74 194.821 128.65C195.951 128.63 197.091 128.68 198.211 128.55C203.421 127.96 208.641 128.21 213.861 128.3C215.971 128.33 218.091 128.22 220.211 128.13C220.761 128.11 221.301 127.94 221.761 127.85C221.971 127.52 222.211 127.3 222.241 127.06C222.651 123.3 223.011 119.53 223.421 115.76C223.771 112.54 224.151 109.31 224.561 106.1C224.591 105.89 224.881 105.64 225.111 105.56C225.241 105.52 225.611 105.76 225.661 105.92C225.911 106.83 226.171 107.75 226.281 108.68C226.421 109.89 226.461 111.11 226.481 112.33C226.551 115.71 226.591 119.09 226.661 122.47C226.701 124.22 226.661 125.97 227.121 127.84C228.091 128.01 229.041 128.27 230.001 128.31C234.651 128.52 239.311 128.71 243.971 128.82C244.931 128.84 246.031 128.77 246.831 128.33C250.731 126.17 254.591 123.95 258.131 121.63C258.641 120.14 257.411 119.43 257.231 118.38C257.061 117.46 256.701 116.56 256.381 115.66C255.251 112.46 254.081 109.27 252.971 106.06C251.861 102.84 250.461 99.7498 248.701 96.7998C247.861 95.3898 247.041 93.9697 246.301 92.5097C241.431 82.9297 234.961 74.4597 227.051 66.9897C225.541 65.5697 224.101 64.0798 222.611 62.6398C216.951 57.1598 210.421 53.0399 202.611 50.9299C201.121 50.5299 199.661 50.0297 197.861 49.4697C198.431 49.1397 198.751 48.7898 199.041 48.8098C201.011 48.9598 202.981 49.1099 204.941 49.3999C208.591 49.9299 212.131 50.8698 215.371 52.5898C217.461 53.6998 219.611 54.7899 221.491 56.1999C228.621 61.5299 235.521 67.1198 241.311 73.8298C243.111 75.9098 244.951 77.9698 246.631 80.1398C252.461 87.6698 257.371 95.6799 260.441 104.66C261.841 108.76 263.361 112.82 264.761 116.73C265.701 117.33 266.331 116.89 266.901 116.57C269.091 115.34 271.251 114.05 273.431 112.8C279.491 109.33 285.521 105.81 291.631 102.44C297.761 99.0499 304.241 96.3798 311.011 94.3698C314.131 93.4398 317.301 92.9097 320.591 92.9897C324.731 93.0897 327.971 94.6998 330.151 98.0498C333.541 103.27 336.041 108.82 336.681 115.02C336.821 116.37 336.911 117.72 337.131 119.05C337.271 119.9 336.731 121.24 337.981 121.45C339.031 121.62 339.461 120.36 340.001 119.62C345.541 111.85 352.591 105.41 359.651 98.9797C360.371 98.3297 361.121 97.7099 361.911 97.1499C367.661 92.9999 373.421 88.8597 379.191 84.7297C381.801 82.8597 384.641 81.3698 387.641 80.1298C389.711 79.2698 391.761 78.3499 393.811 77.4499C395.991 76.4899 398.201 75.5899 400.581 75.1699C400.721 75.1499 400.861 75.1298 400.991 75.0798C407.831 72.7698 407.691 73.6899 406.961 66.2099C406.081 65.6999 405.091 65.1898 404.181 64.5798C401.581 62.8198 400.221 60.4398 400.361 57.3298C400.461 54.9798 401.211 52.8197 402.391 50.7897C402.661 50.3297 403.111 49.9598 403.531 49.5998C404.081 49.1298 405.381 49.0698 405.911 49.5498C406.621 50.1998 407.221 50.9598 407.891 51.6398C408.071 51.8198 408.441 52.0397 408.591 51.9697C408.941 51.8097 409.381 51.5297 409.461 51.2197C409.881 49.6497 410.211 48.0597 410.541 46.4697C410.721 45.6297 410.551 44.8599 409.941 44.1999C408.071 42.2099 408.351 39.9199 409.161 37.6999C410.371 34.3599 412.991 32.0899 415.951 30.1499C416.181 29.9999 416.471 29.8498 416.731 29.8598C418.781 29.9698 420.051 28.7898 421.431 27.5598C423.891 25.3598 426.951 24.3698 430.281 24.1298C433.561 23.8998 436.831 24.1698 439.911 25.1398C451.121 28.6798 458.861 35.5697 461.901 46.7797C462.831 50.2097 463.041 53.7197 463.051 57.2397C463.051 58.0497 463.051 58.8599 463.021 59.6699C462.951 61.9799 463.061 63.1899 465.961 61.4099C466.191 61.2699 466.471 61.1798 466.731 61.0798C467.831 60.6598 469.021 60.9799 469.721 61.9099C470.661 63.1499 471.081 64.5698 471.151 66.0798C471.361 70.8798 467.851 75.0599 462.901 75.9199C461.941 76.0899 460.971 76.2098 459.821 76.3798C459.171 77.6998 458.511 79.0198 457.971 80.0998C458.191 81.0998 458.771 81.0499 459.321 81.1499C464.501 82.0699 469.211 84.2799 474.031 86.1699C475.211 86.6299 476.341 87.1799 477.511 87.6599C479.991 88.6899 482.211 90.0999 484.321 91.7099C494.371 99.4099 503.721 107.83 512.631 116.72C516.251 120.33 519.781 124 522.931 128.02C529.081 135.86 534.081 144.22 537.341 153.58C539.621 160.11 542.251 166.54 544.401 173.12C548.121 184.51 550.541 196.14 551.861 208.02C552.651 215.17 553.061 222.32 552.621 229.48C551.911 241.02 549.551 252.26 545.011 263.01C543.091 267.56 540.171 271.55 537.391 275.63C536.771 276.53 536.101 277.41 535.541 278.35C535.051 279.17 534.681 280.05 534.241 280.95C534.491 281.87 534.691 282.79 534.991 283.69C535.951 286.54 536.451 289.45 536.621 292.45C536.751 294.74 537.051 297.03 537.411 299.3C538.131 303.82 537.521 308.19 536.101 312.5C534.501 317.34 531.801 321.58 528.401 325.43C527.601 326.34 526.601 326.68 525.411 326.65C523.761 326.61 522.461 325.81 521.221 324.89C519.891 323.89 518.571 322.88 517.241 321.89C516.971 321.69 516.291 322.02 516.261 322.36C516.221 322.76 516.141 323.17 516.171 323.56C516.271 325.04 516.381 326.53 516.551 328.01C517.251 333.94 517.221 339.89 517.101 345.84C517.071 347.46 516.481 348.73 515.011 349.57C514.071 350.1 513.731 350.92 513.671 351.94C513.251 359.53 511.591 366.94 510.161 374.38C508.781 381.56 507.491 388.75 505.991 395.91C504.241 404.28 503.301 412.73 502.441 421.22C501.581 429.69 500.411 438.14 498.841 446.53C497.731 452.52 496.551 458.49 495.401 464.47C495.321 464.87 495.191 465.26 495.171 465.67C494.871 472.31 492.881 478.73 492.361 485.35C492.321 485.89 492.251 486.44 492.071 486.94C491.351 488.98 491.591 490.53 493.921 491.54C495.191 492.09 495.621 493.47 495.121 494.7C493.761 498.01 493.711 501.57 492.771 504.96C491.831 508.35 491.321 511.85 490.601 515.29C490.271 516.88 489.911 518.47 489.521 520.04C488.211 525.3 486.891 530.55 485.571 535.81C484.611 539.64 484.021 543.51 484.021 547.45C484.021 551.26 483.381 554.98 482.291 558.65C481.831 560.2 481.641 561.82 481.351 563.42C481.121 564.66 481.721 565.52 482.831 566.05C485.761 567.47 488.411 569.26 490.601 571.59C491.821 572.89 492.971 574.28 493.921 575.77C495.801 578.72 495.871 581.92 494.871 585.17C494.391 586.7 493.321 587.71 491.701 588.17C491.431 588.25 491.161 588.39 490.891 588.4C487.081 588.56 483.391 589.68 479.551 589.56C477.291 589.49 475.031 589.46 472.771 589.53C470.381 589.61 467.981 589.78 465.601 589.99C461.801 590.33 458.051 590.32 454.221 589.82C449.201 589.17 444.131 588.64 439.041 588.72C436.361 588.76 433.671 588.77 430.991 588.69C429.171 588.64 428.551 588.04 428.021 586.36C427.621 585.08 426.971 583.83 426.801 582.52C426.561 580.65 426.601 578.74 426.621 576.85C426.641 574.28 426.771 571.71 426.831 569.14C427.151 555.21 426.871 541.28 426.381 527.36C426.251 523.72 426.031 520.07 425.221 516.48C424.891 515.04 424.691 513.52 424.761 512.05C425.051 506.36 423.791 500.73 424.111 495.04C424.141 494.51 423.981 493.97 423.941 493.43C423.851 492.13 424.021 491.86 425.391 491.33C426.171 491.02 426.971 490.77 427.801 490.47C427.941 490.09 428.161 489.72 428.181 489.35C428.601 480.97 429.041 472.6 429.371 464.22C429.831 452.73 429.781 441.23 429.031 429.75C428.781 425.96 428.861 422.19 428.941 418.4C429.111 411.23 429.191 404.06 429.081 396.9C429.001 392.04 428.591 387.18 428.221 382.32C428.101 380.71 427.701 379.12 427.351 377.53C427.131 376.53 426.241 376.09 425.091 376.14C423.061 376.23 421.521 377.1 420.761 378.88C419.631 381.5 418.471 384.13 417.661 386.85C415.101 395.43 412.681 404.04 410.251 412.65C408.041 420.49 406.561 428.48 405.301 436.5C403.021 450.95 399.961 465.24 396.291 479.42C395.651 481.91 395.101 484.43 394.531 486.94C394.481 487.18 394.601 487.46 394.641 487.74C395.061 488.56 396.031 488.57 396.721 489.01C398.261 489.98 398.931 491.23 398.371 492.79C396.171 498.83 396.021 505.27 394.291 511.4C393.221 515.18 392.491 519.04 391.641 522.87C390.551 527.76 389.451 532.65 388.401 537.54C388.061 539.13 387.801 540.74 387.621 542.35C387.211 545.98 386.981 549.63 386.481 553.25C386.151 555.65 385.741 558.09 384.931 560.37C383.461 564.51 382.761 568.76 382.261 573.06C381.931 575.88 381.711 578.72 381.431 581.54C381.361 582.21 381.321 582.9 381.141 583.54C380.871 584.49 380.291 585.21 379.211 585.5C374.611 586.77 370.001 587.89 365.171 588.09C362.921 588.18 360.681 588.55 358.441 588.78C355.911 589.04 353.391 589.02 350.841 588.75C347.751 588.42 344.641 588.55 341.551 588.99C336.921 589.65 332.281 589.66 327.621 589.14C325.251 588.88 322.831 588.89 320.441 588.83C318.301 588.78 316.211 588.54 314.281 587.6C313.651 587.3 313.021 586.98 312.451 586.59C311.231 585.76 310.601 584.61 310.551 583.14C310.431 579.21 311.971 576.01 315.181 573.6C316.851 572.35 318.631 571.24 320.421 570.16C322.951 568.63 325.281 566.91 326.991 564.51C327.391 563.96 327.851 563.42 328.371 562.97C330.341 561.28 330.801 559.08 330.721 556.7C330.691 555.76 330.531 554.82 330.441 553.87C330.131 550.49 330.181 547.14 330.531 543.75C330.951 539.72 330.911 535.65 331.091 531.6C331.191 529.31 331.351 527.01 331.491 524.72C331.531 524.05 331.641 523.37 331.651 522.7C331.691 512.68 333.041 502.74 333.571 492.75C333.671 490.86 333.921 488.98 334.181 487.1C334.271 486.46 334.421 485.66 334.861 485.25C335.921 484.28 335.981 483.15 335.931 481.91C335.631 474.18 336.411 466.51 337.401 458.86C337.941 454.7 338.521 450.55 339.021 446.38C339.211 444.77 339.301 443.14 339.281 441.52C339.171 432.31 340.201 423.15 340.701 413.97C340.791 412.35 340.901 410.73 341.011 409.11C341.251 405.6 341.511 402.1 341.721 398.59C341.861 396.3 341.951 394 342.021 391.7C342.151 387.78 342.261 383.86 342.361 379.94C342.511 374.12 343.341 368.35 343.871 362.56C344.101 360.14 344.211 357.7 344.431 355.28C344.681 352.59 345.001 349.91 345.271 347.22C345.391 345.99 345.041 345.49 343.811 345.13C342.591 344.78 341.341 344.53 340.141 344.16C338.081 343.51 336.761 342.29 336.801 340.02C336.871 336.11 336.511 332.17 337.491 328.3C337.621 327.78 337.691 327.23 337.701 326.69C337.871 318.93 340.071 311.46 341.381 303.87C341.471 303.34 341.701 302.83 341.791 302.3C342.261 299.42 342.141 299.07 339.371 298.02C335.301 296.48 331.261 294.87 327.201 293.31C325.931 292.82 325.191 293.07 324.901 294.22C323.821 298.6 320.601 300.36 316.271 300.65C313.741 300.82 311.191 300.79 308.651 300.74C307.831 300.72 306.911 300.55 306.231 300.15C302.901 298.14 299.221 298.43 295.621 298.7C292.821 298.91 290.061 299.58 287.291 300.11C277.041 302.07 266.751 303.71 256.351 304.72C252.991 305.05 249.651 305.62 246.311 306.15C245.811 306.23 245.281 306.6 244.921 306.97C244.151 307.76 243.501 308.65 242.771 309.48C241.271 311.2 239.381 312.29 237.091 312.78C235.151 313.2 233.221 313.49 231.221 313.46C227.961 313.4 224.761 312.97 221.611 312.14C219.771 311.65 218.271 310.79 217.391 309.05C217.041 308.35 216.421 307.75 215.821 307.21C215.081 306.54 214.131 306.18 213.091 306.37C206.081 307.63 199.011 306.92 191.961 306.99C191.401 306.99 190.841 307.06 190.271 307.1C189.791 307.14 189.251 307.8 189.321 308.25C189.341 308.38 189.341 308.52 189.381 308.65C191.251 315.79 191.401 323.09 191.661 330.39C192.031 340.66 192.691 350.92 193.111 361.19C193.361 367.27 193.441 373.36 193.501 379.44C193.571 386.61 193.571 393.78 193.561 400.94C193.561 405.54 193.461 410.13 193.401 414.73C193.331 419.87 193.261 425.01 193.171 430.15C193.141 431.77 193.061 433.39 192.981 435.01C192.821 438.52 192.641 442.04 192.491 445.55C192.321 449.6 192.191 453.66 192.001 457.71C191.751 462.99 191.831 468.26 192.341 473.52C192.471 474.9 192.741 476.18 193.781 477.23C194.691 478.16 195.001 479.32 195.121 480.57C195.661 486.5 196.691 492.38 196.811 498.34C196.831 499.42 197.021 500.49 197.101 501.57C197.301 504.26 197.551 506.96 197.661 509.66C197.841 514.25 197.931 518.85 198.061 523.45C198.081 524.26 198.171 525.07 198.141 525.88C197.891 531.28 197.651 536.69 197.341 542.09C196.931 549.38 196.451 556.67 196.061 563.96C195.991 565.3 196.131 566.66 196.321 568C196.481 569.11 197.081 569.95 198.301 570.39C203.591 572.32 208.441 575.12 213.451 577.58C214.571 578.13 215.611 578.86 216.631 579.58C218.531 580.91 219.681 582.77 220.371 584.87C221.561 588.47 219.551 592.36 215.881 593.83C213.501 594.78 211.081 595.33 208.471 595.14C204.531 594.86 200.591 594.61 196.641 594.53C188.311 594.36 179.991 594.38 171.721 595.64C166.961 596.36 162.141 596.08 157.351 595.77C153.691 595.53 150.031 595.3 146.371 595.12C144.531 595.03 142.701 594.94 140.941 594.38C139.621 593.96 138.741 593.14 138.611 591.78C138.451 590.15 137.911 588.63 137.371 587.08C136.791 585.43 136.491 583.67 136.211 581.94C135.101 575.13 134.021 568.31 132.971 561.49C132.621 559.22 132.301 556.93 132.101 554.64C131.721 550.33 131.301 546.02 131.141 541.7C130.941 536.54 129.991 531.5 128.931 526.46C127.511 519.7 126.101 512.94 124.831 506.16C124.231 502.97 123.821 499.74 123.611 496.5C123.391 492.98 122.901 489.5 122.251 486.04C121.871 484 121.701 482.01 122.481 480.04C122.901 478.98 122.871 477.95 122.611 476.86C120.761 469.17 120.841 461.28 119.961 453.49C119.511 449.46 119.111 445.42 118.681 441.38C118.331 438.15 117.861 434.93 117.641 431.7C117.041 422.79 115.931 413.93 115.581 405C115.401 400.41 114.761 395.84 114.391 391.26C114.001 386.41 113.551 381.55 113.361 376.69C113.111 370.18 112.161 363.77 111.151 357.35C110.571 353.61 109.851 349.89 109.191 346.16C108.351 341.44 106.191 337.16 104.351 332.78C103.931 331.77 103.251 330.92 102.281 330.27C101.131 329.5 99.9513 329.85 99.7513 331.11C99.6413 331.78 99.5509 332.45 99.5409 333.12C99.5409 334.61 99.4912 336.1 99.6312 337.58C100.191 343.52 99.9711 349.47 100.051 355.42C100.181 364.62 100.481 373.81 100.691 383C100.741 385.3 100.791 387.6 100.691 389.89C100.441 395.29 100.081 400.69 99.8011 406.1C99.7211 407.58 99.7113 409.08 99.7313 410.56C99.8613 422.87 100.031 435.18 100.141 447.48C100.221 456.27 100.201 465.06 100.311 473.86C100.341 476.01 100.691 478.16 100.901 480.31C101.011 481.43 101.431 482.32 102.451 483.04C104.141 484.23 104.531 485.86 103.641 487.71C103.211 488.62 103.271 489.54 103.471 490.49C104.601 496.09 104.431 501.81 105.261 507.43C106.351 514.83 106.141 522.27 106.201 529.71C106.221 532.01 106.201 534.31 106.301 536.61C106.571 543.64 106.501 550.67 106.151 557.7C106.081 559.19 106.111 560.68 106.061 562.16C105.981 564.51 106.981 566.39 108.921 567.75C110.391 568.79 111.951 569.73 113.561 570.56C117.161 572.42 120.801 574.22 124.451 575.99C127.011 577.23 129.261 578.81 130.961 581.05C133.091 583.85 133.771 586.87 132.621 590.25C132.191 591.53 131.461 592.41 130.211 592.86C129.161 593.23 128.071 593.62 126.971 593.73C123.881 594.03 120.791 594.33 117.691 594.37C108.661 594.5 99.6212 594.45 90.5912 594.59C86.2212 594.66 81.8411 594.88 77.4911 595.23C74.1011 595.5 70.7312 595.56 67.3412 595.43C64.6612 595.32 61.9811 595.2 59.3011 595.12C57.4411 595.06 55.6413 594.69 53.9413 594.03C51.8013 593.2 50.4611 591.66 50.5311 589.36C50.6411 586.1 49.5411 582.99 49.4911 579.73C49.4411 576.51 48.7909 573.28 48.2909 570.07C47.8509 567.27 47.2411 564.48 46.7211 561.69C46.1711 558.76 45.5412 555.85 45.1112 552.91C44.1212 546.21 42.4512 539.64 40.8212 533.07C39.9712 529.65 39.0409 526.25 38.0409 522.88C35.4309 514.02 33.3312 505.07 31.8812 495.96C31.5812 494.1 31.1409 492.25 30.5609 490.45C30.2109 489.36 30.0113 488.36 30.4613 487.31C30.9313 486.22 31.8711 485.69 33.0311 485.4C33.4011 485.31 33.7012 485 34.0912 484.75L34.0712 484.81ZM382.411 296.6C381.311 296.41 380.141 296.39 379.121 296.01C376.631 295.08 374.181 294.04 371.761 292.94C367.561 291.03 363.431 288.97 359.201 287.12C356.511 285.95 353.691 285.07 350.931 284.05C349.981 283.7 349.041 283.63 348.041 283.9C342.191 285.45 336.421 287.21 330.741 289.25C330.371 289.38 330.011 289.65 329.741 289.94C329.621 290.08 329.641 290.58 329.741 290.63C330.741 291.09 331.751 291.59 332.811 291.9C341.831 294.58 350.701 297.68 359.591 300.75C367.541 303.5 375.611 305.93 383.641 308.48C386.321 309.33 389.101 309.82 391.891 310.19C393.891 310.46 395.841 310.25 397.751 309.76C400.681 309 402.061 307.42 402.101 304.54C402.131 302.8 402.011 301.01 401.641 299.31C401.061 296.67 400.321 294.06 399.431 291.5C397.521 285.97 395.941 280.38 395.151 274.6C395.061 273.94 394.871 273.27 394.571 272.67C394.421 272.36 393.951 272 393.631 272C392.651 272.01 391.651 272.08 390.701 272.31C385.651 273.55 380.611 274.84 375.581 276.13C375.191 276.23 374.831 276.47 374.491 276.63C374.391 277.28 374.621 277.73 375.171 278C376.791 278.82 378.441 279.59 380.031 280.46C382.471 281.79 385.031 282.97 386.801 285.18L386.661 285.34C383.201 285.14 380.151 283.77 377.201 282.19C375.121 281.08 373.111 279.83 371.111 278.59C370.101 277.96 369.091 277.75 367.921 278.08C364.021 279.18 360.111 280.25 356.211 281.36C355.561 281.55 354.971 281.92 354.291 282.23C354.651 283.06 355.221 283.4 355.871 283.63C363.021 286.11 369.681 289.6 376.421 292.9C378.521 293.93 380.721 294.88 382.331 296.64L382.411 296.57V296.6ZM312.171 110.05H312.121C307.221 113.74 301.911 116.81 296.421 119.59C289.441 123.13 282.411 126.57 275.401 130.06C274.151 130.68 272.911 131.33 271.721 132.05C271.431 132.22 271.351 132.72 271.111 133.17C273.541 134.46 276.131 135.1 278.651 135.9C279.361 136.13 280.061 135.97 280.621 135.48C282.521 133.8 284.851 132.82 287.161 131.81C294.881 128.45 302.851 125.76 310.971 123.46C312.451 123.04 314.001 122.84 315.541 122.66C316.041 122.6 316.621 122.88 317.111 123.09C317.251 123.15 317.351 123.64 317.251 123.76C316.911 124.17 316.531 124.64 316.051 124.83C314.241 125.57 312.401 126.26 310.541 126.89C303.371 129.33 296.181 131.73 289.001 134.17C287.541 134.67 286.111 135.24 284.691 135.84C284.371 135.98 283.981 136.4 283.991 136.68C283.991 136.97 284.391 137.43 284.711 137.52C288.491 138.62 292.281 139.67 296.071 140.72C297.051 140.99 298.011 140.99 298.961 140.55C299.601 140.26 300.251 139.99 300.911 139.77C305.711 138.18 310.511 136.61 315.311 135.03C316.391 134.67 317.511 134.4 318.621 134.77C319.101 134.93 319.691 135.35 319.831 135.77C319.961 136.19 319.721 136.86 319.401 137.23C318.581 138.21 317.401 138.71 316.171 139.04C313.191 139.85 310.191 140.62 307.211 141.43C306.681 141.57 306.171 141.79 305.661 142C305.561 142.04 305.441 142.22 305.461 142.31C305.501 142.55 305.551 142.91 305.721 143C306.201 143.26 306.731 143.46 307.271 143.59C313.161 145.11 318.701 147.42 324.121 150.06C325.001 150.49 325.911 150.84 326.831 151.19C327.371 151.4 328.061 151.1 328.251 150.62C328.991 148.7 329.311 146.71 329.301 144.66C329.301 143.18 329.241 141.65 329.571 140.22C330.971 134.11 331.101 127.88 331.541 121.69C332.061 114.32 329.931 107.53 326.371 101.07C324.841 98.2898 322.481 96.9399 319.261 96.7099C316.111 96.4899 313.081 96.9899 310.111 97.9499C303.951 99.9499 298.051 102.49 292.351 105.49C279.251 112.4 266.651 120.12 253.761 127.38C253.281 127.65 252.831 127.99 252.431 128.36C252.251 128.52 252.241 128.84 252.091 129.24C252.611 129.4 253.111 129.61 253.631 129.71C257.221 130.43 260.811 131.11 264.401 131.83C265.721 132.1 266.851 131.86 268.021 131.19C271.171 129.39 274.341 127.63 277.581 125.98C284.051 122.68 290.551 119.43 297.091 116.24C300.731 114.46 304.451 112.84 308.171 111.2C309.441 110.64 310.711 110 312.181 110.03L312.171 110.05ZM187.601 14.9997L187.651 15.0397C187.281 14.1697 186.941 13.2799 186.531 12.4299C184.661 8.56988 181.641 5.8698 177.491 4.3398C174.711 3.3198 171.821 2.73985 168.851 2.63985C162.701 2.41985 156.821 3.69982 151.041 5.60982C147.111 6.89982 144.161 9.25984 142.061 12.6298C140.901 14.4798 139.901 16.4297 138.751 18.2897C137.821 19.7997 136.951 21.3799 135.781 22.7099C133.141 25.6999 130.381 28.5999 127.571 31.4499C126.621 32.4199 125.441 33.2299 124.241 33.9099C122.551 34.8699 120.531 34.5298 119.231 33.1198C118.491 32.3198 117.951 31.3499 117.341 30.4499C117.021 29.9799 116.641 29.6199 115.821 29.6899C115.591 30.2299 115.261 30.8199 115.061 31.4499C113.101 37.6599 113.671 43.4397 118.261 48.5297C119.091 49.4497 119.781 50.4699 120.521 51.4599C121.401 52.6299 121.911 52.8097 123.381 52.2797C126.151 51.2897 128.911 50.2497 131.681 49.2597C132.721 48.8897 133.781 48.5698 134.581 48.3098C136.001 45.0598 137.271 42.0698 138.601 39.0998C139.031 38.1498 138.981 37.2598 138.531 36.3698C137.381 34.0498 137.891 31.8798 139.191 29.8098C139.911 28.6598 140.741 27.5597 141.601 26.4897C141.931 26.0797 142.451 25.7997 142.941 25.5397C143.121 25.4397 143.521 25.5099 143.681 25.6499C143.811 25.7599 143.851 26.1598 143.741 26.3198C142.661 27.8998 141.491 29.4197 140.451 31.0297C139.761 32.0997 139.611 33.3098 140.001 34.5498C140.151 35.0298 140.781 35.4698 141.291 35.3398C141.961 35.1598 142.601 34.8497 143.271 34.7397C144.041 34.6097 144.901 35.3599 145.061 36.1499C145.251 37.1399 144.711 38.1999 143.761 38.4099C142.811 38.6199 141.801 38.5798 140.861 38.7998C140.371 38.9198 139.741 39.2699 139.551 39.6699C137.891 43.2699 136.501 46.9497 136.721 50.9797C136.971 55.6697 138.501 59.9897 141.031 63.9797C141.531 64.7797 142.191 65.5298 142.921 66.1398C145.701 68.4498 148.751 70.4098 152.151 71.7998C153.301 72.2698 154.561 72.6497 155.801 72.7797C163.051 73.5397 169.861 72.3398 175.971 68.3398C181.441 64.7698 185.671 60.1899 188.601 54.4399C191.241 49.2699 192.791 43.8299 193.441 38.1599C193.651 36.2999 193.691 34.3397 193.331 32.5097C192.481 28.1297 191.361 23.7999 190.321 19.4599C189.901 17.7199 189.191 16.1097 187.591 15.0197L187.601 14.9997ZM478.211 148.23C478.771 149.15 479.421 150.03 479.861 151C482.331 156.45 484.751 161.92 487.191 167.39C487.251 167.51 487.281 167.65 487.341 167.77C487.851 168.91 488.581 169.03 489.601 168.08C490.511 167.23 491.381 166.35 492.251 165.46C494.081 163.59 495.931 161.72 497.731 159.82C502.941 154.31 508.111 148.77 513.331 143.27C514.751 141.77 516.291 140.38 517.781 138.95C519.341 137.46 521.091 136.96 523.151 138C524.271 138.56 525.391 139.11 526.541 139.61C526.831 139.74 527.211 139.66 527.641 139.68C527.341 137.95 526.391 136.76 525.471 135.58C523.441 132.99 521.381 130.42 519.331 127.84C518.131 126.33 516.771 124.99 515.191 123.81C512.051 121.49 509.521 118.57 506.941 115.71C505.471 114.08 503.971 112.45 502.351 110.95C500.221 108.98 497.901 107.2 495.761 105.24C491.861 101.69 487.781 98.3899 482.861 96.1699C482.481 95.9999 482.151 95.7297 481.781 95.5397C479.421 94.3297 477.091 93.0599 474.681 91.9499C468.961 89.3299 463.201 86.7897 457.461 84.2197C456.551 83.8097 455.921 83.9497 455.271 84.7597C454.761 85.3997 454.311 86.0997 453.781 86.7297C449.011 92.3697 443.021 96.1997 435.641 97.9797C433.821 98.4197 432.031 98.4297 430.201 98.0397C427.011 97.3497 424.001 96.2398 421.071 94.8798C417.531 93.2398 414.771 90.8097 412.831 87.5397C412.001 86.1297 411.251 84.6799 410.541 83.1999C409.731 81.4999 409.011 79.7497 408.251 78.0197C406.031 77.4297 404.231 78.8699 402.181 79.1599C390.731 80.8199 381.441 85.5499 372.341 92.2099C360.391 100.94 348.391 114.22 338.691 125.39C337.381 126.9 336.821 128.64 336.691 130.61C336.501 133.44 336.111 136.25 335.761 139.07C335.491 141.21 335.151 143.33 335.201 145.52C335.241 147.39 334.751 149.27 334.481 151.14C334.381 151.81 334.201 152.46 334.101 153.13C333.971 154.02 334.321 154.74 335.161 155.15C337.671 156.37 340.201 157.58 342.731 158.76C343.381 159.06 344.091 159.11 344.781 158.81C345.291 158.59 345.801 158.35 346.301 158.11C358.931 152.05 372.001 146.98 385.201 142.21C388.361 141.07 391.611 140.15 394.841 139.18C395.771 138.9 396.761 138.73 397.741 138.65C400.521 138.41 402.711 139.43 404.161 141.74C404.741 142.66 405.271 143.63 405.691 144.63C406.431 146.38 407.121 148.16 407.731 149.95C409.231 154.33 410.001 158.86 410.581 163.43C411.241 168.69 411.311 173.93 410.561 179.19C409.931 183.6 409.471 188.04 408.921 192.46C408.791 193.5 409.091 194.32 410.071 194.86C410.811 195.26 411.531 195.69 412.291 196.03C416.771 198.01 421.261 199.96 425.751 201.93C427.061 202.5 428.441 202.7 429.861 202.8C434.251 203.09 438.211 201.7 442.031 199.89C446.581 197.74 451.081 195.48 455.581 193.24C457.211 192.43 458.851 191.63 460.371 190.66C466.141 187.01 471.821 183.23 477.111 178.95C478.941 177.47 480.721 175.95 482.441 174.1C480.941 169.56 480.531 164.85 480.211 160.14C480.071 158.11 479.761 156.12 479.351 154.13C478.941 152.15 478.071 150.24 478.301 148.16L478.221 148.24L478.211 148.23ZM485.231 242.13C490.221 244.01 495.291 245.63 500.501 246.9C504.591 247.9 508.691 248.98 512.511 250.79C512.761 250.91 513.031 250.99 513.301 251.08C513.891 251.28 514.531 250.81 514.381 250.26C514.141 249.34 513.881 248.43 513.591 247.53C512.501 244.11 512.021 240.66 512.951 237.14C513.431 235.31 513.841 233.45 514.471 231.67C515.411 228.98 516.511 226.34 517.541 223.68C517.641 223.43 517.771 223.19 517.871 222.93C518.221 222 517.721 221.24 516.771 221.24C516.211 221.24 515.641 221.26 515.081 221.3C511.991 221.54 508.901 221.82 505.801 222.02C504.271 222.12 502.721 222.22 500.471 221.68C502.131 221.09 503.201 220.88 504.261 220.67C508.961 219.77 513.671 218.86 518.381 218.01C519.591 217.79 520.491 217.31 520.961 216.19C521.121 215.82 521.331 215.46 521.501 215.09C523.751 210.12 525.561 205 527.181 199.82C527.741 198.02 528.101 196.12 528.221 194.24C528.611 187.76 528.931 181.28 529.121 174.79C529.361 166.66 528.251 158.59 527.361 150.53C527.141 148.55 526.421 146.58 525.691 144.69C525.261 143.58 524.441 142.58 523.671 141.63C522.831 140.6 521.711 140.44 520.711 141.25C519.001 142.65 517.271 144.06 515.761 145.65C507.871 153.95 500.141 162.39 491.571 170.08C490.751 170.82 489.961 171.6 489.201 172.4C482.161 179.85 474.201 186.32 466.011 192.56C464.251 193.9 462.431 195.22 460.491 196.31C454.271 199.81 447.841 202.88 440.931 204.97C438.741 205.63 436.551 205.98 434.271 205.97C428.371 205.95 422.811 204.75 417.751 201.69C414.171 199.53 410.531 197.45 406.841 195.45C401.811 192.72 396.791 189.94 391.611 187.49C385.671 184.68 379.561 182.2 373.521 179.58C372.361 179.08 371.221 178.54 370.071 178.03C366.991 176.68 363.931 175.29 360.831 174C354.231 171.24 347.751 168.25 341.641 164.57C339.611 163.35 337.471 162.3 335.341 161.24C329.701 158.44 324.001 155.76 318.401 152.88C310.661 148.9 302.661 145.57 294.251 143.16C288.441 141.49 282.561 140.02 276.811 138.19C271.041 136.35 265.221 134.75 259.241 133.72C251.751 132.43 244.291 130.91 236.611 131.1C236.331 131.1 236.051 131.08 235.761 131.07C230.961 130.99 226.161 130.86 221.361 130.86C214.441 130.86 207.561 131.58 200.691 132.36C192.561 133.28 184.421 134.03 176.281 134.88C173.341 135.19 170.411 135.63 167.471 135.96C160.181 136.77 152.841 137.15 145.621 138.48C144.791 138.63 143.951 138.8 143.111 138.86C136.061 139.41 129.121 140.58 122.241 142.11C115.781 143.55 109.331 144.99 102.901 146.55C98.9412 147.51 95.0212 148.65 91.1112 149.79C87.8712 150.73 84.661 151.77 81.451 152.81C77.711 154.02 73.9211 155.12 70.2811 156.57C63.8711 159.12 57.9211 162.5 52.2211 166.28C49.6711 167.97 47.1211 169.68 44.5311 171.31C34.1911 177.83 25.3711 185.99 17.0311 194.67C16.2711 195.46 15.5812 196.33 14.9012 197.19C13.3712 199.14 11.9713 201.16 10.9213 203.4C10.1113 205.12 9.10134 206.75 8.25134 208.46C7.10134 210.77 5.80128 213.05 4.94128 215.47C2.85128 221.39 2.44116 227.37 5.07116 233.3C6.21116 235.88 7.58116 237.58 10.0712 239.2C14.6912 236.39 19.7711 234.37 24.8011 232.28C30.9611 229.72 37.4113 228.42 44.1713 228.67C52.0213 228.96 59.541 230.66 66.701 233.72C68.871 234.65 70.901 235.95 72.871 237.24C79.861 241.82 85.1609 247.95 89.8509 254.61C90.0909 254.94 90.271 255.31 90.451 255.68C90.891 256.61 90.8011 257.52 90.2611 258.39C88.8811 260.63 85.721 260.67 84.371 258.43C83.451 256.91 82.8011 255.23 81.7411 253.82C75.2311 245.13 67.1209 238.46 56.0409 235.68C54.5409 235.3 53.0511 234.86 51.5511 234.5C42.9711 232.44 34.4812 232.68 26.1312 235.55C22.1512 236.92 18.2013 238.39 14.2513 239.85C13.4913 240.13 12.6211 240.34 12.2611 241.42C12.4811 241.77 12.7212 242.25 13.0712 242.66C15.2912 245.31 17.8312 247.62 20.6112 249.73C27.0412 254.59 33.3009 259.65 40.3309 263.73C43.3509 265.48 46.3411 267.28 49.2411 269.2C53.2111 271.82 57.5512 273.81 61.8812 275.74C69.0512 278.92 76.571 281.31 83.951 284.01C85.001 284.4 86.1213 284.62 87.1713 285.01C89.3313 285.82 91.201 285.47 93.161 284.29C98.591 281.02 103.341 277.01 107.481 272.35C110.731 268.69 112.951 264.51 114.031 259.79C114.341 258.42 114.171 257.73 112.981 257.01C110.951 255.78 108.881 254.63 106.821 253.44C106.101 253.02 105.341 252.64 104.661 252.17C103.521 251.38 103.171 250.01 103.791 248.95C104.421 247.86 105.831 247.21 107.021 247.6C107.951 247.9 108.851 248.31 109.711 248.77C114.131 251.18 118.411 253.78 122.391 256.85C126.351 259.9 130.411 262.83 134.551 265.66C141.011 270.08 147.981 273.62 155.431 276.27C159.291 277.65 163.101 277.77 167.021 276.46C168.721 275.89 169.961 275.02 170.901 273.55C173.841 268.99 175.411 263.96 176.561 258.78C176.761 257.89 176.391 257.3 175.421 256.88C170.141 254.62 164.871 252.35 159.561 250.13C156.841 248.99 154.101 247.93 151.581 246.4C146.901 243.57 141.901 241.41 136.711 239.6C135.851 239.3 134.791 239.29 134.051 238.24C135.761 238.28 137.251 238.55 138.741 238.93C143.261 240.09 147.561 241.77 151.711 243.83C154.601 245.26 157.611 246.4 160.701 247.37C164.991 248.71 169.241 250.18 173.501 251.6C174.161 251.82 174.831 252.05 175.501 252.22C176.341 252.43 177.251 251.75 177.161 250.88C176.981 249.14 176.841 247.37 176.391 245.68C175.741 243.23 174.191 241.29 171.851 240.05C170.001 239.08 168.131 238.08 166.161 237.38C161.931 235.87 157.681 234.37 153.351 233.18C143.181 230.39 132.881 228.04 122.541 225.92C121.031 225.61 119.531 225.25 118.031 224.86C117.861 224.82 117.781 224.43 117.701 224.2C117.691 224.16 117.891 223.98 117.991 223.98C119.251 224.03 120.511 224.06 121.761 224.17C123.861 224.37 125.961 224.64 128.071 224.85C128.721 224.92 129.211 224.53 129.321 223.98C129.601 222.52 129.831 221.05 129.971 219.57C130.281 216.2 130.581 212.83 130.801 209.46C131.181 203.65 131.261 197.85 130.361 192.05C129.171 184.42 127.131 176.96 125.501 169.42C124.501 164.78 122.881 160.3 121.011 155.91C120.531 154.79 120.151 153.63 119.841 152.45C119.781 152.21 120.161 151.66 120.421 151.6C120.711 151.53 121.171 151.79 121.431 152.04C121.721 152.31 121.891 152.72 122.061 153.09C124.131 157.54 126.081 162.04 127.301 166.78C128.551 171.63 129.601 176.53 130.871 181.38C133.951 193.13 135.501 205.02 134.781 217.14C134.651 219.3 134.421 221.45 134.311 223.62C134.271 224.39 134.451 225.18 134.541 226.04C135.891 226.41 137.091 226.8 138.321 227.08C143.261 228.21 148.221 229.25 153.141 230.45C158.201 231.69 163.211 233.09 168.251 234.39C170.731 235.02 173.031 236.01 175.261 237.2C177.301 238.29 178.771 239.87 179.791 241.88C181.641 245.57 182.211 249.31 180.731 253.27C179.261 257.22 177.821 261.18 176.551 265.18C175.221 269.37 173.011 273.13 170.661 276.82C170.241 277.49 169.601 278.12 168.901 278.51C164.871 280.78 160.631 281.8 155.921 280.68C152.481 279.86 149.151 278.81 145.941 277.37C140.181 274.78 134.611 271.86 129.391 268.36C126.271 266.27 123.191 264.11 120.091 261.99C119.411 261.53 118.791 260.91 117.781 261.13C117.001 262.36 116.221 263.62 115.391 264.86C114.711 265.88 113.861 266.8 113.251 267.86C111.131 271.57 108.511 274.91 105.211 277.72C102.791 279.78 100.311 281.79 97.8309 283.8C97.1909 284.32 96.4511 284.74 95.7811 285.23C95.2411 285.63 94.4711 286.03 94.7611 286.77C94.9211 287.17 95.5812 287.51 96.0912 287.65C97.1712 287.96 98.321 288.03 99.391 288.36C100.561 288.72 101.671 289.26 102.941 289.78C104.271 288.6 105.531 287.53 106.721 286.4C108.331 284.88 109.871 283.3 111.461 281.76C112.671 280.59 114.061 279.68 115.721 279.2C116.971 278.83 118.301 279.28 119.041 280.38C119.341 280.82 119.511 281.35 119.721 281.84C120.331 283.22 120.621 283.34 121.801 282.71C122.781 282.19 123.751 281.62 124.781 281.2C125.991 280.7 126.881 281.12 127.471 282.36C127.741 282.94 127.651 283.75 128.651 283.91C129.761 283.45 130.891 282.9 132.071 282.51C134.091 281.85 135.761 283.08 135.681 285.18C135.641 286.11 135.511 287.09 135.161 287.95C134.511 289.58 133.721 291.17 132.891 292.74C132.381 293.7 131.681 294.57 131.091 295.49C130.221 296.87 130.481 297.5 132.021 297.74C132.301 297.78 132.581 297.8 132.861 297.84C141.951 299.08 151.071 300 160.241 300.32C165.181 300.49 170.111 300.72 175.051 300.9C184.361 301.24 193.671 301.68 202.981 301.85C207.631 301.94 212.291 301.67 216.931 301.3C220.931 300.98 221.281 300.59 222.771 297.1C223.411 295.6 223.871 294.03 224.481 292.52C225.171 290.82 226.341 289.51 228.101 288.73C230.201 287.8 232.011 288.43 232.991 290.45C233.451 291.41 233.381 292.61 234.571 293.42C234.961 293.15 235.431 292.89 235.801 292.54C236.701 291.68 237.511 290.73 238.451 289.92C239.061 289.39 239.801 288.96 240.551 288.6C241.481 288.15 242.531 288.5 243.111 289.39C243.451 289.92 243.261 290.75 244.091 291.01C244.231 290.97 244.401 290.97 244.501 290.89C245.341 290.17 246.181 289.45 247.001 288.71C247.941 287.88 248.951 287.16 250.201 286.79C251.801 286.31 253.401 287.3 253.591 288.92C253.761 290.42 253.631 291.91 253.011 293.3C252.171 295.16 251.211 296.96 250.351 298.81C249.971 299.62 248.961 300.51 249.831 301.34C250.301 301.78 251.421 301.69 252.241 301.69C253.221 301.69 254.211 301.54 255.181 301.4C257.971 301 260.751 300.55 263.551 300.16C272.901 298.83 282.211 297.22 291.451 295.32C292.541 295.1 293.601 294.71 294.661 294.35C295.841 293.95 296.491 293.2 296.401 291.9C296.311 290.69 296.221 289.45 296.351 288.25C296.531 286.65 296.751 285.01 297.271 283.49C298.031 281.26 301.191 279.91 303.411 282.15C303.971 282.71 304.291 283.81 305.191 283.68C306.401 283.5 306.141 282.2 306.511 281.37C306.841 280.63 307.171 279.88 307.611 279.19C308.401 277.95 310.231 277.69 311.271 278.68C311.961 279.34 312.511 280.14 313.131 280.87C313.471 281.27 314.281 281.19 314.561 280.71C315.111 279.77 315.571 278.77 316.191 277.88C317.591 275.86 319.881 275.84 321.431 277.8C321.851 278.34 322.281 278.91 322.521 279.53C323.021 280.79 323.451 282.08 323.801 283.38C324.191 284.82 324.431 286.29 324.771 287.74C324.941 288.48 325.611 288.77 326.411 288.49C326.941 288.31 327.471 288.11 327.981 287.89C337.271 283.94 346.691 280.31 356.211 276.91C362.421 274.69 368.601 272.35 374.871 270.3C383.961 267.31 393.351 265.4 402.781 263.67C404.821 263.29 405.091 263.12 405.361 261.08C405.661 258.78 406.241 256.55 407.261 254.46C407.671 253.63 408.291 252.85 408.951 252.18C409.571 251.55 410.461 251.43 411.301 251.79C411.941 252.06 412.631 252.37 413.071 252.86C413.901 253.76 414.601 254.78 415.281 255.8C415.721 256.46 415.851 257.34 417.031 257.59C417.451 256.34 417.851 255.06 418.321 253.8C418.891 252.27 419.531 250.77 420.681 249.52C421.861 248.25 423.621 248.3 424.651 249.66C425.581 250.89 426.031 252.3 426.391 253.76C426.511 254.27 426.771 254.76 427.051 255.2C427.121 255.31 427.691 255.32 427.771 255.2C428.221 254.53 428.581 253.81 429.001 253.12C429.831 251.72 430.571 250.24 431.551 248.94C432.761 247.35 434.871 247.61 435.561 249.4C436.041 250.65 436.411 251.99 436.541 253.32C436.931 257.36 437.361 261.41 436.991 265.47C436.811 267.52 437.631 268.22 439.521 268.41C440.361 268.49 441.211 268.47 442.061 268.44C444.911 268.35 447.651 268.9 450.401 269.59C456.281 271.08 461.961 273.12 467.631 275.15C473.351 277.2 478.711 279.86 483.341 283.77C484.811 285.02 486.501 286.04 488.121 287.11C495.941 292.28 503.181 298.05 509.181 305.19C512.991 309.73 517.251 313.88 521.811 317.74C522.521 318.34 523.381 318.78 524.081 319.24C524.421 319.06 524.581 319.02 524.661 318.92C528.701 313.75 530.711 307.99 530.181 301.5C529.931 298.4 529.521 295.31 529.361 292.2C529.221 289.47 528.571 286.86 527.831 284.25C527.401 282.72 526.561 281.67 525.131 280.82C520.211 277.9 515.361 274.88 510.511 271.86C506.131 269.14 501.771 266.38 497.431 263.6C496.631 263.09 495.931 262.42 495.181 261.82L495.121 261.89C496.171 261.81 497.021 262.34 497.881 262.78C501.241 264.49 504.561 266.3 507.981 267.9C513.041 270.28 518.171 272.52 523.271 274.82C523.401 274.88 523.541 274.88 523.681 274.93C524.241 275.1 524.911 274.62 524.811 274.11C524.761 273.85 524.781 273.56 524.681 273.32C523.251 269.65 521.821 265.98 520.341 262.33C519.931 261.33 519.381 260.37 518.881 259.4C518.431 258.53 517.761 257.96 516.811 257.51C513.021 255.71 509.221 253.93 505.571 251.87C501.901 249.8 498.061 248.16 494.141 246.62C491.791 245.7 489.471 244.71 487.181 243.66C486.461 243.33 485.911 242.67 485.281 242.16L485.191 242.2L485.231 242.13ZM25.5013 266.17C25.3313 266.21 25.1713 266.24 25.0013 266.28C24.7013 267.74 24.3209 269.18 24.1009 270.65C23.0409 277.63 22.7313 284.65 22.9613 291.69C23.0713 295.2 23.211 298.72 23.141 302.24C23.021 308.61 23.551 314.95 24.161 321.27C24.921 329.22 25.3912 337.18 25.5912 345.16C25.8412 355.17 26.8812 365.13 27.6512 375.11C28.1012 380.91 28.6209 386.7 29.0209 392.5C29.6209 401.27 29.8712 410.06 30.9012 418.8C31.9912 428.07 32.931 437.36 33.391 446.68C33.441 447.62 33.5713 448.56 33.6713 449.51C34.4113 456.64 35.1412 463.77 35.8812 470.9C36.4012 475.87 36.8013 480.86 38.2513 485.71C38.6013 486.89 39.151 487.66 40.411 487.89C43.871 488.51 47.281 489.31 50.871 489.12C55.091 488.89 59.3309 488.98 63.5609 489.21C66.5009 489.37 69.471 489.01 72.431 488.83C74.541 488.7 76.6413 488.44 78.7513 488.29C82.6913 488 86.6412 487.78 90.5712 487.45C92.1112 487.32 93.621 486.93 95.161 486.7C97.081 486.41 98.1911 485.32 98.5311 483.56C98.7111 482.65 98.741 481.69 98.661 480.76C98.561 479.55 98.1712 478.36 98.0912 477.16C97.4512 468.39 96.7211 459.63 96.3011 450.85C96.0111 444.91 96.171 438.95 96.161 433C96.161 428 96.2213 422.99 96.2313 417.99C96.2313 412.45 95.9911 406.89 96.2611 401.36C96.7411 391.48 96.5912 381.61 96.0912 371.75C95.5912 361.86 96.231 352.01 96.641 342.15C96.771 338.91 96.9712 335.67 97.1312 332.42C97.2212 330.65 97.5312 328.93 98.3412 327.32C98.9012 326.2 100.141 325.94 101.141 326.7C102.021 327.37 102.881 328.07 103.781 328.71C104.941 329.54 105.821 330.58 106.441 331.81C108.411 335.71 110.381 339.62 111.291 343.89C112.051 347.46 112.701 351.06 113.291 354.66C114.291 360.67 115.341 366.67 115.651 372.76C115.871 377.08 116.021 381.42 116.541 385.71C117.611 394.43 118.941 403.13 120.111 411.84C120.851 417.34 121.541 422.84 122.181 428.35C122.621 432.11 122.921 435.89 123.311 439.66C124.051 446.79 124.911 453.91 125.511 461.05C125.951 466.33 126.921 471.49 128.171 476.63C128.351 477.36 128.791 477.83 129.491 478.08C130.151 478.32 130.821 478.55 131.501 478.68C133.711 479.1 135.931 479.49 138.161 479.85C143.171 480.67 148.191 481.55 153.261 481.68C160.171 481.87 167.091 481.78 174.011 481.64C177.391 481.57 180.761 481.04 184.021 480.09C187.511 479.08 189.241 476.65 189.301 473.15C189.401 467.88 189.551 462.6 189.731 457.33C189.841 454.09 190.091 450.85 190.231 447.61C190.671 437.47 190.751 427.33 190.261 417.19C190.171 415.3 190.201 413.4 190.151 411.51C190.121 410.43 190.091 409.34 189.991 408.27C189.031 398.16 188.461 388.04 188.481 377.89C188.481 375.86 188.381 373.83 188.281 371.81C187.811 362.63 187.311 353.44 186.831 344.26C186.771 343.18 186.761 342.1 186.671 341.02C185.951 332.78 186.171 324.53 186.421 316.28C186.491 313.85 186.391 311.41 186.291 308.98C186.261 308.34 185.961 307.72 185.751 307C184.521 306.85 183.411 306.66 182.301 306.6C175.961 306.27 169.611 305.88 163.271 305.71C157.471 305.56 151.731 304.93 145.981 304.28C141.771 303.8 137.601 303.15 133.471 302.26C131.281 301.79 129.091 301.32 126.911 300.86C126.371 301.24 125.891 301.53 125.481 301.89C120.101 306.59 113.731 309.27 106.591 310.36C105.891 310.47 105.171 310.49 104.511 310.71C104.021 310.87 103.411 311.21 103.241 311.62C102.631 313.03 101.531 313.68 100.061 313.97C98.1309 314.35 96.2209 314.96 94.2709 315.13C86.9109 315.81 79.591 315.42 72.411 313.67C62.011 311.13 52.571 306.7 44.141 300.33C38.281 295.9 33.5911 290.59 30.5311 284.02C30.0111 282.91 29.471 281.81 28.931 280.71C27.901 278.62 27.1209 276.46 26.7709 274.16C26.3609 271.5 25.9311 268.84 25.5111 266.18L25.5013 266.17ZM348.711 345.65C348.561 346.15 348.371 346.53 348.341 346.92C348.091 350.43 347.871 353.93 347.651 357.44C347.491 359.87 347.441 362.31 347.171 364.72C346.551 370.23 345.721 375.72 345.771 381.28C345.771 382.5 345.721 383.72 345.621 384.93C345.021 391.94 344.331 398.94 343.811 405.95C343.311 412.56 343.121 419.2 343.731 425.81C344.331 432.3 344.081 438.78 344.081 445.27C344.081 445.94 344.011 446.62 343.901 447.29C342.681 454.91 341.871 462.58 341.181 470.25C340.881 473.61 340.891 477 340.781 480.38C340.761 481.05 340.831 481.73 340.911 482.4C341.121 484.19 341.701 484.82 343.551 484.97C347.061 485.27 350.581 485.65 354.101 485.7C358.951 485.76 363.621 486.73 368.271 487.87C369.361 488.14 370.471 488.46 371.581 488.5C376.801 488.72 382.011 488.86 387.231 488.99C387.921 489.01 388.671 488.94 389.301 488.7C389.771 488.53 390.161 488.06 390.461 487.65C390.691 487.33 390.751 486.89 390.831 486.5C392.221 480.02 393.641 473.54 394.981 467.04C397.011 457.23 399.071 447.43 400.601 437.53C401.861 429.38 403.181 421.21 405.491 413.26C408.291 403.63 411.291 394.05 414.301 384.47C414.991 382.28 415.901 380.12 416.981 378.08C418.601 375.05 420.791 372.66 424.911 373.31C425.451 373.4 426.031 373.27 426.591 373.22C428.241 373.08 429.241 373.91 429.881 375.26C430.761 377.13 431.211 379.12 431.361 381.14C431.701 385.59 432.121 390.04 432.171 394.5C432.261 403.02 432.211 411.54 432.011 420.06C431.881 425.62 432.201 431.14 432.651 436.67C433.071 441.79 433.641 446.9 433.941 452.03C434.551 462.44 433.991 472.85 433.811 483.26C433.791 484.47 433.541 485.68 433.481 486.9C433.431 487.83 433.511 488.76 433.541 489.83C434.591 490.08 435.511 490.42 436.451 490.52C440.381 490.94 444.321 491.09 448.281 491.03C454.771 490.94 461.271 490.89 467.751 491.18C473.131 491.43 478.471 491.21 483.811 490.77C485.021 490.67 485.611 490.2 485.821 489.05C486.341 486.26 486.851 483.46 487.251 480.66C487.971 475.57 489.181 470.55 489.341 465.39C489.371 464.32 489.651 463.25 489.861 462.19C490.561 458.6 491.321 455.03 491.991 451.44C493.681 442.4 495.021 433.29 497.521 424.4C498.141 422.19 498.471 419.9 498.791 417.62C499.801 410.39 500.611 403.14 502.081 395.96C503.921 386.94 505.601 377.9 507.781 368.94C509.031 363.81 509.911 358.6 510.901 353.42C511.461 350.5 511.181 350.26 507.921 350.27C507.501 350.27 507.071 350.29 506.651 350.29C502.981 350.31 499.311 350.29 495.701 349.5C495.021 349.35 494.301 349.3 493.601 349.27C487.121 348.97 480.631 348.57 474.141 348.45C469.331 348.36 464.561 347.91 459.791 347.4C453.481 346.72 447.171 346.06 440.821 345.82C435.601 345.62 430.381 345.41 425.191 344.9C421.391 344.53 417.601 344.18 413.791 344.2C405.041 344.24 396.291 344.29 387.541 344.45C375.121 344.68 362.711 345 350.291 345.31C349.751 345.32 349.221 345.53 348.711 345.65V345.65ZM124.261 481.05C124.151 481.85 123.921 482.51 124.001 483.14C124.131 484.21 124.421 485.26 124.721 486.3C125.651 489.56 126.441 492.85 126.741 496.23C126.971 498.79 127.301 501.34 127.791 503.87C129.151 510.91 130.621 517.93 132.031 524.97C132.701 528.29 133.511 531.59 133.941 534.94C134.471 539.1 134.671 543.29 135.021 547.47C135.351 551.38 135.431 555.33 136.091 559.18C137.551 567.71 139.311 576.2 140.931 584.71C141.131 585.76 141.471 586.91 141.241 587.9C140.601 590.65 141.821 591.01 144.041 591.17C145.591 591.28 147.141 591.25 148.691 591.32C152.071 591.47 155.471 591.54 158.831 591.85C162.641 592.2 166.431 592.29 170.231 591.77C172.751 591.42 175.291 591.49 177.831 591.75C180.351 592.01 182.881 592.24 185.421 592.3C191.911 592.45 198.401 592.5 204.891 592.58C208.181 592.62 211.351 592.11 214.301 590.61C215.121 590.19 215.561 589.59 215.551 588.68C215.521 586.12 214.691 583.9 212.631 582.19C211.671 581.39 210.721 580.57 209.651 579.92C205.501 577.36 201.381 574.74 196.641 573.24C194.721 572.63 193.581 571.29 193.231 569.44C192.961 567.99 192.861 566.49 192.841 565.01C192.801 560.95 192.791 556.89 192.891 552.84C192.991 548.92 193.261 545.01 193.431 541.09C193.651 535.96 193.991 530.82 194.021 525.69C194.051 519.61 193.811 513.52 193.681 507.44C193.661 506.49 193.631 505.54 193.531 504.6C192.731 497.61 192.611 490.57 192.221 483.56C192.191 483.06 191.981 482.57 191.801 481.86C185.621 483.46 179.461 483.96 173.261 484.32C169.181 484.56 165.091 484.87 161.041 485.38C154.831 486.17 148.661 486.13 142.511 484.98C140.851 484.67 139.181 484.37 137.501 484.2C133.541 483.81 129.721 482.95 126.041 481.47C125.551 481.27 124.991 481.23 124.261 481.07V481.05ZM377.911 340.97C377.911 340.9 377.911 340.83 377.911 340.76C380.731 340.76 383.561 340.86 386.371 340.74C396.401 340.34 406.391 341 416.391 341.63C417.231 341.68 418.071 341.83 418.911 341.92C424.801 342.51 430.681 343.18 436.621 343.28C441.981 343.37 447.341 343.66 452.671 344.15C460.271 344.85 467.871 344.96 475.501 344.84C484.381 344.71 493.271 344.17 502.151 344.79C504.111 344.93 506.101 344.78 508.061 344.61C509.881 344.46 510.581 343.74 510.661 342.03C510.831 338.52 511.091 335 510.991 331.5C510.861 327.04 510.631 322.58 511.281 318.14C511.451 316.99 511.131 316.02 510.321 315.16C508.431 313.15 506.561 311.13 504.701 309.1C503.861 308.18 502.921 307.84 501.711 308.4C500.951 308.75 500.161 309.04 499.381 309.35C496.491 310.51 493.521 311.21 490.351 311.2C488.391 311.2 486.421 311.46 484.471 311.72C477.981 312.59 471.561 312.73 465.221 310.66C462.831 309.88 460.331 309.37 457.851 308.83C453.811 307.95 450.091 306.37 446.661 304.18C442.431 301.48 438.171 298.83 434.581 295.33C433.891 294.66 433.101 294.07 432.321 293.5C429.821 291.68 427.741 289.5 425.951 287.04C424.741 285.38 423.491 283.74 422.321 282.05C421.571 280.97 420.721 280.18 419.251 280.25C418.831 280.27 418.401 280.24 417.981 280.16C412.091 279.14 407.291 276.77 405.411 270.79C405.171 270.04 404.501 269.77 403.751 269.83C402.911 269.89 402.071 270.03 401.261 270.22C400.311 270.44 399.791 271.08 399.861 271.97C399.981 273.45 400.051 274.95 400.351 276.4C401.151 280.38 402.081 284.33 403.451 288.18C404.181 290.23 404.841 292.29 405.481 294.36C406.531 297.75 407.031 301.2 407.001 304.75C406.971 308.5 405.191 312.57 399.311 314.22C396.591 314.98 393.791 315.22 390.941 314.8C387.301 314.26 383.761 313.42 380.251 312.37C370.691 309.51 361.271 306.26 351.961 302.74C350.781 302.3 349.591 301.89 348.391 301.51C347.641 301.28 346.951 301.7 346.821 302.43C346.361 305.09 345.951 307.77 345.461 310.43C344.821 313.89 343.951 317.31 343.471 320.79C342.951 324.56 342.241 328.25 340.931 331.84C340.231 333.76 339.861 335.76 340.121 337.83C340.231 338.73 340.771 339.41 341.641 339.53C342.471 339.64 343.331 339.74 344.161 339.7C345.911 339.62 347.471 339.84 348.891 341C349.461 341.47 350.451 341.57 351.271 341.62C352.821 341.71 354.371 341.68 355.921 341.64C363.251 341.43 370.591 341.19 377.921 340.97H377.911ZM103.271 538.04H103.071C103.071 532.49 103.111 526.95 103.061 521.41C103.031 518.3 102.911 515.19 102.751 512.09C102.621 509.53 102.351 506.97 102.161 504.41C101.891 500.77 101.651 497.13 101.361 493.49C101.311 492.83 101.161 492.15 100.901 491.54C100.771 491.23 100.311 490.91 99.951 490.85C99.421 490.75 98.8311 490.83 98.2811 490.92C93.5411 491.66 88.7711 492.03 83.9711 492.3C79.6111 492.54 75.271 493.12 70.911 493.47C67.961 493.71 65.0011 493.91 62.0511 493.97C58.6711 494.04 55.2812 493.82 51.9012 493.92C48.3512 494.03 44.8711 493.96 41.4711 492.77C39.2011 491.98 36.7712 491.9 34.3612 492.14C33.7512 492.2 33.3612 492.61 33.3412 493.22C33.3212 493.76 33.321 494.31 33.431 494.83C34.251 498.67 34.9913 502.53 35.9813 506.33C37.6613 512.75 39.5109 519.13 41.2909 525.53C41.6909 526.97 42.1713 528.39 42.4813 529.84C44.0713 537.25 46.111 544.55 47.391 552.04C48.771 560.17 50.6513 568.22 52.2513 576.32C52.9913 580.03 54.0012 583.7 53.5912 587.55C53.4612 588.73 54.2713 589.64 55.4413 590C56.6313 590.37 57.8812 590.64 59.1312 590.78C65.0312 591.43 70.9512 591.55 76.8812 591.46C80.2712 591.41 83.6411 591.49 87.0111 591.99C88.9511 592.28 90.9513 592.31 92.9213 592.34C100.831 592.43 108.731 592.15 116.591 591.37C119.951 591.04 123.311 590.5 126.611 589.84C129.411 589.28 130.261 587.57 129.271 584.98C128.991 584.23 128.531 583.52 128.041 582.87C126.771 581.19 125.071 580.01 123.161 579.07C119.401 577.21 115.641 575.35 111.911 573.43C110.301 572.6 108.721 571.69 107.231 570.67C104.281 568.66 102.711 565.9 102.721 562.39C102.721 561.58 102.751 560.77 102.771 559.96C102.951 552.66 103.121 545.37 103.301 538.07L103.271 538.04ZM430.861 585.36C432.061 585.5 432.741 585.65 433.431 585.66C435.121 585.66 436.811 585.59 438.511 585.59C444.431 585.59 450.351 585.59 456.251 586.23C458.061 586.43 459.931 586.49 461.731 586.27C467.071 585.62 472.411 585.46 477.781 585.62C481.631 585.73 485.351 584.99 489.071 584.2C490.181 583.97 490.731 583.28 490.941 582.26C491.531 579.44 490.241 577.22 488.311 575.32C486.141 573.18 483.701 571.34 480.731 570.26C479.411 569.78 478.101 569.28 476.841 568.69C475.591 568.1 475.021 567.03 475.111 565.69C475.151 565.15 475.281 564.62 475.371 564.09C476.251 559.14 477.971 554.42 479.521 549.65C480.311 547.2 481.091 544.74 481.641 542.24C483.381 534.45 484.911 526.62 487.221 518.96C487.421 518.31 487.571 517.65 487.691 516.99C488.761 511.27 489.861 505.56 491.681 500.01C491.811 499.63 491.851 499.22 491.921 498.82C492.081 497.85 491.731 497.17 490.791 496.95C489.571 496.66 488.321 496.36 487.071 496.3C484.961 496.2 482.841 496.35 480.731 496.28C477.211 496.17 473.661 496.2 470.181 495.77C463.441 494.94 456.701 494.66 449.921 495.07C446.401 495.28 442.891 495.33 439.371 494.79C437.151 494.45 434.891 494.3 432.641 494.13C431.521 494.04 430.381 494.05 429.261 494.1C427.771 494.17 427.171 494.74 427.211 496.09C427.261 497.71 427.291 499.34 427.561 500.94C428.041 503.76 428.211 506.58 428.121 509.42C428.051 511.59 428.201 513.72 428.681 515.86C429.121 517.84 429.471 519.85 429.591 521.87C429.931 527.53 430.231 533.2 430.351 538.87C430.541 547.78 430.541 556.7 430.661 565.62C430.711 569.4 430.731 573.19 431.051 576.95C431.281 579.64 431.671 582.29 430.861 585.37V585.36ZM376.621 580.74C376.881 580.05 377.241 579.33 377.411 578.56C377.731 577.11 377.971 575.64 378.191 574.17C378.901 569.22 379.941 564.32 380.251 559.31C380.401 556.9 380.841 554.46 381.481 552.12C382.941 546.77 384.311 541.4 385.401 535.96C386.791 529.06 388.661 522.26 390.011 515.35C391.021 510.16 392.141 505.01 393.511 499.91C393.831 498.73 394.061 497.54 394.281 496.34C394.401 495.69 393.901 494.97 393.201 494.8C390.881 494.21 388.581 493.56 386.231 493.11C382.911 492.47 379.581 491.78 376.221 491.49C372.571 491.18 368.891 491.2 365.221 491.29C357.011 491.48 348.861 491.13 340.821 489.34C340.271 489.22 339.711 489.14 339.151 489.07C338.351 488.98 337.701 489.42 337.611 490.1C337.541 490.64 337.491 491.18 337.481 491.71C337.451 497.8 337.071 503.87 336.501 509.93C335.761 517.74 335.151 525.56 334.601 533.38C334.051 541.19 332.941 548.99 333.841 556.85C333.901 557.38 333.931 557.94 333.841 558.47C333.731 559.12 333.651 559.87 333.271 560.38C330.041 564.63 327.001 569.06 322.101 571.85C320.541 572.74 319.111 573.89 317.741 575.04C315.971 576.52 315.101 578.51 314.731 580.7C314.531 581.89 315.151 582.86 316.301 583.26C318.331 583.98 320.451 584.17 322.561 583.83C325.651 583.33 328.751 583.46 331.851 583.44C334.951 583.41 338.071 583.37 341.141 583C345.091 582.52 348.991 582.37 352.941 582.87C354.321 583.04 355.751 582.97 357.141 582.83C363.571 582.18 370.001 581.47 376.611 580.76L376.621 580.74ZM459.721 59.5998C459.721 59.2198 459.721 58.8497 459.721 58.4697C459.711 54.1997 459.261 49.8798 457.741 45.8898C455.281 39.4498 450.151 34.2797 444.261 30.7197C441.011 28.7497 437.371 27.1897 433.571 27.2297C430.181 27.2597 426.931 28.5698 423.911 30.1298C420.191 32.0498 416.511 34.5598 414.691 38.3198C413.061 41.6698 413.111 45.5497 412.701 49.2597C411.561 59.5097 408.171 68.9199 411.761 79.1999C418.181 97.5499 440.781 99.5097 452.121 84.5097C457.441 77.4697 459.581 68.4498 459.721 59.5998V59.5998ZM533.171 152C533.001 152.09 532.821 152.17 532.651 152.26C532.671 152.65 532.651 153.06 532.731 153.44C534.171 160.49 534.921 167.61 534.721 174.8C534.531 181.82 534.181 188.84 533.881 195.86C533.851 196.67 533.681 197.47 533.551 198.27C532.621 203.92 530.501 209.22 528.391 214.52C527.131 217.69 525.421 220.65 523.371 223.41C521.651 225.72 520.051 228.12 518.161 230.31C515.661 233.21 514.801 236.5 515.121 240.14C515.251 241.61 515.501 243.09 515.871 244.52C517.101 249.28 519.331 253.67 521.781 257.93C524.841 263.25 528.151 268.44 531.371 273.68C531.501 273.9 531.771 274.04 531.981 274.22C532.111 274.2 532.271 274.22 532.381 274.17C532.731 273.96 533.151 273.77 533.371 273.47C536.611 269.04 539.801 264.59 541.781 259.46C543.941 253.87 545.471 248.12 546.611 242.26C548.011 235.07 549.011 227.86 548.781 220.51C548.671 216.86 548.331 213.23 548.011 209.6C547.301 201.63 545.781 193.81 544.011 186.02C542.421 179.01 539.961 172.24 537.931 165.35C536.821 161.58 535.521 157.87 534.261 154.14C534.011 153.4 533.561 152.71 533.201 152H533.171ZM97.3612 292.92C96.0712 291.61 94.4311 291.56 92.9711 291.22C87.7411 290.03 82.6713 288.41 77.6713 286.52C75.4413 285.68 73.141 285 70.931 284.11C66.641 282.38 62.271 280.78 58.161 278.72C53.551 276.41 48.8912 274.14 44.5912 271.27C39.8512 268.1 34.9412 265.16 30.1112 262.11C29.4012 261.67 28.7311 261.17 28.0111 260.75C27.8011 260.63 27.3713 260.55 27.2313 260.67C26.9513 260.89 26.6212 261.29 26.6512 261.58C26.8312 263.33 27.0012 265.08 27.3612 266.8C28.1112 270.38 28.9711 273.96 30.7211 277.23C32.1311 279.87 33.6412 282.5 35.4012 284.93C38.3912 289.04 41.6709 292.95 45.8109 296.07C56.0009 303.76 67.481 308.63 80.371 310.33C84.861 310.92 89.381 310.88 93.891 310.49C95.001 310.39 96.1013 310.06 97.1913 309.78C97.7213 309.64 98.2812 309.44 98.4012 308.55C98.2512 308.25 97.9809 307.79 97.7709 307.31C97.0609 305.7 96.221 304.12 95.701 302.45C94.831 299.63 94.971 296.84 96.621 294.24C96.891 293.81 97.121 293.36 97.371 292.91L97.3612 292.92ZM423.991 280.85C424.691 281.27 425.461 281.62 426.071 282.14C426.701 282.67 427.201 283.34 427.701 284C429.801 286.76 432.291 289.12 435.191 291.09C436.111 291.71 436.991 292.4 437.811 293.14C441.541 296.49 445.831 299.09 450.111 301.72C452.511 303.19 455.141 304.16 457.891 304.82C461.721 305.74 465.541 306.7 469.381 307.55C471.021 307.91 472.701 308.19 474.381 308.26C477.761 308.4 481.141 308.31 484.481 307.57C486.541 307.11 488.651 306.9 490.721 306.51C491.681 306.33 492.611 306.01 493.551 305.72C494.061 305.56 494.381 304.8 494.131 304.38C493.791 303.79 493.481 303.18 493.051 302.66C491.231 300.42 489.421 298.17 487.501 296.01C481.771 289.56 475.131 284.19 467.151 280.42C464.871 279.34 462.601 278.26 460.341 277.16C457.441 275.74 454.421 274.67 451.281 273.83C447.881 272.92 444.501 272.01 440.961 271.73C439.991 271.65 439.031 271.36 438.071 271.14C436.541 270.8 436.101 271.04 435.691 272.52C435.511 273.17 435.391 273.84 435.251 274.5C435.011 275.64 434.361 276.5 433.241 276.94C430.901 277.87 428.541 278.76 426.191 279.66C425.431 279.95 424.511 279.98 423.991 280.86V280.85ZM406.611 167.77C406.551 166.46 406.511 164.3 406.321 162.14C405.821 156.45 404.561 150.91 402.111 145.68C400.471 142.19 399.331 141.67 395.491 142.57C394.261 142.86 393.051 143.24 391.851 143.64C389.451 144.43 387.031 145.18 384.671 146.08C372.881 150.61 361.121 155.18 349.351 159.74C348.961 159.89 348.581 160.08 348.201 160.26C347.491 160.6 347.391 161.52 348.091 161.87C351.591 163.62 355.091 165.37 358.641 167.01C359.171 167.25 360.031 167.05 360.651 166.82C361.431 166.53 362.091 165.98 362.831 165.58C367.271 163.21 371.661 160.76 376.171 158.53C378.921 157.17 381.841 156.12 384.721 155.01C385.481 154.72 386.361 154.71 387.181 154.6C387.271 154.59 387.431 154.74 387.491 154.85C387.551 154.96 387.571 155.17 387.501 155.24C386.901 155.79 386.331 156.4 385.641 156.85C380.011 160.52 373.871 163.25 367.671 165.88C366.381 166.43 365.091 166.98 363.851 167.61C363.571 167.75 363.401 168.23 363.341 168.58C363.311 168.76 363.581 169.09 363.801 169.19C366.211 170.3 368.621 171.44 371.091 172.44C371.811 172.73 372.771 172.76 373.551 172.6C374.781 172.35 375.951 171.83 377.161 171.45C381.311 170.14 385.441 168.74 389.641 167.58C391.921 166.95 394.331 166.7 396.691 166.32C396.831 166.3 397.061 166.58 397.191 166.76C397.231 166.81 397.131 167.05 397.041 167.1C395.671 167.78 394.331 168.53 392.921 169.1C389.271 170.57 385.411 171.44 381.591 172.39C379.951 172.79 378.321 173.19 376.691 173.63C376.461 173.69 376.131 174.01 376.151 174.18C376.181 174.52 376.331 174.99 376.601 175.14C378.421 176.18 380.321 177.08 382.121 178.14C387.521 181.33 392.891 184.58 398.281 187.78C399.481 188.49 400.701 189.17 401.951 189.79C402.491 190.06 403.151 189.86 403.421 189.35C403.871 188.52 404.281 187.64 404.471 186.73C404.931 184.48 405.161 182.18 405.651 179.94C406.461 176.21 406.641 172.44 406.651 167.79L406.611 167.77ZM105.611 307.2C106.581 307.07 107.581 307.06 108.511 306.8C110.801 306.15 113.131 305.54 115.301 304.62C119.211 302.97 122.581 300.61 125.341 297.4C127.591 294.78 129.741 292.13 131.331 289.1C131.771 288.26 132.091 287.37 132.401 286.48C132.471 286.28 132.321 285.94 132.161 285.77C132.001 285.61 131.601 285.47 131.451 285.55C130.601 286 129.661 286.41 128.981 287.05C127.391 288.57 125.921 290.21 124.431 291.83C123.131 293.25 121.911 294.74 120.581 296.13C120.131 296.6 119.451 296.9 118.841 297.2C118.641 297.3 118.191 297.24 118.061 297.09C117.811 296.81 117.501 296.35 117.591 296.07C117.771 295.44 118.131 294.84 118.511 294.29C120.081 292.05 121.701 289.84 123.251 287.59C123.711 286.92 124.001 286.15 124.301 285.4C124.381 285.21 124.281 284.84 124.121 284.7C123.971 284.57 123.531 284.5 123.391 284.61C122.091 285.64 120.771 286.65 119.571 287.78C117.561 289.67 115.681 291.68 113.661 293.57C112.981 294.21 112.101 294.69 111.241 295.12C110.981 295.25 110.361 295.06 110.141 294.82C109.911 294.58 109.771 293.98 109.931 293.73C110.431 292.93 111.091 292.22 111.691 291.48C113.241 289.56 114.861 287.69 116.311 285.71C116.851 284.97 117.091 284 117.331 283.1C117.411 282.79 117.191 282.25 116.921 282.06C116.651 281.86 116.051 281.81 115.771 281.97C115.061 282.39 114.361 282.89 113.831 283.49C109.431 288.48 104.421 292.79 98.5712 296.16C97.0112 297.06 96.8211 298 97.5311 299.58C98.5411 301.83 100.071 303.78 101.821 305.55C102.811 306.56 104.081 307.16 105.611 307.2V307.2ZM433.011 252.6C432.191 252.9 431.851 253.5 431.611 254.13C430.931 255.9 430.211 257.67 429.691 259.48C428.841 262.47 428.131 265.5 427.361 268.51C427.131 269.42 427.001 270.44 425.691 270.51C424.731 270.56 424.201 269.75 424.211 268.03C424.241 265.33 424.411 262.63 424.401 259.93C424.401 257.91 424.281 255.88 424.031 253.88C423.941 253.14 423.371 252.44 422.961 251.75C422.891 251.64 422.341 251.62 422.251 251.73C421.741 252.35 421.161 252.98 420.871 253.7C419.631 256.74 419.151 259.94 418.731 263.16C418.471 265.16 418.081 267.15 417.691 269.14C417.581 269.7 417.051 270.15 416.481 270C416.021 269.88 415.451 269.45 415.301 269.04C415.031 268.3 414.961 267.46 414.941 266.66C414.881 265.04 414.891 263.42 414.901 261.8C414.911 260.01 414.481 258.31 413.691 256.71C413.341 255.99 412.821 255.32 412.301 254.7C411.401 253.62 410.191 253.76 409.681 254.97C409.361 255.72 409.041 256.48 408.851 257.26C407.751 261.91 407.451 266.58 408.351 271.32C408.661 272.96 409.451 274.06 411.011 274.66C415.941 276.55 420.931 276.38 425.891 274.86C427.621 274.33 429.201 273.38 430.881 272.68C432.021 272.21 432.661 271.39 432.971 270.3C433.191 269.52 433.391 268.74 433.531 267.94C434.261 263.79 434.221 259.61 434.071 255.42C434.051 254.75 433.901 254.08 433.701 253.44C433.591 253.11 433.241 252.85 433.001 252.58L433.011 252.6ZM230.191 309.35C230.201 309.29 230.211 309.23 230.221 309.17C230.781 309.17 231.351 309.16 231.911 309.17C235.881 309.28 238.981 307.91 241.211 304.63C243.281 301.58 245.601 298.67 247.761 295.68C248.481 294.68 249.081 293.61 249.691 292.55C249.961 292.08 250.211 291.57 250.291 291.05C250.341 290.71 250.121 290.3 249.921 289.99C249.871 289.91 249.321 289.99 249.161 290.13C247.861 291.36 246.441 292.5 245.371 293.9C243.461 296.4 241.781 299.06 239.991 301.65C239.371 302.54 238.751 303.45 238.031 304.27C237.841 304.49 237.261 304.52 236.891 304.46C236.391 304.38 236.121 303.65 236.331 303.14C236.481 302.76 236.641 302.39 236.831 302.03C237.381 300.94 238.021 299.88 238.501 298.76C239.301 296.89 240.021 294.99 240.751 293.09C240.941 292.58 241.011 291.87 240.441 291.7C240.051 291.59 239.451 292.02 239.001 292.3C238.661 292.52 238.371 292.85 238.131 293.17C237.051 294.59 235.951 295.99 234.941 297.45C233.931 298.91 233.041 300.45 232.051 301.92C231.671 302.48 231.231 303.03 230.701 303.45C230.461 303.65 229.931 303.61 229.561 303.52C229.401 303.48 229.201 303.05 229.241 302.84C229.361 302.19 229.561 301.55 229.781 300.92C230.321 299.39 230.951 297.89 231.431 296.34C231.881 294.88 231.781 293.42 231.221 291.97C230.701 290.62 229.411 290.32 228.211 291.27C227.181 292.09 226.661 293.16 226.311 294.35C225.351 297.63 223.901 300.66 221.771 303.42C220.431 305.15 221.401 307.78 223.551 308.29C225.721 308.8 227.971 309.02 230.181 309.36L230.191 309.35ZM308.941 296.8C311.761 297.68 314.561 297.85 317.351 297.49C319.371 297.23 321.071 296.27 321.901 294.3C322.231 293.52 322.441 292.7 321.901 291.98C321.171 291.02 320.741 290.18 321.781 289.13C322.111 288.8 322.231 288.11 322.161 287.62C321.851 285.21 321.531 282.8 320.491 280.55C320.061 279.61 319.121 278.78 318.731 279.07C318.201 279.46 317.641 279.95 317.381 280.51C316.871 281.61 316.451 282.78 316.201 283.96C315.811 285.8 315.581 287.68 315.331 289.55C315.231 290.25 315.031 290.87 314.321 291.19C313.751 291.45 313.041 290.74 312.811 289.63C312.621 288.7 312.551 287.76 312.351 286.84C312.031 285.39 311.691 283.95 311.271 282.52C311.121 282.03 310.701 281.61 310.391 281.17C310.211 280.91 309.471 281.01 309.311 281.32C309.071 281.8 308.771 282.27 308.641 282.77C307.421 287.46 307.891 292.11 308.941 296.8V296.8ZM469.931 66.2797C469.931 65.0397 469.711 63.8698 468.951 62.8298C468.591 62.3398 467.631 61.9299 467.111 62.1599C464.881 63.1499 462.981 64.4097 462.501 66.9797C462.181 68.6997 461.711 70.3898 461.301 72.0898C460.831 74.0398 461.491 74.9299 463.721 74.4499C464.521 74.2799 465.321 73.9197 465.991 73.4697C468.601 71.7397 469.821 69.2797 469.911 66.2697L469.931 66.2797ZM408.381 57.6398C408.321 57.1798 408.391 56.5898 408.161 56.1398C407.301 54.4698 406.371 52.8299 405.411 51.2099C405.101 50.6899 404.011 50.8298 403.611 51.3798C402.051 53.5598 401.361 55.9698 401.621 58.5898C401.851 60.8498 403.611 62.4199 406.051 62.6799C406.681 62.7499 407.561 62.2499 407.681 61.6699C407.941 60.3599 408.131 59.0398 408.371 57.6398H408.381ZM304.631 292.91C304.541 290.71 304.041 287.94 302.741 285.37C302.451 284.8 301.941 284.28 301.411 283.88C301.211 283.72 300.551 283.83 300.331 284.04C299.961 284.4 299.621 284.91 299.541 285.4C299.011 288.47 299.121 291.54 299.631 294.61C299.741 295.29 300.131 295.83 300.841 296.14C303.391 297.26 304.581 296.59 304.631 293.96C304.631 293.83 304.631 293.69 304.631 292.92V292.91ZM195.431 38.5498C195.431 38.5498 195.371 38.5498 195.331 38.5498C195.331 39.4798 195.301 40.4198 195.331 41.3498C195.361 42.0698 196.021 42.5299 196.771 42.4199C200.151 41.9499 201.941 37.9798 199.951 35.3498C199.441 34.6798 198.721 34.2898 197.861 34.1298C196.681 33.9098 195.521 34.6297 195.431 35.7397C195.361 36.6697 195.421 37.6097 195.421 38.5397L195.431 38.5498Z" fill="black" stroke="black" stroke-width="0.93" stroke-linecap="round" stroke-linejoin="round"/>
<path d="M233.981 196.37C234.511 195.95 234.801 195.54 235.091 195.53C236.211 195.49 237.341 195.51 238.451 195.65C239.561 195.79 240.701 195.99 241.751 196.35C245.201 197.54 245.591 197.1 248.291 195.12C254.491 190.59 257.761 184.54 258.221 177.1C258.301 175.75 258.291 174.4 258.251 173.05C258.141 169.42 256.861 166.19 254.581 163.31C252.691 160.93 250.471 158.88 247.751 157.18C248.281 156.53 248.741 156.99 249.061 157.15C256.661 160.84 260.741 166.82 260.881 174.95C261.011 182.22 258.721 188.79 253.351 194.16C252.471 195.04 251.521 195.85 250.611 196.69C250.211 197.06 249.801 197.43 249.411 197.82C249.041 198.2 249.151 198.93 249.651 199.24C250.471 199.76 251.351 200.2 252.151 200.76C253.621 201.8 255.171 202.78 256.481 203.98C262.871 209.82 263.801 218.36 258.861 225.36C258.071 226.47 257.171 227.53 256.201 228.5C252.741 231.94 248.661 234.57 244.161 236.62C242.851 237.22 241.531 237.57 240.081 237.32C239.391 237.21 238.641 236.61 238.711 236.01C238.771 235.51 238.941 234.85 239.311 234.6C240.221 233.98 241.261 233.53 242.281 233.07C245.491 231.63 248.531 229.91 251.161 227.64C252.721 226.29 254.251 224.84 255.461 223.21C259.521 217.76 258.971 211.42 254.151 206.57C251.691 204.1 248.761 202.2 245.571 200.73C242.661 199.39 239.751 198 236.571 197.28C235.771 197.1 235.031 196.73 234.001 196.35L233.981 196.37Z" fill="black" stroke="black" stroke-width="0.93" stroke-linecap="round" stroke-linejoin="round"/>
<path d="M297.431 162.94C298.021 162.64 298.371 162.31 298.671 162.35C300.061 162.52 301.531 162.57 302.811 163.05C310.581 165.95 316.301 170.78 318.391 178.84C319.081 181.5 318.981 184.21 318.731 186.9C318.351 190.98 317.161 194.86 315.001 198.41C312.591 202.37 309.111 205.23 304.881 207.35C303.561 208.01 301.861 208.2 301.091 209.7C301.521 210.97 301.931 212.25 302.391 213.51C304.341 218.95 303.321 223.88 299.671 228.37C297.841 230.62 295.711 232.6 293.161 234.1C291.981 234.79 290.621 235.22 289.321 235.7C288.721 235.92 287.811 235.57 287.911 235.27C288.031 234.9 288.181 234.48 288.471 234.25C289.531 233.37 290.701 232.6 291.751 231.71C293.541 230.19 295.431 228.74 297.001 227.04C300.571 223.16 301.361 218.69 299.521 213.82C298.701 211.64 297.521 209.64 296.091 207.79C292.781 203.51 288.971 199.77 283.571 197.88C283.341 197.8 283.171 197.54 282.851 197.25C283.271 197.13 283.631 196.91 283.941 196.97C285.171 197.22 286.431 197.44 287.581 197.9C290.351 198.99 292.721 200.68 294.841 202.71C295.841 203.66 296.791 204.66 297.781 205.62C298.321 206.15 299.001 206.29 299.721 206.07C305.741 204.18 310.481 200.81 313.241 195.21C315.651 190.32 316.451 185.17 315.771 179.82C315.401 176.93 314.171 174.38 312.291 172.11C309.231 168.44 305.411 165.76 300.841 164.06C299.821 163.68 298.771 163.39 297.441 162.96L297.431 162.94Z" fill="black" stroke="black" stroke-width="0.93" stroke-linecap="round" stroke-linejoin="round"/>
<path d="M104.691 206.49C104.601 209.67 104.421 211.79 103.481 213.83C100.261 220.8 92.6113 222.63 87.4213 221.42C83.7713 220.57 80.4811 219.15 78.2411 216.11C75.7611 212.74 74.051 209.09 74.201 204.84C74.261 203.17 74.8309 201.65 75.7709 200.29C77.5509 197.7 79.5513 195.28 82.2513 193.46C83.6913 192.49 85.201 191.92 86.951 191.92C88.221 191.92 89.4813 191.92 90.7513 191.94C94.3513 191.98 97.2713 193.54 99.7113 195.9C103.001 199.1 104.981 202.88 104.701 206.5L104.691 206.49ZM87.871 194.79C85.251 194.41 83.1912 195.49 81.3412 197.05C79.8512 198.3 78.5612 199.72 77.6512 201.42C76.7312 203.14 76.3612 204.94 76.5712 206.88C76.8112 209.08 77.6911 211.02 78.7411 212.94C80.7911 216.72 84.1312 218.69 88.4012 219.34C93.8212 220.17 99.6813 216.65 101.231 211.62C101.581 210.47 101.781 209.24 101.811 208.04C101.981 202.64 99.7512 198.37 94.4012 196C92.3012 195.07 90.0912 194.87 87.8812 194.79H87.871Z" fill="black" stroke="black" stroke-width="0.93" stroke-linecap="round" stroke-linejoin="round"/>
<path d="M189.861 152.93C190.051 152.53 190.091 152.17 190.271 152.09C194.311 150.26 198.211 150.52 201.821 153.06C204.931 155.24 207.451 157.97 209.261 161.24C210.461 163.4 211.141 165.73 211.281 168.21C211.491 171.75 211.231 175.24 210.031 178.61C207.641 185.31 204.241 191.5 199.531 196.98C198.551 198.12 197.401 199.13 196.261 200.13C195.501 200.81 194.521 200.96 193.491 200.83C191.701 200.61 190.701 198.48 191.811 197.12C192.321 196.49 192.961 195.94 193.621 195.44C199.281 191.19 203.341 185.71 206.641 179.68C209.011 175.34 209.701 170.7 208.521 165.92C207.291 160.93 203.931 157.33 199.711 154.42C198.071 153.29 196.131 152.89 194.101 152.92C192.711 152.94 191.321 152.92 189.851 152.92L189.861 152.93Z" fill="black" stroke="black" stroke-width="0.93" stroke-linecap="round" stroke-linejoin="round"/>
<path d="M185.491 278.33C186.171 277.68 187.071 277.89 187.891 277.83C197.001 277.13 203.171 272.18 207.771 265.08C209.441 262.5 210.011 259.54 209.581 256.51C208.861 251.42 207.781 246.41 205.561 241.69C205.111 240.72 204.731 239.68 204.571 238.64C204.341 237.17 205.941 236.15 207.411 236.68C208.251 236.98 208.891 237.52 209.261 238.25C209.751 239.21 210.171 240.23 210.471 241.26C211.861 246.08 212.771 250.97 213.131 255.98C213.531 261.55 211.691 266.32 207.991 270.52C205.511 273.34 202.621 275.66 199.291 277.49C195.321 279.68 191.091 280.18 186.641 279.34C186.091 279.24 185.591 278.97 185.481 278.34L185.491 278.33Z" fill="black" stroke="black" stroke-width="0.93" stroke-linecap="round" stroke-linejoin="round"/>
<path d="M173.701 184.52C173.741 193.67 170.581 200.1 163.791 204.82C162.401 205.78 160.951 206.58 159.191 206.67C158.781 206.69 158.361 206.61 157.941 206.57C157.401 206.51 157.031 205.68 157.411 205.31C158.301 204.46 159.201 203.62 160.171 202.86C161.371 201.92 162.691 201.13 163.871 200.18C167.471 197.25 169.431 193.48 170.031 189.02C170.441 185.93 170.471 182.84 170.071 179.75C169.221 173.12 165.681 168.5 159.061 166.21C157.611 165.71 156.091 165.38 154.621 164.94C154.411 164.88 154.231 164.62 154.091 164.43C153.901 164.17 154.401 163.81 154.981 163.82C162.041 163.91 167.491 166.67 170.721 172.83C171.661 174.62 172.361 176.57 172.811 178.53C173.361 180.89 173.531 183.32 173.701 184.55V184.52Z" fill="black" stroke="black" stroke-width="0.93" stroke-linecap="round" stroke-linejoin="round"/>
<path d="M480.441 199.64C486.151 196.55 491.071 192.54 495.911 188.44C499.711 185.22 503.471 181.97 507.261 178.75C510.211 176.24 513.151 173.72 516.161 171.28C517.221 170.42 518.441 169.72 519.661 169.08C520.511 168.63 521.641 169.03 522.301 169.8C522.941 170.55 523.031 171.67 522.341 172.41C521.601 173.2 520.781 173.96 519.871 174.57C515.731 177.37 511.601 180.18 507.381 182.87C501.401 186.68 495.491 190.58 489.861 194.86C487.431 196.71 484.941 198.47 482.081 199.69C481.621 199.89 481.111 200.24 480.441 199.64Z" fill="black" stroke="black" stroke-width="0.93" stroke-linecap="round" stroke-linejoin="round"/>
<path d="M322.371 228.51C322.931 228.57 323.541 228.51 324.041 228.7C329.841 231.05 333.811 234.97 335.321 240.96C335.721 242.56 335.731 244.17 335.381 245.78C334.051 251.95 330.311 256.53 325.021 260.05C323.501 261.06 321.771 261.7 319.851 261.5C319.441 261.46 319.041 261.3 318.641 261.19C318.071 261.03 317.811 260.24 318.251 259.91C319.591 258.92 320.911 257.91 322.311 257.01C324.431 255.65 326.491 254.21 328.141 252.35C329.411 250.92 330.651 249.4 331.531 247.73C333.681 243.66 333.321 239.62 330.721 235.8C329.241 233.63 327.291 231.87 325.091 230.36C324.191 229.74 323.321 229.07 322.441 228.42L322.371 228.49V228.51Z" fill="black" stroke="black" stroke-width="0.93" stroke-linecap="round" stroke-linejoin="round"/>
<path d="M228.221 271.57C230.181 271.36 232.171 271.26 234.101 270.92C241.741 269.56 247.031 265.25 250.501 258.72C251.421 256.99 251.661 255.1 251.611 253.2C251.551 251.04 251.471 248.88 250.811 246.77C250.571 246.01 250.491 245.18 250.431 244.38C250.371 243.54 251.001 242.74 251.781 242.53C252.701 242.28 253.881 242.75 254.261 243.62C254.581 244.36 254.971 245.15 255.001 245.92C255.101 248.75 255.261 251.61 255.021 254.42C254.801 257 253.601 259.36 252.121 261.54C249.531 265.35 246.161 268.41 241.981 270.56C238.001 272.61 233.801 273.5 229.331 272.14C228.951 272.02 228.631 271.72 228.291 271.5L228.221 271.57V271.57Z" fill="black" stroke="black" stroke-width="0.93" stroke-linecap="round" stroke-linejoin="round"/>
<path d="M210.422 215.65C210.462 223.22 205.231 230.79 198.091 233.51C196.761 234.02 195.431 234.42 193.991 234.01C193.411 233.85 192.982 233.46 193.002 232.87C193.012 232.51 193.201 232.02 193.491 231.83C194.051 231.46 194.711 231.16 195.371 230.99C202.841 229.07 206.321 223.86 207.741 217.05C208.411 213.86 207.181 211.25 204.451 209.26C202.611 207.92 200.491 207.27 198.351 206.59C198.221 206.55 198.172 206.17 198.152 205.94C198.152 205.86 198.312 205.73 198.422 205.67C198.672 205.55 198.931 205.39 199.201 205.39C205.301 205.23 210.381 209.88 210.411 215.63L210.422 215.65Z" fill="black" stroke="black" stroke-width="0.93" stroke-linecap="round" stroke-linejoin="round"/>
<path d="M489.921 207.22C492.501 206.14 495.071 205.06 497.651 203.99C498.291 203.72 498.991 203.54 499.601 203.22C505.261 200.19 511.421 198.19 517.221 195.45C517.851 195.15 518.511 194.9 519.181 194.73C520.231 194.46 521.541 195.08 522.031 196.01C522.611 197.1 522.291 198.63 521.231 199.26C520.531 199.68 519.731 200.02 518.931 200.21C516.751 200.72 514.541 201.14 512.331 201.57C509.571 202.11 506.881 202.84 504.211 203.73C500.761 204.88 497.241 205.82 493.751 206.86C492.521 207.23 491.291 207.42 490.011 207.17L489.931 207.23L489.921 207.22Z" fill="black" stroke="black" stroke-width="0.93" stroke-linecap="round" stroke-linejoin="round"/>
<path d="M278.441 269.54C279.181 268.4 279.941 267.28 280.641 266.12C282.871 262.45 284.281 258.53 284.771 254.29C285.111 251.41 284.741 248.61 283.871 245.88C282.631 241.96 280.581 238.69 275.931 237.77C275.761 237.74 275.551 237.35 275.581 237.16C275.611 236.94 275.871 236.62 276.081 236.58C276.621 236.47 277.201 236.39 277.731 236.48C280.721 237.02 282.721 238.88 284.271 241.24C286.031 243.92 286.931 246.91 287.291 250.03C287.791 254.4 287.161 258.67 285.511 262.78C284.481 265.34 282.981 267.62 280.611 269.26C280.081 269.63 279.421 269.84 278.821 270.12C278.691 269.93 278.571 269.74 278.441 269.54V269.54Z" fill="black" stroke="black" stroke-width="0.93" stroke-linecap="round" stroke-linejoin="round"/>
<path d="M128.441 245.47C131.401 246.4 134.081 247.86 136.761 249.35C145.261 254.1 153.761 258.84 162.261 263.59C162.981 263.99 163.671 264.47 164.301 264.99C164.881 265.47 164.911 266.55 164.491 267.25C164.101 267.88 163.011 268.24 162.271 267.95C161.881 267.8 161.491 267.63 161.141 267.42C160.551 267.06 159.951 266.7 159.411 266.27C152.831 261.2 145.801 256.73 138.801 252.22C136.001 250.42 133.121 248.73 130.281 246.99C129.591 246.57 128.731 246.31 128.551 245.38L128.461 245.46L128.441 245.47Z" fill="black" stroke="black" stroke-width="0.93" stroke-linecap="round" stroke-linejoin="round"/>
<path d="M341.081 216.83C340.781 216.07 341.431 215.62 341.741 215.07C343.011 212.81 344.461 210.63 345.521 208.29C348.541 201.65 347.041 195.63 342.371 190.18C341.751 189.45 340.951 188.86 340.301 188.16C340.061 187.9 339.921 187.5 339.871 187.15C339.821 186.84 340.751 186.9 341.381 187.28C343.321 188.44 345.031 189.87 346.241 191.72C349.891 197.3 351.051 203.19 348.311 209.47C346.971 212.55 344.811 214.99 341.871 216.78C341.681 216.9 341.361 216.82 341.081 216.83V216.83Z" fill="black" stroke="black" stroke-width="0.93" stroke-linecap="round" stroke-linejoin="round"/>
<path d="M490.381 270.42C495.301 273.15 499.551 276.67 503.551 280.5C506.951 283.76 510.611 286.7 514.711 289.14C516.141 289.99 517.491 290.98 518.831 291.96C519.511 292.46 519.641 293.49 519.251 294.17C518.801 294.95 517.491 295.34 516.671 294.86C516.081 294.51 515.541 294.07 515.031 293.62C513.071 291.87 511.121 290.12 509.191 288.34C506.861 286.18 504.511 284.04 502.241 281.82C498.791 278.43 495.421 274.98 491.451 272.14C490.881 271.73 490.371 271.27 490.431 270.5L490.371 270.42H490.381Z" fill="black" stroke="black" stroke-width="0.93" stroke-linecap="round" stroke-linejoin="round"/>
<path d="M86.521 174.08C87.581 174.37 88.9214 174.71 90.2314 175.13C90.6114 175.25 90.9414 175.56 91.2514 175.82C91.9414 176.4 92.1211 177.6 91.6611 178.42C91.2211 179.2 90.471 179.64 89.601 179.53C88.651 179.4 87.701 179.11 86.831 178.71C85.441 178.08 84.0912 178.14 82.8012 178.81C81.3312 179.57 79.9112 180.41 78.5312 181.32C77.8512 181.77 77.3414 182.45 76.7514 183.01C75.8814 183.84 75.0113 184.09 74.6313 183.61C74.0213 182.83 74.3712 182.08 74.7812 181.38C76.7912 177.94 79.9414 175.8 83.7114 174.45C84.4714 174.18 85.361 174.23 86.521 174.09V174.08Z" fill="black" stroke="black" stroke-width="0.93" stroke-linecap="round" stroke-linejoin="round"/>
<path d="M492.821 259.91C493.601 260.55 494.381 261.19 495.161 261.82L495.221 261.75C494.131 261.53 493.331 260.96 492.861 259.99L492.821 259.9V259.91Z" fill="black" stroke="black" stroke-width="0.93" stroke-linecap="round" stroke-linejoin="round"/>
<path d="M490.441 270.49C490.291 270.47 490.131 270.45 489.981 270.42C490.031 270.48 490.111 270.59 490.141 270.58C490.231 270.55 490.301 270.47 490.381 270.41L490.441 270.49V270.49Z" fill="black" stroke="black" stroke-width="0.93" stroke-linecap="round" stroke-linejoin="round"/>
<path d="M492.861 260C492.891 259.64 492.741 259.55 492.451 259.8C492.411 259.84 492.491 260.01 492.521 260.13C492.621 260.06 492.721 259.99 492.831 259.92L492.871 260.01L492.861 260Z" fill="black" stroke="black" stroke-width="0.93" stroke-linecap="round" stroke-linejoin="round"/>
<path d="M126.761 244.71C127.321 244.96 127.881 245.22 128.441 245.47L128.531 245.39C127.851 245.43 127.191 245.42 126.861 244.69L126.771 244.71H126.761Z" fill="black" stroke="black" stroke-width="0.93" stroke-linecap="round" stroke-linejoin="round"/>
<path d="M485.331 242.09C485.171 242.09 485.021 242.09 484.861 242.08C484.991 242.1 485.111 242.11 485.241 242.13L485.331 242.09Z" fill="black" stroke="black" stroke-width="0.93" stroke-linecap="round" stroke-linejoin="round"/>
<path d="M322.441 228.44C322.281 228.35 322.111 228.27 321.951 228.18C322.031 228.2 322.141 228.19 322.191 228.24C322.271 228.31 322.311 228.42 322.371 228.51L322.441 228.44V228.44Z" fill="black" stroke="black" stroke-width="0.93" stroke-linecap="round" stroke-linejoin="round"/>
<path d="M228.291 271.5L228.221 271.57L228.291 271.5Z" fill="black" stroke="black" stroke-width="0.93" stroke-linecap="round" stroke-linejoin="round"/>
<path d="M490.001 207.17L489.851 207.33L489.921 207.22L490.001 207.17Z" fill="black" stroke="black" stroke-width="0.93" stroke-linecap="round" stroke-linejoin="round"/>
<path d="M126.861 244.69L126.641 244.67L126.761 244.71L126.861 244.69Z" fill="black" stroke="black" stroke-width="0.93" stroke-linecap="round" stroke-linejoin="round"/>
<path d="M478.291 148.15C478.141 148.03 477.991 147.91 477.841 147.79C477.921 147.83 478.041 147.85 478.091 147.91C478.161 148 478.171 148.12 478.211 148.23L478.291 148.15Z" fill="black" stroke="black" stroke-width="0.93" stroke-linecap="round" stroke-linejoin="round"/>
<path d="M154.931 30.9897C154.811 30.9197 154.612 30.8697 154.592 30.7797C154.542 30.5597 154.461 30.2398 154.581 30.0998C154.841 29.7898 155.171 29.5198 155.531 29.3198C162.041 25.7998 168.171 21.7097 174.371 17.7197C176.251 16.5097 178.171 15.3899 180.311 14.6699C180.711 14.5399 181.232 14.3598 181.402 14.8498C181.502 15.1498 181.332 15.6799 181.092 15.9299C180.032 16.9999 179.011 18.1697 177.761 19.0097C171.541 23.2197 165.062 27.0298 158.132 30.0998C157.242 30.4898 156.282 30.7197 155.342 31.0097C155.212 31.0497 155.062 31.0097 154.922 30.9897H154.931Z" fill="black" stroke="black" stroke-width="0.93" stroke-linecap="round" stroke-linejoin="round"/>
<path d="M187.601 14.9897C187.671 17.5797 186.511 19.7297 184.711 21.4897C180.141 25.9497 174.961 29.5699 168.751 31.6799C168.511 31.7599 168.211 31.6899 167.911 31.6899C167.461 31.2699 167.881 30.9698 168.181 30.8098C174.101 27.5798 179.071 23.2697 183.631 18.4697C184.841 17.1997 185.881 15.6998 187.671 15.0398L187.621 14.9998L187.601 14.9897Z" fill="black" stroke="black" stroke-width="0.93" stroke-linecap="round" stroke-linejoin="round"/>
<path d="M158.041 59.6599C158.171 59.7099 158.321 59.7298 158.431 59.8098C162.751 62.7198 167.521 63.2699 172.551 62.1299C174.031 61.7899 175.441 61.15 176.901 60.7C177.101 60.64 177.551 60.79 177.631 60.96C177.781 61.27 177.891 61.7298 177.761 62.0198C177.351 62.9398 176.511 63.4998 175.541 63.7598C172.691 64.5398 169.791 65.16 166.811 64.96C163.411 64.73 160.651 63.19 158.471 60.71C158.231 60.44 158.231 59.9598 158.121 59.5798L158.051 59.6699L158.041 59.6599Z" fill="black" stroke="black" stroke-width="0.93" stroke-linecap="round" stroke-linejoin="round"/>
<path d="M171.661 51.4298C173.171 51.7298 174.671 52.0697 176.191 52.3097C176.791 52.4097 177.351 52.0199 177.431 51.4499C177.581 50.3899 177.601 49.3096 177.611 48.2296C177.641 45.3996 177.611 42.5696 177.661 39.7396C177.671 39.2496 177.981 38.7497 178.251 38.2997C178.341 38.1497 178.761 38.0798 179.001 38.1298C179.231 38.1698 179.561 38.3697 179.611 38.5597C179.751 39.0697 179.881 39.6198 179.811 40.1198C179.331 43.4698 179.071 46.8199 179.291 50.1999C179.331 50.8599 179.221 51.5499 179.121 52.2099C178.961 53.2699 178.191 53.9396 177.161 53.9796C175.431 54.0396 173.761 53.7899 172.391 52.7099C172.021 52.4199 171.931 51.8097 171.711 51.3397L171.651 51.4298H171.661Z" fill="black" stroke="black" stroke-width="0.93" stroke-linecap="round" stroke-linejoin="round"/>
<path d="M161.081 41.2298C161.161 42.1498 160.451 43.0298 159.471 43.2198C158.511 43.3998 157.542 42.7198 157.402 41.7598C157.252 40.7298 158.262 39.7298 159.422 39.7498C160.202 39.7598 161.011 40.4898 161.081 41.2298V41.2298Z" fill="black" stroke="black" stroke-width="0.93" stroke-linecap="round" stroke-linejoin="round"/>
<path d="M188.941 40.8898C188.711 41.1898 188.361 41.7299 187.921 42.1999C187.771 42.3499 187.401 42.3898 187.141 42.3498C186.331 42.2498 185.821 41.1598 186.041 40.0698C186.171 39.3998 186.861 38.8398 187.491 38.8898C188.241 38.9598 188.961 39.7798 188.951 40.8798L188.941 40.8898Z" fill="black" stroke="black" stroke-width="0.93" stroke-linecap="round" stroke-linejoin="round"/>
<path d="M171.711 51.3398L171.531 51.4897L171.661 51.4299L171.711 51.3398Z" fill="black" stroke="black" stroke-width="0.93" stroke-linecap="round" stroke-linejoin="round"/>
<path d="M158.111 59.5698L158.041 59.6599L158.111 59.5698Z" fill="black" stroke="black" stroke-width="0.93" stroke-linecap="round" stroke-linejoin="round"/>
<path d="M444.301 54.0198C442.111 54.0698 440.341 53.6097 438.851 52.4997C437.301 51.3497 435.731 50.1798 434.381 48.8198C431.051 45.4798 428.511 41.5999 426.501 37.4099C426.331 37.0599 426.231 36.6498 426.231 36.2598C426.231 36.0598 426.511 35.8399 426.691 35.6699C426.781 35.5899 426.991 35.5398 427.091 35.5898C427.451 35.7798 427.871 35.9497 428.111 36.2397C429.061 37.4097 429.961 38.6198 430.851 39.8298C434.381 44.6098 438.441 48.8597 443.891 51.7197C444.491 52.0397 445.011 52.5099 445.551 52.9299C445.641 52.9999 445.711 53.1998 445.671 53.2798C445.561 53.4898 445.431 53.7798 445.231 53.8498C444.841 53.9898 444.411 53.9998 444.291 54.0198H444.301Z" fill="black" stroke="black" stroke-width="0.93" stroke-linecap="round" stroke-linejoin="round"/>
<path d="M447.481 49.3298C440.621 46.2698 436.391 40.8299 433.021 34.6299C432.901 34.4099 432.861 34.0999 432.931 33.8599C432.991 33.6399 433.231 33.2998 433.421 33.2898C433.961 33.2498 434.561 33.2399 435.051 33.4299C435.541 33.6199 436.011 34.0099 436.351 34.4199C439.841 38.6399 443.301 42.8799 446.761 47.1299C447.271 47.7599 447.791 48.4398 447.401 49.3398H447.491L447.481 49.3298Z" fill="black" stroke="black" stroke-width="0.93" stroke-linecap="round" stroke-linejoin="round"/>
<path d="M422.291 78.3999C423.041 78.7299 423.801 79.0599 424.551 79.3999C425.561 79.8699 426.531 80.4199 427.561 80.8299C431.931 82.5299 435.781 81.5699 439.201 78.6199C439.721 78.1699 440.181 77.6398 440.761 77.2998C441.031 77.1398 441.581 77.2299 441.911 77.3899C442.481 77.6699 442.571 78.2598 442.421 78.7898C442.311 79.1498 442.051 79.5298 441.741 79.7698C439.421 81.5498 436.881 82.9299 433.951 83.5799C431.511 84.1199 429.201 83.77 427.011 82.7C425.001 81.72 423.131 80.5499 422.361 78.3399L422.301 78.3899L422.291 78.3999Z" fill="black" stroke="black" stroke-width="0.93" stroke-linecap="round" stroke-linejoin="round"/>
<path d="M431.081 60.1699C431.691 61.0099 431.361 61.6498 431.131 62.2498C430.611 63.6298 430.001 64.9899 429.491 66.3699C428.691 68.5299 428.761 68.6299 431.021 69.5999C431.391 69.7599 431.791 69.93 432.071 70.2C432.471 70.59 432.651 71.0899 432.411 71.6599C432.171 72.2199 431.721 72.53 431.121 72.45C428.711 72.14 426.921 70.16 427.631 67.96C428.501 65.29 429.611 62.7199 431.071 60.1699H431.081Z" fill="black" stroke="black" stroke-width="0.93" stroke-linecap="round" stroke-linejoin="round"/>
<path d="M445.781 63.9199C445.781 64.5999 445.221 65.1199 444.451 65.1599C443.271 65.2199 442.442 64.5599 442.502 63.5999C442.542 62.9299 443.131 62.3698 443.841 62.3198C444.951 62.2498 445.791 62.9399 445.791 63.9099L445.781 63.9199Z" fill="black" stroke="black" stroke-width="0.93" stroke-linecap="round" stroke-linejoin="round"/>
<path d="M421.181 57.7799C420.611 57.8599 420.071 57.5098 419.931 56.9698C419.711 56.0998 420.331 55.1799 421.131 55.2499C421.751 55.3099 422.121 55.7299 422.241 56.2899C422.381 56.9699 421.851 57.6799 421.181 57.7799V57.7799Z" fill="black" stroke="black" stroke-width="0.93" stroke-linecap="round" stroke-linejoin="round"/>
<path d="M447.381 49.3298L447.681 49.1899L447.481 49.3298H447.381Z" fill="black" stroke="black" stroke-width="0.93" stroke-linecap="round" stroke-linejoin="round"/>
<path d="M421.451 77.4299C421.731 77.7499 422.011 78.0799 422.281 78.3999L422.341 78.3499C422.071 78.0699 421.791 77.7798 421.521 77.4998L421.451 77.4399V77.4299Z" fill="black" stroke="black" stroke-width="0.93" stroke-linecap="round" stroke-linejoin="round"/>
<path d="M421.531 77.4897C421.451 77.4397 421.361 77.3898 421.281 77.3398C421.161 77.6098 421.221 77.6299 421.461 77.4199L421.531 77.4797V77.4897Z" fill="black" stroke="black" stroke-width="0.93" stroke-linecap="round" stroke-linejoin="round"/>
<path d="M312.171 110.05L312.401 109.99L312.111 110.06L312.171 110.05Z" fill="black" stroke="black" stroke-width="0.93" stroke-linecap="round" stroke-linejoin="round"/>
<path d="M386.791 285.21C386.961 285.31 387.131 285.42 387.311 285.52C386.961 285.96 386.821 285.62 386.661 285.36L386.801 285.2L386.791 285.21Z" fill="black" stroke="black" stroke-width="0.93" stroke-linecap="round" stroke-linejoin="round"/>
<path d="M382.331 296.67C382.431 296.71 382.541 296.75 382.641 296.8L382.401 296.6L382.321 296.67H382.331Z" fill="black" stroke="black" stroke-width="0.93" stroke-linecap="round" stroke-linejoin="round"/>
<path d="M95.1012 206.25C95.4012 211.25 91.5814 213.85 88.9014 214.33C85.5814 214.92 82.2013 212.17 81.9913 208.75C81.8013 205.47 83.8313 202.28 86.9713 200.94C89.7413 199.76 92.8315 200.71 94.1715 203.32C94.7715 204.5 94.9812 205.86 95.1012 206.25ZM90.6915 205.83C90.8615 204.21 89.5615 202.59 87.9215 202.39C86.4815 202.21 85.0615 203.53 84.9815 205.12C84.9015 206.7 85.9913 208.07 87.5113 208.29C89.0713 208.51 90.5215 207.39 90.6915 205.83Z" fill="black" stroke="black" stroke-width="0.93" stroke-linecap="round" stroke-linejoin="round"/>
</svg>
