<svg width="132" height="32" viewBox="0 0 132 32" fill="none" xmlns="http://www.w3.org/2000/svg">
<g clip-path="url(#clip0_101_2)">
<path d="M32.41 8.73C32.41 4.14 28.66 0.389999 24.07 0.389999H0V31.31H0.75C7.54 31.31 13.03 25.78 12.99 18.99C12.99 18.99 13.07 31.15 31.29 31.31V17.05C31.29 17.05 24.78 24.42 13.15 17.07H24.06C28.65 17.07 32.4 13.32 32.4 8.73H32.41ZM19.36 9.07C19.36 12.56 16.5 15.42 13.01 15.42V1.53C16.5 1.53 19.36 4.39 19.36 7.88V9.07Z" fill="white"/>
<path d="M131.84 0.380005H100.5V13.38C103.97 13.38 108.21 7.8 109.63 4.04L109.67 31.31H122.67L122.71 4.04C124.13 7.8 128.37 13.38 131.84 13.38V0.380005Z" fill="white"/>
<path d="M49.16 0C40.52 0 33.51 7.1 33.51 15.85C33.51 24.6 40.52 31.7 49.16 31.7C57.8 31.7 64.81 24.6 64.81 15.85C64.81 7.1 57.8 0 49.16 0ZM49.16 29.13C47.51 29.13 46.18 23.18 46.18 15.85C46.18 8.52 47.51 2.57 49.16 2.57C50.81 2.57 52.14 8.52 52.14 15.85C52.14 23.18 50.81 29.13 49.16 29.13Z" fill="white"/>
<path d="M82.65 0C74.01 0 67 7.1 67 15.85C67 24.6 74.01 31.7 82.65 31.7C91.29 31.7 98.3 24.6 98.3 15.85C98.3 7.1 91.29 0 82.65 0ZM82.65 29.13C81 29.13 79.67 23.18 79.67 15.85C79.67 8.52 81 2.57 82.65 2.57C84.3 2.57 85.63 8.52 85.63 15.85C85.63 23.18 84.3 29.13 82.65 29.13Z" fill="white"/>
</g>
<defs>
<clipPath id="clip0_101_2">
<rect width="131.84" height="31.7" fill="white"/>
</clipPath>
</defs>
</svg>
