<?xml version="1.0" encoding="UTF-8"?><svg id="Layer_1" xmlns="http://www.w3.org/2000/svg" viewBox="0 0 96.94 55.61"><path d="M42.31,19.72c-.22,.19-.45,.38-.66,.57-.11,.1-.18,.27-.3,.32-.17,.06-.29,.14-.33,.32,0,.02-.05,.04-.08,.06-.46,.22-.61,.74-.99,1.05-.08,.07-.1,.21-.18,.29-.11,.11-.24,.21-.36,.31-.06,.05-.13,.09-.17,.15-.33,.46-.66,.92-.98,1.38-.07,.1-.38,.48-.52,.6-.02,.02-.06,.03-.07,.06-.18,.33-.37,.65-.58,1.04-.45-.23-.92-.15-1.45-.1-.04-.48-.08-.92-.14-1.47-.1,.22-.16,.35-.2,.48-.02,.04,.03,.13,0,.14-.33,.26-.26,.71-.49,1.03-.2,.28-.18,.7-.33,1.02-.2,.45-.45,.89-.73,1.29-.17,.24-.44,.4-.78,.17-.13-.09-.36-.08-.53-.05-.82,.19-.85-.06-1-.67-.15-.62-.27-1.28-.01-1.92,.02-.04,.01-.1,0-.15-.15-.77,.05-1.52,.07-2.29,0-.2,.05-.39,.06-.59,0-.07-.03-.14-.09-.22-.13,.33-.4,.62-.29,1.01-.28,.29-.09,.75-.43,1.06-.19,.18-.21,.55-.31,.84-.07,.2-.09,.43-.2,.6-.31,.51-.44,1.06-.56,1.63-.22-.08-.41,0-.37,.22,.07,.39-.27,.54-.41,.79-.13,.23-.46,.42-.72,.46-.33,.05-.7-.03-1.02-.15-.33-.13-.46-.47-.6-.8-.11-.25-.1-.5-.15-.75-.15-.66-.22-1.34-.15-2.01,.08-.79,.13-1.59,.39-2.35,0-.03-.01-.06-.03-.16-.09,.18-.13,.4-.23,.43-.41,.12-.48,.48-.64,.79-.11,.2-.37,.44-.57,.45-.31,.02-.2,.27-.32,.38-.12,.11-.14,.36-.27,.43-.2,.11-.36,.21-.39,.45,0,.03-.03,.06-.06,.08q-.48,.37-.66,.77c-.13,.27-.62,.68-.92,.75-.04,.28-.17,.48-.4,.69-.24,.21-.48,.47-.66,.76-.12,.2-.3,.35-.46,.52-.23,.25-.44,.53-.71,.73-.38,.28-.7,.77-1.21,.76-.69-.01-1.37-.13-2.05-.25-.17-.03-.33-.22-.45-.38-.34-.47-.51-1.02-.56-1.6-.13-1.57,.03-3.1,.51-4.6,.25-.79,.5-1.58,.87-2.33,.19-.38,.33-.8,.56-1.16,.58-.92,1.18-1.83,1.94-2.62,.46-.48,.88-.98,1.37-1.44,.49-.46,1.04-.84,1.69-1.06,.27-.09,.54-.29,.79-.26,.2,.02,.38,.3,.57,.47,.16,.14,.34,.27,.45,.45,.15,.24,.07,.51-.14,.71-.05,.05-.13,.08-.14,.14-.1,.49-.49,.8-.7,1.22-.1,.2-.24,.38-.36,.56-.25,.4-.52,.79-.75,1.2-.07,.12-.13,.15-.24,.19-.12,.05-.27,.15-.29,.25-.09,.33-.28,.58-.45,.86-.12,.19-.21,.36-.39,.52-.42,.36-.79,.77-1.18,1.17-.05,.05-.11,.11-.1,.17,.01,.2-.12,.13-.22,.17-.15,.07-.36,.03-.48,.27-.08,.16-.38,.23-.6,.29-.16,.04-.33,0-.57,0-.08,.22-.2,.46-.24,.7-.18,.93-.31,1.87-.38,2.81-.06,.77,0,1.53,.18,2.27,.09,.38,.35,.51,.67,.28,.32-.23,.63-.51,.9-.8,.43-.46,.84-.95,1.24-1.44,.37-.45,.72-.91,1.08-1.36,.46-.57,.92-1.15,1.39-1.7,.45-.53,.92-1.05,1.4-1.56,.37-.4,.81-.76,1.12-1.2,.61-.86,1.44-1.53,2.09-2.35,.25-.31,.56-.55,.88-.8,.51-.39,.93-.9,1.43-1.31,.42-.35,.9-.63,1.36-.93,.12-.08,.29-.08,.47-.13,0,.11,.02,.19,.02,.31,.18,.05,.35,.07,.42-.18,.21-.79,.45-1.58,.64-2.37,.25-1.02,.47-2.05,.85-3.03,.11-.29,.19-.6,.32-.89,.16-.37,.64-.42,.99-.2,.18,.11,.3,.29,.24,.51-.2,.76-.41,1.51-.62,2.27-.06,.22-.15,.44-.2,.66-.16,.75-.31,1.5-.46,2.25-.16,.8-.33,1.61-.47,2.41-.05,.26-.03,.53-.06,.79-.12,.94-.26,1.87-.36,2.81-.07,.69-.08,1.38-.12,2.07-.04,.61-.08,1.22-.11,1.83,0,.17,.03,.33,.04,.5,.04,0,.07,0,.11,.01,.1-.19,.22-.37,.29-.57,.27-.75,.53-1.5,.79-2.25,.28-.8,.54-1.6,.84-2.39,.23-.6,.52-1.17,.76-1.76,.15-.37,.27-.75,.42-1.11,.12-.29,.24-.58,.39-.86,.26-.49,.47-1,.65-1.53,.17-.53,.46-1.03,.69-1.54,.05-.11,.63-.3,.73-.24,.17,.1,.34,.19,.49,.32,.08,.07,.17,.19,.16,.28,0,.28-.03,.57-.1,.84-.13,.49-.3,.97-.45,1.46-.08,.27-.14,.54-.2,.81-.15,.69-.29,1.37-.43,2.06-.07,.33-.14,.65-.2,.98-.04,.22,0,.47-.28,.6-.05,.02-.09,.2-.06,.27,.18,.42-.04,.81-.08,1.21,0,.06-.02,.12,.03,.22,.19-.2,.42-.37,.56-.6,.43-.68,1.1-1.12,1.65-1.67,.59-.59,1.21-1.14,1.84-1.68,.75-.66,1.52-1.3,2.29-1.93,.66-.55,1.33-1.1,2.02-1.62,.34-.26,.71-.49,1.1-.67,.3-.14,.55-.3,.68-.6,.15-.35,.3-.7,.4-1.07,.13-.52,.29-1.04,.39-1.57,.04-.23,.09-.46,.19-.66,.13-.28,.45-.42,.74-.37,.64,.12,.89,.55,.77,1.19-.13,.65-.22,1.3-.28,1.96-.03,.33,.03,.66-.18,.95-.04,.06-.04,.16-.03,.24,.06,.33,.08,.64,0,.98-.05,.19,.06,.43,.05,.64-.03,.62-.1,1.25-.11,1.87-.01,.52,.03,1.05,.04,1.58,0,.54,0,1.09-.01,1.63,0,.51,0,1.03-.03,1.54-.02,.41,.03,.88-.15,1.22-.22,.41-.05,.78-.19,1.25-.06,.02-.23,.15-.34,.12-.36-.1-.65,0-.93,.21-.09,.07-.21,.09-.38,.16-.07-.24-.2-.45-.19-.67,.02-.7-.08-1.37-.23-2.04-.01-.05,0-.1,0-.18,.36-.1,.45-.36,.43-.72-.02-.24,.07-.49,.1-.74,.02-.2,.01-.4,.02-.59,.03-.52,.06-1.03,.08-1.55,0-.17,.01-.34-.01-.5-.01-.08-.1-.14-.19-.26-.07,.14-.14,.23-.14,.31,.02,.45-.19,.8-.43,1.15-.13,.19-.11,.5-.16,.75-.03,.14-.05,.3-.12,.42-.35,.58-.55,1.23-.77,1.87-.02,.05-.03,.1-.05,.14-.25,.46-.45,.95-.77,1.36-.15,.19-.26,.38-.38,.58-.13,.21-.32,.4-.53,.52-.19,.1-.44,.09-.67,.13-.21,.04-.43,.04-.62,.11-.48,.17-.64,.1-.82-.38-.04-.11-.1-.22-.18-.3-.32-.32-.37-.74-.39-1.16-.05-1.13,.12-2.23,.49-3.3,.13-.38,.26-.76,.39-1.15-.03-.03-.05-.06-.08-.09Zm-10.75-1.26c-.29-.12-.33-.13-.46,0-.27,.28-.51,.6-.89,.75-.05,.02-.11,.1-.12,.15-.08,.35-.39,.51-.57,.78-.36,.55-.75,1.1-1.03,1.7-.3,.66-.52,1.35-.7,2.06-.09,.35-.06,.72-.24,1.07-.09,.17,0,.42,0,.64-.02,.61-.06,1.22-.05,1.84,0,.32,.09,.64,.35,.89,.35-.35,.51-.77,.67-1.18,.31-.77,.66-1.52,.94-2.3,.31-.84,.56-1.7,.84-2.55,.11-.34,.26-.68,.37-1.02,.2-.62,.39-1.24,.58-1.86,.1-.33,.19-.66,.29-.99Zm15.24-2.31c-.22,.19-.37,.38-.56,.48-.67,.33-1.11,.9-1.52,1.48-.32,.45-.64,.9-.83,1.45-.16,.47-.49,.87-.61,1.38-.11,.5-.31,.98-.4,1.48-.1,.53-.18,1.08-.16,1.62,.02,.44,.02,.93,.42,1.4,.1-.15,.16-.27,.25-.37,.39-.41,.56-.95,.78-1.45,.53-1.19,1.01-2.4,1.49-3.62,.25-.64,.43-1.3,.65-1.96,.17-.51,.36-1.02,.52-1.54,.03-.09-.02-.21-.04-.37Zm-28.13,6.57c.17-.1,.31-.14,.37-.23,.51-.66,1-1.32,1.49-1.98,.26-.36,.51-.73,.76-1.1,.42-.62,.85-1.23,1.25-1.87,.11-.17,.13-.38,.19-.59-.09-.01-.12-.02-.12-.02-.1,.1-.19,.22-.31,.31-.73,.55-1.3,1.23-1.81,1.97-.06,.09-.21,.16-.22,.24-.02,.32-.35,.39-.46,.63-.11,.23-.18,.48-.27,.72-.02,.05-.06,.08-.08,.13-.16,.38-.54,.63-.62,1.06-.04,.2-.1,.4-.18,.71Z"/><path d="M52.5,28.86c.06,.55,.6,.84,.45,1.42,.33,.09,.66,.15,.95,.28,.76,.34,1.36,.85,1.86,1.54,.35,.48,.58,1.03,.57,1.57-.01,.57,.14,1.24-.38,1.73-.04,.04-.05,.13-.05,.19,0,.48-.26,.85-.5,1.23-.07,.11-.14,.23-.17,.36-.13,.46-.41,.82-.67,1.2-.36,.54-.79,1.06-1.04,1.65-.2,.46-.45,.82-.78,1.18-.24,.26-.38,.61-.54,.94-.32,.65-.63,1.31-1.17,1.83-.08,.07-.12,.2-.15,.31-.06,.27-.14,.51-.41,.66-.09,.05-.13,.19-.18,.29-.12,.25-.23,.52-.53,.62-.07,.02-.16,.13-.15,.18,.06,.35-.17,.56-.33,.82-.22,.38-.37,.81-.57,1.2-.19,.36-.42,.71-.64,1.05-.05,.08-.15,.13-.21,.18-.37-.3-.72-.54-1.2-.51-.21,.02-.34-.14-.36-.34-.02-.16-.05-.34,0-.49,.25-.8,.24-1.65,.51-2.45,.08-.23,.11-.44,.1-.69,0-.2,.03-.43,.03-.65,0-.21,.21-.43,.33-.65,.03-.06,.06-.13,.06-.19-.06-.91,.35-1.72,.5-2.59,.1-.57,.3-1.11,.5-1.64,.24-.63,.33-1.3,.6-1.93,.25-.57,.34-1.21,.51-1.82,.07-.26,.12-.53,.23-.77,.15-.33,.14-.7,.38-1.01,.11-.15,.03-.43,.09-.63,.13-.46,.3-.91,.44-1.36,.06-.21,.09-.44,.15-.73-.32,.07-.57,.12-.87,.19,.06-.11,.09-.18,.16-.31-.35,.1-.51,.72-.99,.33-.11,.15-.26,.26-.5,.33-.17,.05-.38-.2-.54,.09-.06,.1-.38,.14-.54,.09-.37-.11-.71,.27-1.08,.05-.06-.03-.21,.1-.36,.18v-.33c-.23,.59-.84,.32-1.25,.56,.02,.12,0,.28,.06,.37,.37,.55,.44,1.19,.55,1.81,.08,.45,.01,.93-.01,1.39-.04,.75-.03,1.51-.17,2.25-.13,.68-.1,1.4-.49,2.02-.03,.05-.02,.13-.03,.19-.04,.29-.09,.59-.13,.88-.02,.16-.05,.32-.06,.49,0,.21-.02,.36-.18,.56-.21,.26-.29,.67-.35,1.02-.05,.32-.18,.57-.33,.84-.19,.34-.51,.63-.47,1.08,0,.05-.06,.12-.1,.17-.33,.32-.52,.73-.73,1.14-.07,.14-.23,.24-.35,.35-.07,.06-.18,.09-.24,.17-.16,.2-.34,.21-.58,.15-.37-.1-.74-.15-1.11-.22-.65-.12-1.06-.56-1.2-1.3-.2-1.04-.11-2.09,.03-3.13,.09-.68,.21-1.35,.32-2.02,0-.05,0-.11,.02-.15,.34-.69,.28-1.5,.61-2.2,.17-.35,.2-.77,.33-1.14,.18-.53,.37-1.07,.59-1.58,.41-.94,.84-1.87,1.28-2.8,.07-.15,.16-.3,.27-.42,.16-.18,.18-.34,.05-.54-.07-.11-.07-.26-.12-.45,.54,.12,.81-.21,1.1-.46,.32-.28,.72-.3,.98,.02,.18,.21,.32,.3,.63,.21,1.83-.48,3.69-.86,5.51-1.4,.66-.2,1.36-.27,2.09-.41Zm-3.53,15.28c.21-.28,.44-.54,.62-.83,.2-.32,.32-.7,.53-1.01,.52-.77,1.14-1.47,1.51-2.34,.04-.09,.13-.16,.18-.24,.43-.65,.88-1.29,1.27-1.96,.43-.74,.78-1.53,1.23-2.25,.31-.51,.46-1.04,.6-1.6,.09-.36,.04-.72-.05-1.03-.11-.4-.3-.81-.73-1.04-.53-.28-1.11-.26-1.7-.37-.14,.48-.31,.9-.4,1.34-.1,.48-.16,.97-.49,1.37-.03,.04-.02,.11-.02,.17-.07,.7-.23,1.38-.53,2.02-.04,.09-.08,.18-.1,.28-.18,.68-.34,1.36-.53,2.03-.04,.15-.17,.28-.21,.44-.17,.67-.31,1.34-.49,2-.13,.47-.37,.92-.42,1.39-.05,.55-.18,1.07-.29,1.64Zm-8.38,1.54c.2-.24,.37-.42,.51-.62,.24-.36,.45-.74,.67-1.12,.1-.17,.18-.35,.26-.54,.3-.71,.55-1.43,.78-2.17,.23-.73,.43-1.47,.57-2.22,.18-.91,.26-1.84,.39-2.75,.15-1,.12-1.99,.02-2.99-.03-.27-.13-.51-.34-.7-.2,.35-.4,.67-.57,1.01-.17,.33-.39,.66-.44,1.01-.12,.88-.68,1.63-.72,2.53-.34,.57-.37,1.23-.57,1.84-.18,.53-.43,1.05-.37,1.64,.01,.11,.05,.25,0,.34-.19,.4-.28,.8-.32,1.25-.06,.7-.17,1.39-.06,2.09,0,.06,0,.13-.02,.19-.14,.41,.03,.76,.2,1.19Z"/><path d="M9.49,7.55c.15,.31,.16,.6,.09,.93-.2,1.03-.34,2.07-.51,3.11-.07,.4-.18,.8-.25,1.2-.03,.19,0,.4-.04,.6-.14,.8-.17,1.61-.29,2.41-.07,.49-.15,.99-.19,1.48-.04,.4,0,.82-.05,1.24-.08,.73-.16,1.46-.22,2.19-.04,.47-.01,.95-.03,1.43-.04,1.13-.1,2.25-.15,3.47,.32-.52,.25-1.08,.59-1.48,.04-.05,0-.16,.02-.24,.02-.18,.03-.37,.08-.55,.22-.77,.46-1.53,.7-2.29,.19-.63,.37-1.27,.58-1.9,.29-.88,.59-1.76,.9-2.63,.3-.81,.61-1.62,.93-2.43,.08-.21,.23-.4,.33-.6,.13-.28,.26-.56,.37-.85,.42-1.15,1.02-2.21,1.61-3.27,.11-.2,.23-.4,.36-.59,.32-.5,.74-.73,1.34-.55,.05,.01,.1,.02,.14,.02,.25,.34,.17,.73,.12,1.08-.11,.76-.29,1.51-.43,2.26-.1,.54-.16,1.09-.24,1.64-.12,.8-.26,1.61-.36,2.41-.1,.71-.17,1.42-.24,2.14-.09,.82-.19,1.65-.27,2.48-.06,.66-.07,1.32-.12,1.98-.03,.37-.12,.74-.15,1.11-.03,.29,0,.59-.02,.89-.01,.39-.02,.78-.05,1.17-.09,1.13-.2,2.26-.29,3.39-.09,1.11-.18,2.21-.23,3.32-.03,.83,0,1.65,.02,2.52-.36,.04-.72,.07-1.09,.11-.26-.48-.29-1.02-.31-1.53-.04-.91,0-1.83,.06-2.74,.07-1.15,.2-2.29,.31-3.44,.11-1.12,.21-2.25,.35-3.37,.07-.54,.12-1.08,.12-1.63,0-.55,.08-1.09,.15-1.64,.13-1.05,.27-2.11,.4-3.16,.04-.33,.09-.66,.14-.98,.12-.75,.28-1.5,.36-2.26,.05-.46,.11-.91,.19-1.36,.07-.39,.19-.77,.27-1.16,.06-.31,.07-.62,.1-.93-.04,0-.07-.02-.11-.03-.05,.08-.1,.15-.14,.23-.05,.11-.05,.24-.11,.33-.33,.46-.51,.98-.67,1.51-.07,.24-.24,.46-.36,.69-.1,.2-.22,.4-.28,.62-.11,.38-.27,.74-.44,1.08-.43,.85-.6,1.79-1,2.65-.12,.26-.14,.56-.23,.83-.16,.47-.34,.94-.5,1.41-.04,.12-.08,.25-.1,.37-.02,.1,.03,.24-.03,.29-.31,.32-.24,.74-.36,1.11-.11,.33-.22,.66-.32,1-.07,.24-.11,.48-.18,.72-.07,.24-.17,.46-.26,.69-.02,.06-.11,.12-.1,.17,.13,.69-.19,1.27-.41,1.87-.04,.11,0,.23-.03,.34-.14,.61-.28,1.23-.46,1.83-.08,.27-.28,.5-.38,.77-.07,.19-.18,.23-.34,.2-.25-.04-.54,.11-.75-.14-.1-.12-.24-.27-.25-.41-.02-.57,.01-1.14,.02-1.71,0-.8,0-1.6,.01-2.4,0-.27,0-.53,.03-.8,.13-1.02,.01-2.05,.22-3.07,.12-.57,.05-1.17,.09-1.75,.05-.6,.14-1.19,.21-1.78,.02-.13,.02-.27,.04-.4,.06-.49,.12-.99,.17-1.48,.02-.15,.01-.3,.04-.45,.09-.62,.17-1.24,.27-1.85,.05-.32,.12-.64,.18-.95,.13-.69,.25-1.37,.38-2.06,0-.03-.02-.06-.05-.12-.2,.02-.31,.16-.4,.32-.1,.17-.18,.35-.26,.52-.14,.28-.27,.56-.4,.84-.36,.79-.73,1.58-1.06,2.39-.23,.56-.39,1.15-.6,1.71-.2,.54-.43,1.06-.63,1.6-.11,.31-.18,.63-.28,.94-.25,.81-.52,1.61-.76,2.42-.16,.54-.26,1.1-.42,1.64-.09,.3-.17,.6-.24,.9-.17,.69-.41,1.37-.52,2.05-.14,.87-.51,1.69-.54,2.58-.01,.36-.42,.6-.33,1.02,.09,.36-.11,.68-.16,1.02-.09,.57-.4,1.08-.34,1.69,.02,.21-.07,.46-.16,.66-.21,.44-.17,.92-.35,1.37-.18,.47-.28,.53-.89,.48,0-.15-.05-.31-.03-.47,.07-.58,.14-1.15,.24-1.72,.15-.88,.27-1.77,.5-2.63,.35-1.32,.57-2.67,.9-3.99,.2-.79,.45-1.57,.67-2.35,.25-.88,.48-1.76,.74-2.64,.12-.41,.28-.81,.41-1.22,.12-.41,.21-.82,.34-1.23,.13-.43,.29-.85,.45-1.27,.16-.42,.32-.84,.49-1.25,.4-.98,.79-1.97,1.23-2.93,.35-.78,.79-1.53,1.15-2.31,.16-.35,.32-.68,.54-.99,.25-.35,.47-.72,.7-1.09,.28-.44,.71-.39,1.12-.34Z"/><path d="M26,55.61c-.22-.21-.4-.41-.69-.38-.14,.01-.28,.04-.42,.03-.16-.01-.35,0-.48-.09-.17-.11-.04-.28,0-.44,.15-.7,.25-1.4,.37-2.1,.12-.68,.26-1.36,.37-2.04,.08-.49,.09-1,.19-1.49,.15-.74,.07-1.52,.42-2.22,.03-.06,.05-.14,.03-.19-.21-.58,.1-1.09,.18-1.63,.05-.36,.11-.71,.16-1.07,0-.05,0-.11,.02-.15,.39-.8,.23-1.74,.6-2.55,.05-.12,.05-.26,.06-.39,.03-.48,.11-.94,.3-1.4,.2-.51,.33-1.06,.46-1.6,.03-.12-.04-.26-.08-.48-.4,.73-.99,1.24-1.26,1.97-.02,.05-.02,.14-.03,.14-.42,.03-.34,.42-.48,.65-.19,.3-.34,.63-.53,.93-.3,.45-.41,1.04-.76,1.41-.51,.55-.52,1.31-.97,1.85-.09,.11-.12,.27-.2,.39-.1,.17-.28,.3-.2,.54-.21,.06-.21,.23-.28,.4-.12,.3-.43,.5-.43,.86-.32,.14-.22,.5-.37,.74-.07,.11-.06,.25-.24,.25-.11,0-.16,.06-.08,.16-.24,.08-.1,.25-.11,.4-.02,.15-.35,.09-.25,.34-.38,.42-.48,1.04-1.01,1.35,.17,.31-.07,.48-.2,.69-.16,.25-.36,.45-.58,.64-.29,.25-.6,.33-.92,.15-.15-.09-.32-.18-.49-.19-.71-.05-1.19-.47-1.31-1.2-.07-.42-.2-.83-.06-1.26,.03-.08-.05-.19-.05-.29,0-.33-.08-.66,.1-.98,.07-.12,.11-.3,.08-.44-.11-.55,.15-1.02,.27-1.52,.13-.53,.22-1.06,.34-1.59,.06-.28,.16-.54,.24-.82,.13-.46,.25-.92,.39-1.38,.1-.33,.23-.66,.35-.98,.26-.65,.5-1.3,.8-1.93,.34-.73,.74-1.44,1.11-2.16,.15-.3,.24-.64,.44-.9,.36-.48,.57-1.05,1.03-1.47,.29-.26,.42-.67,.68-.98,.38-.45,.8-.86,1.21-1.29,.05-.05,.11-.08,.16-.11,.69-.37,.94-.34,1.27,.2,.03,.06,.08,.1,.11,.14-.12,.27-.23,.53-.36,.78-.04,.08-.13,.14-.19,.21-.07-.08-.13-.16-.2-.24-.02-.02-.05-.04-.08-.07-.35,.25-.68,.49-.77,.96-.03,.18-.16,.4-.31,.5-.6,.42-.8,1.12-1.08,1.71-.36,.77-.84,1.46-1.2,2.22-.15,.32-.24,.68-.37,1.01-.14,.36-.26,.72-.44,1.05-.27,.49-.38,1.03-.56,1.55-.12,.33-.13,.72-.42,.98-.04,.04-.06,.12-.07,.18-.18,.74-.38,1.48-.54,2.23-.09,.4-.12,.82-.21,1.22-.07,.32,0,.67-.22,.96-.04,.05-.01,.15-.02,.23-.02,.4-.04,.79-.06,1.19-.03,.47,.03,.93,.17,1.42,.46-.19,.67-.57,.88-.9,.49-.76,.98-1.53,1.32-2.38,.15-.37,.4-.69,.58-1.05,.32-.64,.6-1.3,.94-1.92,.55-1,1.13-1.98,1.7-2.97,.25-.43,.47-.87,.72-1.3,.25-.43,.52-.85,.78-1.27,.51-.8,1.07-1.57,1.6-2.35,.47-.69,1.03-1.3,1.51-1.99,.25-.36,.63-.41,1.01-.48,.06-.01,.14,.05,.2,.09,.31,.22,.44,.63,.36,1-.09,.41-.1,.84-.23,1.23-.18,.54-.32,1.08-.33,1.65,0,.14-.11,.28-.16,.42-.28,.82-.46,1.67-.57,2.53-.05,.33-.12,.66-.26,.96-.14,.3-.13,.6-.18,.9-.05,.27-.07,.55-.12,.82-.06,.33-.2,.64-.12,.99,.03,.12-.04,.26-.07,.39-.19,.7-.24,1.42-.27,2.14,0,.03,0,.08,0,.1-.38,.5-.17,1.1-.25,1.65-.09,.63-.13,1.26-.2,1.89-.01,.13-.08,.26-.1,.39-.15,1.01-.29,2.02-.45,3.03-.05,.31-.18,.61-.26,.91-.08,.3-.15,.6-.35,.93Z"/><path d="M60.97,21.73c-.09,.29-.16,.58-.5,.73-.14,.06-.19,.3-.3,.44-.13,.16-.29,.3-.43,.45-.26,.27-.51,.54-.77,.81-.32,.33-.63,.67-.95,1-.13,.14-.26,.29-.4,.41-.36,.3-.71,.59-1.09,.86-.08,.05-.3,.02-.36-.05-.2-.23-.48-.24-.73-.27-.62-.06-.79-.18-.76-.8,.04-.74,.15-1.48,.25-2.22,.02-.13,.13-.25,.18-.34,0-.22-.04-.44,0-.63,.29-1.14,.6-2.28,.9-3.42,.17-.62,.35-1.23,.51-1.85,.07-.26,.1-.52,.17-.78,.17-.73,.33-1.46,.53-2.18,.17-.62,.44-1.22,.54-1.85,.06-.39,.25-.74,.25-1.17,0-.51,.23-1.04,.42-1.53,.28-.73,.41-1.5,.57-2.26,.1-.46,.23-.91,.38-1.35,.27-.81,.55-1.61,.84-2.44-.34-.09-.65-.17-.97-.25,0-.03,0-.06,0-.09,.09-.05,.18-.12,.28-.14,.95-.16,1.9-.38,2.88-.3,.53,.04,1.1,.05,1.57,.26,1.12,.51,2.21,1.11,2.81,2.27,.29,.56,.63,1.11,.76,1.71,.12,.58,.26,1.17,.23,1.8-.03,.59-.16,1.16-.2,1.75-.01,.21-.04,.44-.13,.63-.19,.41-.36,.82-.39,1.28,0,.01-.02,.03-.03,.04-.48,.58-.4,1.41-.9,2.01-.19,.23-.28,.53-.49,.77-.19,.22-.24,.58-.42,.85-.25,.38-.48,.78-.67,1.19-.03,.07-.09,.13-.14,.19-.12,.13-.27,.25-.36,.4-.3,.49-.55,1.01-.9,1.46-.15,.2-.33,.36-.45,.59-.14,.26-.34,.5-.53,.74-.1,.13-.23,.24-.34,.36-.09,.1-.19,.19-.24,.31-.2,.44-.19,.44-.6,.59Zm-4.19,2.46c.57-.62,1.12-1.2,1.63-1.81,.72-.84,1.43-1.69,2.12-2.56,.48-.61,.91-1.25,1.37-1.88,.37-.5,.76-.98,1.07-1.54,.51-.93,1.1-1.83,1.66-2.74,.06-.75,.8-1.23,.81-2.01,0-.04,.07-.07,.09-.12,.07-.15,.14-.3,.19-.45,.11-.37,.21-.74,.31-1.11,.06-.23,.18-.46,.17-.68-.04-.48,.08-.94,.06-1.42-.03-.7-.08-1.38-.34-2.04-.3-.79-.82-1.43-1.47-1.94-.78-.6-1.73-.63-2.67-.63-.08,0-.17,.09-.27,.15,.21,.27,.12,.55,.05,.82-.22,.81-.46,1.62-.68,2.43-.09,.34-.14,.68-.22,1.02-.18,.73-.38,1.45-.57,2.18-.17,.63-.34,1.25-.5,1.88-.08,.32-.17,.63-.24,.95-.22,1-.31,2.02-.67,2.99-.11,.3-.18,.61-.25,.92-.16,.72-.28,1.45-.45,2.16-.22,.88-.51,1.74-.7,2.62-.19,.87-.41,1.74-.61,2.62,0,.03,.06,.07,.13,.16Z"/><path d="M84.67,18.89c-.39-.11-.69-.22-.99-.28-.45-.09-.57-.19-.63-.64-.04-.33-.06-.65-.09-.98-.03-.43-.07-.86-.08-1.29,0-.35,.04-.69,.04-1.04,0-.35-.04-.7-.04-1.05,0-.41,0-.82,.02-1.23,.02-.6,.02-1.2,.11-1.79,.07-.52-.1-1.07,.15-1.58,.02-.04-.02-.09-.03-.19-.09,.07-.21,.11-.22,.17-.1,.57-.29,1.11-.53,1.64-.16,.34-.21,.73-.31,1.1-.1,.36-.21,.75-.35,1.07-.22,.5-.39,1.01-.57,1.52-.08,.23-.26,.43-.31,.69-.14,.69-.51,1.29-.81,1.91-.2,.42-.23,.95-.69,1.22-.36-.06-.68-.18-.72-.62,0-.07-.04-.15,0-.19,.31-.44,.17-.98,.35-1.46,.15-.4,.22-.83,.34-1.25,.17-.59,.33-1.17,.52-1.75,.31-.96,.65-1.91,.97-2.87,.11-.34,.19-.7,.31-1.04,.17-.44,.37-.87,.55-1.3,.09-.21,.2-.43,.23-.65,.06-.41,.26-.73,.48-1.07,.19-.29,.25-.66,.37-.99,.12-.34,.24-.69,.38-1.03,.05-.11,.16-.22,.27-.27,.18-.08,.39-.1,.45-.34,0-.03,.17-.05,.17-.05,.08,.24,.34,.13,.46,.23,.14,.12,.2,.33,.3,.49,.24,.4,.17,.83,.12,1.26-.04,.33-.04,.66-.06,.98-.03,.55-.06,1.1-.11,1.64-.04,.49-.19,.99-.16,1.48,.06,.85-.12,1.68-.14,2.52,0,.38-.06,.75-.05,1.13,0,.19,.03,.38,.05,.58,.03,0,.07,0,.1,0,.02-.08,.05-.17,.07-.25,.09-.5,.29-.99,.36-1.48,.08-.52,.37-.97,.37-1.51,0-.37,.16-.74,.27-1.11,.2-.67,.4-1.34,.65-2,.22-.56,.41-1.13,.62-1.69,.2-.52,.5-1.01,.72-1.53,.15-.36,.5-.6,.53-1.03,.01-.2,.28-.36,.37-.57,.14-.3,.28-.58,.53-.81,.04-.03,.08-.08,.09-.12,.05-.56,.54-.81,.82-1.21,.14-.2,.39-.33,.7-.26,.27,.07,.59,.42,.53,.69-.04,.18-.12,.35-.18,.51-.09,.23-.2,.45-.3,.68-.04,.08-.07,.18-.14,.21-.43,.15-.39,.59-.58,.88-.11,.17-.25,.32-.34,.51-.4,.87-.78,1.75-1.19,2.61-.16,.35-.38,.67-.54,1.02-.15,.35-.26,.72-.36,1.08-.2,.7-.39,1.41-.59,2.12-.04,.13-.07,.26-.13,.38-.39,.81-.44,1.7-.65,2.55-.2,.82-.3,1.68-.59,2.47-.16,.44-.15,.9-.31,1.33-.22,.59-.35,1.2-.53,1.82Z"/><path d="M90.95,14.79c-.23,.03-.36,.04-.5,.06-.11,.79-.85,1.07-1.34,1.59-.22-.1-.45-.4-.73,0-.33-.45-.81-.54-1.27-.67-.1-.03-.22-.12-.25-.21-.16-.39-.2-.8-.24-1.23-.03-.39,.29-.75,.05-1.13,.22-.23,.19-.54,.29-.81,.1-.27,.02-.59,.28-.8,.06-.9,.55-1.65,.83-2.47,.25-.72,.65-1.39,.99-2.08,.09-.18,.17-.36,.25-.55,.08-.2,.09-.44,.35-.52,.04-.01,.07-.08,.08-.12,.04-.34,.26-.56,.43-.83,.31-.48,.65-.91,1.06-1.3,.46-.44,.86-.96,1.31-1.42,.19-.2,.45-.34,.68-.5,.66-.44,1.35-.8,2.15-.89,.54-.05,1.03,.04,1.4,.48,.04,.04,.07,.1,.16,.24-.65-.26-1.14-.1-1.64,.18-.99,.56-1.74,1.36-2.51,2.17-.4,.42-.64,.91-.93,1.4-.31,.52-.65,1.02-.96,1.55-.5,.85-.87,1.76-1.21,2.68-.21,.56-.44,1.11-.66,1.66-.12,.3-.12,.66-.38,.9,.05,.55-.42,.99-.32,1.57,.05,.29-.12,.61-.17,.91-.02,.12,.01,.24,.03,.43,.51-.42,.97-.77,1.27-1.3,.13-.24,.36-.42,.51-.65,.37-.6,.72-1.21,1.07-1.81,.18-.31,.37-.61,.55-.93,.28-.51,.56-1.01,.82-1.53,.36-.72,.7-1.44,1.06-2.16,.05-.11,.13-.2,.16-.31,.12-.36,.31-.61,.74-.57,.09,0,.19-.05,.26-.07,.09,.13,.17,.28,.28,.39,.23,.24,.22,.5,.1,.78-.25,.61-.54,1.2-.74,1.82-.22,.69-.36,1.4-.54,2.1-.04,.14-.1,.28-.17,.41-.08,.16-.22,.29-.13,.49,.02,.04,.01,.11,0,.15-.45,.92-.34,2-.79,2.93-.16,.34-.12,.77-.19,1.15-.04,.21-.1,.42-.14,.63-.1,.47-.2,.93-.29,1.4-.13,.69-.22,1.38-.47,2.04-.13,.35-.21,.72-.33,1.08-.05,.14-.12,.28-.21,.39-.11,.14-.24,.2-.44,.14-.26-.09-.51-.25-.82-.17-.05,.01-.2-.1-.21-.16-.08-.46-.11-.92,.16-1.34,.05-.08,.15-.21,.13-.25-.16-.23,.04-.4,.08-.59,.06-.32,.06-.67,.19-.97,.13-.28,.06-.64,.32-.87-.13-.33,.07-.6,.16-.88,.16-.52,.06-1.09,.39-1.66Z"/><path d="M37.01,42.8c.14,.1,.2,.14,.26,.18-.09,.12-.34-.05-.3,.24,.02,.15-.05,.29-.21,.41-.14,.1-.15,.37-.21,.57-.05,.15-.09,.31-.12,.46-.03,.19-.2,.24-.32,.34-.14,.12-.28,.33-.29,.51-.02,.29-.15,.34-.37,.32-.11,.28-.21,.54-.31,.8-.3,.05-.53-.05-.76-.19-.19-.12-.42-.21-.64-.25-.55-.09-.9-.34-1.06-.91-.25-.88-.42-1.76-.37-2.67,.06-1.01,.1-2.02,.22-3.03,.09-.72,.3-1.43,.47-2.14,.13-.55,.25-1.1,.42-1.64,.27-.84,.49-1.69,.93-2.46,.13-.22,.06-.54,.35-.7,.03-.02-.02-.24-.08-.34-.22-.37-.21-.35,.05-.69,.62-.79,1.44-1.17,2.42-1.23,.11,0,.23,.01,.33,.06,.39,.19,.75,.44,1,.81,.61,.95,.79,2,.65,3.11-.06,.46-.1,.92-.13,1.38-.04,.51,.03,1.02-.26,1.51-.12,.21-.05,.53-.07,.8,0,.11,.02,.29-.03,.31-.35,.17-.22,.49-.25,.75-.03,.25-.02,.49-.22,.7-.06,.06-.03,.2-.08,.28-.15,.24,.03,.6-.32,.77-.07,.03-.02,.28-.04,.42-.04,.28,.01,.65-.15,.81-.21,.21-.12,.57-.52,.68Zm-2.89,1.84s.08,.02,.12,.03c.05-.06,.12-.11,.15-.18,.16-.27,.31-.55,.46-.83,.33-.63,.72-1.23,.97-1.89,.25-.67,.71-1.25,.8-1.98,.03-.21,.07-.41,.11-.61,.06-.37,.25-.7,.3-1.08,.1-.71,.33-1.39,.45-2.1,.12-.7,.32-1.38,.3-2.1-.02-.55-.03-1.1-.12-1.63-.07-.44-.22-.88-.64-1.09-.4,.88-.83,1.72-.81,2.69-.03,0-.06,0-.1,0-.06-.1-.11-.19-.18-.32-.2,.45-.43,.84-.56,1.26-.1,.32-.12,.64-.28,.96-.17,.33-.26,.71-.31,1.07-.1,.73-.22,1.45-.43,2.16-.07,.25-.12,.52-.15,.78-.03,.28-.02,.55-.07,.83-.06,.3,0,.62,0,.93,0,.03-.01,.07-.03,.09-.19,.3-.12,.64-.13,.96,0,.4,.06,.8,.09,1.19,.02,.28,.02,.56,.04,.83Z"/><path d="M74.79,7.37c-.12,.88,.04,1.78-.25,2.64-.03,.08-.07,.17-.05,.24,.17,.65-.11,1.24-.24,1.86-.08,.37-.09,.76-.17,1.13-.1,.53-.3,1.03-.35,1.58-.03,.37-.17,.75-.37,1.06-.23,.36-.22,.78-.39,1.16-.21,.48-.48,.92-.67,1.4-.15,.38-.51,.64-.68,1.03-.06,.14-.65,.3-.78,.21-.34-.24-.73-.32-1.13-.37-.44-.05-.72-.23-.93-.69-.36-.79-.48-1.59-.55-2.44-.07-.93,.06-1.83,.16-2.74,.07-.68,.21-1.35,.37-2.01,.22-.9,.48-1.8,.74-2.69,.07-.24,.21-.45,.31-.68,.05-.11,.11-.21,.13-.32,.11-.58,.37-1.09,.65-1.6,.23-.42,.48-.83,.73-1.24,.53-.88,1.34-.88,2.1-.43,.71,.42,1.01,1.13,1.21,1.89,.09,.33,.1,.69,.15,1.03Zm-1.82-2.44c-.58,.48-.84,1.11-1.06,1.72-.19,.52-.29,1.07-.61,1.53-.04,.05-.05,.13-.05,.19-.04,.8-.4,1.51-.57,2.28-.07,.32-.21,.63-.28,.95-.07,.36-.08,.73-.13,1.09-.12,.86-.29,1.71-.34,2.57-.06,.93-.07,1.88,.21,2.79,.03,.1,.1,.19,.16,.29,.52-.18,.62-.66,.8-1.03,.33-.67,.59-1.38,.86-2.08,.16-.4,.28-.82,.41-1.23,.21-.7,.45-1.39,.61-2.1,.15-.64,.1-1.33,.39-1.94,.03-.07,.02-.17,0-.25-.1-.43,0-.86,.05-1.28,.11-1.03,.04-2.05-.25-3.05-.04-.15-.13-.28-.21-.44Z"/><path d="M75.63,19.66c-.4-.11-.68-.2-.97-.26-.32-.07-.43-.17-.39-.49,.08-.61,.28-1.19,.51-1.76,.12-.29,.19-.6,.23-.9,.06-.46,.3-.85,.4-1.3,.17-.78,.47-1.52,.72-2.28,.3-.91,.62-1.81,.87-2.74,.16-.57,.32-1.13,.52-1.69,.16-.46,.36-.93,.42-1.43,0-.07,.07-.15,.12-.21,.13-.18,.28-.34,.2-.59-.01-.04,0-.11,.03-.14,.42-.51,.46-1.19,.75-1.76,.15-.3,.61-.48,.9-.3,.21,.13,.39,.31,.55,.5,.07,.09,.1,.26,.08,.37-.07,.33-.23,.65-.28,.99-.08,.56-.39,1.06-.41,1.64,0,.3-.19,.59-.28,.89-.19,.63-.3,1.3-.58,1.88-.46,.99-.58,2.08-.98,3.07-.23,.57-.22,1.2-.53,1.73-.22,.39-.15,.9-.51,1.23,.12,.38-.12,.67-.26,.98-.29,.64-.48,1.32-.74,1.97-.1,.23-.28,.43-.39,.58Z"/><path d="M39.58,10.03c-.01-.59,.34-.95,.75-1.28,.06-.05,.17-.05,.22-.11,.36-.39,.71-.13,1.04,.03,.22,.1,.28,.33,.17,.55-.23,.47-.99,1.06-1.66,1-.17-.01-.34-.12-.52-.19Z"/></svg>