<svg width="1094" height="565" viewBox="0 0 1094 565" fill="none" xmlns="http://www.w3.org/2000/svg">
<path d="M477.04 181.211C474.45 183.141 471.81 185.011 469.29 187.021C468.01 188.041 467.1 189.891 465.7 190.301C463.74 190.871 462.4 191.581 461.77 193.541C461.68 193.801 461.19 193.981 460.85 194.111C455.6 196.231 453.52 201.801 449.15 204.901C448.18 205.591 447.84 207.131 446.93 207.981C445.68 209.161 444.16 210.071 442.76 211.091C442.08 211.591 441.26 211.981 440.73 212.621C436.75 217.421 432.8 222.251 428.92 227.121C428.06 228.201 424.39 232.181 422.77 233.331C422.48 233.531 422.08 233.651 421.9 233.931C419.62 237.391 417.38 240.881 414.76 244.921C410 242.041 404.73 242.591 398.87 242.751C398.74 237.401 398.63 232.581 398.49 226.471C397.25 228.861 396.49 230.171 395.89 231.561C395.69 232.021 396.11 232.971 395.86 233.141C392.06 235.781 392.44 240.721 389.64 244.121C387.25 247.021 387.15 251.681 385.27 255.151C382.68 259.931 379.69 264.591 376.25 268.791C374.16 271.341 371.1 272.841 367.47 270.031C366.1 268.971 363.55 268.831 361.68 269.131C352.53 270.591 352.31 267.861 351.16 261.031C349.99 254.081 349.2 246.711 352.49 239.831C352.71 239.371 352.69 238.751 352.63 238.221C351.56 229.651 354.3 221.451 355.11 213.071C355.32 210.921 355.92 208.801 356.18 206.651C356.28 205.871 355.92 205.031 355.37 204.191C353.65 207.741 350.54 210.681 351.44 215.081C348.14 218.051 349.9 223.261 345.94 226.401C343.66 228.211 343.19 232.321 341.92 235.401C341.03 237.571 340.55 240.041 339.22 241.891C335.39 247.231 333.53 253.261 331.83 259.391C329.48 258.381 327.33 259.091 327.58 261.541C328.02 265.851 324.16 267.291 322.42 269.931C320.84 272.321 317.05 274.251 314.1 274.471C310.45 274.741 306.41 273.581 303 272.021C299.42 270.381 298.3 266.491 296.97 262.801C295.94 259.931 296.3 257.161 295.87 254.381C294.72 246.951 294.48 239.481 295.77 232.061C297.28 223.391 298.45 214.631 301.87 206.411C301.99 206.121 301.79 205.701 301.64 204.601C300.51 206.491 299.89 208.901 298.78 209.151C294.12 210.201 293.17 214.051 291.07 217.361C289.7 219.521 286.68 221.941 284.41 221.921C280.99 221.901 282 224.721 280.61 225.831C279.19 226.961 278.79 229.711 277.33 230.351C274.99 231.381 273.24 232.371 272.74 234.991C272.68 235.301 272.35 235.611 272.06 235.811C268.366 238.324 265.733 240.991 264.16 243.811C262.55 246.711 256.85 250.811 253.47 251.431C252.85 254.521 251.24 256.631 248.48 258.741C245.7 260.881 242.86 263.531 240.67 266.621C239.21 268.691 237.04 270.271 235.15 272.021C232.39 274.571 229.87 277.511 226.76 279.511C222.31 282.361 218.48 287.431 212.84 286.961C205.29 286.321 197.79 284.491 190.4 282.651C188.57 282.191 186.88 279.961 185.75 278.151C182.34 272.671 180.92 266.551 180.83 260.111C180.58 242.741 183.53 225.971 189.93 209.771C193.3 201.221 196.61 192.681 201.28 184.721C203.68 180.621 205.55 176.151 208.34 172.361C215.47 162.671 222.69 153.121 231.72 144.881C237.1 139.971 242.21 134.701 247.86 130.051C253.63 125.311 259.97 121.561 267.26 119.611C270.28 118.801 273.44 116.851 276.2 117.331C278.44 117.721 280.21 120.941 282.12 122.961C283.73 124.661 285.64 126.231 286.69 128.241C288.11 130.961 287.02 133.951 284.6 135.991C284.04 136.461 283.12 136.821 282.97 137.391C281.52 142.671 276.97 145.851 274.34 150.321C273.1 152.431 271.41 154.281 269.96 156.261C266.87 160.471 263.65 164.591 260.82 168.971C260 170.251 259.26 170.501 258.01 170.901C256.69 171.321 254.97 172.331 254.58 173.471C253.37 177.011 251.08 179.701 248.99 182.671C247.56 184.701 246.45 186.531 244.3 188.111C239.4 191.711 235.02 196.021 230.46 200.081C229.92 200.561 229.21 201.251 229.21 201.851C229.2 204.121 227.75 203.151 226.64 203.611C224.92 204.321 222.6 203.711 221.15 206.281C220.2 207.961 216.76 208.491 214.32 208.991C212.57 209.351 210.64 208.831 207.99 208.651C206.94 211.061 205.49 213.521 204.79 216.181C202.09 226.301 200 236.571 198.47 246.931C197.23 255.331 197.39 263.751 198.71 272.131C199.39 276.441 202.15 277.991 205.84 275.711C209.6 273.391 213.15 270.611 216.38 267.601C221.5 262.831 226.35 257.771 231.18 252.701C235.58 248.071 239.76 243.231 244.1 238.541C249.6 232.591 255.07 226.591 260.74 220.791C266.14 215.271 271.72 209.941 277.31 204.621C281.7 200.431 286.78 196.841 290.58 192.181C297.96 183.121 307.56 176.431 315.39 167.881C318.33 164.671 321.98 162.221 325.68 159.761C331.61 155.811 336.66 150.561 342.49 146.421C347.43 142.911 352.87 140.111 358.22 137.211C359.6 136.461 361.43 136.531 363.45 136.151C363.46 137.321 363.48 138.291 363.49 139.581C365.47 140.231 367.27 140.651 368.22 137.891C371.18 129.341 374.35 120.861 377.1 112.241C380.63 101.181 383.87 90.0309 388.78 79.4609C390.25 76.3009 391.36 72.9611 392.96 69.8711C395.02 65.9011 400.32 65.7311 404.07 68.3711C405.99 69.7211 407.16 71.8309 406.36 74.2109C403.63 82.4209 400.74 90.5714 397.87 98.7314C397.03 101.131 395.86 103.431 395.16 105.871C392.83 114.001 390.62 122.171 388.4 130.321C386.02 139.071 383.58 147.801 381.35 156.591C380.64 159.391 380.64 162.361 380.08 165.201C378.07 175.461 375.75 185.661 373.97 195.961C372.67 203.481 372.04 211.111 371.07 218.691C370.22 225.381 369.25 232.061 368.47 238.761C368.26 240.581 368.53 242.451 368.58 244.301C368.98 244.371 369.39 244.441 369.79 244.501C371.01 242.491 372.47 240.591 373.42 238.461C376.99 230.421 380.39 222.311 383.85 214.221C387.53 205.631 391.01 196.941 394.93 188.471C397.9 182.061 401.52 175.951 404.69 169.621C406.65 165.701 408.21 161.591 410.12 157.641C411.64 154.511 413.26 151.401 415.11 148.451C418.39 143.241 421.09 137.811 423.4 132.071C425.71 126.331 429.2 121.061 432.22 115.611C432.85 114.461 439.36 112.741 440.45 113.461C442.24 114.651 444.05 115.861 445.6 117.321C446.44 118.121 447.31 119.521 447.2 120.561C446.89 123.651 446.43 126.801 445.45 129.741C443.66 135.081 441.39 140.261 439.43 145.541C438.36 148.431 437.42 151.391 436.57 154.351C434.44 161.801 432.39 169.271 430.31 176.741C429.32 180.301 428.26 183.841 427.38 187.421C426.78 189.871 427.09 192.651 423.87 193.781C423.26 193.991 422.68 195.891 422.96 196.721C424.57 201.501 421.86 205.621 421.21 210.041C421.11 210.711 420.87 211.351 421.39 212.471C423.62 210.431 426.25 208.671 428.02 206.281C433.31 199.151 440.95 194.751 447.47 189.081C454.39 183.061 461.71 177.471 469.02 171.921C477.8 165.261 486.72 158.781 495.68 152.351C503.42 146.801 511.18 141.281 519.14 136.061C523.11 133.461 527.39 131.181 531.81 129.471C535.2 128.161 538.12 126.571 539.79 123.411C541.75 119.691 543.65 115.871 544.97 111.901C546.84 106.271 548.96 100.711 550.44 94.9307C551.07 92.4807 551.81 89.9715 553.02 87.7715C554.68 84.7615 558.31 83.5008 561.47 84.3008C568.42 86.0708 570.89 91.0407 569.02 97.9707C567.13 105.001 565.65 112.161 564.49 119.341C563.91 122.921 564.3 126.621 561.74 129.691C561.25 130.281 561.18 131.431 561.28 132.291C561.7 135.961 561.72 139.461 560.46 143.111C559.73 145.211 560.83 147.861 560.57 150.201C559.8 157.061 558.55 163.871 557.9 170.741C557.35 176.511 557.46 182.341 557.11 188.141C556.75 194.131 556.22 200.111 555.73 206.091C555.27 211.761 554.92 217.441 554.25 223.081C553.71 227.621 553.93 232.831 551.69 236.431C549.01 240.761 550.54 245.041 548.69 250.101C547.98 250.321 546.08 251.621 544.8 251.171C540.88 249.781 537.67 250.631 534.43 252.831C533.41 253.521 532.04 253.681 530.07 254.331C529.45 251.661 528.21 249.181 528.44 246.841C529.18 239.191 528.59 231.671 527.42 224.141C527.34 223.611 527.48 223.051 527.54 222.131C531.56 221.291 532.77 218.521 532.8 214.531C532.82 211.831 533.97 209.151 534.43 206.441C534.8 204.291 534.87 202.091 535.13 199.911C535.8 194.231 536.53 188.551 537.17 182.871C537.38 181.041 537.57 179.171 537.41 177.341C537.34 176.491 536.44 175.701 535.54 174.311C534.69 175.831 533.78 176.721 533.76 177.621C533.66 182.631 531.12 186.261 528.11 190.031C526.48 192.071 526.53 195.421 525.74 198.161C525.28 199.731 524.95 201.451 524.05 202.751C519.74 208.931 517.08 215.901 514.12 222.741C513.9 223.251 513.75 223.801 513.45 224.261C510.36 229.121 507.72 234.411 503.92 238.631C502.13 240.621 500.8 242.651 499.31 244.761C497.76 246.951 495.47 248.971 493.05 250.091C490.87 251.101 488.07 250.801 485.55 251.061C483.22 251.311 480.82 251.231 478.59 251.831C473.16 253.301 471.45 252.431 469.89 247.021C469.54 245.801 468.98 244.531 468.16 243.581C464.86 239.761 464.61 235.141 464.71 230.521C465 218.031 467.72 206.051 472.6 194.551C474.34 190.451 476.05 186.331 477.78 182.221C477.52 181.881 477.26 181.541 477.01 181.201L477.04 181.211ZM359.4 159.201C356.26 157.671 355.83 157.551 354.34 158.901C351.14 161.791 348.3 165.111 343.99 166.521C343.39 166.721 342.74 167.501 342.56 168.131C341.47 171.901 337.85 173.501 335.72 176.321C331.31 182.151 326.61 187.901 323.14 194.281C319.32 201.301 316.37 208.821 313.86 216.511C312.61 220.331 312.69 224.461 310.44 228.111C309.35 229.891 310.18 232.791 309.95 235.171C309.31 241.901 308.37 248.621 307.96 255.361C307.75 258.901 308.43 262.471 311.13 265.461C315.25 261.851 317.29 257.391 319.44 252.961C323.43 244.731 327.85 236.691 331.57 228.341C335.59 219.331 338.99 210.041 342.75 200.911C344.27 197.211 346.11 193.641 347.62 189.931C350.32 183.291 352.89 176.601 355.47 169.911C356.84 166.341 358.1 162.731 359.4 159.201V159.201ZM529.21 145.261C526.69 147.161 524.88 149.171 522.62 150.121C515.01 153.311 509.68 159.211 504.73 165.281C500.88 169.991 496.95 174.681 494.51 180.611C492.43 185.661 488.41 189.871 486.78 195.381C485.17 200.801 482.66 205.961 481.26 211.421C479.78 217.221 478.5 223.211 478.32 229.151C478.17 234.031 477.82 239.411 481.95 244.961C483.15 243.391 483.89 242.071 484.96 241.101C489.62 236.861 491.85 231.021 494.68 225.711C501.44 212.991 507.67 199.991 513.8 186.951C517.03 180.091 519.57 172.901 522.47 165.881C524.75 160.361 527.17 154.891 529.36 149.331C529.76 148.321 529.31 146.981 529.22 145.261H529.21ZM214.05 196.471C216.01 195.471 217.53 195.141 218.36 194.201C224.44 187.361 230.42 180.431 236.34 173.451C239.53 169.691 242.56 165.811 245.6 161.931C250.7 155.421 255.86 148.961 260.76 142.301C262.04 140.551 262.46 138.161 263.3 135.981C262.3 135.761 262.03 135.631 261.95 135.701C260.74 136.761 259.67 138.031 258.33 138.901C249.92 144.371 243.07 151.451 236.91 159.281C236.16 160.231 234.48 160.871 234.34 161.811C233.83 165.301 230.18 165.891 228.79 168.381C227.4 170.861 226.45 173.571 225.26 176.161C225.03 176.651 224.5 176.991 224.25 177.481C222.16 181.551 217.79 184.041 216.61 188.751C216.05 190.971 215.18 193.121 214.05 196.471Z" fill="#7968FF"/>
<path d="M582.53 289.691C582.74 295.751 588.52 299.451 586.38 305.691C589.93 306.971 593.51 307.821 596.66 309.491C604.75 313.791 611.07 319.941 615.98 327.841C619.46 333.441 621.6 339.641 621.07 345.591C620.51 351.881 621.69 359.391 615.57 364.351C615.09 364.741 614.95 365.691 614.89 366.401C614.43 371.651 611.35 375.591 608.45 379.641C607.6 380.831 606.75 382.101 606.27 383.461C604.53 388.411 601.1 392.201 597.95 396.241C593.52 401.921 588.49 407.351 585.26 413.671C582.74 418.591 579.67 422.431 575.77 426.151C572.94 428.851 571.07 432.641 569.06 436.111C565.02 443.071 561.17 450.111 554.81 455.371C553.9 456.121 553.3 457.471 552.95 458.651C552.08 461.581 551.02 464.171 547.94 465.591C546.94 466.051 546.36 467.531 545.73 468.631C544.18 471.341 542.83 474.151 539.41 475.111C538.66 475.321 537.54 476.371 537.6 476.931C538.03 480.851 535.25 482.981 533.36 485.771C530.62 489.821 528.71 494.421 526.13 498.601C523.76 502.441 521.02 506.061 518.32 509.691C517.71 510.511 516.62 510.971 515.82 511.541C511.99 507.911 508.29 505.011 502.95 505.051C500.67 505.071 499.3 503.291 499.2 500.981C499.12 499.161 498.93 497.151 499.56 495.521C502.88 486.881 503.41 477.461 507.06 468.931C508.11 466.471 508.6 464.161 508.65 461.341C508.69 459.101 509.32 456.661 509.44 454.141C509.55 451.801 512.12 449.581 513.55 447.271C513.93 446.651 514.33 445.901 514.33 445.211C514.33 435.151 519.49 426.481 521.78 417.061C523.29 410.831 525.9 405.071 528.52 399.381C531.65 392.581 533.19 385.251 536.64 378.521C539.79 372.381 541.33 365.421 543.61 358.821C544.58 356.021 545.29 353.071 546.7 350.501C548.6 347.021 548.81 342.901 551.62 339.681C552.96 338.141 552.27 335.001 553.06 332.791C554.85 327.831 557.08 323.031 558.94 318.091C559.81 315.771 560.26 313.301 561.11 310.101C557.58 310.601 554.7 311.011 551.35 311.491C552.05 310.321 552.49 309.581 553.3 308.241C549.38 309.111 547.14 315.801 542.13 311.121C540.79 312.651 539.06 313.781 536.42 314.341C534.48 314.751 532.35 311.861 530.39 314.971C529.7 316.071 526.11 316.261 524.33 315.581C520.3 314.041 516.34 318.011 512.36 315.271C511.77 314.861 509.96 316.221 508.24 316.971C508.34 315.471 508.42 314.411 508.49 313.341C505.48 319.631 499.01 316.241 494.33 318.631C494.42 319.991 494.04 321.661 494.67 322.751C498.35 329.061 498.64 336.201 499.38 343.071C499.92 348.071 498.82 353.281 498.19 358.371C497.18 366.621 496.69 375.041 494.62 383.031C492.71 390.391 492.42 398.401 487.74 404.941C487.36 405.471 487.43 406.321 487.28 407.021C486.6 410.241 485.9 413.451 485.23 416.671C484.86 418.441 484.42 420.201 484.22 421.991C483.97 424.251 483.75 425.951 481.8 428.031C479.24 430.761 478.07 435.151 477.19 439.031C476.41 442.491 474.73 445.211 472.88 448.051C470.52 451.671 466.84 454.631 466.85 459.551C466.85 460.141 466.13 460.861 465.58 461.321C461.66 464.611 459.24 468.971 456.71 473.301C455.83 474.801 454.04 475.801 452.58 476.921C451.73 477.571 450.51 477.821 449.83 478.581C447.91 480.701 445.9 480.631 443.35 479.761C439.39 478.421 435.29 477.511 431.24 476.441C424.22 474.581 420.03 469.431 419 461.241C417.53 449.581 419.32 438.151 421.71 426.791C423.26 419.401 425.08 412.071 426.77 404.711C426.89 404.171 426.83 403.531 427.09 403.081C431.38 395.681 431.26 386.751 435.5 379.261C437.63 375.501 438.32 370.951 440.01 366.901C442.4 361.151 444.87 355.401 447.73 349.881C452.95 339.801 458.45 329.871 463.91 319.921C464.79 318.321 465.91 316.761 467.21 315.501C469.11 313.661 469.43 311.941 468.18 309.571C467.52 308.321 467.6 306.681 467.21 304.481C473.12 306.241 476.33 302.831 479.74 300.211C483.47 297.341 487.85 297.421 490.56 301.171C492.37 303.671 493.85 304.671 497.35 304.001C517.92 300.071 538.71 297.351 559.17 292.691C566.61 291.001 574.37 290.711 582.54 289.711L582.53 289.691ZM532.1 455.521C534.59 452.631 537.31 449.901 539.51 446.811C541.95 443.381 543.58 439.351 546.15 436.031C552.44 427.911 559.88 420.681 564.58 411.371C565.06 410.411 566.08 409.741 566.75 408.861C571.95 401.991 577.38 395.291 582.23 388.181C587.55 380.371 591.97 371.931 597.46 364.241C601.28 358.901 603.3 353.081 605.29 347.011C606.58 343.061 606.28 339.141 605.55 335.581C604.62 331.051 602.9 326.451 598.33 323.611C592.67 320.091 586.31 319.921 579.91 318.261C577.96 323.391 575.85 327.951 574.5 332.721C573.01 337.981 572.01 343.341 568.05 347.501C567.68 347.891 567.79 348.741 567.69 349.371C566.4 357.051 564.12 364.401 560.34 371.241C559.82 372.181 559.37 373.181 559.03 374.211C556.58 381.551 554.23 388.921 551.69 396.231C551.11 397.891 549.61 399.231 549.06 400.891C546.66 408.101 544.59 415.431 542.13 422.621C540.4 427.701 537.35 432.481 536.5 437.661C535.5 443.731 533.73 449.381 532.11 455.511L532.1 455.521ZM438.55 466.231C440.92 463.731 442.99 461.921 444.61 459.771C447.5 455.941 450.17 451.931 452.83 447.941C454.05 446.111 455.13 444.181 456.13 442.231C459.99 434.641 463.33 426.861 466.4 418.891C469.44 410.991 472.23 403.021 474.37 394.891C476.99 384.991 478.61 374.841 480.79 364.821C483.16 353.951 483.67 342.951 483.3 331.881C483.2 328.881 482.2 326.161 480.03 323.901C477.57 327.581 475.1 331.001 472.94 334.601C470.84 338.101 468.1 341.591 467.3 345.441C465.31 355.091 458.56 362.931 457.49 372.811C453.31 378.801 452.52 386.131 449.78 392.701C447.4 398.381 444.22 404.001 444.49 410.551C444.54 411.801 444.88 413.291 444.35 414.261C441.98 418.531 440.65 422.921 439.87 427.851C438.66 435.521 436.93 443.061 437.63 450.901C437.69 451.571 437.51 452.331 437.24 452.961C435.37 457.361 437.05 461.321 438.56 466.221L438.55 466.231Z" fill="#7968FF"/>
<path d="M124.35 22.2909C125.76 25.8609 125.61 29.021 124.63 32.661C121.61 43.851 119.34 55.2414 116.64 66.5214C115.59 70.9314 114.06 75.221 112.97 79.621C112.44 81.741 112.65 84.0508 112.11 86.1708C109.93 94.8608 109.04 103.791 107.1 112.541C105.91 117.911 104.74 123.331 103.85 128.711C103.11 133.111 103.12 137.781 102.33 142.291C100.93 150.271 99.4196 158.241 98.2596 166.251C97.5096 171.441 97.3896 176.731 96.8296 181.951C95.4996 194.331 94.0597 206.711 92.5497 220.141C96.4997 214.611 96.1396 208.401 100.23 204.211C100.74 203.691 100.43 202.421 100.6 201.521C100.98 199.521 101.19 197.451 101.89 195.571C104.95 187.291 108.16 179.071 111.3 170.831C113.91 163.991 116.38 157.101 119.13 150.321C122.99 140.841 126.93 131.391 131.07 122.031C134.94 113.271 139.03 104.611 143.17 95.9813C144.26 93.7113 146.01 91.7704 147.25 89.5604C148.92 86.5804 150.53 83.5513 151.93 80.4413C157.45 68.1113 164.84 56.881 172.19 45.621C173.58 43.501 175.06 41.4405 176.55 39.3905C180.41 34.1105 185.29 31.8612 191.73 34.3612C192.23 34.5512 192.78 34.6206 193.23 34.7206C195.71 38.6906 194.58 42.8606 193.72 46.7206C191.88 54.9906 189.35 63.1107 187.31 71.3407C185.84 77.2507 184.73 83.2413 183.42 89.1913C181.48 97.9613 179.39 106.701 177.58 115.501C175.99 123.261 174.69 131.081 173.27 138.881C171.64 147.911 169.88 156.911 168.44 165.971C167.3 173.171 166.66 180.461 165.58 187.671C164.97 191.741 163.75 195.711 163.09 199.771C162.57 203.001 162.54 206.311 162.21 209.571C161.78 213.871 161.43 218.181 160.79 222.451C158.93 234.861 156.86 247.251 155.02 259.661C153.22 271.781 151.33 283.901 150 296.071C149.01 305.141 148.83 314.311 148.27 323.821C144.28 323.951 140.31 324.081 136.12 324.221C133.65 318.701 133.64 312.751 133.8 307.111C134.08 297.021 135.15 286.921 136.49 276.911C138.18 264.311 140.42 251.781 142.51 239.231C144.56 226.931 146.57 214.611 148.93 202.371C150.08 196.431 151.02 190.521 151.52 184.481C152.02 178.461 153.23 172.491 154.36 166.541C156.54 155.011 158.88 143.511 161.17 132.001C161.88 128.411 162.61 124.831 163.44 121.261C165.34 113.051 167.63 104.911 169.12 96.6307C170.01 91.6507 170.98 86.7004 172.22 81.8104C173.3 77.5504 174.94 73.4405 176.03 69.1805C176.88 65.8505 177.26 62.4106 177.85 59.0106C177.46 58.8906 177.07 58.7705 176.68 58.6405C176.1 59.4405 175.42 60.1809 174.97 61.0409C174.38 62.1809 174.25 63.6304 173.46 64.5604C169.44 69.3504 167.06 74.9306 164.91 80.7206C163.93 83.3606 161.92 85.6012 160.46 88.0712C159.18 90.2312 157.74 92.3408 156.87 94.6708C155.37 98.7308 153.3 102.641 151.19 106.231C145.86 115.301 143.26 125.521 138.18 134.651C136.66 137.381 136.24 140.711 135.04 143.651C132.95 148.761 130.63 153.771 128.45 158.831C127.89 160.131 127.41 161.48 127.05 162.85C126.77 163.91 127.15 165.5 126.53 166.06C122.87 169.31 123.37 174.081 121.77 178.071C120.34 181.651 118.8 185.191 117.46 188.801C116.5 191.371 115.89 194.061 114.91 196.621C113.94 199.161 112.72 201.621 111.55 204.081C111.24 204.731 110.29 205.331 110.36 205.871C111.32 213.531 107.26 219.671 104.47 226.221C103.99 227.351 104.24 228.781 103.86 229.981C101.8 236.621 99.8696 243.311 97.4496 249.821C96.3596 252.741 93.9997 255.161 92.6797 258.031C91.7497 260.061 90.5096 260.401 88.7296 259.961C86.0096 259.281 82.6696 260.771 80.6096 257.861C79.5896 256.411 78.1596 254.691 78.2096 253.141C78.4396 246.841 79.2196 240.551 79.7096 234.261C80.3996 225.441 80.9896 216.611 81.6596 207.791C81.8796 204.871 82.0196 201.911 82.5896 199.041C84.7996 187.901 84.2596 176.411 87.3396 165.321C89.0496 159.181 88.7196 152.491 89.6996 146.111C90.6996 139.571 92.1596 133.111 93.3996 126.611C93.6796 125.161 93.8296 123.691 94.0996 122.241C95.0996 116.841 96.1297 111.46 97.1197 106.06C97.4197 104.43 97.5096 102.761 97.8496 101.141C99.2596 94.3905 100.68 87.6313 102.2 80.9013C102.99 77.4113 104.02 73.9806 104.92 70.5106C106.84 63.0506 108.75 55.591 110.62 48.121C110.7 47.821 110.41 47.4309 110.2 46.7909C108 46.8809 106.68 48.3211 105.59 49.9911C104.41 51.7911 103.36 53.6804 102.28 55.5604C100.57 58.5404 98.8296 61.5014 97.2096 64.5214C92.6696 73.0014 87.9696 81.4109 83.7296 90.0409C80.7896 96.0309 78.5997 102.391 75.8697 108.491C73.2897 114.261 70.3297 119.871 67.7397 125.641C66.2597 128.941 65.2396 132.451 63.9196 135.831C60.5296 144.541 56.9496 153.191 53.6996 161.951C51.5396 167.791 49.9596 173.851 47.8396 179.711C46.6696 182.961 45.5397 186.191 44.4997 189.491C42.1597 196.921 38.9497 204.271 37.2497 211.711C35.0797 221.211 30.3696 229.931 29.3996 239.731C29.0096 243.681 24.2596 246.071 25.0396 250.691C25.7196 254.711 23.3296 258.081 22.4796 261.781C21.0496 267.961 17.2596 273.441 17.4096 280.141C17.4596 282.521 16.3396 285.141 15.1396 287.301C12.5396 291.951 12.5196 297.37 10.2796 302.1C7.89963 307.13 6.77964 307.771 0.0996388 306.721C0.0996388 305.061 -0.160364 303.251 0.159636 301.541C1.36964 295.241 2.61965 288.941 4.13965 282.711C6.47965 273.111 8.47963 263.371 11.6496 254.041C16.5196 239.751 19.8996 225.041 24.5796 210.721C27.3796 202.151 30.7196 193.761 33.7596 185.271C37.1596 175.771 40.4196 166.221 43.8896 156.741C45.5196 152.301 47.5996 148.02 49.2896 143.6C50.9496 139.23 52.2396 134.7 53.9396 130.35C55.7396 125.74 57.7796 121.211 59.8196 116.701C61.8596 112.181 63.9796 107.691 66.1696 103.241C71.3496 92.7411 76.3496 82.1312 81.8896 71.8212C86.3896 63.4512 91.7996 55.5711 96.3196 47.2011C98.3296 43.4811 100.39 39.931 103.07 36.661C106.1 32.971 108.81 29.0206 111.65 25.1806C115.1 20.4906 119.75 21.4309 124.29 22.2509L124.35 22.2909Z" fill="#7968FF"/>
<path d="M270.15 564.652C267.91 562.192 266.03 559.871 262.81 559.911C261.24 559.931 259.65 560.121 258.12 559.911C256.34 559.681 254.25 559.561 252.95 558.551C251.2 557.201 252.76 555.471 253.26 553.711C255.4 546.161 257.03 538.461 258.93 530.831C260.78 523.431 262.86 516.091 264.6 508.661C265.86 503.281 266.4 497.722 267.85 492.402C270.03 484.382 269.74 475.711 274.16 468.281C274.51 467.691 274.77 466.781 274.58 466.161C272.68 459.641 276.55 454.201 277.84 448.291C278.69 444.391 279.57 440.501 280.43 436.601C280.55 436.061 280.48 435.432 280.74 434.982C285.62 426.412 284.62 416.011 289.31 407.371C289.98 406.131 290.11 404.551 290.29 403.101C290.96 397.801 292.27 392.781 294.61 387.871C297.23 382.371 299.01 376.451 300.9 370.631C301.31 369.351 300.66 367.731 300.38 365.301C295.4 373.081 288.54 378.272 284.96 386.022C284.74 386.512 284.63 387.501 284.48 387.501C279.85 387.501 280.46 391.931 278.73 394.321C276.42 397.531 274.55 401.072 272.14 404.192C268.47 408.942 266.85 415.341 262.73 419.201C256.69 424.861 256.05 433.241 250.63 438.911C249.54 440.051 249.11 441.791 248.17 443.101C246.9 444.861 244.85 446.201 245.51 448.851C243.2 449.341 242.98 451.221 242.11 453.041C240.59 456.211 237.02 458.251 236.76 462.251C233.12 463.601 233.93 467.632 232.14 470.152C231.3 471.342 231.25 472.812 229.31 472.732C228.12 472.682 227.55 473.231 228.29 474.451C225.59 475.121 227.03 477.182 226.77 478.732C226.49 480.402 222.79 479.451 223.76 482.351C219.25 486.691 217.65 493.491 211.59 496.421C213.25 499.971 210.4 501.681 208.82 503.821C206.9 506.421 204.53 508.502 201.9 510.482C198.53 513.022 195.08 513.701 191.69 511.411C190.08 510.321 188.26 509.172 186.41 508.902C178.63 507.762 173.65 502.771 172.91 494.701C172.48 490.051 171.28 485.391 173.21 480.741C173.58 479.851 172.83 478.561 172.88 477.471C173.04 473.841 172.49 470.142 174.68 466.772C175.54 465.452 176.07 463.522 175.87 461.982C175.06 455.832 178.3 450.831 180.04 445.381C181.86 439.691 183.21 433.851 184.94 428.121C185.84 425.121 187.14 422.251 188.21 419.301C190 414.321 191.64 409.292 193.54 404.362C194.92 400.772 196.52 397.252 198.19 393.772C201.52 386.842 204.69 379.811 208.43 373.101C212.79 365.271 217.71 357.771 222.32 350.081C224.22 346.911 225.46 343.221 227.85 340.501C232.2 335.531 234.95 329.381 240.34 325.101C243.68 322.441 245.53 317.981 248.58 314.841C253.11 310.161 258.1 305.931 262.92 301.531C263.46 301.041 264.15 300.691 264.82 300.391C272.71 296.861 275.41 297.391 278.63 303.581C278.96 304.221 279.43 304.792 279.73 305.232C278.15 308.142 276.75 310.891 275.17 313.531C274.66 314.391 273.67 314.961 272.9 315.671C272.22 314.741 271.55 313.801 270.86 312.881C270.64 312.591 270.36 312.361 270.07 312.061C266.06 314.501 262.2 316.912 260.86 322.022C260.34 324.012 258.84 326.291 257.11 327.331C250.15 331.551 247.47 339.071 243.94 345.421C239.4 353.601 233.58 360.861 229.06 368.971C227.14 372.421 225.9 376.251 224.21 379.851C222.43 383.661 220.81 387.611 218.54 391.121C215.18 396.321 213.57 402.172 211.16 407.732C209.63 411.262 209.21 415.521 205.8 418.171C205.29 418.571 205.07 419.411 204.85 420.081C202.26 428.121 199.59 436.132 197.18 444.232C195.88 448.602 195.21 453.151 193.96 457.531C192.97 461.001 193.38 464.901 190.81 467.951C190.34 468.511 190.54 469.641 190.43 470.501C189.9 474.851 189.39 479.201 188.84 483.551C188.19 488.741 188.44 493.851 189.64 499.301C194.88 497.571 197.41 493.501 200.01 489.991C205.98 481.931 211.98 473.851 216.4 464.711C218.31 460.761 221.36 457.381 223.62 453.581C227.64 446.811 231.19 439.742 235.43 433.112C242.22 422.502 249.42 412.161 256.41 401.671C259.45 397.111 262.29 392.432 265.37 387.902C268.47 383.352 271.7 378.891 274.98 374.461C281.22 366.031 288.01 358.011 294.44 349.751C300.12 342.441 306.82 336.141 312.57 328.971C315.58 325.211 319.83 324.891 324.05 324.471C324.72 324.401 325.56 325.091 326.17 325.601C329.4 328.271 330.55 332.851 329.42 336.871C328.16 341.321 327.72 346.061 325.97 350.291C323.56 356.121 321.62 361.932 321.05 368.232C320.91 369.772 319.59 371.181 318.95 372.701C315.23 381.561 312.67 390.761 310.71 400.161C309.97 403.721 308.89 407.391 307.1 410.511C305.28 413.681 305.19 417.051 304.41 420.341C303.7 423.321 303.23 426.371 302.44 429.331C301.5 432.881 299.75 436.211 300.41 440.141C300.63 441.441 299.77 442.961 299.3 444.331C296.67 451.931 295.59 459.821 294.73 467.761C294.69 468.131 294.77 468.621 294.57 468.851C289.95 474.101 291.87 480.831 290.57 486.821C289.09 493.651 288.22 500.611 286.99 507.501C286.73 508.931 285.88 510.251 285.57 511.681C283.13 522.681 280.86 533.731 278.29 544.701C277.5 548.091 275.85 551.271 274.75 554.591C273.67 557.851 272.63 561.121 270.18 564.641L270.15 564.652Z" fill="#7968FF"/>
<path d="M681.37 217.43C680.12 220.55 679.2 223.761 675.28 225.131C673.73 225.671 673 228.301 671.65 229.751C670.09 231.431 668.25 232.84 666.55 234.39C663.52 237.17 660.52 239.971 657.49 242.751C653.75 246.191 650 249.62 646.24 253.05C644.67 254.48 643.19 256.051 641.48 257.291C637.33 260.301 633.16 263.31 628.79 265.97C627.91 266.51 625.46 265.971 624.82 265.111C622.75 262.371 619.75 262.091 616.93 261.621C610.14 260.501 608.31 259.061 609.11 252.271C610.07 244.121 611.91 236.06 613.58 228.01C613.88 226.58 615.19 225.361 615.83 224.371C616 221.931 615.7 219.521 616.38 217.421C620.43 205.031 624.69 192.71 628.93 180.39C631.23 173.7 633.67 167.061 635.94 160.361C636.88 157.591 637.49 154.701 638.36 151.901C640.8 144.011 643.13 136.081 645.82 128.281C648.14 121.541 651.61 115.121 653.21 108.241C654.2 103.961 656.52 100.251 656.86 95.5212C657.26 89.8812 660.18 84.2709 662.65 78.9509C666.31 71.0709 668.32 62.7308 670.65 54.4508C672.05 49.4908 673.9 44.6303 675.85 39.8503C679.39 31.1603 683.15 22.551 686.97 13.571C683.28 12.361 679.88 11.2505 676.47 10.1305C676.46 9.78054 676.45 9.43073 676.44 9.08073C677.5 8.62073 678.53 7.86065 679.62 7.75065C690.25 6.69065 700.9 5.04081 711.58 6.66081C717.38 7.54081 723.66 8.08042 728.66 10.7604C740.65 17.1904 752.23 24.6408 757.95 37.9508C760.68 44.3008 764.07 50.721 764.98 57.401C765.86 63.881 766.95 70.4906 766.14 77.4206C765.38 83.9206 763.5 90.1012 762.66 96.5212C762.35 98.8712 761.91 101.361 760.8 103.401C758.41 107.801 756.24 112.221 755.52 117.231C755.5 117.391 755.33 117.55 755.21 117.68C749.46 123.76 749.71 132.971 743.82 139.131C741.56 141.491 740.29 144.731 737.79 147.271C735.52 149.581 734.67 153.521 732.55 156.281C729.46 160.301 726.71 164.5 724.22 168.89C723.79 169.65 723.11 170.281 722.48 170.901C721.07 172.291 719.36 173.461 718.22 175.041C714.5 180.171 711.34 185.771 707.19 190.491C705.39 192.541 703.27 194.261 701.74 196.691C699.97 199.501 697.58 201.931 695.34 204.421C694.12 205.781 692.61 206.881 691.3 208.161C690.26 209.171 689.06 210.15 688.4 211.39C685.91 216.08 685.99 216.12 681.38 217.39L681.37 217.43ZM633.29 241.421C640.01 234.971 646.5 229.021 652.66 222.751C661.23 214.021 669.71 205.181 677.94 196.131C683.69 189.801 688.89 182.98 694.44 176.47C698.92 171.22 703.58 166.201 707.37 160.321C713.75 150.411 720.89 141.001 727.72 131.381C728.98 123.121 737.46 118.371 738.19 109.831C738.23 109.401 739.02 109.091 739.28 108.631C740.15 107.051 741.09 105.48 741.72 103.8C743.21 99.8305 744.56 95.8005 745.94 91.8005C746.78 89.3605 748.3 86.9009 748.28 84.4509C748.24 79.1809 749.81 74.1703 749.97 68.8903C750.2 61.1403 750.08 53.6111 747.78 46.1911C745.02 37.3011 739.86 29.8104 733.05 23.7204C724.92 16.4604 714.45 15.5004 704.12 14.7204C703.2 14.6504 702.2 15.5903 701 16.1803C703.14 19.3703 701.93 22.3704 700.93 25.2604C697.89 34.0504 694.61 42.7602 691.57 51.5602C690.31 55.1902 689.53 58.9803 688.33 62.6403C685.75 70.5203 683.06 78.3704 680.39 86.2204C678.09 92.9904 675.75 99.7512 673.45 106.521C672.29 109.931 671.05 113.331 670.04 116.791C666.87 127.621 665.14 138.861 660.41 149.241C658.95 152.431 657.98 155.861 657 159.251C654.75 167.071 652.87 175.01 650.39 182.76C647.35 192.27 643.51 201.51 640.67 211.1C637.86 220.6 634.86 230.031 632.01 239.521C631.91 239.841 632.57 240.39 633.3 241.43L633.29 241.421Z" fill="#7968FF"/>
<path d="M944.77 203.971C940.55 202.441 937.37 201.032 934.06 200.152C929.18 198.852 927.88 197.672 927.58 192.652C927.36 189.032 927.37 185.391 927.35 181.751C927.32 176.991 927.189 172.221 927.409 167.471C927.589 163.661 928.37 159.882 928.63 156.072C928.9 152.222 928.75 148.351 928.98 144.501C929.25 139.971 929.64 135.452 930.13 130.952C930.85 124.392 931.3 117.762 932.64 111.322C933.83 105.592 932.32 99.4315 935.46 94.0415C935.68 93.6715 935.36 92.9811 935.24 91.9711C934.2 92.6311 932.829 93.0111 932.659 93.6811C931.099 99.9111 928.58 105.681 925.53 111.341C923.55 115.011 922.67 119.272 921.28 123.272C919.91 127.222 918.42 131.351 916.57 134.841C913.73 140.181 911.49 145.651 909.17 151.171C908.11 153.691 905.96 155.762 905.21 158.532C903.15 166.062 898.64 172.422 894.85 179.032C892.31 183.462 891.62 189.331 886.28 191.971C882.31 191.021 878.9 189.472 878.82 184.572C878.81 183.852 878.53 182.892 878.89 182.442C882.6 177.812 881.48 171.721 883.8 166.631C885.77 162.321 886.86 157.621 888.47 153.131C890.73 146.801 892.96 140.451 895.47 134.221C899.65 123.881 904.09 113.651 908.34 103.341C909.86 99.6413 910.91 95.7415 912.57 92.1215C914.73 87.3815 917.32 82.8411 919.65 78.1811C920.79 75.9011 922.15 73.6318 922.71 71.1918C923.73 66.7518 926.12 63.3014 928.77 59.7114C931.04 56.6414 932.04 52.6412 933.62 49.0512C935.25 45.3512 936.77 41.6012 938.61 38.0112C939.23 36.8112 940.55 35.6711 941.81 35.1811C943.85 34.4011 946.19 34.3917 947.03 31.7417C947.13 31.4217 948.97 31.301 948.98 31.351C949.68 34.111 952.67 32.9917 953.9 34.2417C955.33 35.7017 955.85 38.0113 956.84 39.9213C959.21 44.5313 958.12 49.1811 957.2 53.8911C956.51 57.4511 956.22 61.0811 955.75 64.6811C954.95 70.7011 954.26 76.7419 953.3 82.7319C952.43 88.1519 950.409 93.5213 950.409 98.9213C950.409 108.381 947.77 117.371 946.93 126.601C946.55 130.751 945.72 134.851 945.5 139.011C945.39 141.141 945.54 143.272 945.57 145.412C945.94 145.452 946.32 145.482 946.69 145.522C947.02 144.602 947.419 143.712 947.659 142.772C949.059 137.302 951.599 132.061 952.789 126.721C954.049 121.041 957.64 116.322 958.02 110.322C958.28 106.242 960.33 102.232 961.83 98.2817C964.57 91.0617 967.2 83.7612 970.45 76.7612C973.25 70.7312 975.81 64.6117 978.56 58.5717C981.12 52.9417 984.81 47.8217 987.61 42.2817C989.54 38.4617 993.53 36.0719 994.22 31.2719C994.53 29.1019 997.55 27.4514 998.76 25.2514C1000.51 22.0714 1002.3 19.0217 1005.2 16.7417C1005.63 16.4117 1006.16 15.9414 1006.23 15.4614C1007.16 9.36138 1012.81 6.89162 1016.19 2.70162C1017.89 0.591618 1020.79 -0.66846 1024.12 0.37154C1027.1 1.30154 1030.26 5.42103 1029.42 8.35103C1028.87 10.271 1027.89 12.0713 1026.99 13.8813C1025.78 16.3213 1024.49 18.7315 1023.17 21.1215C1022.73 21.9215 1022.21 23.1015 1021.51 23.2915C1016.67 24.6015 1016.75 29.4519 1014.4 32.5219C1013.05 34.2919 1011.38 35.8713 1010.29 37.8813C1005.27 47.1913 1000.33 56.551 995.21 65.811C993.16 69.531 990.46 72.9016 988.52 76.6616C986.6 80.3916 985.14 84.3717 983.69 88.3217C980.91 95.9217 978.3 103.581 975.59 111.211C975.09 112.611 974.63 114.042 973.89 115.322C968.93 123.922 967.79 133.761 964.83 143.001C961.96 151.941 960.2 161.331 956.43 169.841C954.32 174.591 954.06 179.622 951.96 184.282C949.12 190.582 947.15 197.282 944.75 203.982L944.77 203.971Z" fill="#7968FF"/>
<path d="M1017.19 163.522C1014.58 163.672 1013.22 163.741 1011.64 163.831C1009.84 172.441 1001.47 175.031 995.63 180.341C993.26 179.121 990.94 175.591 987.53 179.871C984.21 174.621 979.03 173.291 974.03 171.541C972.97 171.171 971.74 170.062 971.4 169.022C969.97 164.582 969.79 160.041 969.72 155.311C969.66 150.991 973.52 147.281 971.11 142.921C973.74 140.591 973.66 137.081 974.96 134.181C976.25 131.311 975.66 127.652 978.62 125.522C979.91 115.682 985.96 107.782 989.68 98.9415C992.95 91.1815 997.92 84.1308 1002.12 76.7608C1003.21 74.8408 1004.27 72.901 1005.25 70.921C1006.29 68.811 1006.6 66.1913 1009.47 65.4513C1009.87 65.3513 1010.3 64.651 1010.39 64.171C1011.05 60.501 1013.72 58.1912 1015.81 55.3712C1019.54 50.3212 1023.67 45.8612 1028.5 41.8312C1033.95 37.2812 1038.71 31.9213 1044.03 27.2013C1046.33 25.1613 1049.24 23.7813 1051.94 22.2413C1059.54 17.9213 1067.41 14.3809 1076.36 14.0909C1082.36 13.8909 1087.66 15.3507 1091.47 20.3907C1091.86 20.9107 1092.13 21.5207 1093.06 23.1407C1086.04 19.7507 1080.55 21.1612 1074.8 23.9112C1063.51 29.3012 1054.56 37.5515 1045.53 45.9015C1040.86 50.2215 1037.76 55.4812 1034.27 60.5812C1030.49 66.1012 1026.33 71.3715 1022.55 76.9015C1016.4 85.9015 1011.63 95.6612 1007.16 105.581C1004.45 111.581 1001.46 117.451 998.67 123.411C997.14 126.681 996.81 130.541 993.81 133.081C993.97 139.191 988.48 143.641 989.14 150.151C989.46 153.341 987.34 156.741 986.54 160.091C986.24 161.361 986.52 162.771 986.54 164.851C992.5 160.561 997.85 157.061 1001.54 151.501C1003.2 148.991 1005.84 147.131 1007.61 144.671C1012.14 138.381 1016.44 131.921 1020.83 125.531C1023.08 122.261 1025.42 119.041 1027.57 115.701C1031.02 110.341 1034.46 104.972 1037.71 99.4815C1042.22 91.8615 1046.55 84.131 1050.97 76.461C1051.62 75.341 1052.54 74.351 1053.01 73.171C1054.57 69.241 1056.84 66.661 1061.58 67.461C1062.58 67.631 1063.71 67.0607 1064.5 66.8907C1065.44 68.4407 1066.18 70.0612 1067.27 71.3712C1069.62 74.2112 1069.29 77.0812 1067.8 80.0812C1064.59 86.5712 1060.97 92.8907 1058.29 99.6007C1055.34 106.991 1053.3 114.751 1050.78 122.311C1050.27 123.831 1049.46 125.281 1048.61 126.661C1047.58 128.321 1045.91 129.692 1046.83 132.022C1047.01 132.472 1046.9 133.201 1046.64 133.641C1040.95 143.481 1041.38 155.391 1035.71 165.341C1033.67 168.931 1033.78 173.711 1032.78 177.921C1032.23 180.221 1031.38 182.441 1030.72 184.721C1029.26 189.801 1027.77 194.871 1026.41 199.971C1024.42 207.441 1022.96 215.051 1019.68 222.151C1017.94 225.911 1016.8 229.932 1015.23 233.772C1014.61 235.272 1013.71 236.731 1012.65 237.961C1011.38 239.421 1009.86 240.031 1007.7 239.161C1004.86 238.011 1002.23 235.991 998.77 236.671C998.15 236.791 996.64 235.461 996.56 234.701C996.01 229.571 996.05 224.481 999.32 220.031C999.94 219.181 1001.14 217.841 1000.89 217.411C999.34 214.741 1001.67 213.041 1002.2 210.921C1003.07 207.381 1003.36 203.521 1005.02 200.401C1006.64 197.361 1006.16 193.431 1009.16 191.091C1007.98 187.411 1010.43 184.481 1011.6 181.491C1013.8 175.891 1013.07 169.571 1017.19 163.531V163.522Z" fill="#7968FF"/>
<path d="M401.27 431.72C402.73 432.89 403.4 433.42 404.03 433.93C402.9 435.14 400.33 433.171 400.57 436.331C400.69 437.981 399.82 439.451 397.92 440.691C396.34 441.731 395.99 444.691 395.18 446.831C394.55 448.481 393.95 450.14 393.53 451.85C393.01 453.96 391.19 454.32 389.75 455.39C388.07 456.63 386.37 458.821 386.12 460.781C385.72 463.921 384.2 464.4 381.82 464.01C380.42 467.02 379.13 469.801 377.85 472.571C374.53 472.941 372.07 471.67 369.57 469.85C367.55 468.38 365.11 467.181 362.69 466.621C356.69 465.241 353.07 462.221 351.72 455.821C349.65 445.971 348.39 436.15 349.64 426.14C351.03 415.05 352.22 403.901 354.36 392.941C355.9 385.041 358.79 377.391 361.18 369.661C363.01 363.721 364.71 357.711 366.99 351.941C370.55 342.921 373.68 333.67 379.13 325.51C380.72 323.141 380.23 319.591 383.49 318.041C383.84 317.871 383.47 315.371 382.89 314.231C380.71 309.981 380.79 310.181 383.96 306.691C391.4 298.491 400.7 294.881 411.58 294.941C412.8 294.941 414.16 295.25 415.19 295.85C419.36 298.29 423.18 301.23 425.55 305.56C431.56 316.53 432.78 328.181 430.39 340.361C429.4 345.371 428.62 350.431 427.86 355.491C427.02 361.091 427.37 366.81 423.88 371.97C422.37 374.2 422.92 377.811 422.53 380.791C422.37 381.981 422.55 383.99 422 384.22C418.03 385.87 419.2 389.5 418.7 392.35C418.22 395.1 418.06 397.78 415.74 399.85C415.04 400.47 415.26 402.031 414.66 402.881C412.88 405.401 414.52 409.531 410.51 411.161C409.77 411.461 410.08 414.181 409.77 415.751C409.16 418.801 409.44 422.971 407.55 424.571C405.06 426.681 405.81 430.811 401.28 431.701L401.27 431.72ZM367.96 449.871C368.4 450.021 368.85 450.16 369.29 450.31C369.91 449.7 370.65 449.181 371.12 448.481C373.06 445.581 374.96 442.661 376.8 439.691C380.92 433.021 385.71 426.641 388.88 419.541C392.09 412.351 397.64 406.311 399.17 398.341C399.6 396.101 400.29 393.9 400.83 391.68C401.81 387.64 404.13 384.171 405 379.961C406.6 372.251 409.65 364.861 411.52 357.191C413.37 349.621 416.14 342.191 416.37 334.291C416.54 328.251 416.86 322.17 416.28 316.18C415.8 311.27 414.49 306.261 410.04 303.711C404.98 313.081 399.64 322.041 399.1 332.821C398.74 332.791 398.39 332.761 398.03 332.731C397.49 331.621 396.95 330.511 396.26 329.091C393.66 333.891 390.89 338.041 389.13 342.591C387.81 346.001 387.29 349.6 385.29 352.93C383.21 356.4 381.9 360.531 381.1 364.541C379.5 372.541 377.6 380.421 374.78 388.091C373.77 390.821 373.08 393.701 372.55 396.571C371.99 399.591 371.92 402.651 371.13 405.711C370.3 408.971 370.7 412.54 370.53 415.97C370.51 416.32 370.34 416.701 370.13 416.991C367.81 420.141 368.33 423.941 368.02 427.441C367.63 431.811 368.14 436.261 368.16 440.671C368.17 443.741 368.02 446.811 367.94 449.881L367.96 449.871Z" fill="#7968FF"/>
<path d="M844.52 69.5407C842.49 79.1307 843.64 89.1606 839.83 98.4206C839.48 99.2706 838.96 100.261 839.11 101.081C840.45 108.391 836.95 114.691 835.11 121.361C834 125.401 833.51 129.621 832.43 133.671C830.9 139.441 828.35 144.851 827.38 150.871C826.73 154.871 824.91 159.05 822.49 162.3C819.63 166.14 819.45 170.76 817.34 174.81C814.69 179.9 811.35 184.571 808.86 189.751C806.88 193.861 802.74 196.461 800.59 200.571C799.8 202.081 793.23 203.361 791.86 202.251C788.27 199.351 784.08 198.141 779.65 197.321C774.86 196.431 771.85 194.24 769.89 189.01C766.51 180.02 765.79 171.081 765.69 161.651C765.57 151.351 767.74 141.49 769.49 131.55C770.79 124.14 772.87 116.821 775.14 109.631C778.24 99.8305 781.77 90.1606 785.32 80.5006C786.26 77.9406 787.95 75.6609 789.26 73.2409C789.87 72.1109 790.61 70.9911 790.93 69.7711C792.58 63.4611 795.86 58.0407 799.34 52.5807C802.2 48.0907 805.23 43.7608 808.29 39.4108C814.82 30.1608 823.73 30.7004 831.74 36.2604C839.26 41.4704 842.04 49.5206 843.63 58.0006C844.33 61.7606 844.24 65.6704 844.51 69.5104L844.52 69.5407ZM826.26 41.2711C819.47 46.1611 816.13 52.8611 813.26 59.4411C810.82 65.0311 809.29 70.9805 805.33 75.8405C804.9 76.3705 804.68 77.191 804.6 77.901C803.58 86.661 799.06 94.3008 796.64 102.621C795.63 106.111 793.82 109.371 792.88 112.871C791.83 116.761 791.43 120.821 790.62 124.781C788.7 134.131 786.13 143.4 784.9 152.84C783.57 163.07 782.69 173.461 785.08 183.741C785.35 184.881 786.05 185.921 786.59 187.081C792.43 185.441 793.93 180.26 796.23 176.31C800.39 169.17 803.75 161.551 807.25 154.041C809.27 149.711 810.99 145.241 812.7 140.781C815.58 133.261 818.74 125.821 821.05 118.131C823.14 111.161 823.1 103.591 826.85 97.0309C827.27 96.3009 827.25 95.1904 827.11 94.3004C826.37 89.4504 827.83 84.8511 828.66 80.1911C830.68 68.8811 830.65 57.5902 828.24 46.3502C827.88 44.6702 826.99 43.1107 826.25 41.2907L826.26 41.2711Z" fill="#7968FF"/>
<path d="M844.61 205.621C840.26 204.121 837.26 202.921 834.16 202.051C830.69 201.081 829.55 199.8 830.23 196.31C831.54 189.62 834.25 183.451 837.22 177.341C838.71 174.281 839.72 170.891 840.39 167.541C841.4 162.531 844.36 158.371 845.8 153.491C848.3 145.071 852.17 137.061 855.46 128.871C859.4 119.051 863.65 109.341 867.15 99.371C869.32 93.181 871.53 87.1109 874.14 81.0809C876.27 76.1709 878.86 71.1305 879.82 65.6405C879.96 64.8205 880.68 64.0607 881.25 63.3807C882.79 61.5507 884.55 59.8612 883.93 57.0712C883.82 56.6012 884.05 55.8706 884.39 55.5106C889.39 50.1606 890.39 42.7806 893.97 36.7206C895.87 33.5006 901.01 31.9307 904.11 34.0907C906.33 35.6307 908.2 37.8211 909.8 40.0311C910.54 41.0511 910.73 42.9413 910.36 44.1913C909.29 47.8213 907.36 51.2205 906.58 54.8905C905.28 61.0405 901.45 66.2606 900.86 72.7206C900.56 76.0206 898.37 79.131 897.14 82.371C894.56 89.171 892.84 96.4308 889.35 102.711C883.49 113.281 881.35 125.19 876.21 135.85C873.25 141.99 872.86 148.931 869.11 154.581C866.36 158.721 866.75 164.361 862.58 167.741C863.62 172.001 860.76 175.061 859.03 178.321C855.36 185.211 852.76 192.551 849.34 199.521C848.11 202.021 845.88 204.021 844.61 205.621V205.621Z" fill="#7968FF"/>
<path d="M454.27 72.3412C454.6 65.7812 458.74 62.0715 463.53 58.8315C464.28 58.3315 465.47 58.3912 466.08 57.8012C470.34 53.7212 473.95 56.9413 477.5 58.8813C479.89 60.1913 480.31 62.751 478.96 65.061C476.04 70.071 467.28 75.9913 459.88 74.8813C457.99 74.6013 456.26 73.2812 454.26 72.3412H454.27Z" fill="#7968FF"/>
</svg>
