<?xml version="1.0" encoding="UTF-8"?><svg id="Layer_1" xmlns="http://www.w3.org/2000/svg" viewBox="0 0 1078.43 292.46"><defs><style>.cls-1{fill:#fff;}.cls-2{fill:#7968ff;}</style></defs><g><path class="cls-1" d="M265.12,71.42h0c0-37.54-30.71-68.25-68.25-68.25H0s0,252.95,0,252.95H6.16c55.55,0,100.49-45.22,100.13-100.77h0s.65,99.48,149.71,100.77v-116.65s-53.29,60.32-148.35,.2h89.23c37.54,0,68.25-30.71,68.25-68.25Zm-106.73,2.76c0,28.57-23.37,51.94-51.94,51.94h0V12.51h0c28.57,0,51.94,23.37,51.94,51.94v9.74Z"/><path class="cls-1" d="M1078.43,3.14h-256.37s0,106.35,0,106.35c28.37,0,63.08-45.67,74.71-76.41l.3,223.09h106.35s.3-223.09,.3-223.09c11.63,30.74,46.33,76.41,74.71,76.41V3.14Z"/><path class="cls-1" d="M402.11,0c-70.7,0-128.02,58.05-128.02,129.65s57.32,129.65,128.02,129.65c70.7,0,128.02-58.05,128.02-129.65S472.81,0,402.11,0Zm0,238.3c-13.46,0-24.38-48.65-24.38-108.65s10.91-108.65,24.38-108.65c13.46,0,24.38,48.65,24.38,108.65s-10.91,108.65-24.38,108.65Z"/><path class="cls-1" d="M676.04,0c-70.7,0-128.02,58.05-128.02,129.65s57.32,129.65,128.02,129.65c70.7,0,128.02-58.05,128.02-129.65S746.74,0,676.04,0Zm0,238.3c-13.46,0-24.38-48.65-24.38-108.65s10.91-108.65,24.38-108.65c13.46,0,24.38,48.65,24.38,108.65s-10.91,108.65-24.38,108.65Z"/></g><g><path class="cls-2" d="M858.11,173.89c-.73,.63-1.48,1.24-2.19,1.89-.36,.33-.6,.9-1,1.05-.57,.21-.96,.45-1.11,1.05-.02,.08-.16,.14-.26,.19-1.52,.74-2.03,2.44-3.27,3.46-.28,.23-.35,.69-.6,.96-.35,.38-.78,.68-1.18,1.01-.19,.16-.43,.3-.57,.5-1.09,1.51-2.17,3.03-3.23,4.57-.24,.34-1.25,1.6-1.71,1.98-.08,.07-.2,.11-.25,.2-.61,1.08-1.21,2.16-1.91,3.42-1.48-.76-3.04-.49-4.78-.32-.15-1.59-.28-3.03-.45-4.85-.32,.74-.52,1.15-.67,1.57-.05,.14,.09,.42,.02,.47-1.08,.86-.87,2.33-1.63,3.4-.65,.91-.59,2.31-1.08,3.38-.68,1.48-1.47,2.93-2.41,4.25-.57,.8-1.45,1.31-2.59,.55-.43-.29-1.19-.28-1.74-.15-2.7,.62-2.82-.19-3.3-2.2-.49-2.05-.88-4.23-.03-6.35,.06-.14,.04-.33,0-.48-.49-2.53,.16-5.03,.23-7.55,.02-.65,.15-1.29,.19-1.94,.01-.23-.11-.48-.29-.72-.44,1.09-1.31,2.03-.95,3.33-.92,.95-.29,2.47-1.41,3.49-.64,.59-.7,1.82-1.01,2.77-.22,.67-.31,1.41-.67,1.99-1.03,1.67-1.47,3.51-1.85,5.37-.72-.25-1.35,0-1.22,.73,.22,1.28-.9,1.78-1.37,2.61-.42,.74-1.51,1.4-2.39,1.52-1.08,.15-2.31-.11-3.36-.51-1.1-.42-1.51-1.55-1.99-2.63-.37-.84-.32-1.67-.5-2.49-.49-2.19-.72-4.42-.48-6.65,.27-2.61,.44-5.25,1.3-7.77,.03-.09-.04-.21-.1-.54-.3,.59-.43,1.32-.76,1.41-1.37,.41-1.57,1.58-2.13,2.61-.36,.67-1.22,1.45-1.89,1.5-1.02,.06-.66,.88-1.05,1.24-.4,.37-.46,1.19-.89,1.42-.68,.36-1.18,.69-1.27,1.48-.01,.09-.1,.19-.19,.26q-1.57,1.24-2.19,2.55c-.42,.9-2.04,2.24-3.03,2.49-.12,.93-.56,1.59-1.34,2.28-.79,.7-1.58,1.54-2.17,2.51-.39,.65-1.01,1.16-1.54,1.72-.77,.82-1.46,1.75-2.35,2.4-1.27,.94-2.31,2.53-4,2.5-2.27-.04-4.54-.43-6.78-.83-.55-.1-1.1-.73-1.48-1.25-1.13-1.56-1.68-3.36-1.84-5.28-.43-5.18,.11-10.24,1.69-15.2,.83-2.62,1.64-5.23,2.87-7.7,.63-1.27,1.1-2.64,1.85-3.83,1.93-3.04,3.89-6.03,6.41-8.67,1.5-1.57,2.92-3.25,4.51-4.75,1.62-1.53,3.44-2.78,5.57-3.51,.88-.3,1.79-.95,2.62-.86,.67,.07,1.27,.99,1.88,1.56,.51,.47,1.12,.9,1.47,1.48,.48,.78,.22,1.7-.46,2.35-.16,.15-.42,.28-.46,.45-.32,1.6-1.62,2.65-2.31,4.03-.33,.65-.79,1.24-1.19,1.86-.83,1.32-1.71,2.61-2.47,3.98-.22,.4-.44,.49-.8,.63-.38,.15-.88,.49-.97,.84-.29,1.08-.92,1.93-1.48,2.86-.38,.63-.68,1.2-1.29,1.72-1.39,1.17-2.61,2.55-3.88,3.85-.15,.15-.35,.37-.34,.55,.04,.68-.41,.42-.73,.58-.5,.25-1.2,.11-1.58,.91-.25,.52-1.27,.75-1.98,.95-.51,.14-1.1,.03-1.89,.03-.26,.74-.64,1.5-.8,2.31-.6,3.07-1.01,6.18-1.26,9.3-.2,2.53,.02,5.04,.58,7.51,.29,1.27,1.14,1.68,2.2,.92,1.07-.77,2.07-1.67,2.98-2.63,1.43-1.53,2.77-3.13,4.11-4.74,1.22-1.47,2.37-3,3.56-4.49,1.52-1.89,3.03-3.79,4.6-5.63,1.5-1.75,3.05-3.46,4.61-5.16,1.23-1.34,2.67-2.51,3.7-3.98,2.02-2.85,4.74-5.04,6.9-7.75,.81-1.02,1.85-1.82,2.9-2.63,1.69-1.3,3.09-2.97,4.74-4.32,1.4-1.15,2.97-2.09,4.5-3.07,.4-.25,.94-.27,1.54-.42,.03,.35,.05,.64,.08,1.02,.6,.15,1.15,.24,1.38-.6,.71-2.61,1.48-5.2,2.13-7.83,.83-3.37,1.57-6.76,2.82-10.01,.37-.97,.64-1.99,1.05-2.94,.53-1.23,2.11-1.39,3.28-.67,.6,.36,.99,.97,.8,1.7-.65,2.5-1.34,4.99-2.03,7.48-.2,.73-.5,1.44-.66,2.18-.53,2.47-1.02,4.95-1.52,7.43-.53,2.66-1.08,5.31-1.57,7.98-.15,.85-.1,1.73-.2,2.59-.39,3.1-.87,6.19-1.19,9.3-.24,2.27-.27,4.56-.4,6.84-.12,2.01-.27,4.02-.37,6.04-.03,.55,.09,1.1,.15,1.65,.12,.01,.24,.02,.37,.04,.32-.62,.72-1.22,.96-1.87,.9-2.47,1.75-4.96,2.62-7.44,.92-2.64,1.78-5.3,2.78-7.91,.75-1.97,1.71-3.87,2.53-5.82,.5-1.21,.89-2.47,1.38-3.68,.39-.97,.81-1.93,1.3-2.84,.87-1.62,1.57-3.29,2.14-5.05,.57-1.76,1.51-3.4,2.3-5.09,.17-.35,2.07-1,2.41-.81,.56,.32,1.12,.64,1.62,1.05,.27,.22,.55,.62,.54,.93-.03,.93-.1,1.88-.34,2.77-.43,1.63-1,3.22-1.47,4.83-.26,.88-.48,1.78-.67,2.69-.48,2.26-.94,4.54-1.41,6.8-.22,1.08-.47,2.16-.66,3.24-.13,.74,.02,1.56-.92,1.97-.18,.08-.31,.65-.21,.9,.58,1.39-.15,2.68-.25,4.01-.02,.2-.07,.4,.1,.72,.62-.66,1.37-1.23,1.85-1.98,1.43-2.24,3.62-3.7,5.45-5.53,1.94-1.94,4.01-3.75,6.08-5.56,2.48-2.16,5.01-4.28,7.55-6.38,2.19-1.81,4.4-3.62,6.66-5.34,1.13-.86,2.36-1.62,3.64-2.22,.98-.46,1.82-.99,2.26-1.97,.51-1.15,1-2.33,1.31-3.54,.44-1.72,.96-3.42,1.28-5.17,.14-.74,.31-1.51,.62-2.19,.43-.93,1.49-1.38,2.45-1.21,2.11,.39,2.95,1.82,2.53,3.92-.42,2.13-.72,4.3-.92,6.47-.1,1.08,.09,2.17-.61,3.14-.14,.19-.13,.53-.08,.78,.2,1.09,.28,2.13-.02,3.24-.17,.64,.21,1.41,.18,2.11-.09,2.06-.32,4.12-.38,6.18-.05,1.73,.1,3.47,.12,5.2,.02,1.79-.02,3.59-.04,5.38-.02,1.7-.01,3.4-.1,5.1-.07,1.36,.1,2.91-.49,4.03-.71,1.34-.17,2.59-.62,4.14-.21,.08-.75,.51-1.14,.4-1.2-.33-2.14-.02-3.06,.71-.29,.23-.7,.3-1.27,.54-.24-.78-.66-1.5-.64-2.2,.06-2.3-.26-4.53-.77-6.75-.04-.16,0-.33,0-.6,1.18-.33,1.49-1.18,1.41-2.37-.05-.81,.24-1.63,.32-2.45,.07-.65,.04-1.31,.07-1.96,.08-1.71,.19-3.42,.26-5.12,.02-.55,.04-1.11-.04-1.65-.04-.25-.32-.47-.62-.87-.22,.47-.48,.75-.46,1.02,.07,1.49-.61,2.63-1.43,3.81-.44,.64-.36,1.64-.54,2.47-.1,.48-.17,1-.41,1.4-1.16,1.93-1.81,4.06-2.55,6.16-.06,.16-.09,.32-.17,.47-.82,1.51-1.5,3.14-2.55,4.48-.49,.63-.85,1.26-1.25,1.92-.42,.68-1.06,1.33-1.76,1.72-.63,.35-1.47,.31-2.22,.44-.69,.12-1.41,.15-2.06,.37-1.59,.55-2.12,.32-2.69-1.26-.13-.36-.32-.72-.58-.99-1.06-1.07-1.23-2.45-1.29-3.83-.17-3.73,.4-7.36,1.62-10.89,.44-1.26,.86-2.52,1.29-3.78-.08-.1-.17-.19-.25-.29Zm-35.53-4.17c-.97-.39-1.1-.42-1.51,.01-.89,.93-1.67,1.97-2.93,2.48-.18,.07-.35,.32-.39,.51-.25,1.15-1.29,1.7-1.87,2.58-1.2,1.83-2.48,3.64-3.39,5.61-1,2.17-1.72,4.48-2.31,6.82-.29,1.16-.19,2.39-.78,3.53-.29,.55,.02,1.4,0,2.12-.05,2.02-.2,4.04-.18,6.06,0,1.06,.28,2.11,1.15,2.95,1.16-1.16,1.67-2.53,2.22-3.9,1.02-2.54,2.18-5.02,3.12-7.59,1.02-2.77,1.84-5.61,2.77-8.41,.38-1.13,.85-2.24,1.23-3.37,.67-2.04,1.3-4.08,1.93-6.13,.34-1.09,.64-2.19,.95-3.27Zm50.35-7.62c-.71,.62-1.21,1.25-1.86,1.58-2.2,1.1-3.67,2.97-5.03,4.89-1.05,1.48-2.13,2.96-2.74,4.78-.52,1.55-1.63,2.89-2.01,4.56-.37,1.65-1.01,3.24-1.32,4.9-.32,1.76-.58,3.57-.52,5.35,.06,1.46,.06,3.07,1.4,4.64,.33-.49,.52-.9,.82-1.21,1.3-1.36,1.85-3.15,2.58-4.79,1.76-3.93,3.35-7.94,4.91-11.95,.82-2.11,1.43-4.31,2.15-6.46,.57-1.69,1.18-3.37,1.72-5.08,.1-.31-.06-.7-.12-1.21Zm-92.94,21.7c.56-.34,1.01-.47,1.24-.76,1.67-2.16,3.32-4.35,4.94-6.55,.87-1.19,1.7-2.41,2.53-3.62,1.39-2.04,2.8-4.08,4.12-6.16,.35-.55,.42-1.27,.63-1.94-.3-.04-.38-.08-.41-.06-.34,.34-.63,.74-1.01,1.03-2.4,1.8-4.29,4.05-5.97,6.51-.2,.3-.69,.52-.71,.81-.08,1.05-1.16,1.3-1.52,2.07-.36,.77-.59,1.6-.89,2.39-.06,.15-.21,.26-.27,.41-.54,1.26-1.79,2.09-2.05,3.52-.12,.67-.34,1.33-.61,2.36Z"/><path class="cls-2" d="M891.78,204.09c.19,1.8,1.98,2.79,1.47,4.69,1.08,.31,2.17,.49,3.14,.92,2.5,1.12,4.51,2.82,6.14,5.08,1.15,1.6,1.92,3.4,1.88,5.19-.04,1.89,.47,4.1-1.26,5.71-.13,.13-.16,.41-.16,.63-.03,1.57-.87,2.81-1.65,4.08-.23,.37-.46,.77-.57,1.18-.42,1.51-1.36,2.71-2.22,3.98-1.2,1.78-2.59,3.5-3.43,5.46-.65,1.52-1.49,2.73-2.57,3.91-.79,.86-1.27,2.03-1.8,3.11-1.06,2.16-2.07,4.34-3.86,6.03-.26,.24-.41,.66-.49,1.02-.2,.89-.46,1.69-1.35,2.17-.29,.16-.43,.61-.6,.95-.41,.84-.75,1.71-1.75,2.06-.22,.08-.53,.41-.5,.58,.21,1.16-.58,1.85-1.08,2.72-.73,1.26-1.21,2.68-1.89,3.97-.63,1.19-1.37,2.33-2.1,3.47-.16,.26-.48,.42-.71,.6-1.22-1.01-2.38-1.79-3.97-1.67-.68,.05-1.12-.45-1.2-1.14-.06-.54-.16-1.14,0-1.63,.81-2.65,.78-5.46,1.7-8.08,.26-.75,.36-1.45,.32-2.29-.03-.67,.1-1.41,.09-2.16-.02-.7,.71-1.42,1.09-2.13,.1-.19,.2-.43,.19-.63-.2-3,1.16-5.69,1.65-8.55,.32-1.89,.99-3.66,1.65-5.41,.79-2.09,1.1-4.31,2-6.39,.82-1.89,1.13-4,1.68-6.02,.23-.85,.39-1.75,.75-2.54,.5-1.08,.48-2.31,1.25-3.33,.37-.49,.1-1.41,.29-2.08,.43-1.52,1-2.99,1.46-4.5,.21-.71,.3-1.46,.48-2.43-1.04,.22-1.89,.4-2.88,.61,.19-.36,.3-.59,.51-1.01-1.15,.34-1.68,2.38-3.27,1.09-.37,.48-.86,.86-1.64,1.08-.57,.16-1.26-.66-1.79,.31-.18,.34-1.25,.47-1.79,.31-1.23-.38-2.33,.89-3.57,.15-.18-.11-.7,.33-1.19,.59v-1.09c-.77,1.94-2.77,1.06-4.12,1.87,.05,.4-.02,.91,.19,1.22,1.23,1.81,1.46,3.93,1.82,5.96,.26,1.48,.04,3.06-.04,4.59-.13,2.48-.11,5-.56,7.43-.42,2.23-.34,4.63-1.61,6.67-.1,.17-.06,.42-.09,.63-.14,.97-.28,1.95-.42,2.92-.07,.53-.17,1.07-.19,1.61-.03,.68-.06,1.19-.6,1.85-.71,.87-.97,2.2-1.15,3.37-.16,1.05-.61,1.89-1.1,2.78-.63,1.13-1.67,2.08-1.56,3.55,.01,.18-.19,.4-.34,.55-1.1,1.06-1.73,2.41-2.4,3.75-.23,.47-.75,.8-1.16,1.16-.24,.21-.6,.31-.79,.55-.53,.67-1.13,.69-1.91,.48-1.21-.32-2.45-.51-3.68-.74-2.13-.41-3.49-1.86-3.96-4.28-.68-3.45-.37-6.89,.11-10.33,.31-2.24,.7-4.46,1.06-6.69,.03-.16,0-.35,.06-.49,1.13-2.3,.91-4.95,2.02-7.28,.56-1.17,.67-2.54,1.09-3.78,.6-1.76,1.21-3.53,1.95-5.23,1.35-3.11,2.79-6.19,4.22-9.26,.23-.5,.53-.98,.9-1.39,.53-.59,.59-1.11,.17-1.79-.22-.36-.23-.85-.39-1.5,1.8,.4,2.69-.68,3.65-1.53,1.05-.93,2.36-1,3.25,.06,.59,.71,1.05,.98,2.08,.71,6.05-1.59,12.2-2.83,18.2-4.63,2.18-.66,4.49-.9,6.91-1.36Zm-11.66,50.48c.68-.91,1.44-1.78,2.03-2.75,.66-1.07,1.06-2.31,1.76-3.35,1.71-2.55,3.78-4.86,4.99-7.73,.12-.29,.41-.52,.6-.79,1.41-2.15,2.89-4.26,4.19-6.48,1.43-2.44,2.57-5.04,4.05-7.45,1.03-1.67,1.52-3.45,1.98-5.3,.3-1.2,.14-2.37-.15-3.42-.37-1.33-.98-2.67-2.4-3.42-1.76-.94-3.66-.85-5.6-1.22-.48,1.57-1.01,2.97-1.32,4.42-.34,1.6-.53,3.22-1.62,4.54-.1,.12-.05,.37-.07,.57-.23,2.32-.76,4.55-1.75,6.67-.14,.29-.25,.6-.33,.91-.58,2.24-1.13,4.48-1.74,6.72-.14,.51-.56,.94-.69,1.44-.57,2.2-1.04,4.43-1.62,6.62-.41,1.55-1.22,3.04-1.37,4.6-.17,1.83-.59,3.55-.95,5.41Zm-27.68,5.1c.66-.79,1.24-1.38,1.68-2.05,.78-1.2,1.5-2.45,2.21-3.7,.33-.57,.61-1.17,.87-1.77,1-2.34,1.83-4.73,2.59-7.17,.75-2.42,1.41-4.85,1.89-7.32,.58-3,.85-6.07,1.3-9.1,.48-3.29,.41-6.58,.08-9.87-.09-.89-.44-1.68-1.14-2.31-.66,1.15-1.32,2.22-1.9,3.33-.56,1.09-1.3,2.18-1.46,3.35-.4,2.92-2.25,5.39-2.37,8.36-1.12,1.87-1.21,4.07-1.89,6.09-.59,1.74-1.43,3.48-1.21,5.43,.04,.37,.17,.81,.03,1.11-.62,1.32-.93,2.66-1.06,4.14-.2,2.31-.57,4.6-.2,6.92,.03,.2,0,.43-.07,.62-.47,1.35,.11,2.5,.66,3.93Z"/><path class="cls-2" d="M749.7,133.69c.49,1.04,.51,1.98,.29,3.09-.67,3.4-1.12,6.84-1.69,10.26-.22,1.34-.59,2.65-.83,3.98-.11,.64,0,1.33-.12,1.97-.47,2.64-.56,5.32-.96,7.96-.25,1.62-.48,3.27-.64,4.89-.13,1.33-.03,2.72-.18,4.08-.26,2.41-.54,4.81-.72,7.23-.12,1.56-.04,3.14-.11,4.71-.15,3.72-.32,7.44-.5,11.48,1.07-1.73,.83-3.57,1.97-4.91,.14-.17,.02-.54,.06-.81,.07-.6,.09-1.22,.26-1.8,.74-2.53,1.53-5.05,2.3-7.57,.64-2.09,1.23-4.2,1.92-6.28,.96-2.91,1.94-5.8,2.98-8.68,.97-2.69,2.02-5.36,3.08-8.01,.28-.7,.76-1.31,1.08-2,.44-.92,.86-1.86,1.21-2.82,1.4-3.79,3.37-7.29,5.33-10.8,.37-.66,.77-1.31,1.17-1.95,1.04-1.65,2.45-2.42,4.43-1.81,.15,.05,.32,.05,.45,.08,.82,1.13,.57,2.4,.39,3.57-.38,2.5-.97,4.98-1.41,7.47-.32,1.79-.53,3.6-.8,5.4-.4,2.66-.85,5.3-1.2,7.97-.32,2.35-.55,4.71-.81,7.06-.3,2.73-.64,5.45-.89,8.18-.19,2.17-.24,4.36-.41,6.53-.1,1.22-.38,2.43-.49,3.66-.09,.97-.03,1.96-.06,2.94-.04,1.29-.06,2.58-.16,3.87-.3,3.74-.67,7.47-.96,11.21-.29,3.65-.61,7.3-.76,10.96-.11,2.73,.02,5.46,.05,8.31-1.19,.12-2.37,.24-3.61,.37-.85-1.59-.97-3.37-1.04-5.05-.12-3.01,0-6.05,.19-9.06,.25-3.79,.66-7.57,1.03-11.36,.36-3.71,.71-7.42,1.16-11.12,.22-1.8,.38-3.58,.41-5.39,.03-1.8,.27-3.61,.48-5.41,.42-3.48,.88-6.96,1.33-10.44,.14-1.08,.28-2.17,.46-3.25,.4-2.49,.92-4.96,1.19-7.46,.16-1.5,.35-3,.62-4.48,.24-1.29,.64-2.55,.88-3.84,.19-1.01,.23-2.05,.34-3.07-.12-.03-.24-.06-.36-.08-.16,.25-.34,.48-.46,.75-.15,.35-.16,.79-.38,1.08-1.1,1.51-1.7,3.22-2.22,4.99-.24,.81-.79,1.52-1.18,2.28-.34,.67-.73,1.33-.93,2.04-.37,1.24-.9,2.45-1.46,3.56-1.4,2.81-1.97,5.91-3.3,8.74-.4,.85-.45,1.85-.75,2.75-.52,1.57-1.11,3.11-1.66,4.66-.14,.4-.26,.81-.34,1.23-.06,.32,.09,.79-.09,.97-1.03,1.04-.78,2.46-1.17,3.68-.35,1.1-.74,2.18-1.07,3.29-.23,.78-.36,1.6-.6,2.38-.24,.78-.55,1.53-.85,2.29-.08,.2-.35,.4-.32,.56,.44,2.26-.64,4.18-1.34,6.19-.12,.35-.02,.77-.1,1.13-.48,2.02-.92,4.06-1.51,6.05-.26,.89-.92,1.66-1.25,2.54-.24,.62-.6,.75-1.14,.66-.83-.15-1.79,.36-2.47-.46-.33-.41-.8-.89-.81-1.36-.06-1.88,.04-3.77,.06-5.66,.03-2.64,.02-5.29,.04-7.93,0-.88-.01-1.76,.1-2.63,.43-3.37,.04-6.78,.73-10.15,.38-1.87,.15-3.85,.31-5.78,.16-1.97,.47-3.93,.71-5.89,.05-.44,.07-.88,.12-1.32,.19-1.63,.39-3.26,.57-4.89,.06-.49,.05-.99,.12-1.48,.28-2.04,.57-4.09,.89-6.12,.16-1.06,.4-2.1,.6-3.15,.42-2.26,.84-4.53,1.24-6.79,.02-.09-.08-.2-.15-.39-.65,.07-1.02,.53-1.31,1.05-.32,.56-.59,1.15-.87,1.73-.45,.92-.91,1.84-1.33,2.78-1.18,2.62-2.41,5.22-3.5,7.88-.76,1.85-1.28,3.79-1.97,5.66-.65,1.77-1.42,3.51-2.08,5.28-.37,1.01-.61,2.08-.93,3.12-.83,2.67-1.72,5.32-2.51,8-.53,1.79-.87,3.62-1.39,5.41-.28,.99-.55,1.98-.8,2.98-.55,2.26-1.35,4.52-1.71,6.77-.45,2.88-1.68,5.57-1.77,8.52-.04,1.18-1.4,1.99-1.08,3.36,.28,1.18-.36,2.24-.54,3.36-.3,1.87-1.32,3.58-1.14,5.58,.06,.71-.22,1.51-.53,2.18-.68,1.44-.58,3.06-1.15,4.51-.61,1.55-.93,1.76-2.94,1.59-.03-.49-.15-1.03-.09-1.54,.23-1.9,.48-3.81,.8-5.7,.5-2.91,.9-5.86,1.66-8.7,1.16-4.36,1.87-8.81,2.97-13.18,.66-2.61,1.48-5.18,2.22-7.78,.82-2.9,1.6-5.82,2.44-8.71,.39-1.36,.93-2.68,1.34-4.03,.41-1.34,.7-2.71,1.12-4.05,.44-1.41,.96-2.8,1.47-4.19,.52-1.39,1.06-2.77,1.62-4.14,1.33-3.24,2.61-6.5,4.05-9.69,1.17-2.59,2.62-5.05,3.8-7.63,.52-1.15,1.07-2.25,1.8-3.28,.83-1.16,1.56-2.39,2.32-3.6,.93-1.47,2.34-1.28,3.71-1.13Z"/><path class="cls-2" d="M804.23,292.46c-.72-.69-1.33-1.34-2.29-1.26-.47,.04-.94,.13-1.4,.1-.53-.03-1.16-.03-1.57-.3-.55-.37-.12-.92,0-1.45,.48-2.3,.81-4.63,1.23-6.94,.4-2.24,.87-4.48,1.24-6.73,.27-1.63,.31-3.3,.64-4.92,.49-2.44,.22-5.01,1.39-7.32,.09-.18,.15-.46,.08-.64-.7-1.91,.34-3.61,.61-5.4,.17-1.18,.36-2.36,.54-3.54,.02-.16,0-.35,.06-.49,1.28-2.66,.77-5.74,1.99-8.41,.18-.38,.18-.86,.21-1.29,.09-1.59,.38-3.12,.98-4.63,.67-1.69,1.08-3.5,1.52-5.27,.1-.39-.13-.86-.26-1.58-1.33,2.42-3.27,4.11-4.17,6.49-.06,.15-.07,.45-.11,.45-1.38,.1-1.11,1.4-1.57,2.15-.62,1-1.11,2.1-1.76,3.08-1,1.49-1.35,3.43-2.5,4.67-1.68,1.81-1.71,4.32-3.21,6.13-.3,.36-.39,.89-.65,1.3-.34,.55-.93,.99-.68,1.77-.68,.19-.71,.76-.93,1.32-.39,.98-1.41,1.66-1.41,2.86-1.06,.48-.73,1.66-1.22,2.45-.23,.37-.21,.81-.79,.83-.36,0-.51,.19-.27,.53-.79,.26-.32,.84-.37,1.31-.05,.5-1.17,.3-.82,1.14-1.26,1.38-1.6,3.45-3.34,4.44,.57,1.02-.25,1.59-.68,2.26-.52,.82-1.18,1.48-1.93,2.13-.95,.83-1.97,1.1-3.03,.49-.5-.29-1.07-.6-1.63-.64-2.34-.18-3.93-1.57-4.32-3.96-.22-1.38-.68-2.74-.2-4.17,.09-.27-.16-.64-.17-.97-.03-1.08-.26-2.18,.32-3.23,.23-.41,.35-1,.26-1.45-.37-1.82,.5-3.37,.91-5.03,.43-1.73,.71-3.5,1.11-5.25,.21-.91,.54-1.8,.79-2.7,.43-1.52,.82-3.05,1.29-4.57,.34-1.1,.74-2.18,1.17-3.25,.85-2.14,1.65-4.3,2.63-6.37,1.14-2.42,2.45-4.76,3.67-7.15,.5-.98,.8-2.11,1.45-2.97,1.2-1.57,1.89-3.46,3.41-4.85,.94-.86,1.4-2.23,2.25-3.23,1.26-1.49,2.66-2.85,4.01-4.26,.15-.16,.35-.28,.54-.38,2.28-1.21,3.1-1.11,4.18,.67,.11,.18,.26,.34,.36,.47-.41,.9-.77,1.75-1.19,2.57-.14,.27-.42,.46-.63,.68-.22-.26-.44-.53-.66-.79-.07-.08-.16-.15-.25-.23-1.15,.81-2.25,1.61-2.54,3.16-.11,.6-.52,1.31-1.01,1.66-1.99,1.4-2.64,3.7-3.56,5.66-1.19,2.53-2.78,4.82-3.96,7.33-.5,1.07-.8,2.24-1.22,3.34-.45,1.17-.86,2.38-1.46,3.48-.9,1.62-1.26,3.4-1.86,5.1-.38,1.08-.42,2.36-1.39,3.22-.14,.13-.19,.38-.24,.59-.61,2.45-1.24,4.89-1.79,7.36-.3,1.33-.41,2.7-.69,4.03-.23,1.06-.02,2.21-.73,3.17-.13,.18-.05,.51-.06,.77-.07,1.31-.13,2.62-.21,3.93-.09,1.56,.09,3.08,.56,4.68,1.53-.62,2.2-1.89,2.9-2.99,1.62-2.53,3.24-5.06,4.37-7.87,.49-1.22,1.33-2.29,1.93-3.46,1.06-2.1,1.97-4.28,3.1-6.35,1.81-3.3,3.75-6.53,5.62-9.8,.81-1.42,1.57-2.88,2.39-4.29,.83-1.42,1.7-2.82,2.59-4.2,1.69-2.64,3.55-5.17,5.3-7.77,1.55-2.3,3.42-4.31,4.98-6.57,.82-1.18,2.08-1.36,3.33-1.58,.2-.03,.46,.15,.66,.29,1.02,.73,1.45,2.07,1.2,3.3-.28,1.35-.32,2.78-.76,4.07-.6,1.79-1.06,3.56-1.1,5.45,0,.46-.37,.91-.53,1.38-.93,2.72-1.5,5.51-1.9,8.36-.15,1.08-.4,2.19-.87,3.16-.48,.98-.44,1.99-.6,2.99-.15,.9-.23,1.82-.4,2.72-.21,1.08-.66,2.11-.38,3.26,.09,.38-.13,.85-.25,1.27-.63,2.32-.79,4.7-.89,7.08,0,.11,.03,.25-.03,.33-1.27,1.66-.56,3.63-.83,5.44-.3,2.07-.42,4.16-.65,6.24-.05,.43-.27,.84-.34,1.27-.5,3.33-.95,6.67-1.5,10-.17,1.03-.59,2.01-.85,3.02-.26,1-.5,1.99-1.16,3.09Z"/><path class="cls-2" d="M919.78,180.53c-.31,.96-.52,1.93-1.66,2.42-.45,.19-.61,.99-.99,1.45-.43,.53-.95,.99-1.43,1.49-.85,.89-1.69,1.79-2.53,2.68-1.05,1.1-2.09,2.2-3.14,3.3-.44,.46-.85,.96-1.33,1.36-1.18,.98-2.36,1.96-3.61,2.85-.25,.18-.99,.07-1.2-.17-.67-.78-1.57-.8-2.42-.88-2.05-.2-2.62-.59-2.52-2.63,.12-2.45,.51-4.89,.84-7.33,.06-.43,.43-.82,.6-1.13,0-.73-.14-1.44,.02-2.08,.96-3.78,1.97-7.54,2.99-11.3,.55-2.04,1.14-4.07,1.68-6.11,.22-.85,.35-1.72,.55-2.57,.57-2.4,1.1-4.81,1.74-7.2,.56-2.06,1.46-4.04,1.79-6.13,.21-1.3,.83-2.45,.83-3.87,0-1.69,.76-3.42,1.39-5.06,.93-2.42,1.36-4.95,1.89-7.47,.32-1.51,.77-2.99,1.25-4.46,.88-2.66,1.83-5.31,2.78-8.06-1.12-.28-2.16-.55-3.2-.81-.01-.1-.02-.21-.03-.31,.31-.16,.6-.41,.92-.46,3.15-.53,6.29-1.24,9.51-.98,1.75,.15,3.63,.18,5.18,.88,3.71,1.67,7.31,3.66,9.29,7.51,.94,1.84,2.09,3.68,2.49,5.66,.39,1.91,.85,3.86,.75,5.95-.1,1.95-.53,3.84-.65,5.77-.04,.71-.13,1.46-.41,2.09-.62,1.36-1.18,2.72-1.29,4.23,0,.05-.05,.1-.08,.14-1.59,1.93-1.33,4.67-2.96,6.63-.63,.75-.94,1.74-1.63,2.55-.63,.73-.8,1.93-1.38,2.79-.84,1.26-1.57,2.57-2.23,3.93-.11,.23-.3,.44-.48,.63-.39,.44-.88,.83-1.19,1.32-1.01,1.6-1.83,3.34-2.97,4.83-.49,.65-1.09,1.2-1.5,1.96-.47,.87-1.13,1.65-1.75,2.44-.34,.43-.76,.79-1.13,1.2-.29,.32-.63,.64-.8,1.02-.65,1.45-.62,1.46-1.97,1.93Zm-13.85,8.13c1.87-2.06,3.69-3.97,5.4-5.96,2.38-2.78,4.73-5.59,6.99-8.45,1.58-2,3-4.14,4.52-6.2,1.23-1.66,2.52-3.25,3.53-5.08,1.7-3.08,3.64-6.04,5.48-9.04,.21-2.49,2.64-4.08,2.68-6.64,0-.13,.23-.24,.3-.38,.23-.49,.48-.98,.63-1.49,.36-1.21,.68-2.44,1.01-3.67,.2-.75,.6-1.51,.55-2.24-.12-1.57,.25-3.1,.19-4.68-.09-2.31-.28-4.56-1.12-6.72-1-2.6-2.7-4.72-4.85-6.4-2.57-2-5.72-2.07-8.81-2.09-.28,0-.55,.3-.9,.5,.7,.91,.4,1.83,.16,2.71-.73,2.68-1.53,5.35-2.26,8.03-.3,1.11-.46,2.26-.74,3.37-.61,2.4-1.25,4.8-1.89,7.19-.55,2.07-1.11,4.13-1.66,6.2-.28,1.04-.58,2.08-.81,3.13-.72,3.29-1.01,6.68-2.21,9.87-.37,.98-.59,2.03-.81,3.05-.51,2.38-.91,4.79-1.49,7.15-.71,2.9-1.67,5.73-2.32,8.65-.64,2.89-1.35,5.76-2,8.65-.02,.1,.19,.25,.42,.54Z"/><path class="cls-2" d="M998.06,171.15c-1.29-.37-2.27-.73-3.27-.92-1.48-.29-1.89-.61-2.09-2.1-.14-1.08-.21-2.16-.29-3.25-.11-1.42-.24-2.84-.27-4.26-.02-1.14,.13-2.28,.13-3.42,0-1.15-.12-2.31-.13-3.46-.01-1.35,.01-2.71,.07-4.07,.08-1.97,.08-3.96,.35-5.91,.24-1.73-.34-3.54,.49-5.21,.06-.12-.05-.31-.11-.61-.3,.22-.7,.36-.73,.56-.34,1.89-.97,3.66-1.77,5.41-.51,1.14-.69,2.42-1.02,3.64-.33,1.21-.69,2.47-1.17,3.55-.74,1.65-1.29,3.33-1.87,5.02-.26,.77-.86,1.44-1.03,2.28-.46,2.29-1.67,4.28-2.67,6.33-.67,1.37-.75,3.14-2.29,4.03-1.2-.2-2.25-.59-2.38-2.06-.02-.21-.12-.5-.02-.64,1.01-1.46,.55-3.25,1.14-4.82,.5-1.33,.73-2.75,1.12-4.12,.55-1.93,1.08-3.87,1.7-5.78,1.04-3.17,2.15-6.31,3.21-9.47,.38-1.13,.61-2.32,1.03-3.43,.55-1.46,1.23-2.86,1.83-4.3,.29-.7,.65-1.41,.77-2.15,.21-1.34,.86-2.42,1.57-3.55,.61-.96,.83-2.18,1.23-3.28,.41-1.14,.79-2.29,1.26-3.39,.16-.37,.53-.74,.9-.91,.59-.27,1.29-.32,1.49-1.13,.02-.1,.57-.17,.57-.16,.26,.81,1.13,.41,1.53,.76,.45,.4,.66,1.09,.99,1.63,.8,1.33,.57,2.73,.39,4.16-.13,1.07-.14,2.16-.21,3.25-.12,1.81-.2,3.63-.36,5.43-.15,1.63-.64,3.28-.53,4.89,.19,2.82-.41,5.56-.47,8.33-.03,1.24-.19,2.48-.17,3.73,0,.64,.1,1.27,.15,1.91,.11,0,.22,0,.34,0,.08-.28,.18-.56,.23-.84,.31-1.66,.96-3.27,1.2-4.89,.26-1.72,1.23-3.2,1.23-5,0-1.22,.52-2.46,.89-3.67,.67-2.21,1.3-4.44,2.13-6.59,.71-1.85,1.35-3.73,2.05-5.59,.65-1.73,1.65-3.33,2.37-5.04,.5-1.18,1.64-1.97,1.75-3.42,.05-.65,.91-1.21,1.23-1.89,.46-.98,.93-1.93,1.75-2.67,.12-.11,.27-.26,.28-.4,.15-1.84,1.79-2.69,2.71-4.01,.47-.67,1.3-1.1,2.32-.86,.91,.22,1.94,1.38,1.74,2.27-.12,.58-.38,1.14-.61,1.7-.31,.75-.65,1.5-.99,2.24-.12,.25-.25,.61-.45,.68-1.42,.49-1.29,1.93-1.93,2.9-.37,.56-.83,1.06-1.12,1.68-1.31,2.88-2.59,5.77-3.93,8.64-.54,1.15-1.27,2.21-1.77,3.37-.5,1.15-.85,2.37-1.2,3.58-.67,2.32-1.3,4.66-1.95,6.99-.12,.43-.23,.86-.42,1.26-1.3,2.66-1.44,5.62-2.14,8.44-.67,2.72-1.01,5.56-1.96,8.17-.53,1.46-.51,2.97-1.04,4.4-.72,1.94-1.17,3.97-1.75,6.02Z"/><path class="cls-2" d="M1018.83,157.61c-.78,.1-1.18,.15-1.65,.21-.36,2.61-2.81,3.55-4.44,5.25-.73-.31-1.5-1.32-2.42,.02-1.1-1.5-2.67-1.79-4.2-2.21-.32-.09-.71-.4-.84-.7-.52-1.3-.66-2.64-.78-4.05-.11-1.29,.97-2.47,.16-3.72,.74-.75,.64-1.79,.97-2.69,.33-.88,.08-1.96,.92-2.66,.18-2.96,1.83-5.44,2.76-8.15,.82-2.38,2.16-4.58,3.26-6.87,.29-.59,.56-1.2,.81-1.81,.27-.65,.31-1.44,1.15-1.72,.12-.04,.23-.25,.25-.4,.12-1.11,.87-1.85,1.44-2.74,1.01-1.58,2.15-3,3.51-4.3,1.53-1.47,2.84-3.16,4.33-4.68,.64-.65,1.48-1.13,2.26-1.64,2.18-1.44,4.45-2.66,7.11-2.93,1.78-.18,3.4,.15,4.63,1.57,.13,.15,.22,.32,.53,.79-2.16-.87-3.77-.34-5.43,.6-3.26,1.84-5.76,4.48-8.28,7.16-1.31,1.38-2.12,3.02-3.06,4.61-1.02,1.72-2.15,3.38-3.16,5.1-1.65,2.81-2.87,5.82-4.01,8.87-.69,1.84-1.46,3.65-2.17,5.49-.39,1.01-.41,2.17-1.25,2.98,.17,1.82-1.38,3.26-1.05,5.19,.16,.94-.4,2-.57,3.02-.06,.38,.05,.8,.1,1.42,1.69-1.4,3.22-2.55,4.2-4.29,.44-.78,1.19-1.39,1.67-2.16,1.22-1.97,2.37-3.98,3.55-5.98,.6-1.02,1.24-2.03,1.81-3.07,.92-1.67,1.84-3.34,2.69-5.04,1.19-2.36,2.32-4.76,3.49-7.13,.17-.35,.43-.66,.54-1.02,.38-1.2,1.01-2.02,2.44-1.88,.3,.03,.63-.16,.86-.23,.31,.44,.57,.91,.92,1.28,.76,.8,.72,1.66,.34,2.59-.83,2-1.78,3.96-2.44,6.01-.73,2.26-1.18,4.62-1.78,6.93-.12,.46-.33,.91-.56,1.34-.27,.52-.74,.96-.42,1.63,.06,.13,.04,.35-.02,.49-1.5,3.05-1.13,6.59-2.61,9.68-.54,1.11-.41,2.54-.62,3.81-.12,.7-.33,1.38-.48,2.07-.33,1.54-.67,3.09-.97,4.64-.44,2.27-.72,4.57-1.56,6.75-.44,1.16-.7,2.38-1.09,3.56-.15,.46-.39,.91-.68,1.3-.35,.46-.79,.68-1.45,.46-.87-.28-1.7-.83-2.71-.56-.18,.05-.66-.32-.7-.54-.27-1.52-.36-3.04,.52-4.43,.17-.27,.5-.69,.41-.81-.52-.77,.14-1.32,.26-1.96,.19-1.07,.19-2.23,.63-3.19,.42-.94,.2-2.1,1.04-2.86-.43-1.07,.24-2,.53-2.91,.54-1.72,.2-3.59,1.3-5.47Z"/><path class="cls-2" d="M840.62,250.14c.46,.32,.67,.46,.87,.6-.31,.38-1.12-.15-.98,.78,.07,.49-.16,.94-.7,1.35-.45,.34-.49,1.23-.69,1.89-.15,.5-.3,1.01-.39,1.53-.11,.64-.65,.79-1.06,1.13-.48,.4-.94,1.09-.97,1.68-.05,.94-.5,1.12-1.22,1.05-.36,.93-.68,1.78-1.01,2.63-.98,.18-1.74-.15-2.52-.64-.63-.4-1.38-.71-2.12-.82-1.82-.29-2.96-1.12-3.49-3-.82-2.89-1.39-5.8-1.22-8.81,.19-3.34,.32-6.69,.73-10,.3-2.39,1-4.73,1.56-7.08,.43-1.81,.81-3.64,1.37-5.4,.88-2.76,1.62-5.58,3.08-8.13,.42-.74,.21-1.79,1.15-2.32,.1-.06-.06-.8-.26-1.12-.74-1.22-.71-1.17,.16-2.27,2.05-2.6,4.75-3.86,8-4.07,.36-.02,.78,.04,1.1,.2,1.29,.64,2.49,1.44,3.29,2.68,2.02,3.15,2.62,6.6,2.15,10.28-.19,1.52-.32,3.04-.45,4.56-.14,1.69,.08,3.38-.85,5-.4,.7-.17,1.76-.22,2.66-.02,.36,.07,.95-.09,1.03-1.15,.57-.73,1.63-.82,2.49-.09,.83-.08,1.63-.73,2.3-.2,.2-.1,.66-.26,.93-.48,.79,.09,1.99-1.07,2.55-.21,.1-.07,.91-.13,1.39-.12,.92,.05,2.16-.48,2.68-.7,.68-.39,1.9-1.72,2.25Zm-9.56,6.09c.14,.03,.27,.07,.41,.1,.17-.19,.38-.36,.51-.58,.52-.9,1.03-1.81,1.51-2.74,1.09-2.07,2.39-4.07,3.19-6.25,.81-2.21,2.34-4.12,2.64-6.53,.08-.68,.24-1.35,.36-2.02,.21-1.22,.83-2.31,1-3.58,.32-2.33,1.08-4.6,1.48-6.92,.4-2.3,1.07-4.57,.98-6.93-.07-1.8-.1-3.63-.4-5.4-.24-1.45-.74-2.92-2.11-3.59-1.32,2.9-2.73,5.68-2.67,8.9-.11,0-.21,0-.32,0-.18-.32-.37-.64-.6-1.05-.68,1.49-1.42,2.78-1.85,4.17-.32,1.04-.41,2.13-.93,3.16-.55,1.08-.86,2.34-1.01,3.55-.31,2.42-.72,4.81-1.41,7.15-.24,.84-.39,1.71-.49,2.58-.1,.91-.07,1.83-.24,2.75-.18,.99,.01,2.05,.03,3.07,0,.1-.04,.22-.1,.31-.63,.99-.39,2.11-.42,3.16-.03,1.31,.21,2.63,.31,3.94,.07,.91,.08,1.83,.12,2.75Z"/><path class="cls-2" d="M965.42,133.1c-.41,2.9,.14,5.87-.81,8.71-.09,.26-.22,.57-.16,.81,.55,2.15-.37,4.1-.78,6.13-.25,1.23-.31,2.5-.55,3.73-.34,1.75-.99,3.42-1.16,5.23-.11,1.21-.57,2.49-1.23,3.51-.78,1.2-.73,2.59-1.28,3.84-.69,1.57-1.59,3.03-2.22,4.63-.51,1.27-1.69,2.13-2.24,3.4-.2,.47-2.14,.98-2.57,.68-1.13-.79-2.4-1.07-3.74-1.22-1.45-.17-2.39-.76-3.08-2.28-1.19-2.61-1.59-5.26-1.81-8.07-.24-3.07,.2-6.05,.52-9.05,.24-2.24,.71-4.46,1.24-6.65,.73-2.99,1.58-5.94,2.44-8.89,.23-.78,.69-1.5,1.03-2.25,.16-.35,.36-.7,.43-1.07,.36-1.92,1.23-3.6,2.16-5.3,.76-1.4,1.58-2.75,2.4-4.11,1.76-2.89,4.43-2.91,6.93-1.42,2.35,1.4,3.34,3.74,3.99,6.24,.29,1.11,.34,2.27,.5,3.42Zm-6.02-8.06c-1.93,1.6-2.78,3.66-3.51,5.68-.61,1.72-.95,3.52-2.03,5.05-.12,.17-.17,.41-.18,.63-.13,2.63-1.32,5-1.87,7.53-.23,1.06-.7,2.07-.91,3.13-.23,1.18-.27,2.4-.43,3.6-.38,2.83-.96,5.64-1.13,8.48-.19,3.08-.24,6.2,.68,9.21,.1,.33,.33,.63,.52,.96,1.71-.61,2.05-2.18,2.66-3.41,1.1-2.21,1.94-4.55,2.83-6.87,.51-1.33,.94-2.7,1.36-4.07,.71-2.3,1.5-4.58,2.03-6.92,.48-2.12,.31-4.38,1.3-6.41,.11-.23,.08-.56,.02-.82-.32-1.43,.02-2.83,.17-4.24,.37-3.41,.13-6.78-.81-10.08-.14-.49-.44-.94-.7-1.47Z"/><path class="cls-2" d="M968.22,173.68c-1.33-.36-2.25-.66-3.19-.85-1.06-.22-1.42-.58-1.29-1.63,.25-2.02,.94-3.92,1.7-5.8,.38-.94,.61-1.97,.75-2.99,.2-1.51,1-2.81,1.33-4.3,.57-2.56,1.56-5.03,2.38-7.54,.97-3.01,2.05-5.99,2.88-9.04,.52-1.89,1.06-3.74,1.71-5.6,.53-1.51,1.2-3.06,1.38-4.72,.03-.25,.22-.49,.38-.7,.42-.58,.91-1.12,.67-1.94-.04-.14,.01-.36,.1-.48,1.38-1.7,1.53-3.92,2.47-5.8,.5-1,2-1.57,2.97-.99,.69,.42,1.3,1.03,1.82,1.65,.24,.29,.34,.85,.25,1.23-.25,1.1-.75,2.16-.91,3.27-.26,1.86-1.3,3.5-1.34,5.43-.02,.99-.61,1.96-.91,2.95-.63,2.08-1,4.28-1.91,6.23-1.53,3.27-1.93,6.87-3.24,10.15-.76,1.89-.73,3.97-1.74,5.73-.74,1.29-.51,2.96-1.68,4.06,.4,1.25-.39,2.22-.84,3.23-.95,2.13-1.58,4.37-2.46,6.52-.31,.77-.94,1.41-1.29,1.92Z"/><path class="cls-2" d="M849.1,141.89c-.04-1.96,1.12-3.15,2.49-4.22,.21-.17,.57-.17,.74-.36,1.19-1.3,2.33-.42,3.43,.09,.74,.34,.92,1.1,.56,1.81-.77,1.55-3.26,3.5-5.49,3.32-.57-.05-1.11-.4-1.73-.64Z"/></g></svg>