<svg width="1085" height="292" viewBox="0 0 1085 292" fill="none" xmlns="http://www.w3.org/2000/svg">
<g clip-path="url(#clip0_9_206)">
<path d="M268.72 71.4199C268.72 33.8799 238.01 3.16992 200.47 3.16992H3.6001V256.12H9.75977C65.3098 256.12 110.25 210.9 109.89 155.35C109.89 155.35 110.54 254.83 259.6 256.12V139.47C259.6 139.47 206.31 199.79 111.25 139.67H200.48C238.02 139.67 268.73 108.96 268.73 71.4199H268.72ZM161.99 74.1797C161.99 102.75 138.62 126.12 110.05 126.12V12.4897C138.62 12.4897 161.99 35.8597 161.99 64.4297V74.1699V74.1797Z" fill="black"/>
<path d="M1082.03 3.12988H825.66V109.48C854.03 109.48 888.74 63.8098 900.37 33.0698L900.67 256.16H1007.02L1007.32 33.0698C1018.95 63.8098 1053.65 109.48 1082.03 109.48V3.12988V3.12988Z" fill="black"/>
<path d="M405.71 0C335.01 0 277.69 58.0499 277.69 129.65C277.69 201.25 335.01 259.3 405.71 259.3C476.41 259.3 533.73 201.25 533.73 129.65C533.73 58.0499 476.41 0 405.71 0ZM405.71 238.3C392.25 238.3 381.33 189.65 381.33 129.65C381.33 69.6499 392.24 21 405.71 21C419.17 21 430.09 69.6499 430.09 129.65C430.09 189.65 419.18 238.3 405.71 238.3Z" fill="black"/>
<path d="M679.64 0C608.94 0 551.62 58.0499 551.62 129.65C551.62 201.25 608.94 259.3 679.64 259.3C750.34 259.3 807.66 201.25 807.66 129.65C807.66 58.0499 750.34 0 679.64 0ZM679.64 238.3C666.18 238.3 655.26 189.65 655.26 129.65C655.26 69.6499 666.17 21 679.64 21C693.1 21 704.02 69.6499 704.02 129.65C704.02 189.65 693.11 238.3 679.64 238.3Z" fill="black"/>
<path d="M861.71 173.89C860.98 174.52 860.23 175.13 859.52 175.78C859.16 176.11 858.92 176.68 858.52 176.83C857.95 177.04 857.56 177.28 857.41 177.88C857.39 177.96 857.25 178.02 857.15 178.07C855.63 178.81 855.12 180.51 853.88 181.53C853.6 181.76 853.53 182.22 853.28 182.49C852.93 182.87 852.5 183.17 852.1 183.5C851.91 183.66 851.67 183.8 851.53 184C850.44 185.51 849.36 187.03 848.3 188.57C848.06 188.91 847.05 190.17 846.59 190.55C846.51 190.62 846.39 190.66 846.34 190.75C845.73 191.83 845.13 192.91 844.43 194.17C842.95 193.41 841.39 193.68 839.65 193.85C839.5 192.26 839.37 190.82 839.2 189C838.88 189.74 838.68 190.15 838.53 190.57C838.48 190.71 838.62 190.99 838.55 191.04C837.47 191.9 837.68 193.37 836.92 194.44C836.27 195.35 836.33 196.75 835.84 197.82C835.16 199.3 834.37 200.75 833.43 202.07C832.86 202.87 831.98 203.38 830.84 202.62C830.41 202.33 829.65 202.34 829.1 202.47C826.4 203.09 826.28 202.28 825.8 200.27C825.31 198.22 824.92 196.04 825.77 193.92C825.83 193.78 825.81 193.59 825.77 193.44C825.28 190.91 825.93 188.41 826 185.89C826.02 185.24 826.15 184.6 826.19 183.95C826.2 183.72 826.08 183.47 825.9 183.23C825.46 184.32 824.59 185.26 824.95 186.56C824.03 187.51 824.66 189.03 823.54 190.05C822.9 190.64 822.84 191.87 822.53 192.82C822.31 193.49 822.22 194.23 821.86 194.81C820.83 196.48 820.39 198.32 820.01 200.18C819.29 199.93 818.66 200.18 818.79 200.91C819.01 202.19 817.89 202.69 817.42 203.52C817 204.26 815.91 204.92 815.03 205.04C813.95 205.19 812.72 204.93 811.67 204.53C810.57 204.11 810.16 202.98 809.68 201.9C809.31 201.06 809.36 200.23 809.18 199.41C808.69 197.22 808.46 194.99 808.7 192.76C808.97 190.15 809.14 187.51 810 184.99C810.03 184.9 809.96 184.78 809.9 184.45C809.6 185.04 809.47 185.77 809.14 185.86C807.77 186.27 807.57 187.44 807.01 188.47C806.65 189.14 805.79 189.92 805.12 189.97C804.1 190.03 804.46 190.85 804.07 191.21C803.67 191.58 803.61 192.4 803.18 192.63C802.5 192.99 802 193.32 801.91 194.11C801.9 194.2 801.81 194.3 801.72 194.37C800.674 195.197 799.943 196.047 799.53 196.92C799.11 197.82 797.49 199.16 796.5 199.41C796.38 200.34 795.94 201 795.16 201.69C794.37 202.39 793.58 203.23 792.99 204.2C792.6 204.85 791.98 205.36 791.45 205.92C790.68 206.74 789.99 207.67 789.1 208.32C787.83 209.26 786.79 210.85 785.1 210.82C782.83 210.78 780.56 210.39 778.32 209.99C777.77 209.89 777.22 209.26 776.84 208.74C775.71 207.18 775.16 205.38 775 203.46C774.57 198.28 775.11 193.22 776.69 188.26C777.52 185.64 778.33 183.03 779.56 180.56C780.19 179.29 780.66 177.92 781.41 176.73C783.34 173.69 785.3 170.7 787.82 168.06C789.32 166.49 790.74 164.81 792.33 163.31C793.95 161.78 795.77 160.53 797.9 159.8C798.78 159.5 799.69 158.85 800.52 158.94C801.19 159.01 801.79 159.93 802.4 160.5C802.91 160.97 803.52 161.4 803.87 161.98C804.35 162.76 804.09 163.68 803.41 164.33C803.25 164.48 802.99 164.61 802.95 164.78C802.63 166.38 801.33 167.43 800.64 168.81C800.31 169.46 799.85 170.05 799.45 170.67C798.62 171.99 797.74 173.28 796.98 174.65C796.76 175.05 796.54 175.14 796.18 175.28C795.8 175.43 795.3 175.77 795.21 176.12C794.92 177.2 794.29 178.05 793.73 178.98C793.35 179.61 793.05 180.18 792.44 180.7C791.05 181.87 789.83 183.25 788.56 184.55C788.41 184.7 788.21 184.92 788.22 185.1C788.26 185.78 787.81 185.52 787.49 185.68C786.99 185.93 786.29 185.79 785.91 186.59C785.66 187.11 784.64 187.34 783.93 187.54C783.42 187.68 782.83 187.57 782.04 187.57C781.78 188.31 781.4 189.07 781.24 189.88C780.64 192.95 780.23 196.06 779.98 199.18C779.78 201.71 780 204.22 780.56 206.69C780.85 207.96 781.7 208.37 782.76 207.61C783.83 206.84 784.83 205.94 785.74 204.98C787.17 203.45 788.51 201.85 789.85 200.24C791.07 198.77 792.22 197.24 793.41 195.75C794.93 193.86 796.44 191.96 798.01 190.12C799.51 188.37 801.06 186.66 802.62 184.96C803.85 183.62 805.29 182.45 806.32 180.98C808.34 178.13 811.06 175.94 813.22 173.23C814.03 172.21 815.07 171.41 816.12 170.6C817.81 169.3 819.21 167.63 820.86 166.28C822.26 165.13 823.83 164.19 825.36 163.21C825.76 162.96 826.3 162.94 826.9 162.79C826.93 163.14 826.95 163.43 826.98 163.81C827.58 163.96 828.13 164.05 828.36 163.21C829.07 160.6 829.84 158.01 830.49 155.38C831.32 152.01 832.06 148.62 833.31 145.37C833.68 144.4 833.95 143.38 834.36 142.43C834.89 141.2 836.47 141.04 837.64 141.76C838.24 142.12 838.63 142.73 838.44 143.46C837.79 145.96 837.1 148.45 836.41 150.94C836.21 151.67 835.91 152.38 835.75 153.12C835.22 155.59 834.73 158.07 834.23 160.55C833.7 163.21 833.15 165.86 832.66 168.53C832.51 169.38 832.56 170.26 832.46 171.12C832.07 174.22 831.59 177.31 831.27 180.42C831.03 182.69 831 184.98 830.87 187.26C830.75 189.27 830.6 191.28 830.5 193.3C830.47 193.85 830.59 194.4 830.65 194.95C830.77 194.96 830.89 194.97 831.02 194.99C831.34 194.37 831.74 193.77 831.98 193.12C832.88 190.65 833.73 188.16 834.6 185.68C835.52 183.04 836.38 180.38 837.38 177.77C838.13 175.8 839.09 173.9 839.91 171.95C840.41 170.74 840.8 169.48 841.29 168.27C841.68 167.3 842.1 166.34 842.59 165.43C843.46 163.81 844.16 162.14 844.73 160.38C845.3 158.62 846.24 156.98 847.03 155.29C847.2 154.94 849.1 154.29 849.44 154.48C850 154.8 850.56 155.12 851.06 155.53C851.33 155.75 851.61 156.15 851.6 156.46C851.57 157.39 851.5 158.34 851.26 159.23C850.83 160.86 850.26 162.45 849.79 164.06C849.53 164.94 849.31 165.84 849.12 166.75C848.64 169.01 848.18 171.29 847.71 173.55C847.49 174.63 847.24 175.71 847.05 176.79C846.92 177.53 847.07 178.35 846.13 178.76C845.95 178.84 845.82 179.41 845.92 179.66C846.5 181.05 845.77 182.34 845.67 183.67C845.65 183.87 845.6 184.07 845.77 184.39C846.39 183.73 847.14 183.16 847.62 182.41C849.05 180.17 851.24 178.71 853.07 176.88C855.01 174.94 857.08 173.13 859.15 171.32C861.63 169.16 864.16 167.04 866.7 164.94C868.89 163.13 871.1 161.32 873.36 159.6C874.49 158.74 875.72 157.98 877 157.38C877.98 156.92 878.82 156.39 879.26 155.41C879.77 154.26 880.26 153.08 880.57 151.87C881.01 150.15 881.53 148.45 881.85 146.7C881.99 145.96 882.16 145.19 882.47 144.51C882.9 143.58 883.96 143.13 884.92 143.3C887.03 143.69 887.87 145.12 887.45 147.22C887.03 149.35 886.73 151.52 886.53 153.69C886.43 154.77 886.62 155.86 885.92 156.83C885.78 157.02 885.79 157.36 885.84 157.61C886.04 158.7 886.12 159.74 885.82 160.85C885.65 161.49 886.03 162.26 886 162.96C885.91 165.02 885.68 167.08 885.62 169.14C885.57 170.87 885.72 172.61 885.74 174.34C885.76 176.13 885.72 177.93 885.7 179.72C885.68 181.42 885.69 183.12 885.6 184.82C885.53 186.18 885.7 187.73 885.11 188.85C884.4 190.19 884.94 191.44 884.49 192.99C884.28 193.07 883.74 193.5 883.35 193.39C882.15 193.06 881.21 193.37 880.29 194.1C880 194.33 879.59 194.4 879.02 194.64C878.78 193.86 878.36 193.14 878.38 192.44C878.44 190.14 878.12 187.91 877.61 185.69C877.57 185.53 877.61 185.36 877.61 185.09C878.79 184.76 879.1 183.91 879.02 182.72C878.97 181.91 879.26 181.09 879.34 180.27C879.41 179.62 879.38 178.96 879.41 178.31C879.49 176.6 879.6 174.89 879.67 173.19C879.69 172.64 879.71 172.08 879.63 171.54C879.59 171.29 879.31 171.07 879.01 170.67C878.79 171.14 878.53 171.42 878.55 171.69C878.62 173.18 877.94 174.32 877.12 175.5C876.68 176.14 876.76 177.14 876.58 177.97C876.48 178.45 876.41 178.97 876.17 179.37C875.01 181.3 874.36 183.43 873.62 185.53C873.56 185.69 873.53 185.85 873.45 186C872.63 187.51 871.95 189.14 870.9 190.48C870.41 191.11 870.05 191.74 869.65 192.4C869.23 193.08 868.59 193.73 867.89 194.12C867.26 194.47 866.42 194.43 865.67 194.56C864.98 194.68 864.26 194.71 863.61 194.93C862.02 195.48 861.49 195.25 860.92 193.67C860.79 193.31 860.6 192.95 860.34 192.68C859.28 191.61 859.11 190.23 859.05 188.85C858.88 185.12 859.45 181.49 860.67 177.96C861.11 176.7 861.53 175.44 861.96 174.18C861.88 174.08 861.79 173.99 861.71 173.89V173.89ZM826.18 169.72C825.21 169.33 825.08 169.3 824.67 169.73C823.78 170.66 823 171.7 821.74 172.21C821.56 172.28 821.39 172.53 821.35 172.72C821.1 173.87 820.06 174.42 819.48 175.3C818.28 177.13 817 178.94 816.09 180.91C815.09 183.08 814.37 185.39 813.78 187.73C813.49 188.89 813.59 190.12 813 191.26C812.71 191.81 813.02 192.66 813 193.38C812.95 195.4 812.8 197.42 812.82 199.44C812.82 200.5 813.1 201.55 813.97 202.39C815.13 201.23 815.64 199.86 816.19 198.49C817.21 195.95 818.37 193.47 819.31 190.9C820.33 188.13 821.15 185.29 822.08 182.49C822.46 181.36 822.93 180.25 823.31 179.12C823.98 177.08 824.61 175.04 825.24 172.99C825.58 171.9 825.88 170.8 826.19 169.72H826.18ZM876.53 162.1C875.82 162.72 875.32 163.35 874.67 163.68C872.47 164.78 871 166.65 869.64 168.57C868.59 170.05 867.51 171.53 866.9 173.35C866.38 174.9 865.27 176.24 864.89 177.91C864.52 179.56 863.88 181.15 863.57 182.81C863.25 184.57 862.99 186.38 863.05 188.16C863.11 189.62 863.11 191.23 864.45 192.8C864.78 192.31 864.97 191.9 865.27 191.59C866.57 190.23 867.12 188.44 867.85 186.8C869.61 182.87 871.2 178.86 872.76 174.85C873.58 172.74 874.19 170.54 874.91 168.39C875.48 166.7 876.09 165.02 876.63 163.31C876.73 163 876.57 162.61 876.51 162.1H876.53ZM783.59 183.8C784.15 183.46 784.6 183.33 784.83 183.04C786.5 180.88 788.15 178.69 789.77 176.49C790.64 175.3 791.47 174.08 792.3 172.87C793.69 170.83 795.1 168.79 796.42 166.71C796.77 166.16 796.84 165.44 797.05 164.77C796.75 164.73 796.67 164.69 796.64 164.71C796.3 165.05 796.01 165.45 795.63 165.74C793.23 167.54 791.34 169.79 789.66 172.25C789.46 172.55 788.97 172.77 788.95 173.06C788.87 174.11 787.79 174.36 787.43 175.13C787.07 175.9 786.84 176.73 786.54 177.52C786.48 177.67 786.33 177.78 786.27 177.93C785.73 179.19 784.48 180.02 784.22 181.45C784.1 182.12 783.88 182.78 783.61 183.81L783.59 183.8Z" fill="white"/>
<path d="M895.38 204.09C895.57 205.89 897.36 206.88 896.85 208.78C897.93 209.09 899.02 209.27 899.99 209.7C902.49 210.82 904.5 212.52 906.13 214.78C907.28 216.38 908.05 218.18 908.01 219.97C907.97 221.86 908.48 224.07 906.75 225.68C906.62 225.81 906.59 226.09 906.59 226.31C906.56 227.88 905.72 229.12 904.94 230.39C904.71 230.76 904.48 231.16 904.37 231.57C903.95 233.08 903.01 234.28 902.15 235.55C900.95 237.33 899.56 239.05 898.72 241.01C898.07 242.53 897.23 243.74 896.15 244.92C895.36 245.78 894.88 246.95 894.35 248.03C893.29 250.19 892.28 252.37 890.49 254.06C890.23 254.3 890.08 254.72 890 255.08C889.8 255.97 889.54 256.77 888.65 257.25C888.36 257.41 888.22 257.86 888.05 258.2C887.64 259.04 887.3 259.91 886.3 260.26C886.08 260.34 885.77 260.67 885.8 260.84C886.01 262 885.22 262.69 884.72 263.56C883.99 264.82 883.51 266.24 882.83 267.53C882.2 268.72 881.46 269.86 880.73 271C880.57 271.26 880.25 271.42 880.02 271.6C878.8 270.59 877.64 269.81 876.05 269.93C875.37 269.98 874.93 269.48 874.85 268.79C874.79 268.25 874.69 267.65 874.85 267.16C875.66 264.51 875.63 261.7 876.55 259.08C876.81 258.33 876.91 257.63 876.87 256.79C876.84 256.12 876.97 255.38 876.96 254.63C876.94 253.93 877.67 253.21 878.05 252.5C878.15 252.31 878.25 252.07 878.24 251.87C878.04 248.87 879.4 246.18 879.89 243.32C880.21 241.43 880.88 239.66 881.54 237.91C882.33 235.82 882.64 233.6 883.54 231.52C884.36 229.63 884.67 227.52 885.22 225.5C885.45 224.65 885.61 223.75 885.97 222.96C886.47 221.88 886.45 220.65 887.22 219.63C887.59 219.14 887.32 218.22 887.51 217.55C887.94 216.03 888.51 214.56 888.97 213.05C889.18 212.34 889.27 211.59 889.45 210.62C888.41 210.84 887.56 211.02 886.57 211.23C886.76 210.87 886.87 210.64 887.08 210.22C885.93 210.56 885.4 212.6 883.81 211.31C883.44 211.79 882.95 212.17 882.17 212.39C881.6 212.55 880.91 211.73 880.38 212.7C880.2 213.04 879.13 213.17 878.59 213.01C877.36 212.63 876.26 213.9 875.02 213.16C874.84 213.05 874.32 213.49 873.83 213.75V212.66C873.06 214.6 871.06 213.72 869.71 214.53C869.76 214.93 869.69 215.44 869.9 215.75C871.13 217.56 871.36 219.68 871.72 221.71C871.98 223.19 871.76 224.77 871.68 226.3C871.55 228.78 871.57 231.3 871.12 233.73C870.7 235.96 870.78 238.36 869.51 240.4C869.41 240.57 869.45 240.82 869.42 241.03C869.28 242 869.14 242.98 869 243.95C868.93 244.48 868.83 245.02 868.81 245.56C868.78 246.24 868.75 246.75 868.21 247.41C867.5 248.28 867.24 249.61 867.06 250.78C866.9 251.83 866.45 252.67 865.96 253.56C865.33 254.69 864.29 255.64 864.4 257.11C864.41 257.29 864.21 257.51 864.06 257.66C862.96 258.72 862.33 260.07 861.66 261.41C861.43 261.88 860.91 262.21 860.5 262.57C860.26 262.78 859.9 262.88 859.71 263.12C859.18 263.79 858.58 263.81 857.8 263.6C856.59 263.28 855.35 263.09 854.12 262.86C851.99 262.45 850.63 261 850.16 258.58C849.48 255.13 849.79 251.69 850.27 248.25C850.58 246.01 850.97 243.79 851.33 241.56C851.36 241.4 851.33 241.21 851.39 241.07C852.52 238.77 852.3 236.12 853.41 233.79C853.97 232.62 854.08 231.25 854.5 230.01C855.1 228.25 855.71 226.48 856.45 224.78C857.8 221.67 859.24 218.59 860.67 215.52C860.9 215.02 861.2 214.54 861.57 214.13C862.1 213.54 862.16 213.02 861.74 212.34C861.52 211.98 861.51 211.49 861.35 210.84C863.15 211.24 864.04 210.16 865 209.31C866.05 208.38 867.36 208.31 868.25 209.37C868.84 210.08 869.3 210.35 870.33 210.08C876.38 208.49 882.53 207.25 888.53 205.45C890.71 204.79 893.02 204.55 895.44 204.09H895.38ZM883.72 254.57C884.4 253.66 885.16 252.79 885.75 251.82C886.41 250.75 886.81 249.51 887.51 248.47C889.22 245.92 891.29 243.61 892.5 240.74C892.62 240.45 892.91 240.22 893.1 239.95C894.51 237.8 895.99 235.69 897.29 233.47C898.72 231.03 899.86 228.43 901.34 226.02C902.37 224.35 902.86 222.57 903.32 220.72C903.62 219.52 903.46 218.35 903.17 217.3C902.8 215.97 902.19 214.63 900.77 213.88C899.01 212.94 897.11 213.03 895.17 212.66C894.69 214.23 894.16 215.63 893.85 217.08C893.51 218.68 893.32 220.3 892.23 221.62C892.13 221.74 892.18 221.99 892.16 222.19C891.93 224.51 891.4 226.74 890.41 228.86C890.27 229.15 890.16 229.46 890.08 229.77C889.5 232.01 888.95 234.25 888.34 236.49C888.2 237 887.78 237.43 887.65 237.93C887.08 240.13 886.61 242.36 886.03 244.55C885.62 246.1 884.81 247.59 884.66 249.15C884.49 250.98 884.07 252.7 883.71 254.56L883.72 254.57ZM856.04 259.67C856.7 258.88 857.28 258.29 857.72 257.62C858.5 256.42 859.22 255.17 859.93 253.92C860.26 253.35 860.54 252.75 860.8 252.15C861.8 249.81 862.63 247.42 863.39 244.98C864.14 242.56 864.8 240.13 865.28 237.66C865.86 234.66 866.13 231.59 866.58 228.56C867.06 225.27 866.99 221.98 866.66 218.69C866.57 217.8 866.22 217.01 865.52 216.38C864.86 217.53 864.2 218.6 863.62 219.71C863.06 220.8 862.32 221.89 862.16 223.06C861.76 225.98 859.91 228.45 859.79 231.42C858.67 233.29 858.58 235.49 857.9 237.51C857.31 239.25 856.47 240.99 856.69 242.94C856.73 243.31 856.86 243.75 856.72 244.05C856.1 245.37 855.79 246.71 855.66 248.19C855.46 250.5 855.09 252.79 855.46 255.11C855.49 255.31 855.46 255.54 855.39 255.73C854.92 257.08 855.5 258.23 856.05 259.66L856.04 259.67Z" fill="white"/>
<path d="M753.3 133.69C753.79 134.73 753.81 135.67 753.59 136.78C752.92 140.18 752.47 143.62 751.9 147.04C751.68 148.38 751.31 149.69 751.07 151.02C750.96 151.66 751.07 152.35 750.95 152.99C750.48 155.63 750.39 158.31 749.99 160.95C749.74 162.57 749.51 164.22 749.35 165.84C749.22 167.17 749.32 168.56 749.17 169.92C748.91 172.33 748.63 174.73 748.45 177.15C748.33 178.71 748.41 180.29 748.34 181.86C748.19 185.58 748.02 189.3 747.84 193.34C748.91 191.61 748.67 189.77 749.81 188.43C749.95 188.26 749.83 187.89 749.87 187.62C749.94 187.02 749.96 186.4 750.13 185.82C750.87 183.29 751.66 180.77 752.43 178.25C753.07 176.16 753.66 174.05 754.35 171.97C755.31 169.06 756.29 166.17 757.33 163.29C758.3 160.6 759.35 157.93 760.41 155.28C760.69 154.58 761.17 153.97 761.49 153.28C761.93 152.36 762.35 151.42 762.7 150.46C764.1 146.67 766.07 143.17 768.03 139.66C768.4 139 768.8 138.35 769.2 137.71C770.24 136.06 771.65 135.29 773.63 135.9C773.78 135.95 773.95 135.95 774.08 135.98C774.9 137.11 774.65 138.38 774.47 139.55C774.09 142.05 773.5 144.53 773.06 147.02C772.74 148.81 772.53 150.62 772.26 152.42C771.86 155.08 771.41 157.72 771.06 160.39C770.74 162.74 770.51 165.1 770.25 167.45C769.95 170.18 769.61 172.9 769.36 175.63C769.17 177.8 769.12 179.99 768.95 182.16C768.85 183.38 768.57 184.59 768.46 185.82C768.37 186.79 768.43 187.78 768.4 188.76C768.36 190.05 768.34 191.34 768.24 192.63C767.94 196.37 767.57 200.1 767.28 203.84C766.99 207.49 766.67 211.14 766.52 214.8C766.41 217.53 766.54 220.26 766.57 223.11C765.38 223.23 764.2 223.35 762.96 223.48C762.11 221.89 761.99 220.11 761.92 218.43C761.8 215.42 761.92 212.38 762.11 209.37C762.36 205.58 762.77 201.8 763.14 198.01C763.5 194.3 763.85 190.59 764.3 186.89C764.52 185.09 764.68 183.31 764.71 181.5C764.74 179.7 764.98 177.89 765.19 176.09C765.61 172.61 766.07 169.13 766.52 165.65C766.66 164.57 766.8 163.48 766.98 162.4C767.38 159.91 767.9 157.44 768.17 154.94C768.33 153.44 768.52 151.94 768.79 150.46C769.03 149.17 769.43 147.91 769.67 146.62C769.86 145.61 769.9 144.57 770.01 143.55C769.89 143.52 769.77 143.49 769.65 143.47C769.49 143.72 769.31 143.95 769.19 144.22C769.04 144.57 769.03 145.01 768.81 145.3C767.71 146.81 767.11 148.52 766.59 150.29C766.35 151.1 765.8 151.81 765.41 152.57C765.07 153.24 764.68 153.9 764.48 154.61C764.11 155.85 763.58 157.06 763.02 158.17C761.62 160.98 761.05 164.08 759.72 166.91C759.32 167.76 759.27 168.76 758.97 169.66C758.45 171.23 757.86 172.77 757.31 174.32C757.17 174.72 757.05 175.13 756.97 175.55C756.91 175.87 757.06 176.34 756.88 176.52C755.85 177.56 756.1 178.98 755.71 180.2C755.36 181.3 754.97 182.38 754.64 183.49C754.41 184.27 754.28 185.09 754.04 185.87C753.8 186.65 753.49 187.4 753.19 188.16C753.11 188.36 752.84 188.56 752.87 188.72C753.31 190.98 752.23 192.9 751.53 194.91C751.41 195.26 751.51 195.68 751.43 196.04C750.95 198.06 750.51 200.1 749.92 202.09C749.66 202.98 749 203.75 748.67 204.63C748.43 205.25 748.07 205.38 747.53 205.29C746.7 205.14 745.74 205.65 745.06 204.83C744.73 204.42 744.26 203.94 744.25 203.47C744.19 201.59 744.29 199.7 744.31 197.81C744.34 195.17 744.33 192.52 744.35 189.88C744.35 189 744.34 188.12 744.45 187.25C744.88 183.88 744.49 180.47 745.18 177.1C745.56 175.23 745.33 173.25 745.49 171.32C745.65 169.35 745.96 167.39 746.2 165.43C746.25 164.99 746.27 164.55 746.32 164.11C746.51 162.48 746.71 160.85 746.89 159.22C746.95 158.73 746.94 158.23 747.01 157.74C747.29 155.7 747.58 153.65 747.9 151.62C748.06 150.56 748.3 149.52 748.5 148.47C748.92 146.21 749.34 143.94 749.74 141.68C749.76 141.59 749.66 141.48 749.59 141.29C748.94 141.36 748.57 141.82 748.28 142.34C747.96 142.9 747.69 143.49 747.41 144.07C746.96 144.99 746.5 145.91 746.08 146.85C744.9 149.47 743.67 152.07 742.58 154.73C741.82 156.58 741.3 158.52 740.61 160.39C739.96 162.16 739.19 163.9 738.53 165.67C738.16 166.68 737.92 167.75 737.6 168.79C736.77 171.46 735.88 174.11 735.09 176.79C734.56 178.58 734.22 180.41 733.7 182.2C733.42 183.19 733.15 184.18 732.9 185.18C732.35 187.44 731.55 189.7 731.19 191.95C730.74 194.83 729.51 197.52 729.42 200.47C729.38 201.65 728.02 202.46 728.34 203.83C728.62 205.01 727.98 206.07 727.8 207.19C727.5 209.06 726.48 210.77 726.66 212.77C726.72 213.48 726.44 214.28 726.13 214.95C725.45 216.39 725.55 218.01 724.98 219.46C724.37 221.01 724.05 221.22 722.04 221.05C722.01 220.56 721.89 220.02 721.95 219.51C722.18 217.61 722.43 215.7 722.75 213.81C723.25 210.9 723.65 207.95 724.41 205.11C725.57 200.75 726.28 196.3 727.38 191.93C728.04 189.32 728.86 186.75 729.6 184.15C730.42 181.25 731.2 178.33 732.04 175.44C732.43 174.08 732.97 172.76 733.38 171.41C733.79 170.07 734.08 168.7 734.5 167.36C734.94 165.95 735.46 164.56 735.97 163.17C736.49 161.78 737.03 160.4 737.59 159.03C738.92 155.79 740.2 152.53 741.64 149.34C742.81 146.75 744.26 144.29 745.44 141.71C745.96 140.56 746.51 139.46 747.24 138.43C748.07 137.27 748.8 136.04 749.56 134.83C750.49 133.36 751.9 133.55 753.27 133.7L753.3 133.69Z" fill="white"/>
<path d="M807.83 292.45C807.11 291.76 806.5 291.11 805.54 291.19C805.07 291.23 804.6 291.32 804.14 291.29C803.61 291.26 802.98 291.26 802.57 290.99C802.02 290.62 802.45 290.07 802.57 289.54C803.05 287.24 803.38 284.91 803.8 282.6C804.2 280.36 804.67 278.12 805.04 275.87C805.31 274.24 805.35 272.57 805.68 270.95C806.17 268.51 805.9 265.94 807.07 263.63C807.16 263.45 807.22 263.17 807.15 262.99C806.45 261.08 807.49 259.38 807.76 257.59C807.93 256.41 808.12 255.23 808.3 254.05C808.32 253.89 808.3 253.7 808.36 253.56C809.64 250.9 809.13 247.82 810.35 245.15C810.53 244.77 810.53 244.29 810.56 243.86C810.65 242.27 810.94 240.74 811.54 239.23C812.21 237.54 812.62 235.73 813.06 233.96C813.16 233.57 812.93 233.1 812.8 232.38C811.47 234.8 809.53 236.49 808.63 238.87C808.57 239.02 808.56 239.32 808.52 239.32C807.14 239.42 807.41 240.72 806.95 241.47C806.33 242.47 805.84 243.57 805.19 244.55C804.19 246.04 803.84 247.98 802.69 249.22C801.01 251.03 800.98 253.54 799.48 255.35C799.18 255.71 799.09 256.24 798.83 256.65C798.49 257.2 797.9 257.64 798.15 258.42C797.47 258.61 797.44 259.18 797.22 259.74C796.83 260.72 795.81 261.4 795.81 262.6C794.75 263.08 795.08 264.26 794.59 265.05C794.36 265.42 794.38 265.86 793.8 265.88C793.44 265.88 793.29 266.069 793.53 266.409C792.74 266.669 793.21 267.25 793.16 267.72C793.11 268.22 791.99 268.02 792.34 268.86C791.08 270.24 790.74 272.31 789 273.3C789.57 274.32 788.75 274.89 788.32 275.56C787.8 276.38 787.14 277.04 786.39 277.69C785.44 278.52 784.42 278.789 783.36 278.179C782.86 277.889 782.29 277.58 781.73 277.54C779.39 277.36 777.8 275.97 777.41 273.58C777.19 272.2 776.73 270.839 777.21 269.409C777.3 269.139 777.05 268.77 777.04 268.44C777.01 267.36 776.78 266.26 777.36 265.21C777.59 264.8 777.71 264.21 777.62 263.76C777.25 261.94 778.12 260.39 778.53 258.73C778.96 257 779.24 255.23 779.64 253.48C779.85 252.57 780.18 251.68 780.43 250.78C780.86 249.26 781.25 247.73 781.72 246.21C782.06 245.11 782.46 244.03 782.89 242.96C783.74 240.82 784.54 238.66 785.52 236.59C786.66 234.17 787.97 231.83 789.19 229.44C789.69 228.46 789.99 227.33 790.64 226.47C791.84 224.9 792.53 223.01 794.05 221.62C794.99 220.76 795.45 219.39 796.3 218.39C797.56 216.9 798.96 215.54 800.31 214.13C800.46 213.97 800.66 213.85 800.85 213.75C803.13 212.54 803.95 212.64 805.03 214.42C805.14 214.6 805.29 214.76 805.39 214.89C804.98 215.79 804.62 216.64 804.2 217.46C804.06 217.73 803.78 217.92 803.57 218.14C803.35 217.88 803.13 217.61 802.91 217.35C802.84 217.27 802.75 217.2 802.66 217.12C801.51 217.93 800.41 218.73 800.12 220.28C800.01 220.88 799.6 221.59 799.11 221.94C797.12 223.34 796.47 225.64 795.55 227.6C794.36 230.13 792.77 232.419 791.59 234.929C791.09 235.999 790.79 237.17 790.37 238.27C789.92 239.44 789.51 240.65 788.91 241.75C788.01 243.37 787.65 245.15 787.05 246.85C786.67 247.93 786.63 249.21 785.66 250.07C785.52 250.2 785.47 250.449 785.42 250.659C784.81 253.109 784.18 255.55 783.63 258.02C783.33 259.35 783.22 260.72 782.94 262.05C782.71 263.11 782.92 264.26 782.21 265.22C782.08 265.4 782.16 265.73 782.15 265.99C782.08 267.3 782.02 268.61 781.94 269.92C781.85 271.48 782.03 273 782.5 274.6C784.03 273.98 784.7 272.71 785.4 271.61C787.02 269.08 788.64 266.55 789.77 263.74C790.26 262.52 791.1 261.45 791.7 260.28C792.76 258.18 793.67 255.999 794.8 253.929C796.61 250.629 798.55 247.4 800.42 244.13C801.23 242.71 801.99 241.25 802.81 239.84C803.64 238.42 804.51 237.02 805.4 235.64C807.09 233 808.95 230.47 810.7 227.87C812.25 225.57 814.12 223.56 815.68 221.3C816.5 220.12 817.76 219.94 819.01 219.72C819.21 219.69 819.47 219.87 819.67 220.01C820.69 220.74 821.12 222.08 820.87 223.31C820.59 224.66 820.55 226.09 820.11 227.38C819.51 229.17 819.05 230.94 819.01 232.83C819.01 233.29 818.64 233.74 818.48 234.21C817.55 236.93 816.98 239.72 816.58 242.57C816.43 243.65 816.18 244.76 815.71 245.73C815.23 246.71 815.27 247.72 815.11 248.72C814.96 249.62 814.88 250.54 814.71 251.44C814.5 252.52 814.05 253.55 814.33 254.7C814.42 255.08 814.2 255.55 814.08 255.97C813.45 258.29 813.29 260.67 813.19 263.05C813.19 263.16 813.22 263.3 813.16 263.38C811.89 265.04 812.6 267.01 812.33 268.82C812.03 270.89 811.91 272.98 811.68 275.06C811.63 275.49 811.41 275.9 811.34 276.33C810.84 279.66 810.39 283 809.84 286.33C809.67 287.36 809.25 288.34 808.99 289.35C808.73 290.35 808.49 291.34 807.83 292.44V292.45Z" fill="white"/>
<path d="M923.38 180.53C923.07 181.49 922.86 182.459 921.72 182.949C921.27 183.139 921.11 183.94 920.73 184.4C920.3 184.93 919.78 185.39 919.3 185.89C918.45 186.78 917.61 187.68 916.77 188.57C915.72 189.67 914.68 190.77 913.63 191.87C913.19 192.33 912.78 192.83 912.3 193.23C911.12 194.21 909.94 195.19 908.69 196.08C908.44 196.26 907.7 196.149 907.49 195.909C906.82 195.129 905.92 195.11 905.07 195.03C903.02 194.83 902.45 194.44 902.55 192.4C902.67 189.95 903.06 187.51 903.39 185.07C903.45 184.64 903.82 184.25 903.99 183.94C903.99 183.21 903.85 182.5 904.01 181.86C904.97 178.08 905.98 174.32 907 170.56C907.55 168.52 908.14 166.489 908.68 164.449C908.9 163.599 909.03 162.73 909.23 161.88C909.8 159.48 910.33 157.069 910.97 154.679C911.53 152.619 912.43 150.64 912.76 148.55C912.97 147.25 913.59 146.099 913.59 144.679C913.59 142.989 914.35 141.26 914.98 139.62C915.91 137.2 916.34 134.67 916.87 132.15C917.19 130.64 917.64 129.16 918.12 127.69C919 125.03 919.95 122.38 920.9 119.63C919.78 119.35 918.74 119.08 917.7 118.82C917.69 118.72 917.68 118.61 917.67 118.51C917.98 118.35 918.27 118.1 918.59 118.05C921.74 117.52 924.88 116.81 928.1 117.07C929.85 117.22 931.73 117.249 933.28 117.949C936.99 119.619 940.59 121.61 942.57 125.46C943.51 127.3 944.66 129.14 945.06 131.12C945.45 133.03 945.91 134.98 945.81 137.07C945.71 139.02 945.28 140.91 945.16 142.84C945.12 143.55 945.03 144.299 944.75 144.929C944.13 146.289 943.57 147.649 943.46 149.159C943.46 149.209 943.41 149.26 943.38 149.3C941.79 151.23 942.05 153.969 940.42 155.929C939.79 156.679 939.48 157.67 938.79 158.48C938.16 159.21 937.99 160.41 937.41 161.27C936.57 162.53 935.84 163.839 935.18 165.199C935.07 165.429 934.88 165.64 934.7 165.83C934.31 166.27 933.82 166.66 933.51 167.15C932.5 168.75 931.68 170.49 930.54 171.98C930.05 172.63 929.45 173.18 929.04 173.94C928.57 174.81 927.91 175.59 927.29 176.38C926.95 176.81 926.53 177.17 926.16 177.58C925.87 177.9 925.53 178.22 925.36 178.6C924.71 180.05 924.74 180.06 923.39 180.53H923.38ZM909.53 188.659C911.4 186.599 913.22 184.689 914.93 182.699C917.31 179.919 919.66 177.11 921.92 174.25C923.5 172.25 924.92 170.11 926.44 168.05C927.67 166.39 928.96 164.799 929.97 162.969C931.67 159.889 933.61 156.929 935.45 153.929C935.66 151.439 938.09 149.85 938.13 147.29C938.13 147.16 938.36 147.049 938.43 146.909C938.66 146.419 938.91 145.93 939.06 145.42C939.42 144.21 939.74 142.98 940.07 141.75C940.27 141 940.67 140.24 940.62 139.51C940.5 137.94 940.87 136.41 940.81 134.83C940.72 132.52 940.53 130.27 939.69 128.11C938.69 125.51 936.99 123.39 934.84 121.71C932.27 119.71 929.12 119.64 926.03 119.62C925.75 119.62 925.48 119.92 925.13 120.12C925.83 121.03 925.53 121.95 925.29 122.83C924.56 125.51 923.76 128.18 923.03 130.86C922.73 131.97 922.57 133.12 922.29 134.23C921.68 136.63 921.04 139.03 920.4 141.42C919.85 143.49 919.29 145.55 918.74 147.62C918.46 148.66 918.16 149.7 917.93 150.75C917.21 154.04 916.92 157.43 915.72 160.62C915.35 161.6 915.13 162.65 914.91 163.67C914.4 166.05 914 168.46 913.42 170.82C912.71 173.72 911.75 176.549 911.1 179.469C910.46 182.359 909.75 185.23 909.1 188.12C909.08 188.22 909.29 188.369 909.52 188.659H909.53Z" fill="white"/>
<path d="M1001.65 171.14C1000.36 170.77 999.38 170.41 998.38 170.22C996.9 169.93 996.49 169.61 996.29 168.12C996.15 167.04 996.08 165.96 996 164.87C995.89 163.45 995.76 162.03 995.73 160.61C995.71 159.47 995.86 158.33 995.86 157.19C995.86 156.04 995.74 154.88 995.73 153.73C995.72 152.38 995.74 151.019 995.8 149.659C995.88 147.689 995.88 145.7 996.15 143.75C996.39 142.02 995.81 140.21 996.64 138.54C996.7 138.42 996.59 138.229 996.53 137.929C996.23 138.149 995.83 138.29 995.8 138.49C995.46 140.38 994.83 142.15 994.03 143.9C993.52 145.04 993.34 146.32 993.01 147.54C992.68 148.75 992.32 150.01 991.84 151.09C991.1 152.74 990.55 154.42 989.97 156.11C989.71 156.88 989.11 157.55 988.94 158.39C988.48 160.68 987.27 162.67 986.27 164.72C985.6 166.09 985.52 167.86 983.98 168.75C982.78 168.55 981.73 168.16 981.6 166.69C981.58 166.48 981.48 166.19 981.58 166.05C982.59 164.59 982.13 162.8 982.72 161.23C983.22 159.9 983.45 158.48 983.84 157.11C984.39 155.18 984.92 153.24 985.54 151.33C986.58 148.16 987.69 145.02 988.75 141.86C989.13 140.73 989.36 139.539 989.78 138.429C990.33 136.969 991.01 135.57 991.61 134.13C991.9 133.43 992.26 132.72 992.38 131.98C992.59 130.64 993.24 129.559 993.95 128.429C994.56 127.469 994.78 126.25 995.18 125.15C995.59 124.01 995.97 122.86 996.44 121.76C996.6 121.39 996.97 121.02 997.34 120.85C997.93 120.58 998.63 120.529 998.83 119.719C998.85 119.619 999.4 119.55 999.4 119.56C999.66 120.37 1000.53 119.97 1000.93 120.32C1001.38 120.72 1001.59 121.409 1001.92 121.949C1002.72 123.279 1002.49 124.68 1002.31 126.11C1002.18 127.18 1002.17 128.27 1002.1 129.36C1001.98 131.17 1001.9 132.99 1001.74 134.79C1001.59 136.42 1001.1 138.069 1001.21 139.679C1001.4 142.499 1000.8 145.24 1000.74 148.01C1000.71 149.25 1000.55 150.49 1000.57 151.74C1000.57 152.38 1000.67 153.01 1000.72 153.65C1000.83 153.65 1000.94 153.65 1001.06 153.65C1001.14 153.37 1001.24 153.09 1001.29 152.81C1001.6 151.15 1002.25 149.54 1002.49 147.92C1002.75 146.2 1003.72 144.72 1003.72 142.92C1003.72 141.7 1004.24 140.46 1004.61 139.25C1005.28 137.04 1005.91 134.809 1006.74 132.659C1007.45 130.809 1008.09 128.93 1008.79 127.07C1009.44 125.34 1010.44 123.74 1011.16 122.03C1011.66 120.85 1012.8 120.06 1012.91 118.61C1012.96 117.96 1013.82 117.399 1014.14 116.719C1014.6 115.739 1015.07 114.79 1015.89 114.05C1016.01 113.94 1016.16 113.79 1016.17 113.65C1016.32 111.81 1017.96 110.96 1018.88 109.64C1019.35 108.97 1020.18 108.54 1021.2 108.78C1022.11 109 1023.14 110.16 1022.94 111.05C1022.82 111.63 1022.56 112.19 1022.33 112.75C1022.02 113.5 1021.68 114.25 1021.34 114.99C1021.22 115.24 1021.09 115.6 1020.89 115.67C1019.47 116.16 1019.6 117.6 1018.96 118.57C1018.59 119.13 1018.13 119.63 1017.84 120.25C1016.53 123.13 1015.25 126.02 1013.91 128.89C1013.37 130.04 1012.64 131.1 1012.14 132.26C1011.64 133.41 1011.29 134.63 1010.94 135.84C1010.27 138.16 1009.64 140.5 1008.99 142.83C1008.87 143.26 1008.76 143.69 1008.57 144.09C1007.27 146.75 1007.13 149.71 1006.43 152.53C1005.76 155.25 1005.42 158.089 1004.47 160.699C1003.94 162.159 1003.96 163.67 1003.43 165.1C1002.71 167.04 1002.26 169.07 1001.68 171.12L1001.65 171.14Z" fill="white"/>
<path d="M1022.42 157.6C1021.64 157.7 1021.24 157.75 1020.77 157.81C1020.41 160.42 1017.96 161.36 1016.33 163.06C1015.6 162.75 1014.83 161.74 1013.91 163.08C1012.81 161.58 1011.24 161.29 1009.71 160.87C1009.39 160.78 1009 160.47 1008.87 160.17C1008.35 158.87 1008.21 157.53 1008.09 156.12C1007.98 154.83 1009.06 153.65 1008.25 152.4C1008.99 151.65 1008.89 150.61 1009.22 149.71C1009.55 148.83 1009.3 147.75 1010.14 147.05C1010.32 144.09 1011.97 141.61 1012.9 138.9C1013.72 136.52 1015.06 134.32 1016.16 132.03C1016.45 131.44 1016.72 130.83 1016.97 130.22C1017.24 129.57 1017.28 128.78 1018.12 128.5C1018.24 128.46 1018.35 128.25 1018.37 128.1C1018.49 126.99 1019.24 126.25 1019.81 125.36C1020.82 123.78 1021.96 122.36 1023.32 121.06C1024.85 119.59 1026.16 117.9 1027.65 116.38C1028.29 115.73 1029.13 115.25 1029.91 114.74C1032.09 113.3 1034.36 112.08 1037.02 111.81C1038.8 111.63 1040.42 111.96 1041.65 113.38C1041.78 113.53 1041.87 113.7 1042.18 114.17C1040.02 113.3 1038.41 113.83 1036.75 114.77C1033.49 116.61 1030.99 119.25 1028.47 121.93C1027.16 123.31 1026.35 124.95 1025.41 126.54C1024.39 128.26 1023.26 129.92 1022.25 131.64C1020.6 134.45 1019.38 137.46 1018.24 140.51C1017.55 142.35 1016.78 144.16 1016.07 146C1015.68 147.01 1015.66 148.17 1014.82 148.98C1014.99 150.8 1013.44 152.24 1013.77 154.17C1013.93 155.11 1013.37 156.17 1013.2 157.19C1013.14 157.57 1013.25 157.99 1013.3 158.61C1014.99 157.21 1016.52 156.06 1017.5 154.32C1017.94 153.54 1018.69 152.93 1019.17 152.16C1020.39 150.19 1021.54 148.18 1022.72 146.18C1023.32 145.16 1023.96 144.15 1024.53 143.11C1025.45 141.44 1026.37 139.77 1027.22 138.07C1028.41 135.71 1029.54 133.31 1030.71 130.94C1030.88 130.59 1031.14 130.28 1031.25 129.92C1031.63 128.72 1032.26 127.9 1033.69 128.04C1033.99 128.07 1034.32 127.88 1034.55 127.81C1034.86 128.25 1035.12 128.72 1035.47 129.09C1036.23 129.89 1036.19 130.75 1035.81 131.68C1034.98 133.68 1034.03 135.64 1033.37 137.69C1032.64 139.95 1032.19 142.31 1031.59 144.62C1031.47 145.08 1031.26 145.53 1031.03 145.96C1030.76 146.48 1030.29 146.92 1030.61 147.59C1030.67 147.72 1030.65 147.94 1030.59 148.08C1029.09 151.13 1029.46 154.67 1027.98 157.76C1027.44 158.87 1027.57 160.3 1027.36 161.57C1027.24 162.27 1027.03 162.95 1026.88 163.64C1026.55 165.18 1026.21 166.73 1025.91 168.28C1025.47 170.55 1025.19 172.85 1024.35 175.03C1023.91 176.19 1023.65 177.41 1023.26 178.59C1023.11 179.05 1022.87 179.5 1022.58 179.89C1022.23 180.35 1021.79 180.57 1021.13 180.35C1020.26 180.07 1019.43 179.52 1018.42 179.79C1018.24 179.84 1017.76 179.47 1017.72 179.25C1017.45 177.73 1017.36 176.21 1018.24 174.82C1018.41 174.55 1018.74 174.13 1018.65 174.01C1018.13 173.24 1018.79 172.69 1018.91 172.05C1019.1 170.98 1019.1 169.82 1019.54 168.86C1019.96 167.92 1019.74 166.76 1020.58 166C1020.15 164.93 1020.82 164 1021.11 163.09C1021.65 161.37 1021.31 159.5 1022.41 157.62L1022.42 157.6Z" fill="white"/>
<path d="M844.22 250.14C844.68 250.46 844.89 250.6 845.09 250.74C844.78 251.12 843.97 250.59 844.11 251.52C844.18 252.01 843.95 252.46 843.41 252.87C842.96 253.21 842.92 254.1 842.72 254.76C842.57 255.26 842.42 255.77 842.33 256.29C842.22 256.93 841.68 257.08 841.27 257.42C840.79 257.82 840.33 258.51 840.3 259.1C840.25 260.04 839.8 260.22 839.08 260.15C838.72 261.08 838.4 261.93 838.07 262.78C837.09 262.96 836.33 262.63 835.55 262.14C834.92 261.74 834.17 261.43 833.43 261.32C831.61 261.03 830.47 260.2 829.94 258.32C829.12 255.43 828.55 252.52 828.72 249.51C828.91 246.17 829.04 242.82 829.45 239.51C829.75 237.12 830.45 234.78 831.01 232.43C831.44 230.62 831.82 228.79 832.38 227.03C833.26 224.27 834 221.45 835.46 218.9C835.88 218.16 835.67 217.11 836.61 216.58C836.71 216.52 836.55 215.78 836.35 215.46C835.61 214.24 835.64 214.29 836.51 213.19C838.56 210.59 841.26 209.33 844.51 209.12C844.87 209.1 845.29 209.16 845.61 209.32C846.9 209.96 848.1 210.76 848.9 212C850.92 215.15 851.52 218.6 851.05 222.28C850.86 223.8 850.73 225.32 850.6 226.84C850.46 228.53 850.68 230.22 849.75 231.84C849.35 232.54 849.58 233.6 849.53 234.5C849.51 234.86 849.6 235.45 849.44 235.53C848.29 236.1 848.71 237.16 848.62 238.02C848.53 238.85 848.54 239.65 847.89 240.32C847.69 240.52 847.79 240.98 847.63 241.25C847.15 242.04 847.72 243.24 846.56 243.8C846.35 243.9 846.49 244.71 846.43 245.19C846.31 246.11 846.48 247.35 845.95 247.87C845.25 248.55 845.56 249.77 844.23 250.12L844.22 250.14ZM834.66 256.23C834.8 256.26 834.93 256.3 835.07 256.33C835.24 256.14 835.45 255.97 835.58 255.75C836.1 254.85 836.61 253.94 837.09 253.01C838.18 250.94 839.48 248.94 840.28 246.76C841.09 244.55 842.62 242.64 842.92 240.23C843 239.55 843.16 238.88 843.28 238.21C843.49 236.99 844.11 235.9 844.28 234.63C844.6 232.3 845.36 230.03 845.76 227.71C846.16 225.41 846.83 223.14 846.74 220.78C846.67 218.98 846.64 217.15 846.34 215.38C846.1 213.93 845.6 212.46 844.23 211.79C842.91 214.69 841.5 217.47 841.56 220.69C841.45 220.69 841.35 220.69 841.24 220.69C841.06 220.37 840.87 220.05 840.64 219.64C839.96 221.13 839.22 222.42 838.79 223.81C838.47 224.85 838.38 225.94 837.86 226.97C837.31 228.05 837 229.31 836.85 230.52C836.54 232.94 836.13 235.33 835.44 237.67C835.2 238.51 835.05 239.38 834.95 240.25C834.85 241.16 834.88 242.08 834.71 243C834.53 243.99 834.72 245.05 834.74 246.07C834.74 246.17 834.7 246.29 834.64 246.38C834.01 247.37 834.25 248.49 834.22 249.54C834.19 250.85 834.43 252.17 834.53 253.48C834.6 254.39 834.61 255.31 834.65 256.23H834.66Z" fill="white"/>
<path d="M969.02 133.1C968.61 136 969.16 138.97 968.21 141.81C968.12 142.07 967.99 142.38 968.05 142.62C968.6 144.77 967.68 146.72 967.27 148.75C967.02 149.98 966.96 151.25 966.72 152.48C966.38 154.23 965.73 155.9 965.56 157.71C965.45 158.92 964.99 160.2 964.33 161.22C963.55 162.42 963.6 163.81 963.05 165.06C962.36 166.63 961.46 168.09 960.83 169.69C960.32 170.96 959.14 171.82 958.59 173.09C958.39 173.56 956.45 174.07 956.02 173.77C954.89 172.98 953.62 172.7 952.28 172.55C950.83 172.38 949.89 171.79 949.2 170.27C948.01 167.66 947.61 165.01 947.39 162.2C947.15 159.13 947.59 156.15 947.91 153.15C948.15 150.91 948.62 148.69 949.15 146.5C949.88 143.51 950.73 140.56 951.59 137.61C951.82 136.83 952.28 136.11 952.62 135.36C952.78 135.01 952.98 134.66 953.05 134.29C953.41 132.37 954.28 130.69 955.21 128.99C955.97 127.59 956.79 126.24 957.61 124.88C959.37 121.99 962.04 121.97 964.54 123.46C966.89 124.86 967.88 127.2 968.53 129.7C968.82 130.81 968.87 131.97 969.03 133.12L969.02 133.1ZM963 125.04C961.07 126.64 960.22 128.7 959.49 130.72C958.88 132.44 958.54 134.24 957.46 135.77C957.34 135.94 957.29 136.18 957.28 136.4C957.15 139.03 955.96 141.4 955.41 143.93C955.18 144.99 954.71 146 954.5 147.06C954.27 148.24 954.23 149.46 954.07 150.66C953.69 153.49 953.11 156.3 952.94 159.14C952.75 162.22 952.7 165.34 953.62 168.35C953.72 168.68 953.95 168.98 954.14 169.31C955.85 168.7 956.19 167.13 956.8 165.9C957.9 163.69 958.74 161.35 959.63 159.03C960.14 157.7 960.57 156.33 960.99 154.96C961.7 152.66 962.49 150.38 963.02 148.04C963.5 145.92 963.33 143.66 964.32 141.63C964.43 141.4 964.4 141.07 964.34 140.81C964.02 139.38 964.36 137.98 964.51 136.57C964.88 133.16 964.64 129.79 963.7 126.49C963.56 126 963.26 125.55 963 125.02V125.04Z" fill="white"/>
<path d="M971.82 173.68C970.49 173.32 969.57 173.02 968.63 172.83C967.57 172.61 967.21 172.25 967.34 171.2C967.59 169.18 968.28 167.28 969.04 165.4C969.42 164.46 969.65 163.43 969.79 162.41C969.99 160.9 970.79 159.6 971.12 158.11C971.69 155.55 972.68 153.08 973.5 150.57C974.47 147.56 975.55 144.58 976.38 141.53C976.9 139.64 977.44 137.79 978.09 135.93C978.62 134.42 979.29 132.87 979.47 131.21C979.5 130.96 979.69 130.72 979.85 130.51C980.27 129.93 980.76 129.39 980.52 128.57C980.48 128.43 980.53 128.21 980.62 128.09C982 126.39 982.15 124.17 983.09 122.29C983.59 121.29 985.09 120.72 986.06 121.3C986.75 121.72 987.36 122.33 987.88 122.95C988.12 123.24 988.22 123.8 988.13 124.18C987.88 125.28 987.38 126.34 987.22 127.45C986.96 129.31 985.92 130.95 985.88 132.88C985.86 133.87 985.27 134.84 984.97 135.83C984.34 137.91 983.97 140.11 983.06 142.06C981.53 145.33 981.13 148.93 979.82 152.21C979.06 154.1 979.09 156.18 978.08 157.94C977.34 159.23 977.57 160.9 976.4 162C976.8 163.25 976.01 164.22 975.56 165.23C974.61 167.36 973.98 169.6 973.1 171.75C972.79 172.52 972.16 173.16 971.81 173.67L971.82 173.68Z" fill="white"/>
<path d="M852.7 141.89C852.66 139.93 853.82 138.74 855.19 137.67C855.4 137.5 855.76 137.5 855.93 137.31C857.12 136.01 858.26 136.89 859.36 137.4C860.1 137.74 860.28 138.5 859.92 139.21C859.15 140.76 856.66 142.71 854.43 142.53C853.86 142.48 853.32 142.13 852.7 141.89V141.89Z" fill="white"/>
</g>
<defs>
<clipPath id="clip0_9_206">
<rect width="1085" height="292" fill="white"/>
</clipPath>
</defs>
</svg>
