<?xml version="1.0" encoding="UTF-8"?><svg id="Layer_1" xmlns="http://www.w3.org/2000/svg" viewBox="0 0 25.75 47.51"><path d="M25.75,6.41h0c0-3.53-2.88-6.41-6.41-6.41H.86V23.75h.58c5.22,0,9.44-4.25,9.4-9.46h0s.06,9.34,14.06,9.46V12.8s-5,5.66-13.93,.02h8.38c3.53,0,6.41-2.88,6.41-6.41Zm-10.02,.26c0,2.68-2.19,4.88-4.88,4.88h0V.88h0c2.68,0,4.88,2.19,4.88,4.88v.91Z"/><path d="M0,41.1H0c0,3.53,2.88,6.41,6.41,6.41H24.9s0-23.75,0-23.75h-.58c-5.22,0-9.44,4.25-9.4,9.46h0s-.06-9.34-14.06-9.46v10.95s5-5.66,13.93-.02H6.41c-3.53,0-6.41,2.88-6.41,6.41Zm10.02-.26c0-2.68,2.19-4.88,4.88-4.88h0v10.67h0c-2.68,0-4.88-2.19-4.88-4.88v-.91Z"/></svg>