<svg width="824" height="395" viewBox="0 0 824 395" fill="none" xmlns="http://www.w3.org/2000/svg">
<g clip-path="url(#clip0_15_207)">
<path d="M260.65 86.2163C260.62 86.4963 260.67 86.7455 260.57 86.8755C257.3 90.9755 256.72 95.7163 257.27 100.716C257.46 102.396 258.35 103.765 259.56 104.915C260.11 105.435 260.74 105.886 261.24 106.446C261.66 106.916 262.08 107.456 262.29 108.036C262.61 108.926 262.31 109.766 261.57 110.366C260.84 110.956 260.02 111.056 259.14 110.636C258.17 110.176 257.68 109.346 257.37 108.406C255.48 102.606 254.92 96.7456 256.82 90.8256C257.32 89.2756 257.909 87.746 259.209 86.646C259.619 86.296 260.07 86.0163 260.65 86.2163V86.2163Z" fill="black" stroke="black" stroke-width="0.41" stroke-miterlimit="10"/>
<path d="M225.25 88.5447C225.04 88.7947 224.89 89.0453 224.68 89.2253C222.73 90.8953 221.36 92.8049 221.01 95.4949C220.6 98.6749 220.52 101.735 222 104.695C222.66 106.015 223.52 107.035 224.88 107.635C225.47 107.895 226.06 108.175 226.57 108.545C227.19 109.005 227.29 109.955 226.91 110.605C226.52 111.275 225.64 111.705 224.98 111.485C224.57 111.355 224.14 111.196 223.82 110.926C222.33 109.646 220.97 108.245 220.37 106.305C219.04 102.045 218.97 97.7654 220.36 93.5154C221.08 91.2954 222.54 89.5547 224.59 88.3747C224.71 88.3047 224.96 88.4649 225.25 88.5349V88.5447Z" fill="black" stroke="black" stroke-width="0.41" stroke-miterlimit="10"/>
<path d="M243.189 26.8855C243.219 27.8055 242.539 28.6649 241.749 28.7049C241.069 28.7349 240.389 28.0552 240.299 27.2752C240.199 26.3452 240.829 25.5554 241.719 25.5154C242.459 25.4754 243.159 26.1355 243.189 26.8855Z" fill="black" stroke="black" stroke-width="0.41" stroke-miterlimit="10"/>
<path d="M41.0396 54.4551V54.5352C40.9896 54.6952 40.9495 54.9254 40.9295 55.1954C40.8495 55.8554 40.7996 56.6751 40.7796 57.6651C40.7496 59.5351 40.8196 61.8859 40.9696 64.7159C41.2496 70.0459 41.6197 74.265 42.0997 77.375C42.2497 78.255 42.0797 79.0657 41.5897 79.8057C41.0997 80.5457 40.4497 80.9956 39.6397 81.1456C38.8297 81.2956 38.0895 81.115 37.4195 80.585C36.7595 80.065 36.3495 79.3454 36.1995 78.4454C35.6995 75.0954 35.2996 70.655 34.9996 65.125C34.8496 62.105 34.7896 59.5552 34.8096 57.4952C34.8296 56.2852 34.8996 55.2553 34.9996 54.4053C35.1296 53.2253 35.3495 52.2855 35.6795 51.6055C36.0295 50.7855 36.5897 50.2151 37.3697 49.9151C38.1497 49.6151 38.9097 49.6657 39.6597 50.0557C40.4097 50.4557 40.9195 51.0756 41.1795 51.9356C41.4395 52.7856 41.3996 53.6254 41.0496 54.4454L41.0396 54.4551Z" fill="black" stroke="black" stroke-width="0.41" stroke-miterlimit="10"/>
<path d="M26.3297 75.6549C23.8597 76.5949 21.1396 76.8746 18.4596 76.8746C18.8096 73.7946 19.2597 70.7252 19.8397 67.6852C20.2097 67.7852 20.5696 67.8854 20.9296 67.9654C23.0296 68.4554 26.2996 69.4447 28.2196 67.9947C30.6996 66.1147 28.2596 61.8652 25.7496 63.7652C25.6796 63.8252 25.6796 63.8451 25.6896 63.8551C25.6696 63.8451 25.5696 63.8148 25.2096 63.7848C24.7196 63.7448 24.2396 63.6648 23.7596 63.5748C22.7796 63.3948 21.8097 63.1449 20.8497 62.9049C21.2597 61.1949 21.7297 59.4849 22.3697 57.8649C22.7097 57.0149 23.0796 55.8351 23.7296 55.1451C24.3396 54.4951 24.2696 54.4553 24.4496 54.5553C27.1996 56.0953 29.6695 51.8648 26.9195 50.3248C21.1995 47.1248 17.8796 53.8049 15.9296 61.6549C14.6996 61.3949 13.4696 61.2152 12.2396 61.2652C9.09961 61.3852 9.08961 66.2849 12.2396 66.1549C13.1196 66.1249 14.0195 66.2251 14.9195 66.3951C13.9195 71.9351 13.4997 77.2047 13.2997 79.2447C13.1697 80.6147 14.5296 81.6249 15.7496 81.6949C19.6096 81.9049 23.9697 81.7546 27.6197 80.3746C30.5397 79.2646 29.2697 74.5349 26.3197 75.6549H26.3297Z" fill="black" stroke="black" stroke-width="0.41" stroke-miterlimit="10"/>
<path d="M227.669 52.8956C228.609 47.2656 228.2 38.2653 226.86 34.8653C226.34 34.6353 225.709 34.435 225.169 34.085C224.359 33.575 223.559 33.005 222.839 32.375C222.339 31.935 222.419 31.0056 222.959 30.6456C223.679 30.1756 224.439 29.7358 225.239 29.4258C227.649 28.4958 229.22 26.845 229.87 24.335C230.12 23.395 230.45 22.4657 230.66 21.5157C231.63 17.1357 233.869 13.4752 237.009 10.3252C237.389 9.94524 237.789 9.5352 238.259 9.2852C241.439 7.6152 244.6 5.88591 248.37 6.00591C251.19 6.09591 254.019 5.86536 256.789 6.69536C258.499 7.20536 259.989 7.99591 261.249 9.25591C266.619 14.6059 269.889 20.9255 270.199 28.6055C270.389 33.3855 270.48 38.1654 269.9 42.9454C269.6 45.4354 269.52 47.9353 270.37 50.3653C270.51 50.7653 270.749 51.1357 270.939 51.5157C273.389 52.4857 275.149 51.3355 276.579 49.8155C277.479 49.7855 277.809 50.2354 277.919 50.7754C278.199 52.1554 278.39 53.5457 278.65 55.0957C280.08 56.0357 281.55 57.1452 283.15 58.0352C288.39 60.9152 292.529 65.0355 296.309 69.5655C298.549 72.2455 300.629 75.0358 301.769 78.3858C303.729 84.1458 305.869 89.8656 306.669 95.9356C307.589 102.966 309.389 109.795 311.019 116.655C312.659 123.555 313.699 130.516 314.069 137.596C314.439 144.766 314.95 151.925 315.41 159.085C315.46 159.845 315.56 160.596 315.66 161.356C316.7 169.346 317.199 177.365 317.289 185.415C317.369 192.805 317.619 200.196 317.189 207.596C316.919 212.256 316.71 216.926 316.64 221.596C316.61 223.856 316.94 226.136 317.15 228.396C317.33 230.286 316.899 230.946 314.989 231.306C313.619 231.566 312.24 231.745 310.65 231.995C310.81 233.465 311.009 234.846 311.079 236.226C311.149 237.526 311.1 238.825 311.1 240.035C313.41 242.465 315.079 245.026 315.279 248.356C315.309 248.916 315.779 249.555 316.209 249.985C319.299 253.055 320.719 256.815 321.059 261.085C321.139 262.145 321.519 263.176 321.749 264.176C322.229 264.316 322.53 264.476 322.84 264.476C327.62 264.426 332.409 264.405 337.189 264.275C340.709 264.175 342.319 265.246 343.469 268.636C344.219 270.856 344.299 273.135 344.009 275.405C343.459 279.725 343.209 284.065 343.219 288.415C343.219 290.575 343.169 292.705 343.719 294.875C344.189 296.715 343.829 298.746 343.949 300.686C344.319 306.666 344.219 312.645 343.819 318.615C343.699 320.445 343.569 322.276 342.779 324.016C342.139 325.426 341.319 326.395 339.729 326.575C338.439 326.725 337.15 327.015 335.86 327.025C329.34 327.075 322.809 327.086 316.289 327.056C310.179 327.026 304.129 327.505 298.189 329.045C295.679 329.695 293.129 330.145 290.499 330.705C290.499 331.575 290.429 332.315 290.509 333.045C291.579 342.795 292.009 352.556 291.509 362.356C291.419 364.196 291.589 366.056 291.549 367.896C291.519 369.636 291.449 371.376 291.259 373.096C291.089 374.606 290.13 375.365 288.59 375.405C287.51 375.435 286.439 375.405 285.199 375.405C284.639 377.665 283.919 379.895 283.969 382.315C283.989 383.495 283.769 384.696 283.509 385.856C282.969 388.246 281.419 389.655 278.969 389.835C276.809 389.995 274.629 390.046 272.459 390.016C266.049 389.936 259.639 389.755 253.219 389.695C248.649 389.655 244.089 389.785 239.519 389.745C236.589 389.725 233.659 390.325 230.739 389.655C230.639 389.635 230.519 389.635 230.419 389.655C225.979 390.625 221.52 389.966 217.1 389.606C207.43 388.816 197.77 389.265 188.1 389.165C185.06 389.135 182.019 388.946 178.979 388.766C178.119 388.716 177.229 388.585 176.429 388.295C174.289 387.515 173.859 385.416 175.579 383.976C176.479 383.226 177.59 382.686 178.66 382.186C183.49 379.906 188.63 378.476 193.66 376.726C194.89 376.296 196.12 375.905 197.37 375.485C196.85 372.745 196.679 370.115 196.799 367.455C197.009 363.005 197.169 358.546 197.319 354.096C197.709 342.576 198.079 331.055 198.449 319.535C198.689 312.145 198.849 304.755 199.179 297.375C199.359 293.255 199.83 289.145 200.15 285.025C200.31 282.965 200.569 280.896 200.519 278.846C200.309 270.026 201.42 261.255 201.36 252.445C201.36 252.115 201.36 251.796 201.4 251.466C202.13 244.966 201.979 238.446 201.939 231.926C201.919 228.776 202.15 225.625 202.41 222.485C202.72 218.645 202.039 214.896 201.549 211.136C200.639 204.196 200.689 197.255 201.469 190.315C201.739 187.945 202.07 185.575 202.35 183.205C202.44 182.455 202.459 181.686 202.439 180.926C202.279 173.856 202.379 166.805 202.789 159.735C203.069 154.755 202.649 149.745 202.549 144.745C202.509 142.895 202.379 141.045 202.479 139.205C202.879 131.695 202.639 124.206 202.189 116.716C202.149 116.086 202.009 115.456 201.929 114.936C201.139 114.446 200.76 114.946 200.38 115.256C199.21 116.226 198.059 117.225 196.929 118.245C190.969 123.675 184.649 128.656 177.759 132.856C172.939 135.796 167.959 138.465 162.489 140.115C158.689 141.255 154.81 141.635 150.88 141.485C142.4 141.145 134.329 139.205 126.839 135.075C125.599 134.395 124.269 133.885 123.039 133.195C121.049 132.075 119.09 130.915 117.16 129.705C115.5 128.665 113.889 127.556 112.289 126.426C109.179 124.236 106.089 122.005 103.009 119.785C99.7494 117.435 96.5494 114.986 93.2294 112.726C89.7194 110.346 86.2695 107.896 83.0895 105.056C82.0395 104.126 80.8193 103.385 79.6693 102.565C77.9793 101.355 76.4194 100.036 75.7494 97.8555C78.1194 94.7055 79.7893 91.2051 81.6893 87.6651C80.4793 86.4351 79.1995 85.5057 77.5995 85.0557C74.7495 84.2457 72.1595 82.8955 69.6395 81.3555C66.3095 79.3255 62.9595 77.3255 59.6295 75.3155C58.7895 75.4055 58.7193 76.1851 58.4193 76.7051C57.7693 77.8351 57.1695 78.9951 56.5995 80.1651C54.1795 85.1251 50.2494 88.6651 45.7794 91.6651C43.7094 93.0551 41.4994 94.2453 39.2794 95.4053C32.8594 98.7553 26.1395 98.8756 19.3095 96.9756C16.0695 96.0756 13.5494 93.9557 11.2594 91.5957C7.49942 87.7257 4.79954 83.1452 2.62954 78.2452C2.05954 76.9652 1.69934 75.5754 1.42934 74.1954C0.94934 71.7454 0.599389 69.265 0.229389 66.795C-0.330611 63.065 0.199525 59.4055 1.11953 55.8155C1.73953 53.4055 2.5994 51.0459 3.4894 48.7159C5.0894 44.5159 8.13938 41.5251 12.2194 39.9551C24.0794 35.3851 35.6294 36.2053 46.6994 42.6153C49.7694 44.3953 52.2694 46.7554 54.2494 49.6954C54.8594 50.5954 55.4894 51.4759 56.0394 52.2559C56.3694 52.4059 56.5594 52.575 56.7594 52.585C61.3494 52.765 65.3793 54.7953 69.4193 56.6153C74.6693 58.9853 79.7795 61.6656 84.3695 65.2256C85.5695 66.1556 86.8896 66.9257 88.1596 67.7657C88.6996 68.1257 89.3194 68.4057 89.7894 68.8457C93.6294 72.4857 98.4995 74.5359 102.799 77.4659C106.479 79.9659 110.099 82.5655 113.759 85.1055C115.899 86.5955 118.039 88.0852 120.229 89.4952C123.059 91.3152 125.899 93.1555 128.829 94.8155C135.409 98.5455 142.349 101.196 149.939 102.096C157.359 102.976 164.45 101.916 171.38 99.3057C172.4 98.9257 173.409 98.5259 174.449 98.2159C176.359 97.6359 178.039 96.6553 179.559 95.4053C183.089 92.4753 186.259 89.2159 188.969 85.5059C191.729 81.7359 194.6 78.0457 197.41 74.3057C200.96 69.5757 205.319 65.635 209.829 61.875C213.019 59.215 216.709 57.3159 220.529 55.7159C222.829 54.7559 225.18 53.8858 227.65 52.9258L227.669 52.8956ZM78.8095 96.3956C80.1095 97.3856 81.2994 98.3151 82.5094 99.2051C83.5494 99.9851 84.6696 100.676 85.6596 101.506C94.5596 108.996 103.539 116.386 112.839 123.396C115.619 125.486 118.299 127.765 121.299 129.485C125.249 131.755 129.449 133.585 133.569 135.545C134.639 136.055 135.809 136.406 136.959 136.686C145.959 138.876 154.87 138.386 163.63 135.476C167.24 134.276 170.759 132.836 174.319 131.506C178.329 130.006 182.019 127.915 185.329 125.235C188.199 122.915 190.939 120.405 193.539 117.785C196.199 115.115 199.619 113.205 201.509 109.735C202.139 108.575 204.209 108.926 204.789 110.146C204.969 110.526 205.01 110.976 205.14 111.386C205.94 113.916 205.719 116.556 205.979 119.146C206.659 125.876 206.369 132.616 206.239 139.356C206.169 142.946 206.18 146.525 206.15 150.115C206.11 154.465 206.099 158.815 206.019 163.155C205.959 166.415 205.679 169.676 205.719 172.926C205.759 176.816 206.039 180.706 206.209 184.686C208.339 185.276 210.48 185.566 212.65 185.466C219.06 185.176 225.47 184.905 231.87 184.485C239.79 183.965 247.67 182.916 255.62 182.846C256.81 182.836 258.009 182.655 259.199 182.625C265.499 182.455 271.8 182.275 278.11 182.165C280.5 182.125 282.889 182.295 285.279 182.325C286.009 182.325 286.75 182.175 287.6 182.085C287.6 180.225 287.55 178.505 287.6 176.785C287.9 167.765 288.43 158.766 287.89 149.726C287.63 145.366 287.109 141.085 286.079 136.835C285.189 133.145 284.45 129.406 283.9 125.646C282.78 117.976 283.289 110.235 283.329 102.525C283.329 101.885 283.459 101.215 283.689 100.625C283.859 100.195 284.3 99.8654 284.87 99.1954C285.28 100.225 285.769 100.875 285.769 101.545C285.829 105.915 286.75 110.186 287.14 114.506C287.96 123.486 288.539 132.495 289.209 141.485C289.479 145.065 289.609 148.656 290.019 152.216C290.819 159.146 290.959 166.105 290.759 173.065C290.619 178.095 291.019 183.055 291.529 188.025C292.239 194.845 292.389 201.665 292.029 208.525C291.779 213.295 291.84 218.085 291.9 222.865C291.92 224.905 292.259 226.935 292.949 228.945C300.019 229.825 306.889 229.225 313.819 228.285C313.999 227.365 314.169 226.626 314.279 225.886C315.109 220.256 314.979 214.596 314.419 208.966C313.289 197.576 313.33 186.155 313.39 174.745C313.42 168.935 312.799 163.245 311.739 157.575C310.839 152.755 310.18 147.926 310.14 143.016C310.09 137.466 309.72 131.935 308.89 126.445C308.18 121.715 307.41 116.995 306.89 112.245C306.2 105.955 304.709 99.8456 303.189 93.7256C302.259 90.0056 300.45 86.635 299.1 83.085C297.46 78.765 295.209 74.8355 292.179 71.3555C290.829 69.7955 289.439 68.2654 288.059 66.7354C285.129 63.4954 281.419 61.3257 277.749 59.0957C274.819 63.6057 270.52 67.0158 266.13 68.3858C264.67 68.8458 263.2 69.1458 261.64 68.9258C257.43 68.3258 255.1 65.665 254.1 61.795C253.56 59.705 253.469 57.5055 253.189 55.3555C253.089 54.6355 253.01 53.9054 252.89 52.9854C251.48 52.8554 250.179 52.5153 248.919 52.6553C243.309 53.2753 237.67 53.7553 232.35 55.9053C228.52 57.4553 224.619 58.8254 220.839 60.4854C216.319 62.4654 212.439 65.4258 208.709 68.6358C201.999 74.3958 195.98 80.7957 190.61 87.8057C185.06 95.0557 178.189 100.545 169.789 104.065C167.799 104.895 165.679 105.506 163.559 105.896C156.459 107.186 149.499 106.666 142.759 103.926C141.749 103.516 140.719 103.166 139.679 102.856C135.459 101.616 131.699 99.505 128.079 97.045C122.779 93.435 117.29 90.1354 111.4 87.5254C109.32 86.6054 107.34 85.4359 105.4 84.2559C102.99 82.7859 100.629 81.2253 98.3095 79.6153C96.6195 78.4453 95.0295 77.1256 93.3695 75.8956C92.8895 75.5356 92.3594 75.255 91.7494 74.875C91.1794 75.925 90.6994 76.7758 90.2494 77.6358C87.9294 82.0658 85.6993 86.5358 82.4193 90.3858C80.9493 92.1158 79.8895 94.1558 78.8195 96.3858L78.8095 96.3956ZM202.569 371.455C204.619 371.705 206.449 371.646 208.279 371.646C214.259 371.626 220.239 371.615 226.219 371.575C227.739 371.575 229.269 371.555 230.779 371.405C232.639 371.235 232.969 370.845 232.959 368.915C232.909 359.975 233.929 351.126 234.839 342.256C235.459 336.196 236.029 330.135 236.559 324.075C236.879 320.395 237.09 316.706 237.36 313.016C237.77 307.486 238.279 301.966 238.569 296.426C238.799 291.976 238.81 287.516 238.85 283.056C238.87 280.346 238.889 277.615 238.679 274.915C238.149 268.065 238.159 261.226 238.679 254.386C238.779 253.086 238.889 251.785 239.049 250.485C239.879 243.695 240.7 236.896 241.6 230.106C241.86 228.176 242.269 226.255 242.779 224.375C243.249 222.645 244.37 221.276 245.9 220.346C248.68 218.646 251.669 219.665 252.749 222.745C253.139 223.845 253.259 225.086 253.289 226.256C253.369 229.956 253.39 233.646 253.35 237.346C253.23 250.716 253.079 264.096 252.939 277.466C252.939 278.226 252.89 278.985 252.88 279.745C252.78 285.285 252.669 290.835 252.589 296.375C252.489 303.445 252.429 310.505 252.339 317.575C252.309 319.745 252.269 321.926 252.249 324.096C252.219 327.036 252.209 329.965 252.189 332.905C252.139 338.335 251.849 343.785 252.089 349.205C252.359 355.395 252.689 361.585 252.559 367.785C252.559 368.115 252.539 368.446 252.579 368.766C252.669 369.486 252.79 370.205 252.91 371.035C254.04 371.185 254.989 371.386 255.949 371.426C257.799 371.506 259.649 371.505 261.489 371.535C264.859 371.585 268.25 371.406 271.59 371.756C275.66 372.176 279.609 371.706 283.559 370.976C284.599 370.786 285.759 370.875 286.739 369.945C286.779 369.305 286.86 368.565 286.88 367.815C286.94 364.885 286.959 361.946 287.009 359.016C287.119 352.716 287.4 346.416 286.86 340.106C286.66 337.846 286.959 335.555 287.019 333.275C287.039 332.655 287.019 332.045 287.019 331.525C286.689 331.385 286.589 331.305 286.499 331.315C284.449 331.555 282.39 331.745 280.36 332.075C277.73 332.505 275.149 332.135 272.579 331.695C271.039 331.425 270.419 330.586 270.219 329.016C270.089 327.946 269.889 326.875 269.789 325.795C269.469 322.555 269.07 319.315 268.91 316.065C268.77 313.245 268.899 310.415 268.949 307.585C268.969 306.175 269.079 304.766 269.169 303.356C269.289 301.406 269.579 299.456 269.519 297.516C269.379 293.066 269.08 288.615 268.84 284.165C268.82 283.735 268.75 283.295 268.66 282.875C267.69 278.035 268.3 273.395 270.12 268.825C270.76 267.215 271.78 266.276 273.36 265.966C275.17 265.616 277 265.366 278.84 265.226C280.68 265.086 282.519 265.136 284.239 265.106C285.429 263.666 285.959 262.176 286.289 260.556C286.879 257.616 288.279 255.025 290.219 252.775C291.259 251.575 292.62 250.655 293.86 249.585C293.71 243.945 293.55 238.305 293.39 232.525C292.67 232.335 291.959 232.135 291.239 231.955C289.379 231.475 288.659 230.676 288.469 228.846C288.409 228.306 288.439 227.756 288.429 227.216C288.409 221.986 288.949 216.806 289.509 211.606C290.039 206.776 291.179 201.936 289.779 197.056C289.629 196.546 289.72 195.966 289.63 195.436C289.23 192.766 289.109 190.046 288.069 187.556C285.169 187.056 277.34 186.755 275.34 187.065C275.26 188.645 275.859 190.005 276.679 191.325C278.789 194.745 280.859 198.185 282.929 201.625C283.099 201.895 283.239 202.206 283.309 202.516C283.469 203.216 283.3 203.895 282.63 204.165C282.19 204.345 281.43 204.366 281.14 204.096C280.35 203.376 279.659 202.515 279.069 201.625C278.299 200.445 277.699 199.155 276.979 197.945C274.969 194.575 273.009 191.195 272.819 187.125C272.819 187.035 272.699 186.946 272.489 186.636C271.599 186.566 270.539 186.456 269.479 186.396C264.919 186.136 260.359 185.906 255.799 185.646C251.779 185.416 247.769 185.515 243.749 185.865C234.979 186.635 226.22 187.595 217.4 187.625C215.56 187.625 213.72 187.905 211.87 188.045C210.05 188.185 208.229 188.326 206.269 188.476C206.109 189.696 205.93 190.755 205.85 191.825C205.48 196.595 205.289 201.375 205.459 206.165C205.579 209.535 205.799 212.936 205.439 216.266C205.069 219.636 204.919 222.976 205.019 226.346C205.189 231.996 204.959 237.655 205.689 243.285C205.879 244.785 205.819 246.326 205.809 247.846C205.779 250.566 205.78 253.285 205.62 255.995C205.29 261.745 205.06 267.506 204.41 273.226C203.68 279.716 202.889 286.176 202.989 292.726C203.049 297.076 202.839 301.415 202.329 305.745C201.899 309.415 201.8 313.115 201.39 316.785C200.75 322.555 200.809 328.266 202.019 333.976C202.559 336.516 202.999 339.126 203.019 341.716C203.069 349.976 203.259 358.245 202.559 366.495C202.429 367.995 202.539 369.525 202.539 371.445L202.569 371.455ZM55.1894 56.3457C55.0794 55.7557 55.0794 55.525 54.9894 55.335C51.9494 48.945 47.0994 44.465 40.4594 42.085C32.8994 39.365 25.1896 38.9358 17.4096 41.1758C16.0696 41.5658 14.6395 42.0157 13.5595 42.8457C8.84947 46.4857 4.99951 50.8356 3.09951 56.6456C2.34951 58.9356 1.82954 61.2551 1.87954 63.6651C1.98954 69.0851 3.45943 74.1758 6.01943 78.9258C8.03943 82.6858 10.7893 85.9357 13.9293 88.8057C16.6193 91.2657 19.7894 92.9357 23.4794 93.3457C28.5594 93.9157 33.4394 93.3154 37.9694 90.7354C39.7594 89.7154 41.5996 88.7854 43.3996 87.7754C48.8196 84.7454 53.4895 80.9856 55.8595 74.9756C56.8895 72.3556 57.8394 69.7159 57.4394 66.7559C56.6094 66.3359 55.8495 65.9352 55.0695 65.5752C53.4995 64.8452 51.8595 64.2358 50.3495 63.3858C49.2295 62.7558 48.1794 61.9352 47.2594 61.0352C46.2594 60.0652 46.4994 58.6252 47.7594 58.0752C48.9394 57.5552 50.2194 57.2754 51.4894 56.9854C52.6394 56.7154 53.8193 56.5757 55.1793 56.3457H55.1894ZM271.939 269.016C272.109 270.376 272.19 271.456 272.39 272.506C273.09 276.176 273.089 279.836 272.439 283.516C272.249 284.576 272.259 285.676 272.219 286.756C272.139 288.816 272.089 290.876 272.039 292.936C272.019 293.586 271.979 294.236 272.029 294.886C272.119 296.136 272.489 296.656 273.729 296.926C275.629 297.336 277.549 297.725 279.479 297.955C285.759 298.675 292.06 298.375 298.35 298.325C300.41 298.305 302.46 298.325 304.39 298.325C306.91 294.205 308.61 294.236 311.35 297.146C311.89 297.146 312.529 297.176 313.179 297.146C318.379 296.876 323.589 296.665 328.789 296.285C331.919 296.055 335.05 295.636 338.15 295.136C340.2 294.806 340.639 294.175 340.709 292.035C340.929 285.175 340.38 278.366 339.36 271.596C339.19 270.446 338.959 269.236 337.979 268.186C336.569 268.156 335.059 268.115 333.549 268.085C328.449 267.975 323.359 267.846 318.259 267.766C317.509 267.756 316.759 267.955 316.009 268.045C314.609 268.215 313.219 268.505 311.819 268.535C302.489 268.715 293.149 268.876 283.819 268.966C281.549 268.986 279.269 268.736 276.999 268.646C275.399 268.586 273.769 268.305 271.949 269.035L271.939 269.016ZM273.63 326.285C276.34 327.005 278.7 326.856 281.1 326.606C287.69 325.896 294.29 325.345 300.88 324.625C306.93 323.965 312.99 323.426 319.09 323.386C320.83 323.376 322.569 323.245 324.299 323.085C328.299 322.715 332.299 322.295 336.299 321.905C337.489 321.785 338.68 321.696 339.9 320.766C340.04 318.446 340.209 315.965 340.329 313.485C340.449 310.995 340.619 308.495 340.569 305.995C340.529 303.535 341.009 301.046 340.489 298.556C338.369 297.986 336.439 298.506 334.509 298.606C332.559 298.706 330.61 298.945 328.66 299.065C326.82 299.175 324.97 299.195 323.12 299.295C321.17 299.395 319.219 299.535 317.259 299.655C315.339 299.775 313.389 299.576 311.519 299.976C311.219 300.876 311.069 301.635 310.729 302.295C309.689 304.345 306.95 304.516 305.65 302.606C305.18 301.906 304.879 301.086 304.419 300.146C303.259 300.146 302.08 300.146 300.89 300.146C294.7 300.206 288.499 300.235 282.309 300.335C279.679 300.375 277.099 300.186 274.569 299.476C273.879 299.286 273.14 299.276 272.39 299.176C272.27 299.656 272.13 299.965 272.13 300.275C272.15 305.705 272.089 311.145 272.269 316.575C272.379 319.815 272.88 323.035 273.64 326.295L273.63 326.285ZM254.459 375.096C254.419 375.026 254.399 374.896 254.339 374.886C253.919 374.776 253.499 374.676 253.079 374.606C248.169 373.776 248.779 374.245 248.799 369.275C248.809 366.675 249.199 364.076 249.319 361.476C249.679 354.076 249.019 346.705 248.569 339.325C247.859 327.695 247.919 316.085 249.179 304.485C249.559 300.925 249.719 297.336 249.729 293.756C249.739 287.346 249.539 280.935 249.459 274.525C249.399 269.205 249.759 263.876 249.279 258.556C249.109 256.726 249.269 254.866 249.279 253.016C249.299 251.496 249.36 249.975 249.36 248.455C249.34 241.285 249.309 234.106 249.259 226.936C249.259 226.176 249.209 225.416 249.059 224.676C248.839 223.596 247.899 223.106 246.819 223.436C245.489 223.836 244.839 224.685 244.769 226.375C244.579 231.045 244.439 235.716 244.269 240.386C244.049 246.686 243.919 252.985 243.569 259.285C243.379 262.635 242.889 265.985 242.419 269.315C241.729 274.155 241.019 278.966 241.199 283.896C241.419 290.086 241.369 296.286 240.839 302.466C240.719 303.876 240.759 305.285 240.709 306.705C240.439 314.305 240.3 321.916 239.85 329.516C239.14 341.566 238.81 353.626 238.63 365.686C238.6 367.736 238.329 369.795 238.029 371.835C237.749 373.755 236.769 374.525 234.739 374.745C234.319 374.795 233.91 374.845 233.36 374.915C233.05 377.495 232.41 379.965 232.86 382.565C237.14 381.675 251.919 376.565 254.449 375.125L254.459 375.096ZM232.009 51.8555C234.589 51.4255 236.809 50.9859 239.059 50.7159C241.429 50.4259 243.819 50.2652 246.199 50.0752C248.439 49.8952 250.679 49.755 252.949 49.585C252.949 48.935 252.979 48.4952 252.949 48.0752C252.619 44.5052 252.309 40.935 251.929 37.375C251.619 34.455 251.17 31.5558 250.89 28.6358C250.47 24.2158 248.23 20.6652 245.62 17.2852C244.78 16.2052 243.669 15.5757 242.219 15.7657C241.139 15.9057 240.059 15.9555 238.979 16.1055C235.889 16.5255 233.85 18.3358 232.62 21.0958C232.09 22.2858 231.679 23.5254 231.299 24.7754C230.509 27.3354 229.31 29.5854 226.88 30.9854C226.63 31.1254 226.479 31.4554 226.269 31.6954C229.229 33.3954 229.309 33.4851 230.059 36.9151C230.359 38.2751 230.6 39.645 230.87 41.045C233.93 42.065 236.589 41.4754 238.979 39.6954C239.729 39.1354 240.199 38.2058 240.769 37.4258C241.239 36.7958 241.96 36.5055 242.4 36.8155C243.05 37.2755 242.969 37.9355 242.739 38.5655C242.599 38.9755 242.42 39.3956 242.16 39.7256C240.04 42.3956 237.49 44.2352 233.85 44.0352C233.06 43.9952 232.179 43.4051 231.469 44.1651C231.639 46.5951 231.809 48.9655 232.009 51.8555V51.8555ZM264.179 64.4952C263.719 63.9952 263.3 63.5057 262.84 63.0557C261.18 61.4557 260.37 59.5259 260.41 57.2159C260.43 56.1259 260.41 55.0451 260.39 53.9551C260.37 52.7651 260.389 51.565 260.299 50.375C259.889 45.395 259.389 40.4256 259.029 35.4356C258.599 29.5556 258.019 23.735 255.259 18.375C255.149 18.165 255.32 17.8154 255.4 17.2754C255.87 17.7054 256.269 17.9257 256.469 18.2657C258.969 22.4057 260.849 26.7556 261.049 31.6856C261.259 36.8956 261.439 42.1055 261.719 47.3155C261.889 50.4555 262.209 53.5954 262.449 56.7354C262.529 57.7554 262.919 58.6052 263.719 59.2852C264.379 59.8452 264.96 60.5157 265.63 61.0557C267.51 62.5757 268.339 62.5657 270.189 61.0557C270.859 60.5057 271.54 59.945 272.11 59.295C272.97 58.315 273.539 57.1958 273.309 55.8858C272.929 55.7258 272.739 55.5952 272.539 55.5752C269.419 55.2252 268.78 54.685 268.11 51.835C267.51 49.275 267.47 46.6757 267.41 44.0557C267.29 39.1757 267.11 34.2853 266.88 29.4053C266.81 27.8953 266.589 26.3656 266.229 24.8956C264.999 19.8256 262.66 15.3551 258.87 11.7051C257.99 10.8551 256.979 10.3054 255.799 9.94536C253.779 9.32536 251.7 9.53571 249.66 9.30571C246.42 8.94571 243.419 9.81509 240.449 10.9151C239.039 11.4351 237.759 12.195 237.029 13.795C237.519 13.795 237.84 13.845 238.14 13.795C239.73 13.485 241.31 13.085 242.91 12.835C244.36 12.605 245.649 12.9456 246.839 13.9356C249.219 15.9156 251.149 18.1854 252.439 21.0254C253.759 23.9354 254.49 26.9553 254.85 30.1153C255.3 34.1053 255.94 38.0753 255.89 42.1153C255.83 46.7853 255.849 51.4658 255.959 56.1358C256.019 58.6658 256.66 61.0851 258.13 63.2051C259.57 65.2951 261.429 65.6959 264.179 64.5059V64.4952ZM61.7995 58.1055C59.9595 58.5855 58.0095 58.5351 56.0795 58.6651C54.0395 58.8051 51.9494 58.7054 50.0194 59.7354C50.5094 60.9654 51.6495 61.2056 52.6395 61.4756C55.5695 62.2756 58.5195 63.045 61.5995 62.835C62.2495 62.795 62.8995 62.755 63.5495 62.795C64.8695 62.885 65.8795 63.9057 65.8595 65.0557C65.8395 66.2057 64.8394 67.2257 63.5194 67.3457C62.5794 67.4257 61.6395 67.3953 60.5795 67.4053C60.6095 69.4153 59.8794 71.1756 60.2294 72.9356C63.3394 74.3956 66.2794 75.7756 69.2194 77.1456C73.8327 79.2989 78.8628 81.0551 84.3095 82.4151C85.9695 79.8951 86.5193 76.9056 87.6693 74.1456C87.3193 73.5856 87.0794 73.0854 86.7294 72.6954C86.2294 72.1354 85.6595 71.6158 85.0795 71.1358C82.6595 69.1258 80.1694 67.1858 77.7894 65.1358C72.7994 60.8258 67.0095 57.865 61.0895 55.125C60.0595 54.645 58.9595 54.045 57.5795 54.545C57.6195 55.525 57.8894 56.2158 58.9494 56.3858C59.6894 56.5058 60.4593 56.5557 61.1793 56.7657C61.7293 56.9257 62.0695 57.355 61.8095 58.125L61.7995 58.1055ZM179.289 385.495C179.549 385.565 179.82 385.675 180.1 385.695C189.23 386.255 198.359 385.965 207.489 385.695C211.719 385.565 215.959 385.675 220.189 385.585C222.559 385.535 224.919 385.286 227.559 385.106C227.679 381.666 228.139 378.385 228.009 374.955C224.349 374.605 220.879 374.605 217.419 374.745C213.079 374.925 208.74 375.165 204.4 375.415C203.77 375.455 203.069 375.575 202.559 375.905C199.949 377.555 197.04 378.415 194.16 379.415C189.55 381.025 184.97 382.735 180.38 384.415C179.91 384.585 179.279 384.655 179.279 385.495H179.289ZM233.819 385.676C235.519 386.006 237.21 385.855 238.9 385.825C251.17 385.625 263.439 385.406 275.709 385.186C276.669 385.166 277.679 385.355 278.529 384.695C279.449 380.925 279.459 378.055 278.559 375.455C276.739 375.395 274.899 375.336 273.059 375.266C269.259 375.136 265.469 375.005 261.669 374.865C260.119 374.805 258.73 375.086 257.36 375.966C256.01 376.836 254.459 377.445 252.939 378.025C249.389 379.365 245.799 380.625 242.229 381.915C239.379 382.955 236.479 383.855 233.809 385.665L233.819 385.676ZM295.789 232.745C296.009 238.195 296.209 243.505 296.459 248.815C296.529 250.335 296.769 251.846 296.939 253.356C297.079 254.546 297.74 255.505 298.86 255.735C299.75 255.925 300.779 255.436 301.699 255.556C302.729 255.696 303.529 256.836 304.699 256.556C306.169 256.216 307.639 255.825 309.049 255.295C309.969 254.955 310.739 254.296 310.759 253.436C310.039 252.626 309.399 252.035 308.919 251.335C308.099 250.155 308.669 248.595 310.059 248.205C310.769 248.005 311.519 247.965 312.179 247.865C312.839 246.825 312.689 245.916 312.319 244.966C311.689 243.366 309.969 243.786 308.779 243.216C308.629 239.396 309.189 235.706 308.479 232.056C304.409 232.176 300.52 232.275 296.62 232.405C296.43 232.405 296.239 232.555 295.789 232.745V232.745ZM290.65 264.646C298.65 264.506 306.67 264.375 314.65 264.235C316.01 262.075 316.513 260.292 316.16 258.886C315.82 257.546 315.55 256.146 313.85 255.516C313.21 256.216 312.709 256.956 312.029 257.466C311.359 257.976 310.499 258.586 309.739 258.556C307.889 258.476 306.12 258.585 304.35 259.155C303.91 259.295 303.239 259.076 302.809 258.806C301.879 258.216 301.039 258.355 300.039 258.615C297.629 259.245 296.239 258.545 294.919 256.335C294.619 255.845 294.709 255.016 293.709 254.926C291.619 257.056 289.94 259.516 288.9 262.396C289.51 263.186 290.03 263.856 290.64 264.646H290.65Z" fill="black" stroke="black" stroke-width="0.41" stroke-miterlimit="10"/>
<path d="M469.729 58.2352C470.009 54.4652 469.139 50.9254 470.189 47.4754C470.229 47.3354 470.529 47.2648 470.919 47.0448C471.239 47.3248 471.619 47.6354 471.979 47.9754C472.289 48.2654 472.55 48.6251 472.9 48.8651C475.22 50.5051 476.839 49.9956 477.789 47.3456C478.489 45.3956 478.53 43.355 478.64 41.325C478.84 37.695 479.01 34.0554 479.36 30.4354C479.58 28.2054 479.959 25.9655 480.549 23.8055C482.329 17.3555 486.209 12.3557 491.579 8.46567C492.829 7.55567 494.289 7.16571 495.789 7.00571C499.559 6.61571 503.339 6.78492 506.919 7.95492C512.659 9.82492 516.579 13.7652 518.569 19.4852C519.129 21.0952 519.379 22.8054 519.749 24.4754C519.929 25.3054 520.049 26.1557 520.179 27.0057C520.589 29.6357 521.95 31.5454 524.39 32.6854C524.97 32.9554 525.539 33.2852 526.029 33.6952C526.409 34.0152 526.639 34.5149 526.939 34.9149C526.179 36.3949 524.999 37.0152 523.579 37.2752C522.269 37.5152 521.529 38.3253 521.189 39.5653C521.019 40.1853 520.69 40.7851 520.64 41.4051C520.23 47.1951 518.029 52.6356 517.439 58.3856C517.429 58.4856 517.489 58.5949 517.589 58.9549C518.179 59.3949 518.899 60.015 519.699 60.535C523.969 63.305 527.479 66.8957 530.749 70.7557C532.849 73.2357 534.379 76.0552 535.719 78.9852C538.539 85.1552 540.76 91.565 541.4 98.325C542.08 105.575 542.359 112.876 541.309 120.136C540.239 127.556 539.09 134.955 537.9 142.365C537.54 144.585 536.929 146.755 536.479 148.955C535.649 152.925 534.849 156.906 534.029 160.926C535.059 161.866 536.39 162.135 537.12 163.315C537.47 163.865 538.609 164.006 539.429 164.176C543.939 165.106 548.469 165.935 552.969 166.895C554.949 167.315 556.919 167.875 558.839 168.515C562.479 169.745 565.039 172.225 566.669 175.685C567.119 176.645 567.559 177.615 567.999 178.575C572.549 179.345 576.919 180.245 577.919 185.725C578.639 185.895 579.249 186.146 579.859 186.176C583.219 186.346 586.359 187.465 589.519 188.455C592.039 189.245 594.18 190.675 595.64 192.915C597.33 195.515 599.14 198.076 600.49 200.846C601.56 203.026 601.95 205.526 602.76 207.846C603.85 210.976 604.929 214.125 606.249 217.165C607.569 220.195 609.67 222.595 612.89 223.785C614.08 224.225 615.279 224.565 616.479 223.995C616.569 222.985 615.819 222.816 615.319 222.506C613.869 221.606 613.439 220.275 613.479 218.665C613.579 214.665 615.569 212.755 619.539 212.905C620.179 212.925 620.82 213.046 621.45 213.136C627.49 213.996 633.549 214.735 639.569 215.765C644.099 216.545 648.569 217.656 653.039 218.716C657.209 219.706 661.33 220.835 665.49 221.855C666.72 222.155 668 222.276 669.22 222.466C670.11 219.206 670.33 215.175 669.89 212.455C669.72 211.405 669.649 210.326 669.689 209.256C669.809 206.046 670.019 202.836 670.169 199.636C670.229 198.456 670.43 197.245 670.22 196.105C669.65 192.995 670.12 189.915 670.24 186.825C670.29 185.445 670.069 184.065 669.999 182.685C669.919 181.195 669.679 179.675 669.849 178.205C670.349 173.965 671.019 169.736 671.599 165.716C672.539 164.656 673.59 164.445 674.66 164.315C678.7 163.855 682.739 163.326 686.789 162.966C691.049 162.596 695.329 162.386 699.849 162.096C700.599 160.956 700.489 159.445 700.559 157.985C700.769 153.715 700.95 149.445 701.14 145.285C701.43 145.045 701.569 144.815 701.749 144.785C705.329 144.155 708.91 143.465 712.51 142.975C715.48 142.575 718.479 142.405 721.459 142.145C729.999 141.405 738.53 140.566 747.12 140.636C747.97 140.636 748.85 140.606 749.68 140.756C751.13 141.016 751.969 142.285 751.329 143.605C750.709 144.895 750.939 146.055 751.039 147.335C751.209 149.465 751.199 151.615 751.229 153.745C751.269 157.275 751.299 160.816 751.269 164.346C751.239 167.666 751.099 170.975 751.049 174.295C750.979 178.795 750.929 183.285 750.899 187.785C750.899 188.195 751.06 188.605 751.18 189.225C751.83 189.255 752.43 189.335 753.03 189.315C759.55 189.165 766.079 188.995 772.599 188.825C772.809 188.825 773.03 188.825 773.24 188.825C776.67 188.855 777.22 189.225 777.53 192.545C777.91 196.495 777.979 200.445 777.479 204.415C776.889 209.095 776.989 213.805 777.229 218.515C777.259 219.035 777.349 219.565 777.319 220.085C777.029 225.745 776.7 231.405 776.43 237.075C776.38 238.015 776.559 238.965 776.649 240.045C778.659 240.425 780.539 240.756 782.419 241.136C789.659 242.616 796.889 244.116 804.129 245.596C805.069 245.786 806.02 245.996 806.97 246.096C810.82 246.506 814.549 247.455 818.319 248.235C820.269 248.635 821.589 249.676 822.649 251.256C824.609 254.156 823.539 257.355 820.169 258.375C819.059 258.715 817.869 258.785 816.649 258.995C814.269 262.615 811.88 266.285 809.47 269.935C805.32 276.225 799.96 281.505 794.97 287.105C793.33 288.945 791.649 290.745 790.089 292.645C786.949 296.445 783.809 300.245 780.809 304.145C779.319 306.085 777.989 308.186 776.829 310.346C775.099 313.576 773.039 316.565 770.689 319.355C768.909 321.485 767.339 323.816 765.109 325.556C764.429 326.086 763.799 326.655 763.099 327.155C761.649 328.185 760.079 328.665 758.249 328.295C757.009 328.045 755.739 327.995 754.249 327.835C753.799 332.065 752.099 335.985 752.769 340.265C754.229 341.795 755.749 343.305 757.149 344.915C757.679 345.525 758.239 346.365 758.269 347.115C758.319 348.365 758.779 349.326 759.329 350.386C760.059 351.796 760.63 353.336 760.99 354.886C762.81 362.756 761.619 370.205 757.569 377.185C756.749 378.595 755.729 379.865 754.309 380.665C752.449 381.705 750.549 382.705 748.589 383.535C747.019 384.205 745.33 384.575 743.7 385.115C742.03 385.665 740.34 385.735 738.62 385.515C736.71 385.265 734.79 385.046 732.89 384.756C724.45 383.436 719.11 378.366 716.01 370.676C714.68 367.386 713.929 363.966 713.979 360.346C714.049 354.926 715.509 350.005 718.569 345.545C718.929 345.015 719.27 344.485 719.7 343.835C718.88 341.985 718.109 340.115 717.229 338.285C715.749 335.185 714.389 332.055 713.569 328.705C713.369 327.875 713.12 327.045 712.76 326.275C711.08 322.695 709.32 319.136 707.64 315.556C706.17 312.436 703.689 310.575 700.459 309.605C700.149 309.515 699.849 309.385 699.539 309.315C692.079 307.695 685.039 304.786 677.839 302.386C676.829 302.046 675.809 301.745 674.669 301.395C670.569 303.885 666.279 306.116 662.589 309.256C660.129 311.356 657.44 313.026 654.53 314.466C650.8 316.316 647.079 318.225 643.799 320.875C641.389 322.825 638.81 324.566 636.24 326.306C631.45 329.556 626.109 331.295 620.379 332.035C615.579 332.655 609.749 328.346 609.189 323.096C608.839 319.836 609.19 316.735 610.43 313.655C613.43 306.215 616.139 298.655 619.549 291.375C620.999 288.285 622.18 285.065 623.51 281.835C622.38 280.385 621.869 278.605 620.229 277.525C619.199 276.845 619 275.536 618.95 274.346C618.85 272.206 618.789 270.066 618.769 267.926C618.739 264.716 618.83 261.495 618.74 258.285C618.58 252.285 618.329 246.296 618.109 240.306C618.079 239.566 617.999 238.825 617.939 237.955C615.949 237.435 614.019 236.876 612.069 236.426C607.049 235.266 603.96 232.035 601.91 227.455C600.47 224.245 599.01 221.035 597.01 218.085C596.01 216.605 595.46 214.815 594.72 213.155C592.96 209.255 591.279 205.326 589.419 201.466C588.609 199.796 587.2 198.616 585.37 198.006C582.43 197.016 579.499 195.975 576.579 194.935C575.849 194.675 575.14 194.495 574.41 194.875C571.82 196.245 569.219 195.795 566.609 194.945C566.209 194.815 565.8 194.696 565.47 194.596C563.15 195.776 560.886 195.925 558.68 195.045C556.41 196.265 554.079 196.586 551.949 194.756C551.409 194.946 551.01 195.075 550.61 195.225C548.53 196.045 546.81 195.645 545.62 193.695C545.18 192.975 544.639 192.646 543.839 192.506C543.109 192.376 542.369 192.185 541.669 191.905C538.979 190.835 537.709 188.725 537.949 185.835C538.129 183.715 538.859 181.945 540.689 179.295C539.349 178.235 537.699 178.515 536.069 178.045C535.849 181.225 535.629 184.205 535.439 187.195C535.349 188.585 535.38 189.985 534.4 191.155C533.78 191.895 534.04 192.786 534.15 193.636C534.84 198.946 535.569 204.255 536.219 209.565C536.519 212.005 536.51 214.495 536.91 216.915C538.1 224.095 539.419 231.256 540.719 238.426C541.059 240.316 541.409 242.225 541.959 244.065C543.509 249.205 544.589 254.416 545.239 259.756C545.869 264.956 546.849 270.125 547.759 275.285C549.059 282.685 549.489 290.175 550.049 297.645C550.639 305.545 551.16 313.465 552.16 321.325C552.83 326.615 554.26 331.815 555.39 337.045C555.91 339.455 556.569 341.825 557.079 344.235C557.429 345.905 557.62 347.615 557.91 349.295C558.6 353.305 559.3 357.315 560.01 361.315C560.25 362.685 560.549 364.045 560.819 365.405C561.179 367.195 561.669 368.915 562.579 370.535C563.219 371.665 562.539 372.985 561.289 373.315C560.479 373.525 559.63 373.555 558.53 373.705C558.95 374.055 559.139 374.335 559.379 374.395C561.039 374.825 562.7 375.236 564.37 375.596C566.04 375.956 567.72 376.425 569.41 376.525C572.98 376.745 575.96 378.405 578.93 380.115C579.55 380.465 580.059 381.115 580.459 381.725C581.109 382.695 581.67 383.745 582.2 384.785C583.14 386.625 582.729 387.605 580.649 387.855C576.719 388.335 572.769 388.645 568.789 388.415C567.189 388.325 565.589 388.445 563.979 388.475C561.729 388.525 559.489 388.656 557.239 388.636C554.459 388.606 551.68 388.445 548.9 388.365C548.26 388.345 547.619 388.385 546.989 388.475C543.269 388.975 539.549 389.365 535.789 389.105C534.079 388.995 532.36 389.035 530.65 388.955C529.58 388.905 528.499 388.835 527.459 388.615C525.389 388.165 524.919 387.355 525.259 385.225C525.339 384.705 525.44 384.165 525.41 383.645C525.27 381.085 525.099 378.526 524.919 375.966C524.899 375.666 524.76 375.365 524.62 374.875C522.84 374.675 521.059 374.815 519.259 375.025C517.879 375.185 516.49 375.245 515.1 375.265C514.01 375.275 513.289 374.696 513.059 373.596C512.529 371.086 511.889 368.586 511.509 366.056C510.549 359.696 509.789 353.316 509.489 346.886C509.419 345.296 509.159 343.675 508.719 342.145C507.009 336.245 506.429 330.165 505.719 324.105C505.319 320.705 504.9 317.326 504.13 313.966C503.36 310.636 503.109 307.196 502.579 303.806C502.179 301.266 501.829 298.715 501.219 296.225C499.079 287.475 497.869 278.556 496.229 269.716C495.549 266.036 495.289 262.285 494.729 258.575C494.389 256.375 493.939 254.176 493.199 252.136C492.499 251.996 492.319 252.355 492.209 252.795C491.979 253.725 491.759 254.665 491.519 255.605C491.209 256.855 490.939 258.105 490.559 259.335C489.219 263.735 487.819 268.115 486.489 272.525C484.939 277.665 482.839 282.575 480.439 287.375C478.089 292.075 475.66 296.715 472.63 301.025C470.46 304.105 467.989 306.876 465.239 309.466C460.759 313.666 455.69 316.995 450.64 320.445C443.78 325.115 436.199 327.855 428.439 330.315C425.479 331.255 422.519 332.155 419.549 333.045C415.839 334.155 412.079 334.955 408.169 334.785C407.529 334.755 406.859 334.726 406.249 334.886C400.939 336.316 395.389 335.945 390.029 337.025C388.709 337.295 387.26 337.076 385.9 336.886C384.19 336.656 382.499 336.455 380.799 336.935C378.519 337.585 376.629 336.426 374.699 335.556C374.319 335.386 373.989 334.705 373.959 334.235C373.909 333.395 374.029 332.525 374.209 331.695C374.509 330.285 374.219 328.975 373.699 327.285C372.019 329.895 370.589 332.245 369.489 334.785C367.659 339.025 365.459 343.065 363.009 346.975C362.329 348.055 361.579 349.135 360.689 350.045C359.019 351.745 357.059 351.406 355.959 349.346C355.229 347.986 354.95 346.505 355.11 344.985C355.35 342.755 355.559 340.506 356.009 338.306C356.619 335.356 356.91 332.395 357.16 329.395C357.4 326.525 358.009 323.685 358.469 320.825C358.619 319.875 358.949 318.925 358.949 317.975C358.949 314.655 360.239 311.706 361.509 308.756C362.879 305.566 365.97 303.635 369.4 303.835C370.89 303.925 372.369 304.156 374.069 304.346C373.819 302.966 373.56 301.675 373.37 300.365C373.11 298.535 373.959 297.446 375.819 297.426C379.459 297.396 383.119 297.265 386.739 297.535C395.429 298.185 403.779 296.705 412.039 294.125C417.159 292.515 421.53 289.735 425.65 286.445C429.92 283.035 433.089 278.775 435.299 273.795C437.429 268.995 439.439 264.175 440.709 259.045C441.799 254.655 442.399 250.206 442.679 245.716C442.999 240.576 443.599 235.476 444.279 230.386C444.449 229.116 444.609 227.826 444.559 226.556C444.349 220.236 444.079 213.925 443.819 207.605C443.609 202.575 443.389 197.555 443.179 192.565C442.999 192.375 442.889 192.156 442.719 192.096C439.899 191.086 439.609 190.076 440.199 187.096C440.599 185.056 440.569 183.065 440.489 181.025C440.419 179.095 440.519 177.165 440.489 175.245C440.459 173.215 440.359 171.195 440.289 169.155C439.429 168.495 438.679 167.905 437.919 167.335C435.089 165.185 432.579 162.705 430.289 159.995C429.739 159.345 429.29 158.605 428.89 157.855C427.03 154.345 425.6 150.655 424.65 146.795C424.27 145.235 423.759 143.706 423.299 142.176C422.219 138.576 421.43 134.925 421.13 131.165C420.99 129.455 420.879 127.745 420.689 126.045C420.129 121.065 420.919 116.216 422.189 111.426C423.009 108.326 423.959 105.255 424.919 102.185C426.489 97.1354 428.939 92.5053 431.829 88.1053C432.419 87.2153 433.059 86.3451 433.569 85.4051C436.129 80.5851 439.709 76.6756 444.039 73.3856C445.999 71.8956 447.889 70.3152 449.749 68.6952C451.699 66.9952 453.779 65.5352 456.169 64.4852C459.699 62.9352 463.179 61.2849 466.679 59.6649C467.649 59.2149 468.609 58.7554 469.729 58.2254V58.2352ZM377.929 333.235C378.599 333.205 379.039 333.255 379.439 333.145C381.759 332.505 384.089 332.635 386.449 332.895C388.029 333.065 389.649 332.975 391.239 332.835C393.799 332.615 396.34 332.285 398.89 331.945C400.9 331.675 402.899 331.305 404.919 331.035C405.979 330.895 407.05 330.755 408.11 330.795C410.71 330.885 413.249 330.565 415.739 329.895C419.449 328.885 423.139 327.766 426.819 326.636C430.289 325.566 433.749 324.435 437.199 323.285C440.679 322.125 443.89 320.425 446.87 318.295C447.48 317.855 448.089 317.415 448.739 317.045C453.619 314.305 458.03 310.955 462.14 307.155C466.02 303.575 469.43 299.625 472.61 295.435C473.19 294.675 473.7 293.835 474.12 292.975C477.54 285.935 480.489 278.716 482.279 271.056C482.859 268.566 483.77 266.155 484.6 263.725C485.36 261.495 486.309 259.325 486.969 257.075C488.089 253.275 489.069 249.445 490.059 245.615C490.839 242.615 491.639 239.605 492.269 236.575C494.039 227.985 495.729 219.375 497.459 210.775C497.539 210.355 497.669 209.946 497.839 209.556C498.339 208.416 499.27 207.875 500.38 208.025C501.42 208.175 502.32 209.035 502.4 210.205C502.47 211.155 502.399 212.145 502.209 213.075C500.609 220.825 498.999 228.585 497.299 236.315C496.729 238.925 495.93 241.485 495.15 244.045C494.82 245.125 494.76 246.116 495.15 247.176C496.01 249.486 496.75 251.835 497.65 254.125C499.12 257.835 500.079 261.645 500.479 265.625C500.729 268.075 501.069 270.516 501.529 272.926C502.549 278.296 503.289 283.705 503.749 289.145C504.569 298.745 505.529 308.335 507.919 317.705C507.999 318.015 508.09 318.325 508.13 318.645C509.13 326.205 511.199 333.515 512.999 340.905C513.449 342.775 513.889 344.685 513.979 346.585C514.289 353.555 515.319 360.436 516.169 367.346C516.359 368.916 516.65 370.475 516.89 372.065C517.59 372.065 518.12 372.115 518.64 372.065C526.42 371.175 534.199 370.525 542.039 371.045C543.099 371.115 544.179 371.045 545.249 370.955C546.859 370.815 548.409 370.835 550.009 371.285C552.759 372.055 555.21 371.075 557.68 369.685C556.77 363.655 555.879 357.735 554.999 351.815C554.749 350.125 554.689 348.385 554.309 346.725C553.309 342.345 552.399 337.915 551.039 333.645C547.429 322.305 546.329 310.606 545.539 298.846C545.029 291.156 544.569 283.456 543.219 275.846C542.309 270.686 541.299 265.525 540.679 260.315C540.079 255.295 539.04 250.395 537.62 245.565C537.14 243.925 536.789 242.245 536.479 240.565C535.089 233.095 533.73 225.615 532.37 218.145C532.24 217.405 532.139 216.665 532.079 215.915C531.809 212.395 531.559 208.866 531.299 205.346C531.009 201.396 530.73 197.445 530.41 193.495C530.27 191.775 529.149 190.515 527.539 190.765C525.199 191.135 522.889 191.225 520.549 191.125C520.059 191.105 519.559 191.545 519.039 191.625C518.209 191.755 517.319 191.955 516.529 191.785C514.299 191.315 512.059 191.405 509.809 191.445C506.709 191.505 503.609 191.455 500.509 191.485C499.659 191.485 498.769 191.485 497.959 191.695C496.039 192.205 494.139 192.035 492.219 191.855C491.059 191.745 489.879 191.785 488.709 191.785C486.679 191.775 484.62 191.995 482.63 191.735C477.8 191.105 473.039 192.145 468.299 191.945C466.919 193.565 466.25 195.386 465.4 197.096C464.54 198.816 463.599 200.495 462.749 202.225C461.679 204.395 459.78 205.445 457.61 206.145C457.36 206.225 456.929 206.125 456.749 205.945C456.589 205.785 456.559 205.345 456.669 205.105C456.839 204.725 457.15 204.415 457.41 204.075C458.2 203.065 459.149 202.145 459.749 201.035C461.259 198.255 462.62 195.385 464.15 192.325C459.21 192.795 454.509 192.686 449.819 192.466C449.499 192.446 449.18 192.455 448.86 192.485C447.42 192.645 446.72 193.286 446.66 194.756C446.59 196.576 446.619 198.396 446.709 200.216C446.989 205.986 447.869 211.705 447.819 217.515C447.769 224.155 448.059 230.785 447.189 237.395C446.429 243.235 445.959 249.116 445.039 254.926C443.909 262.056 441.399 268.775 438.339 275.295C436.319 279.615 433.789 283.565 430.249 286.765C425.379 291.175 420.229 295.165 413.719 296.915C413.409 296.995 413.119 297.145 412.809 297.245C404.289 300.075 395.579 301.485 386.579 300.775C383.299 300.515 379.999 300.725 376.709 300.875C376.499 301.585 376.199 302.096 376.219 302.596C376.299 304.516 376.42 306.445 376.65 308.355C377.36 314.525 377.919 320.705 377.829 326.935C377.819 327.895 377.929 328.865 377.959 329.825C377.979 330.875 377.959 331.925 377.959 333.285L377.929 333.235ZM533.64 166.506C533.12 166.386 532.729 166.245 532.319 166.205C526.679 165.575 521.05 164.766 515.35 165.096C512.77 165.246 510.209 165.095 507.699 164.415C505.429 163.805 503.12 163.296 500.88 162.596C498.12 161.736 495.439 160.655 492.669 159.815C488.879 158.675 485.039 157.715 481.239 156.605C477.729 155.585 474.199 154.496 471.589 151.756C468.839 148.876 465.739 146.415 462.779 143.785C461.919 143.015 461.229 142.035 460.549 141.075C459.749 139.945 458.999 138.766 458.329 137.556C457.759 136.536 457.16 135.475 456.89 134.355C456.36 132.175 455.839 129.965 455.679 127.745C455.339 122.915 455.97 118.155 457.12 113.435C457.89 110.275 459.119 107.345 460.519 104.455C461.889 101.625 463.78 99.1851 466.15 97.1151C467.44 95.9851 468.679 94.8052 469.979 93.6952C470.869 92.9352 471.829 92.255 472.789 91.575C472.979 91.445 473.289 91.5049 474.019 91.4149C473.299 92.0949 472.909 92.4455 472.539 92.8055C470.359 94.8855 468.339 97.1052 466.919 99.7752C465.559 102.325 464.429 104.995 463.079 107.545C461.609 110.325 460.779 113.315 460.059 116.325C459.269 119.665 458.999 123.085 459.209 126.525C459.459 130.535 460.659 134.286 462.319 137.926C463.189 139.836 464.359 141.406 466.059 142.636C468.319 144.256 470.609 145.845 472.749 147.625C475.439 149.855 478.439 151.375 481.769 152.365C485.259 153.405 488.74 154.485 492.16 155.695C496.8 157.335 501.409 159.056 506.199 160.256C509.229 161.016 512.27 161.455 515.41 161.295C519.48 161.085 523.549 161.065 527.589 161.735C528.179 161.835 528.809 161.665 529.419 161.625C529.629 160.975 529.819 160.475 529.939 159.955C531.299 154.335 532.799 148.746 533.979 143.096C535.419 136.176 536.58 129.205 537.88 122.265C538.55 118.675 539.069 115.085 539.019 111.415C538.879 100.655 536.439 90.4151 532.059 80.6151C530.789 77.7751 529.219 75.1052 527.209 72.6952C523.259 67.9552 518.49 64.1648 513.35 60.8348C512.11 60.0348 510.679 59.4652 509.269 58.9852C504.589 57.3852 499.69 56.7552 494.88 55.6952C494.59 55.6352 494.259 55.7448 493.799 55.7948C493.689 56.2948 493.599 56.8048 493.449 57.2948C492.959 58.9348 492.62 60.6454 491.91 62.1854C489.68 66.9654 485.009 68.7057 480.099 66.7557C477.979 65.9157 476.139 64.6549 474.439 63.1649C473.579 62.4149 472.909 61.3755 471.929 61.0555C469.039 62.4455 466.35 63.7548 463.65 65.0448C458.91 67.3048 454.109 69.4348 450.029 72.8348C449.289 73.4448 448.46 73.9549 447.64 74.4549C442.87 77.3749 439.269 81.4355 436.249 86.0555C431.379 93.4955 428.259 101.675 426.489 110.355C425.379 115.805 424.369 121.296 424.799 126.926C424.879 127.986 424.819 129.076 424.719 130.136C424.359 133.836 425 137.436 426.16 140.886C427.62 145.246 429.41 149.496 431.14 153.756C431.95 155.746 433.149 157.536 434.759 159.006C436.659 160.736 438.519 162.505 440.429 164.225C442.019 165.655 443.739 166.955 445.259 168.455C449.079 172.235 453.539 174.855 458.789 176.025C463.069 176.985 467.369 177.856 471.669 178.716C476.609 179.716 481.54 180.795 486.16 182.815C491.97 185.355 498.099 186.055 504.319 186.375C510.089 186.665 515.86 186.895 521.64 187.155C522.06 187.175 522.48 187.296 522.91 187.346C525.03 187.616 527.149 187.905 529.279 188.125C529.879 188.185 530.5 188.025 531.11 187.975C532.1 183.965 533.159 180.165 533.229 176.155C533.289 173.055 533.47 169.955 533.62 166.535L533.64 166.506ZM620.169 224.155C620.309 225.425 620.46 226.265 620.49 227.115C620.55 228.935 620.749 230.776 620.539 232.556C620.049 236.736 620.099 240.895 620.479 245.065C620.909 249.855 621.42 254.645 621.89 259.435C621.95 260.075 622.049 260.715 622.089 261.355C622.259 263.595 622.4 265.815 622.28 268.085C622.16 270.425 622.479 272.786 622.609 275.136C622.689 276.516 623.369 277.575 624.459 278.365C625.149 278.865 625.849 279.386 626.609 279.756C629.019 280.916 631.4 282.166 633.89 283.096C638.4 284.786 642.98 286.266 647.53 287.846C648.74 288.266 649.959 288.686 651.129 289.216C653.269 290.186 655.32 291.375 657.51 292.205C661.41 293.675 665.369 294.985 669.329 296.265C672.079 297.145 674.919 297.746 677.649 298.676C682.919 300.446 688.27 302.005 693.16 304.785C694.72 305.665 696.51 306.255 698.26 306.655C703.32 307.805 707.889 310.165 712.599 312.185C715.469 313.415 718.35 314.505 721.45 314.975C725.79 315.625 730.099 316.466 734.319 317.716C738.529 318.956 742.79 320.015 746.97 321.355C751.02 322.655 755.149 323.736 758.959 325.806C761.319 324.686 762.629 322.565 764.149 320.645C767.469 316.445 770.619 312.095 774.169 308.105C779.239 302.425 783.76 296.305 788.49 290.355C791.89 286.085 795.049 281.625 798.459 277.365C802.679 272.085 806.579 266.585 810.099 260.825C810.399 260.325 810.6 259.765 810.89 259.125C804.96 257.275 799.279 255.365 793.349 254.415C784.259 252.955 775.159 251.575 766.059 250.155C765.739 250.105 765.419 250.075 765.099 250.075C760.689 249.955 756.379 249.085 752.089 248.195C747.269 247.185 742.48 246.045 737.64 245.125C733.12 244.265 728.549 243.685 724.019 242.865C717.909 241.755 711.839 240.485 705.729 239.375C702.779 238.845 699.759 238.726 696.829 238.096C688.249 236.256 679.549 235.005 671.039 232.795C670.519 232.665 669.979 232.625 669.459 232.535C662.059 231.365 654.59 230.615 647.28 228.905C646.97 228.835 646.639 228.805 646.329 228.775C639.949 228.015 633.66 226.726 627.39 225.346C625.12 224.846 622.849 224.335 620.149 224.185L620.169 224.155ZM616.289 220.056C617.139 220.176 617.659 220.235 618.169 220.325C621.749 220.935 625.339 221.535 628.919 222.185C631.129 222.585 633.319 223.065 635.519 223.525C637.399 223.915 639.31 224.235 641.16 224.765C647.55 226.595 654.06 227.865 660.64 228.765C666.15 229.515 671.639 230.356 677.069 231.676C682.889 233.086 688.819 234.016 694.709 235.136C701.649 236.446 708.599 237.705 715.539 239.025C719.639 239.805 723.699 240.785 727.819 241.455C735.949 242.785 744.109 243.945 752.249 245.195C760.179 246.415 768.089 247.815 776.039 248.875C783.159 249.825 790.2 251.126 797.22 252.556C802.04 253.536 806.85 254.535 811.68 255.415C813.35 255.715 815.079 255.735 816.789 255.795C817.419 255.815 818.089 255.715 818.669 255.495C819.359 255.235 820.069 254.845 820.099 253.955C820.119 253.275 819.31 252.215 818.62 252.015C818.21 251.895 817.769 251.905 817.349 251.855C812.049 251.175 806.73 250.596 801.49 249.466C795.32 248.136 789.17 246.625 782.93 245.705C777.41 244.885 771.979 243.725 766.549 242.535C764.979 242.195 763.409 241.856 761.819 241.636C756.089 240.836 750.439 239.655 744.859 238.125C743.319 237.705 741.74 237.385 740.16 237.075C734.36 235.945 728.479 235.646 722.609 235.176C715.669 234.616 708.759 233.845 701.919 232.515C698.349 231.815 694.779 231.106 691.229 230.346C688.619 229.796 686.019 229.145 683.419 228.565C681.649 228.165 679.879 227.745 678.089 227.435C671.029 226.215 663.92 225.415 656.91 223.775C649.32 222.005 641.57 220.885 633.87 219.615C629.95 218.975 626.089 218.205 622.319 216.945C621.109 216.535 619.859 216.186 618.609 215.926C617.319 215.666 616.499 216.255 616.319 217.525C616.219 218.245 616.299 218.995 616.299 220.065L616.289 220.056ZM717.289 360.545C717.419 361.605 717.499 363.215 717.829 364.775C718.199 366.545 718.889 368.255 719.249 370.025C719.459 371.015 719.819 371.825 720.439 372.585C723.959 376.895 728.379 379.645 733.939 380.485C735.629 380.735 737.31 381.075 738.97 381.495C740.26 381.825 741.52 381.876 742.76 381.466C744.89 380.776 747.03 380.066 749.12 379.256C752.05 378.126 754.299 376.275 755.129 373.065C755.239 372.655 755.479 372.286 755.629 371.886C758.069 365.536 758.05 359.125 755.99 352.705C755.51 351.215 754.699 349.775 753.799 348.475C752.959 347.255 751.849 346.206 750.769 345.176C749.609 344.076 748.509 342.685 747.099 342.145C744.269 341.045 741.509 339.385 738.229 339.915C737.829 339.975 737.38 339.855 736.97 339.745C730.57 338.015 725.9 340.955 722.18 345.615C718.88 349.745 717.6 354.735 717.28 360.525L717.289 360.545ZM514.66 57.2752C515.56 53.4352 515.83 49.8552 516.61 46.1952C516.02 46.1352 515.609 46.035 515.209 46.075C511.739 46.405 509.299 44.6056 507.189 42.1756C506.409 41.2756 505.85 40.2152 505.88 38.9852C505.88 38.6552 506.269 38.1755 506.589 38.0555C506.889 37.9455 507.419 38.1153 507.689 38.3553C507.989 38.6153 508.099 39.0752 508.299 39.4452C510.069 42.8052 513.589 44.2549 517.559 43.2049C518.099 41.5349 518.609 39.8056 519.209 38.0956C519.729 36.6056 520.629 35.4656 522.309 35.1756C522.579 35.1256 522.819 34.9352 523.329 34.6952C520.119 32.5252 518.949 29.4049 518.459 25.9149C518.339 25.0749 518.069 24.2449 517.769 23.4549C516.749 20.8249 515.059 18.8657 512.179 18.2157C511.239 18.0057 510.27 17.8855 509.38 17.5555C507.72 16.9455 506.399 17.5351 505.309 18.6551C502.289 21.7451 499.769 25.125 498.819 29.495C497.769 34.295 496.539 39.0553 495.479 43.8553C494.789 46.9653 494.6 50.1448 494.35 53.3748C501.13 54.4248 507.919 54.6452 514.679 57.2752H514.66ZM673.91 197.676C673.34 202.316 673.649 206.586 673.729 210.846C673.739 211.506 674.239 212.166 674.519 212.846C677.369 212.686 680.039 212.545 682.709 212.395C686.449 212.195 690.179 211.946 693.919 211.806C700.119 211.566 706.32 211.405 712.51 211.205C713.15 211.185 713.8 211.145 714.43 211.035C715.03 210.925 715.61 210.715 716.18 210.545C717.18 206.045 716.1 201.675 716.53 197.375C715.11 196.465 713.699 196.845 712.329 196.855C706.229 196.905 700.139 196.945 694.039 197.015C688.689 197.075 683.349 197.135 677.999 197.245C676.739 197.275 675.479 197.506 673.899 197.676H673.91ZM619.7 320.355C621.04 320.805 622.189 320.635 623.299 320.235C624.609 319.765 625.949 319.335 627.169 318.685C633.119 315.505 639.01 312.226 644.26 307.926C646.16 306.366 648.019 304.726 650.059 303.346C653.039 301.326 654.989 298.355 657.569 295.975C655.419 293.815 654.129 293.196 651.939 292.926C650.139 292.706 648.319 292.485 646.589 291.995C643.509 291.115 640.48 290.025 637.43 289.035C635.92 288.545 634.519 287.675 632.669 287.685C631.649 289.875 630.629 292.115 629.559 294.315C627.789 297.965 626.439 301.815 624.149 305.225C623.219 306.615 622.749 308.335 622.189 309.955C621.419 312.175 620.779 314.445 620.069 316.685C619.719 317.805 619.24 318.905 619.7 320.355V320.355ZM514.779 16.6454C514.609 16.2754 514.52 15.9752 514.35 15.7352C512.27 12.8552 509.09 11.6653 505.91 10.8553C503.35 10.2053 500.599 10.2549 497.919 10.1649C496.079 10.1049 494.309 10.5354 492.799 11.7254C488.539 15.0654 485.539 19.2949 483.969 24.4549C483.259 26.7949 482.839 29.2456 482.469 31.6756C481.779 36.2256 481.289 40.8053 480.599 45.3553C480.329 47.1453 479.829 48.9156 479.259 50.6356C478.669 52.4056 477.48 53.5348 475.4 53.2948C474.9 53.2348 474.379 53.3556 473.929 53.3856C473.829 53.7556 473.709 53.9649 473.719 54.1649C473.869 56.9349 475.859 58.4748 477.759 60.0448C478.029 60.2648 478.639 60.3254 478.979 60.1854C481.469 59.1654 483.99 58.125 484.62 55.075C485.23 52.145 485.849 49.2057 486.309 46.2557C487.079 41.3957 487.749 36.5156 488.429 31.6356C489.129 26.7156 491.319 22.4851 494.309 18.6151C494.679 18.1451 495.1 17.5152 495.88 18.1952C495.7 18.5652 495.549 18.975 495.319 19.325C492.839 23.175 491.529 27.4449 490.759 31.9149C490.159 35.3949 489.55 38.8756 488.87 42.3456C488.08 46.3356 486.989 50.2653 486.819 54.3553C486.789 55.2053 486.54 56.0456 486.41 56.8856C486.13 58.6556 485.289 60.0957 483.929 61.2557C483.299 61.7957 482.699 62.3648 481.929 63.0448C483.299 63.8248 484.459 64.095 485.779 63.745C486.989 63.425 487.859 62.7057 488.569 61.7157C489.969 59.7557 490.749 57.5756 491.009 55.1756C491.579 49.9756 492.199 44.7753 492.799 39.5653C492.819 39.3553 492.84 39.1356 492.89 38.9256C493.84 34.8656 494.629 30.745 495.789 26.745C496.939 22.775 499.109 19.3554 502.329 16.6454C504.609 14.7254 507.039 13.7548 509.989 14.8748C511.479 15.4348 512.979 15.9651 514.759 16.6151L514.779 16.6454ZM673.879 195.785C674.649 195.785 675.079 195.865 675.479 195.775C680.209 194.705 684.999 194.415 689.819 194.565C697.529 194.815 705.2 193.995 712.89 193.795C714.13 193.765 715.419 193.735 716.979 193.165C716.289 189.195 717.57 185.346 717.26 181.466C710.73 179.826 681.54 180.166 674.2 181.966C674.28 186.456 672.959 190.965 673.879 195.785ZM674.319 179.565C678.099 179.225 681.699 178.806 685.309 178.596C688.829 178.396 692.369 178.405 695.899 178.315C699.539 178.215 703.169 178.095 706.809 177.975C710.429 177.855 714.049 177.935 717.859 177.575C717.949 176.615 718.169 175.775 718.079 174.975C717.929 173.595 717.539 172.245 717.359 170.875C717.169 169.405 717.109 167.925 716.979 166.315C713.059 165.595 709.28 165.086 705.39 165.386C703.27 165.556 701.12 165.465 698.99 165.455C695.89 165.435 692.79 165.245 689.7 165.375C685 165.575 680.31 165.975 675.62 166.325C675.01 166.365 674.41 166.565 673.78 166.705C672.63 171.125 673.609 175.275 674.319 179.565ZM716.03 214.825C715.52 214.665 715.23 214.505 714.93 214.485C706.93 213.905 698.92 214.025 690.91 214.125C685.58 214.195 680.259 214.735 674.939 215.065C674.839 215.065 674.749 215.155 674.669 215.225C674.589 215.285 674.529 215.375 674.329 215.585C674.209 218.045 673.549 220.635 673.999 223.405C675.599 223.655 677.059 223.975 678.539 224.105C685.569 224.705 692.51 225.975 699.45 227.195C702.39 227.715 705.309 227.995 708.319 227.335C710.679 226.815 713.149 226.765 715.899 226.475C716.039 222.595 716.45 218.725 716.03 214.835V214.825ZM624.729 287.955C624.489 288.325 624.269 288.575 624.149 288.855C621.359 295.105 618.559 301.345 615.819 307.605C614.619 310.345 613.589 313.155 612.439 315.915C611.589 317.955 611.619 320.075 611.689 322.225C611.739 323.865 612.509 325.065 613.729 326.045C615.999 327.865 618.499 328.745 621.479 328.195C625.609 327.425 629.569 326.175 633.299 324.235C635.579 323.055 637.839 321.845 640.099 320.625C646.989 316.925 653.619 312.855 659.519 307.665C661.359 306.045 663.339 304.566 665.229 303.006C665.599 302.696 666.24 302.516 665.95 301.756C664.38 301.186 662.789 300.605 661.099 299.995C660.789 300.135 660.37 300.265 660.03 300.495C657.14 302.525 654.22 304.495 651.03 306.045C650.65 306.225 650.3 306.495 649.97 306.765C644.97 310.795 639.699 314.455 634.289 317.915C631.679 319.585 628.989 321.125 626.299 322.665C624.489 323.695 622.51 324.115 620.43 323.915C618.36 323.715 616.84 322.115 616.97 320.045C617.05 318.685 617.429 317.315 617.819 315.995C618.489 313.745 619.25 311.526 620.03 309.306C620.6 307.696 621.019 305.976 621.919 304.556C623.699 301.736 624.899 298.645 626.329 295.665C627.259 293.735 628.139 291.796 629.019 289.846C629.219 289.406 629.379 288.936 629.579 288.426C627.909 288.256 626.449 288.115 624.729 287.945V287.955ZM720.569 171.865C720.909 172.015 721.099 172.165 721.289 172.165C724.059 172.125 726.829 171.995 729.559 172.665C730.059 172.785 730.62 172.665 731.16 172.645C734.47 172.465 737.769 172.275 741.079 172.105C743.209 171.995 745.269 171.565 747.249 171.165C747.799 168.685 747.589 159.675 746.959 157.285C744.529 156.945 742.099 157.355 739.669 157.545C734.559 157.935 729.449 158.475 724.329 158.745C718.569 159.045 712.79 159.095 707.03 159.275C705.98 159.305 704.93 159.425 704.03 159.485C703.45 160.515 703.329 161.305 703.799 162.035C704.109 162.135 704.309 162.256 704.499 162.256C708.129 162.186 711.76 162.085 715.39 162.025C719.35 161.955 719.519 162.175 719.669 166.035C719.749 168.025 719.609 170.095 720.559 171.865H720.569ZM747.89 145.185C747.07 145.145 746.439 145.065 745.819 145.085C740.999 145.195 736.189 145.205 731.379 145.665C722.749 146.505 714.09 147.026 705.41 147.056C705.1 147.056 704.789 147.165 704.439 147.225C703.729 148.855 703.839 150.595 703.809 152.285C703.779 153.935 703.319 155.635 704.059 157.245C704.529 157.245 704.849 157.265 705.169 157.245C709.119 156.935 713.06 156.355 717.01 156.355C726.78 156.355 736.46 155.115 746.18 154.495C746.58 154.465 746.969 154.265 747.289 154.165C748.179 150.755 748.329 148.655 747.899 145.195L747.89 145.185ZM747.26 205.315C747.75 203.375 748.12 196.575 747.89 192.855C747.84 192.035 747.62 191.225 747.47 190.375C746.64 190.285 746.009 190.145 745.379 190.155C743.879 190.175 742.39 190.255 740.89 190.325C737.05 190.515 733.209 190.755 729.359 190.895C727.009 190.985 724.649 190.895 722.299 190.945C721.579 190.955 720.859 191.166 719.999 191.306C719.929 196.696 719.179 201.975 720.689 207.335C723.649 206.125 726.659 206.035 729.649 205.895C734.459 205.675 739.269 205.505 744.069 205.325C745.129 205.285 746.199 205.325 747.249 205.325L747.26 205.315ZM578.309 384.615C577.929 383.925 577.81 383.446 577.51 383.216C575.15 381.376 572.779 379.485 569.609 379.335C566.809 379.195 564.13 378.485 561.45 377.745C560.53 377.495 559.579 377.325 558.629 377.155C556.719 376.815 554.779 376.375 553.259 375.185C551.829 374.065 550.359 373.895 548.749 374.205C545.669 374.785 542.579 374.656 539.479 374.596C536.269 374.536 533.07 374.595 529.86 374.645C529.46 374.645 529.06 374.825 528.36 374.985C529 378.385 528.549 381.805 529.299 385.015C529.659 385.205 529.849 385.386 530.029 385.386C535.259 385.366 540.499 385.816 545.709 384.966C546.759 384.796 547.84 384.715 548.9 384.735C552.11 384.805 555.31 384.936 558.51 385.056C560 385.116 561.5 385.235 562.99 385.245C565.34 385.255 567.689 385.196 570.039 385.176C572.689 385.156 575.349 385.375 578.329 384.615H578.309ZM747.809 208.955C745.279 208.955 742.929 208.785 740.599 208.995C737.389 209.295 734.2 209.245 730.99 209.105C728.22 208.985 725.44 209.105 722.66 209.195C721.95 209.215 721.26 209.545 720.39 209.785C720.05 212.315 720.189 214.755 720.339 217.185C720.479 219.595 720.08 222.045 720.64 224.395C723.37 224.615 744.889 223.546 747.329 223.096C748.019 219.906 748.299 212.095 747.799 208.955H747.809ZM560.289 194.025C561.079 193.925 561.519 193.965 561.859 193.795C563.159 193.175 564.27 192.215 564.76 190.905C566.28 186.825 567.309 182.695 564.419 178.695C563.919 178.005 563.59 177.195 563.18 176.455C561.94 174.235 560.18 172.565 557.87 171.515C555.04 170.235 552.169 169.085 549.079 168.565C546.869 168.195 544.699 167.605 542.499 167.155C540.639 166.765 538.76 166.435 536.63 166.025C536.54 168.795 536.46 171.315 536.38 173.735C538.63 174.505 540.65 175.155 542.65 175.895C547.56 177.725 549.739 181.485 549.989 186.525C550.089 188.525 549.709 190.365 547.829 191.565C547.609 191.705 547.54 192.085 547.41 192.335C547.62 192.515 547.769 192.715 547.939 192.745C548.249 192.805 548.62 192.855 548.88 192.745C552.21 191.255 555.049 189.295 555.789 185.365C555.949 184.545 556.229 183.735 556.549 182.955C556.639 182.735 557.109 182.485 557.319 182.545C557.679 182.645 558.03 182.945 558.26 183.245C558.43 183.475 558.45 183.866 558.43 184.176C558.3 186.916 557.649 189.465 555.709 191.535C555.069 192.225 554.409 192.895 553.739 193.605C554.609 194.215 555.299 193.956 555.979 193.596C558.859 192.036 560.729 189.676 561.579 186.506C561.769 185.796 561.95 185.066 562.22 184.386C562.32 184.146 562.75 183.855 562.95 183.905C563.31 183.995 563.799 184.255 563.899 184.565C564.099 185.145 564.249 185.855 564.109 186.435C563.809 187.675 563.439 188.926 562.879 190.056C562.259 191.286 561.389 192.385 560.309 194.015L560.289 194.025ZM747.099 186.966C747.169 186.826 747.269 186.736 747.269 186.636C747.309 182.686 747.369 178.735 747.359 174.785C747.359 173.855 746.669 173.535 745.479 173.625C740.679 173.995 735.879 174.385 731.079 174.655C729.709 174.735 728.32 174.475 726.95 174.285C725.04 174.015 723.149 173.985 721.189 174.355C720.989 175.955 720.589 177.385 721.599 178.775C722.169 179.545 722.109 180.536 721.349 181.096C720.189 181.936 720.279 183.125 720.129 184.265C719.959 185.495 719.669 186.755 720.129 188.105C729.259 188.335 738.199 187.875 747.099 186.975V186.966ZM443.41 171.056C443.48 172.206 443.549 173.135 443.599 174.075C443.769 177.595 443.93 181.125 444.12 184.645C444.17 185.575 443.99 186.596 445.15 187.466C445.98 187.466 447.039 187.395 448.099 187.485C449.589 187.605 451.089 187.695 452.539 188.035C456.759 189.035 460.999 189.215 465.289 188.685C466.349 188.555 467.419 188.335 468.479 188.355C473.929 188.455 479.379 187.806 484.839 188.386C486.299 188.546 487.759 188.475 489.219 188.085C489.139 187.865 489.129 187.696 489.069 187.676C483.389 186.156 477.739 184.555 472.029 183.155C467.149 181.955 462.219 180.965 457.769 178.485C457.119 178.125 456.429 177.815 455.719 177.565C452.989 176.565 450.469 175.215 448.099 173.515C446.749 172.555 445.359 171.505 443.429 171.065L443.41 171.056ZM358.699 347.485C359.879 346.865 360.359 345.626 360.989 344.556C365.449 336.976 369.009 328.996 371.719 320.636C372.089 319.506 372.349 318.365 373.419 317.655C374.139 317.175 374.299 316.416 374.209 315.676C373.849 312.836 373.999 309.936 373.229 307.096C371.879 306.916 370.62 306.665 369.36 306.585C367.04 306.425 364.959 307.715 364.019 309.875C362.789 312.725 361.6 315.585 361.63 318.785C361.63 319.515 361.369 320.255 361.259 320.995C360.769 324.165 360.08 327.316 359.87 330.506C359.68 333.396 359.299 336.235 358.759 339.065C358.379 341.055 358.149 343.076 357.919 345.096C357.819 345.936 357.799 346.825 358.699 347.495V347.485ZM751.53 219.256C752.35 219.256 752.99 219.306 753.62 219.256C759.99 218.676 766.359 218.085 772.729 217.485C772.829 217.485 772.939 217.425 773.019 217.365C773.099 217.305 773.16 217.205 773.22 217.115C773.81 213.365 773.889 206.985 773.379 204.475C770.579 203.515 767.719 203.516 764.839 203.886C760.919 204.386 756.98 204.675 753.03 204.415C752.52 204.385 752.009 204.455 751.669 204.475C751.439 204.745 751.319 204.815 751.319 204.895C751.289 209.265 751.27 213.625 751.26 217.995C751.26 218.295 751.389 218.595 751.539 219.265L751.53 219.256ZM614.569 232.815C614.679 231.795 614.829 230.975 614.859 230.145C614.889 228.965 614.319 228.205 613.229 227.655C611.709 226.895 610.239 226.006 608.829 225.056C606.549 223.516 604.969 221.375 604.059 218.785C602.779 215.155 601.469 211.535 600.359 207.865C599.169 203.945 597.17 200.426 595.28 196.846C593.76 193.946 591.289 192.195 588.129 191.335C584.939 190.465 581.78 189.485 578.6 188.565C577.46 188.235 576.28 188.675 575.85 189.565C575.28 190.755 575.749 192.356 576.899 192.886C577.469 193.146 578.11 193.285 578.74 193.395C581.38 193.875 583.869 194.815 586.399 195.695C588.909 196.575 590.489 198.275 591.559 200.625C593.249 204.315 595.03 207.965 596.7 211.665C597.88 214.285 599.039 216.905 599.879 219.695C601.119 223.835 603.579 227.375 606.459 230.575C607.719 231.985 609.39 232.705 611.28 232.825C612.23 232.885 613.189 232.835 614.589 232.835L614.569 232.815ZM751.7 235.085C752.31 235.135 752.729 235.215 753.149 235.205C759.359 234.915 765.56 234.615 771.76 234.295C772.15 234.275 772.52 233.995 773.01 233.795C773.07 232.355 773.14 230.975 773.2 229.585C773.25 228.305 773.329 227.015 773.349 225.735C773.369 224.385 773.75 222.986 772.91 221.596C769.34 221.516 765.839 221.795 762.319 221.995C758.709 222.205 755.08 222.045 751.53 222.045C750.14 225.975 750.809 229.406 751.709 235.096L751.7 235.085ZM741.209 336.605C742.899 333.355 744 327.645 743.68 324.315C736.47 321.505 725.019 318.705 721.499 318.895C722.599 323.305 727.599 333.895 729.999 336.915C733.709 337.045 737.34 335.495 741.2 336.615L741.209 336.605ZM751.569 202.105C752.549 202.165 753.599 202.335 754.629 202.275C758.039 202.075 761.459 201.875 764.849 201.515C767.209 201.265 769.52 201.125 771.87 201.605C772.56 201.745 773.299 201.625 774.129 201.625C774.549 198.855 774.619 196.245 774.189 193.565C772.909 193.285 771.779 192.865 770.629 192.825C767.639 192.695 764.65 192.645 761.66 192.725C759.19 192.795 756.749 192.845 754.319 192.325C753.409 192.135 752.459 191.935 751.579 192.325C751.069 195.305 751.049 199.615 751.559 202.105H751.569ZM747.299 227.756C746.499 227.616 745.99 227.455 745.47 227.435C743.01 227.365 740.549 227.235 738.099 227.295C732.429 227.425 726.769 227.646 721.109 227.176C720.939 227.166 720.749 227.345 720.569 227.445C720.359 229.065 720.38 229.065 720.95 230.625C729.38 232.075 737.9 233.535 746.43 234.985C746.81 235.045 747.22 234.885 747.72 234.815C748.15 232.435 747.469 230.265 747.299 227.765V227.756ZM710.97 317.225C712.89 321.675 714.639 325.565 716.859 329.235C719.099 332.935 720.29 337.195 722.76 340.955C723.99 339.975 725.399 339.606 726.229 338.346C725.239 336.016 724.309 333.745 723.299 331.515C722.639 330.055 721.919 328.615 721.129 327.225C719.719 324.715 718.249 322.246 716.589 319.386C715.049 319.126 713.529 317.595 710.979 317.245L710.97 317.225ZM572.43 191.975C572.67 190.665 573.079 189.435 573.089 188.195C573.099 186.735 573.709 185.595 574.519 184.565C572.359 182.285 570.98 181.645 568.66 181.825C568.86 185.315 568.319 188.735 567.309 192.205C569.179 192.675 570.8 192.665 572.43 191.975ZM547.319 189.195C548.559 186.695 548.449 183.555 547.029 181.585C546.739 181.185 546.249 180.785 545.789 180.695C542.909 180.135 541.249 181.045 540.959 183.745C540.929 184.065 540.86 184.375 540.86 184.695C540.82 186.615 541.599 187.675 543.439 188.195C544.659 188.535 545.899 188.835 547.329 189.205L547.319 189.195ZM744.599 337.185C746.119 337.645 747.399 338.175 749.019 337.705C749.679 334.775 750.559 331.866 751.069 328.676C749.309 328.636 747.9 327.805 746.2 327.685C745.6 330.605 745.029 333.305 744.499 336.015C744.439 336.305 744.549 336.636 744.599 337.176V337.185ZM768.45 237.745C769.53 238.445 770.64 238.936 771.89 238.926C772.12 238.926 772.5 238.656 772.53 238.466C772.57 238.256 772.289 237.785 772.129 237.775C770.899 237.715 769.68 237.745 768.45 237.745ZM498.219 188.525C496.809 188.065 495.37 187.946 493.41 188.556C495.35 189.036 496.759 189.085 498.219 188.525Z" fill="black" stroke="black" stroke-width="0.41" stroke-miterlimit="10"/>
<path d="M495.67 85.4258C496.75 86.0158 497.19 86.8658 497.56 87.6758C500.27 93.7858 500.46 99.8356 496.95 105.726C496.41 106.626 495.67 107.415 494.95 108.195C494.68 108.485 494.24 108.655 493.85 108.775C493.01 109.045 492.07 108.125 492.35 107.285C492.51 106.795 492.77 106.305 493.11 105.915C495.16 103.595 496.21 100.855 496.59 97.835C496.8 96.145 497.05 94.4559 497.12 92.7559C497.21 90.6159 496.96 88.5057 495.91 86.5557C495.77 86.3057 495.79 85.975 495.68 85.415L495.67 85.4258Z" fill="black" stroke="black" stroke-width="0.41" stroke-miterlimit="10"/>
<path d="M527.5 85.4258C528.58 86.0158 529.02 86.8658 529.39 87.6758C532.1 93.7858 532.29 99.8356 528.78 105.726C528.24 106.626 527.5 107.415 526.78 108.195C526.51 108.485 526.07 108.655 525.68 108.775C524.84 109.045 523.9 108.125 524.18 107.285C524.34 106.795 524.6 106.305 524.94 105.915C526.99 103.595 528.04 100.855 528.42 97.835C528.63 96.145 528.88 94.4559 528.95 92.7559C529.04 90.6159 528.79 88.5057 527.74 86.5557C527.6 86.3057 527.62 85.975 527.51 85.415L527.5 85.4258Z" fill="black" stroke="black" stroke-width="0.41" stroke-miterlimit="10"/>
<path d="M737.959 373.975C735.899 374.055 733.76 373.395 731.75 372.345C729.36 371.105 727.689 369.115 726.979 366.555C725.779 362.225 726.38 358.075 728.79 354.235C730.09 352.165 731.88 350.635 734.14 349.815C735.92 349.175 737.6 348.185 739.64 348.255C747.41 348.495 752.54 355.325 750.53 362.975C749.79 365.795 748.379 368.345 746.549 370.605C744.699 372.895 741.82 373.995 737.95 373.965L737.959 373.975ZM729.28 360.455C729.47 361.825 729.579 363.215 729.859 364.565C730.269 366.565 731.52 368.055 733.26 369.015C735.14 370.055 737.189 370.685 739.359 370.805C741.809 370.945 743.76 370.005 745.06 367.915C745.85 366.655 746.56 365.325 747.22 363.985C748.49 361.415 748.34 358.795 747.28 356.215C746.13 353.415 744.07 351.745 741.01 351.445C739.52 351.295 738.019 351.275 736.549 351.035C735.369 350.835 734.409 351.205 733.569 351.875C730.849 354.065 729.16 356.785 729.27 360.435L729.28 360.455Z" fill="black" stroke="black" stroke-width="0.41" stroke-miterlimit="10"/>
<path d="M509.59 28.7354C509.55 29.5454 508.959 30.1355 508.189 30.1455C507.329 30.1455 506.689 29.3855 506.769 28.4355C506.839 27.6455 507.479 26.9854 508.169 26.9854C508.989 26.9854 509.64 27.7954 509.59 28.7354Z" fill="black" stroke="black" stroke-width="0.41" stroke-miterlimit="10"/>
<path d="M737.64 361.975C736.54 362.005 735.53 361.105 735.52 360.065C735.5 358.645 736.96 357.235 738.42 357.275C739.5 357.305 740.39 358.265 740.35 359.375C740.3 360.755 739.08 361.925 737.65 361.975H737.64Z" fill="black" stroke="black" stroke-width="0.41" stroke-miterlimit="10"/>
<path d="M657.44 270.545C657.24 270.275 656.699 269.725 655.819 268.915C655.339 268.475 654.39 267.625 652.97 266.355C652.93 266.325 652.89 266.286 652.85 266.256C651.19 264.756 650.009 263.676 649.319 263.006C649.069 262.746 648.86 262.505 648.69 262.285C648.57 264.025 648.59 265.335 648.76 266.235C648.83 266.735 648.73 267.195 648.44 267.615C648.16 268.045 647.77 268.305 647.28 268.405C646.79 268.505 646.34 268.405 645.93 268.125C645.52 267.845 645.28 267.465 645.2 266.985C644.99 265.775 644.949 264.105 645.089 261.985C645.229 259.865 645.5 257.686 645.92 255.466C646.36 253.046 646.9 250.975 647.54 249.265C648.37 247.085 649.32 245.595 650.41 244.795C652.14 243.515 653.98 242.955 655.93 243.135C658.02 243.345 659.75 244.385 661.12 246.245C662.42 248.015 662.59 249.905 661.63 251.925C660.99 253.285 659.75 254.715 657.92 256.205C657.04 256.935 655.88 257.786 654.43 258.756L652.26 260.175C652.17 260.255 652.06 260.325 651.94 260.405C652.57 261.035 653.689 262.046 655.299 263.466C655.339 263.496 655.38 263.535 655.42 263.565C656.86 264.865 657.82 265.745 658.29 266.205C659.31 267.125 659.98 267.815 660.31 268.265C660.6 268.665 660.72 269.115 660.65 269.615C660.58 270.115 660.35 270.525 659.95 270.835C659.55 271.145 659.109 271.275 658.609 271.225C658.119 271.175 657.73 270.945 657.43 270.555L657.44 270.545ZM649.13 257.966C649.46 257.736 649.87 257.455 650.38 257.125C651.48 256.395 652.19 255.925 652.52 255.695C653.86 254.795 654.93 254.025 655.73 253.385C657.13 252.255 658.02 251.265 658.4 250.415C658.72 249.735 658.66 249.085 658.23 248.485C657.48 247.455 656.57 246.895 655.48 246.815C654.47 246.705 653.47 247.015 652.48 247.735C651.99 248.105 651.47 249.025 650.92 250.515C650.34 252.015 649.84 253.865 649.43 256.065C649.32 256.675 649.23 257.306 649.13 257.966Z" fill="black" stroke="black" stroke-width="0.41" stroke-miterlimit="10"/>
<path d="M669.569 266.396C669.549 266.866 669.55 267.335 669.58 267.795C669.63 269.065 670.11 269.966 671.04 270.486C672.1 271.066 673.45 271.025 675.09 270.375C675.56 270.185 676.01 270.185 676.46 270.375C676.9 270.565 677.21 270.896 677.39 271.366C677.57 271.836 677.55 272.306 677.34 272.776C677.13 273.246 676.8 273.576 676.33 273.766C673.64 274.846 671.28 274.836 669.25 273.736C668.24 273.166 667.44 272.396 666.87 271.406C666.3 270.416 666 269.286 665.98 268.016C665.86 264.606 666.47 261.586 667.81 258.946C668.57 257.436 669.51 256.296 670.64 255.526C671.99 254.586 673.48 254.246 675.1 254.526C677.1 254.896 678.68 256.026 679.85 257.906C680.94 259.696 681.27 261.516 680.83 263.356C680.58 264.436 680.08 265.335 679.33 266.045C678.58 266.765 677.63 267.246 676.49 267.486C674.6 267.846 672.289 267.486 669.569 266.396V266.396ZM670.19 262.646C672.64 263.746 674.54 264.156 675.9 263.866C676.7 263.726 677.17 263.306 677.33 262.616C677.52 261.756 677.33 260.856 676.76 259.906C676.15 258.906 675.37 258.316 674.4 258.146C673.71 258.036 673.12 258.156 672.61 258.516C672.01 258.926 671.47 259.606 670.98 260.556C670.68 261.166 670.41 261.866 670.19 262.646V262.646Z" fill="black" stroke="black" stroke-width="0.41" stroke-miterlimit="10"/>
<path d="M690.76 255.096C689.87 257.156 689.059 260.675 688.329 265.645C688.319 265.895 688.289 266.146 688.249 266.386C688.939 266.496 689.589 266.615 690.229 266.735C690.719 266.825 691.109 267.075 691.389 267.475C691.669 267.885 691.749 268.336 691.649 268.846C691.549 269.356 691.279 269.745 690.869 270.045C690.449 270.335 690.009 270.445 689.539 270.355C688.979 270.245 688.399 270.135 687.809 270.025C687.559 272.265 687.399 274.125 687.339 275.625C687.309 276.125 687.12 276.555 686.76 276.905C686.4 277.265 685.969 277.435 685.459 277.435C684.959 277.435 684.54 277.245 684.22 276.875C683.89 276.505 683.73 276.075 683.74 275.575C683.81 273.925 683.99 271.885 684.26 269.455C683.95 269.405 683.659 269.365 683.369 269.325C682.869 269.255 682.479 269.025 682.199 268.615C681.919 268.205 681.819 267.756 681.899 267.256C681.979 266.756 682.219 266.355 682.629 266.045C683.039 265.735 683.49 265.626 683.99 265.716C684.23 265.746 684.469 265.775 684.709 265.805C684.729 265.605 684.759 265.416 684.789 265.216C685.549 259.896 686.45 256.045 687.47 253.665C687.66 253.205 687.989 252.875 688.459 252.685C688.929 252.495 689.389 252.485 689.849 252.665C690.309 252.845 690.619 253.175 690.799 253.645C690.979 254.115 690.959 254.595 690.769 255.075L690.76 255.096Z" fill="black" stroke="black" stroke-width="0.41" stroke-miterlimit="10"/>
<path d="M701.35 263.516C700.84 264.756 700.4 265.996 700.04 267.216C699.54 268.886 699.22 270.386 699.08 271.716C698.91 273.236 698.989 274.465 699.319 275.405C699.609 276.285 700.15 276.865 700.94 277.145C701.32 277.315 701.65 277.325 701.93 277.185C702.26 277.035 702.62 276.715 702.99 276.225C703.78 275.145 704.57 273.365 705.35 270.875C705.61 270.055 705.98 268.795 706.46 267.085C706.87 265.565 707.17 264.515 707.37 263.935C707.54 263.445 707.86 263.085 708.31 262.855C708.76 262.625 709.22 262.585 709.69 262.745C710.15 262.905 710.49 263.215 710.71 263.665C710.93 264.115 710.95 264.595 710.77 265.085C710.59 265.595 710.309 266.565 709.919 267.985C709.419 269.735 709.04 271.035 708.78 271.875C707.87 274.785 706.88 276.955 705.83 278.375C705.05 279.425 704.17 280.156 703.21 280.556C702.05 281.066 700.839 281.075 699.589 280.575C697.789 279.905 696.57 278.605 695.93 276.685C695.44 275.235 695.3 273.475 695.5 271.405C695.67 269.855 696.039 268.136 696.589 266.256C697.009 264.896 697.499 263.536 698.069 262.176C698.259 261.716 698.59 261.386 699.04 261.176C699.5 260.966 699.959 260.956 700.419 261.136C700.879 261.316 701.19 261.645 701.37 262.115C701.55 262.585 701.54 263.056 701.35 263.506V263.516Z" fill="black" stroke="black" stroke-width="0.41" stroke-miterlimit="10"/>
<path d="M719.839 269.735C719.559 269.395 719.299 269.145 719.069 268.985C718.979 268.935 718.919 268.895 718.879 268.865C718.859 268.865 718.839 268.865 718.819 268.865C718.799 268.865 718.79 268.875 718.76 268.865C718.67 268.915 718.549 269.025 718.379 269.195C717.609 270.095 716.85 271.906 716.12 274.606C715.71 276.126 715.339 277.875 714.999 279.865C714.929 280.225 714.86 280.626 714.77 281.056C714.77 281.136 714.769 281.286 714.729 281.516C714.689 281.746 714.679 281.876 714.669 281.896C714.569 282.376 714.319 282.775 713.919 283.085C713.519 283.395 713.079 283.515 712.589 283.455C712.099 283.395 711.709 283.166 711.419 282.766C711.129 282.366 711.02 281.915 711.1 281.405L711.16 281.035C711.19 280.815 711.22 280.655 711.24 280.565C711.3 280.125 711.37 279.705 711.45 279.295C711.81 277.215 712.209 275.346 712.649 273.716C713.529 270.446 714.56 268.135 715.74 266.795C716.75 265.645 717.87 265.115 719.1 265.195C720.34 265.255 721.51 265.966 722.62 267.306C722.94 267.686 723.08 268.125 723.02 268.625C722.97 269.125 722.75 269.545 722.37 269.875C721.99 270.205 721.55 270.355 721.06 270.325C720.56 270.295 720.15 270.096 719.83 269.716L719.839 269.735Z" fill="black" stroke="black" stroke-width="0.41" stroke-miterlimit="10"/>
<path d="M723.169 284.476C723.349 283.186 723.639 281.746 724.039 280.176C724.589 278.006 725.219 276.105 725.939 274.455C726.899 272.205 728 270.546 729.24 269.476C731.04 267.906 732.97 267.545 735.01 268.405C736.05 268.855 736.89 269.565 737.53 270.545C738.06 271.355 738.439 272.326 738.669 273.466C739.009 275.206 739 277.376 738.64 279.966C738.49 281.046 738.29 282.225 738.03 283.525C737.9 284.145 737.669 285.115 737.359 286.435C737.269 286.795 737.209 287.066 737.189 287.266C737.059 287.766 736.789 288.155 736.379 288.435C735.959 288.715 735.51 288.816 735.03 288.726C734.55 288.636 734.169 288.375 733.899 287.945C733.629 287.515 733.56 287.056 733.68 286.556C733.7 286.356 733.769 286.075 733.859 285.685C734.159 284.395 734.38 283.446 734.51 282.846C734.77 281.646 734.959 280.555 735.079 279.575C735.369 277.375 735.389 275.615 735.129 274.295C734.879 272.975 734.349 272.146 733.549 271.806C732.859 271.516 732.19 271.655 731.53 272.205C730.74 272.905 729.969 274.125 729.229 275.865C728.589 277.305 728.019 279.015 727.519 280.985C727.149 282.435 726.879 283.736 726.709 284.886C726.629 285.376 726.4 285.776 725.99 286.096C725.59 286.416 725.139 286.545 724.649 286.485C724.159 286.425 723.769 286.195 723.479 285.795C723.189 285.395 723.079 284.956 723.149 284.476H723.169Z" fill="black" stroke="black" stroke-width="0.41" stroke-miterlimit="10"/>
<path d="M752.43 278.435C752.23 277.685 751.959 277.105 751.619 276.695C751.379 276.365 751.119 276.135 750.829 276.015C750.269 275.805 749.619 275.895 748.879 276.275C748.109 276.695 747.549 277.285 747.209 278.045C746.939 278.635 746.94 279.155 747.22 279.595C747.24 279.625 747.269 279.645 747.309 279.655C747.389 279.725 747.51 279.815 747.68 279.935C747.98 280.105 748.49 280.335 749.2 280.635C749.22 280.635 749.319 280.686 749.479 280.756C749.639 280.836 749.749 280.875 749.799 280.885C750.039 280.995 750.25 281.095 750.43 281.185C751.29 281.565 751.999 281.935 752.549 282.285C753.379 282.805 754.009 283.385 754.439 284.015C755.689 285.775 755.559 287.785 754.049 290.055C753.179 291.365 751.939 292.145 750.349 292.405C749.109 292.615 747.81 292.485 746.43 292.015C745.19 291.575 744.1 290.955 743.18 290.155C742.08 289.165 741.469 288.116 741.359 287.006C741.319 286.496 741.46 286.035 741.78 285.645C742.1 285.255 742.51 285.026 743.01 284.966C743.51 284.906 743.939 285.025 744.319 285.325C744.699 285.625 744.91 286.035 744.95 286.555H744.99C745 286.615 745.029 286.685 745.079 286.775C745.179 286.955 745.359 287.145 745.599 287.355C746.179 287.875 746.869 288.255 747.669 288.525C748.509 288.825 749.239 288.915 749.879 288.815C750.419 288.715 750.829 288.455 751.109 288.045C751.469 287.495 751.67 287.065 751.7 286.745C751.7 286.545 751.639 286.365 751.499 286.205C751.179 285.725 750.32 285.175 748.93 284.545C748.76 284.455 748.559 284.365 748.329 284.295C748.289 284.265 748.179 284.215 748.019 284.145C747.859 284.075 747.759 284.045 747.729 284.045C746.909 283.675 746.299 283.385 745.889 283.155C745.139 282.725 744.589 282.256 744.249 281.756C743.219 280.206 743.109 278.485 743.939 276.615C744.629 275.085 745.74 273.905 747.28 273.085C749.02 272.155 750.67 272.015 752.22 272.655C754.01 273.355 755.229 274.925 755.889 277.375C756.039 277.865 755.99 278.335 755.74 278.775C755.49 279.225 755.129 279.515 754.649 279.655C754.169 279.795 753.71 279.755 753.28 279.525C752.85 279.295 752.569 278.945 752.439 278.455L752.43 278.435Z" fill="black" stroke="black" stroke-width="0.41" stroke-miterlimit="10"/>
</g>
<defs>
<clipPath id="clip0_15_207">
<rect width="824" height="395" fill="white"/>
</clipPath>
</defs>
</svg>
